<svg width="375" height="372" viewBox="0 0 375 372" fill="none" xmlns="http://www.w3.org/2000/svg">
<path d="M374.999 135.033L238.637 0.00170898H204.547L374.999 168.791V135.033Z" fill="#FAF9F7" fill-opacity="0.6"/>
<path d="M375 67.5331L306.803 0.00170898H272.729L375 101.275V67.5331Z" fill="#FAF9F7" fill-opacity="0.6"/>
<path d="M374.981 0.00170898H340.906L374.965 33.7437L374.981 0.00170898Z" fill="#FAF9F7" fill-opacity="0.6"/>
<path d="M187.495 286.968L102.276 371.338H136.399H136.431L187.495 320.725L238.67 371.338H272.761L238.623 337.581L187.495 286.968Z" fill="#FAF9F7" fill-opacity="0.6"/>
<path d="M187.493 219.466L34.0938 371.336H68.1843L187.493 253.144L306.85 371.336H340.924L187.493 219.466Z" fill="#FAF9F7" fill-opacity="0.6"/>
<path d="M0.000976562 337.579V337.674V371.337L187.491 185.708L374.997 371.321V337.579L187.491 151.951L0.000976562 337.579Z" fill="#FAF9F7" fill-opacity="0.6"/>
<path d="M0.000976562 270.066V303.823L187.491 118.195L374.997 303.808V270.066L187.491 84.4373L0.000976562 270.066Z" fill="#FAF9F7" fill-opacity="0.6"/>
<path d="M187.491 16.8733L0.000976562 202.549V236.307L187.491 50.6627L374.997 236.307V202.549L187.491 16.8733Z" fill="#FAF9F7" fill-opacity="0.6"/>
<path d="M0 135.031L0 168.789L170.437 0L136.346 0L0 135.031Z" fill="#FAF9F7" fill-opacity="0.6"/>
<path d="M33.931 33.9158L0 67.5156L0 101.273L33.915 67.6736L68.0056 33.9158L102.272 0L68.181 0L33.931 33.9158Z" fill="#FAF9F7" fill-opacity="0.6"/>
<path d="M0 33.7578L16.814 16.6183L34.0905 0L0.0159498 0L0 0L0 33.7578Z" fill="#FAF9F7" fill-opacity="0.6"/>
<path d="M187.555 354.404L170.47 371.322L170.454 371.338H170.486H170.534H187.555H204.577L187.555 354.404Z" fill="#FAF9F7" fill-opacity="0.6"/>
</svg>
