<svg width="40" height="40" viewBox="0 0 40 40" fill="none" xmlns="http://www.w3.org/2000/svg">
<path d="M23.3335 11.6668V6.66683C23.3335 5.78277 22.9823 4.93493 22.3572 4.30981C21.7321 3.68469 20.8842 3.3335 20.0002 3.3335H6.66683C5.78277 3.3335 4.93493 3.68469 4.30981 4.30981C3.68469 4.93493 3.3335 5.78277 3.3335 6.66683V33.3335C3.3335 34.2176 3.68469 35.0654 4.30981 35.6905C4.93493 36.3156 5.78277 36.6668 6.66683 36.6668H20.0002C20.8842 36.6668 21.7321 36.3156 22.3572 35.6905C22.9823 35.0654 23.3335 34.2176 23.3335 33.3335V28.3335" stroke="black" stroke-width="2" stroke-linecap="round" stroke-linejoin="round"/>
<path d="M16.6665 20H36.6665" stroke="black" stroke-width="2" stroke-linecap="round" stroke-linejoin="round"/>
<path d="M30 13.3335L36.6667 20.0002L30 26.6668" stroke="black" stroke-width="2" stroke-linecap="round" stroke-linejoin="round"/>
</svg>
