<svg width="28" height="34" viewBox="0 0 28 34" fill="none" xmlns="http://www.w3.org/2000/svg">
<path d="M23.4179 0.0136225H3.79597C2.79347 0.0024684 1.83604 0.470939 1.1264 1.29634C0.416769 2.12174 0.011264 3.25946 0 4.44179V29.3935C0.011264 30.5758 0.405505 31.7024 1.1264 32.5389C1.83604 33.3643 2.79347 33.8328 3.79597 33.8216H23.4179C24.4204 33.8328 25.3778 33.3643 26.0875 32.5389C26.7971 31.7135 27.2026 30.5758 27.2139 29.3935V4.44179C27.2026 3.25946 26.7971 2.1329 26.0875 1.29634C25.3666 0.470939 24.4091 0.0136225 23.4179 0.0136225ZM13.7534 12.562V0.549018H19.9373V9.49459C19.9373 9.89614 19.8697 10.2977 19.7346 10.6769C19.5994 11.0562 19.4079 11.3908 19.1601 11.6808C18.9123 11.9708 18.6307 12.1939 18.304 12.35C17.9886 12.5062 17.6507 12.5843 17.3015 12.5731H13.7534V12.562ZM17.0199 12.9189V20.8383H10.3516V12.9189H17.0199ZM13.4605 0.549018V12.562H9.86728C9.52936 12.562 9.18017 12.4839 8.86478 12.3389C8.54939 12.1939 8.25652 11.9596 8.00871 11.6696C7.7609 11.3796 7.56942 11.045 7.43425 10.6658C7.29909 10.2865 7.2315 9.88498 7.2315 9.48344V0.537863H13.4605V0.549018ZM9.87854 12.9189H10.0362V20.8383H9.87854C9.14638 20.8383 8.42549 21.1618 7.88482 21.7529C7.34414 22.3441 7.00622 23.1583 6.9499 24.0284H0.450554V9.8069H6.9499C7.02875 10.6658 7.36667 11.4577 7.90734 12.0266C8.44801 12.6066 9.14638 12.93 9.87854 12.9189ZM7.24277 24.2737C7.24277 23.8722 7.31034 23.4707 7.44551 23.0914C7.58068 22.7122 7.77217 22.3776 8.01998 22.0875C8.26779 21.7975 8.54939 21.5745 8.87605 21.4183C9.2027 21.2621 9.52936 21.1841 9.87854 21.1952H13.4718V33.2862H7.26529L7.24277 24.2737ZM13.7421 33.2974V21.2064H17.3015C17.6395 21.2064 17.9886 21.2845 18.304 21.4295C18.6194 21.5856 18.9123 21.8087 19.1601 22.0987C19.4079 22.3887 19.5994 22.7233 19.7346 23.1026C19.8697 23.4818 19.9373 23.8834 19.9373 24.2849V33.3085H13.7421V33.2974ZM17.3353 20.8494V12.9189C18.0562 12.9189 18.7546 12.5954 19.2953 12.0154C19.8359 11.4466 20.1739 10.6546 20.2414 9.8069H26.7408V24.0284L20.2414 24.0841C20.1964 23.203 19.8697 22.3776 19.3291 21.7752C18.7884 21.1729 18.0788 20.8383 17.3353 20.8494ZM26.7521 4.45295V9.46113H20.2527V0.549018H23.3954C23.8347 0.537864 24.2627 0.63825 24.6682 0.82787C25.0737 1.01749 25.4454 1.3075 25.7495 1.66443C26.0649 2.02136 26.3127 2.45636 26.4817 2.93599C26.6507 3.41562 26.7408 3.91755 26.7408 4.44179L26.7521 4.45295ZM3.79597 0.549018H6.93863V9.44997H0.450554V4.44179C0.450554 3.92871 0.54067 3.41562 0.70963 2.93599C0.878591 2.45636 1.1264 2.03251 1.44179 1.66443C1.75719 1.29634 2.11763 1.01749 2.52314 0.82787C2.92864 0.63825 3.35667 0.537864 3.79597 0.549018ZM3.79597 33.2862C3.35667 33.2974 2.92864 33.197 2.52314 33.0074C2.11763 32.8178 1.75719 32.5278 1.44179 32.1708C1.1264 31.8139 0.878591 31.3789 0.70963 30.9104C0.54067 30.442 0.450554 29.9289 0.450554 29.4158V24.3964H6.93863V33.3085L3.79597 33.2862ZM23.4179 33.2862H20.2752V24.4411L26.7633 24.3853V29.3935C26.7633 29.9066 26.6732 30.4196 26.5042 30.8993C26.3353 31.3789 26.0875 31.8027 25.7833 32.1708C25.468 32.5389 25.1075 32.8178 24.702 33.0185C24.2852 33.197 23.8459 33.2974 23.4179 33.2862Z" fill="#817E7D"/>
</svg>
