<svg width="38" height="38" viewBox="0 0 38 38" fill="none" xmlns="http://www.w3.org/2000/svg">
<path d="M20.4617 4.42188V7.35957C26.2202 8.08303 30.6925 13.0084 30.6925 18.9642C30.6925 25.4096 25.4455 30.6565 19.0002 30.6565C12.5548 30.6565 7.30784 25.4096 7.30784 18.9642C7.30784 13.0157 11.7802 8.08303 17.5386 7.36687V4.42188C10.1652 5.15995 4.38477 11.4007 4.38477 18.9642C4.38477 27.0246 10.9398 33.5796 19.0002 33.5796C27.0605 33.5796 33.6155 27.0246 33.6155 18.9642C33.6155 11.4007 27.8352 5.15995 20.4617 4.42188Z" fill="#F90069"/>
<path d="M20.4621 20.4274V7.3612C19.9772 7.30243 19.4891 7.27315 19.0006 7.27351C18.5118 7.27169 18.0235 7.30343 17.5391 7.36851V20.4274H20.4621Z" fill="#F90069"/>
<path d="M20.4621 23.3867H17.5391V26.3098H20.4621V23.3867Z" fill="#F90069"/>
</svg>
