<svg width="100" height="100" viewBox="0 0 100 100" fill="none" xmlns="http://www.w3.org/2000/svg">
<g clip-path="url(#clip0_1984_37118)">
<circle cx="50" cy="50" r="50" fill="#E0DDDC"/>
<path fill-rule="evenodd" clip-rule="evenodd" d="M30.0018 26C27.7931 26 26 27.7897 26 29.9973V65.9732L39.9878 79H65.9991C68.2125 79 70 77.2067 70 74.9947V30.0053C70 27.7938 68.2083 26 65.9982 26H30.0018ZM34.0017 36C32.8962 36 32 35.1123 32 34C32 32.8954 32.8893 32 34.0017 32H61.9983C63.1038 32 64 32.8877 64 34C64 35.1046 63.1107 36 61.9983 36H34.0017ZM32 50C32 51.1123 32.8913 52 33.9908 52H50.0092C51.1018 52 52 51.1046 52 50C52 48.8877 51.1087 48 50.0092 48H33.9908C32.8982 48 32 48.8954 32 50ZM33.997 44C32.8941 44 32 43.1123 32 42C32 40.8954 32.895 40 33.997 40H56.003C57.1059 40 58 40.8877 58 42C58 43.1046 57.105 44 56.003 44H33.997Z" fill="white"/>
<path d="M26 66H36.0069C38.2122 66 40 67.7939 40 70.0065V79L26 66Z" fill="#A39996"/>
<path fill-rule="evenodd" clip-rule="evenodd" d="M81.3852 34.6556C79.1557 33.0358 76.0254 33.5263 74.4035 35.7586L73.2256 37.3798L81.3158 43.2577L82.4937 41.6364C84.1121 39.4089 83.6192 36.2787 81.3852 34.6556ZM80.1402 44.8757L72.0501 38.9978L56.7676 60.0323L57.2193 66.8225C57.2567 67.384 57.7223 67.715 58.2604 67.5789L64.8578 65.9101L80.1402 44.8757Z" fill="#A39996"/>
</g>
<defs>
<clipPath id="clip0_1984_37118">
<rect width="100" height="100" fill="white"/>
</clipPath>
</defs>
</svg>
