<svg width="93" height="21" viewBox="0 0 93 21" fill="none" xmlns="http://www.w3.org/2000/svg">
<path d="M0.948 6.432V15H2.052V11.208H6V10.212H2.052V7.404H6.264V6.432H0.948ZM11.3243 14.148V15H12.3323V10.968C12.3323 10.608 12.2843 10.272 12.2003 9.972C12.1163 9.684 11.9843 9.432 11.7923 9.228C11.6003 9.036 11.3483 8.88 11.0363 8.772C10.7243 8.664 10.3523 8.604 9.90825 8.604C9.17625 8.604 8.60025 8.736 8.18025 9C7.74825 9.264 7.48425 9.672 7.37625 10.236L8.32425 10.344C8.39625 10.056 8.54025 9.84 8.78025 9.672C9.00825 9.504 9.36825 9.42 9.87225 9.42C10.3763 9.42 10.7363 9.54 10.9643 9.768C11.1803 10.008 11.3003 10.38 11.3003 10.908V11.148L10.2323 11.184C9.82425 11.208 9.44025 11.244 9.06825 11.304C8.68425 11.376 8.34825 11.484 8.04825 11.628C7.74825 11.784 7.50825 11.988 7.32825 12.252C7.14825 12.516 7.06425 12.864 7.06425 13.284C7.06425 13.596 7.11225 13.872 7.22025 14.1C7.31625 14.34 7.46025 14.532 7.65225 14.688C7.84425 14.844 8.06025 14.964 8.32425 15.036C8.58825 15.108 8.87625 15.144 9.18825 15.144C9.69225 15.144 10.1243 15.048 10.4723 14.856C10.8083 14.664 11.0963 14.424 11.3243 14.148ZM11.3003 11.892V12.588C11.3003 13.116 11.1203 13.536 10.7843 13.836C10.4363 14.148 9.95625 14.292 9.34425 14.292C8.91225 14.292 8.60025 14.208 8.40825 14.016C8.21625 13.824 8.13225 13.572 8.13225 13.26C8.13225 13.056 8.15625 12.876 8.22825 12.708C8.30025 12.552 8.40825 12.42 8.57625 12.312C8.74425 12.204 8.96025 12.12 9.24825 12.048C9.52425 11.988 9.87225 11.952 10.3043 11.928L11.3003 11.892ZM14.5893 13.188H13.5813C13.6053 13.56 13.6893 13.872 13.8453 14.124C13.9893 14.388 14.1933 14.592 14.4453 14.748C14.6853 14.904 14.9733 15.012 15.2973 15.084C15.6213 15.156 15.9693 15.192 16.3533 15.192C16.7613 15.192 17.1333 15.156 17.4453 15.06C17.7573 14.964 18.0093 14.844 18.2253 14.676C18.4293 14.508 18.5853 14.316 18.6933 14.1C18.7893 13.884 18.8493 13.632 18.8493 13.368C18.8493 12.804 18.6813 12.372 18.3693 12.072C18.0573 11.784 17.5293 11.568 16.8093 11.448L15.9093 11.304C15.6693 11.268 15.4653 11.22 15.3213 11.16C15.1653 11.112 15.0453 11.04 14.9613 10.968C14.8653 10.896 14.8053 10.8 14.7813 10.704C14.7453 10.608 14.7333 10.488 14.7333 10.356C14.7333 10.236 14.7573 10.128 14.8053 10.02C14.8533 9.912 14.9253 9.816 15.0453 9.72C15.1653 9.636 15.3213 9.564 15.5133 9.516C15.7053 9.468 15.9453 9.432 16.2333 9.432C16.4853 9.432 16.7013 9.456 16.8693 9.504C17.0373 9.552 17.1933 9.612 17.3133 9.696C17.4333 9.78 17.5293 9.888 17.6013 10.008C17.6733 10.14 17.7333 10.284 17.7933 10.452L18.7413 10.296C18.6813 10.068 18.5973 9.852 18.5013 9.636C18.3933 9.432 18.2493 9.252 18.0573 9.096C17.8653 8.952 17.6133 8.832 17.3133 8.736C17.0133 8.652 16.6413 8.604 16.1973 8.604C15.8373 8.604 15.5133 8.652 15.2133 8.736C14.9133 8.82 14.6493 8.94 14.4333 9.096C14.2173 9.252 14.0373 9.444 13.9173 9.66C13.7973 9.888 13.7373 10.14 13.7373 10.428C13.7373 10.716 13.7733 10.968 13.8693 11.172C13.9653 11.376 14.0973 11.544 14.2893 11.688C14.4693 11.832 14.6973 11.94 14.9613 12.024C15.2253 12.12 15.5253 12.192 15.8853 12.24L16.6773 12.36C16.9053 12.408 17.0973 12.456 17.2413 12.516C17.3853 12.588 17.4933 12.66 17.5773 12.744C17.6493 12.828 17.7093 12.924 17.7333 13.032C17.7573 13.14 17.7813 13.248 17.7813 13.368C17.7813 13.668 17.6613 13.908 17.4453 14.088C17.2293 14.268 16.8573 14.352 16.3293 14.352C15.8253 14.352 15.4173 14.268 15.1293 14.1C14.8413 13.932 14.6613 13.62 14.5893 13.188ZM20.5468 9.624V12.984C20.5468 13.296 20.5588 13.584 20.6068 13.848C20.6548 14.112 20.7388 14.34 20.8708 14.532C20.9908 14.724 21.1708 14.88 21.3868 14.976C21.6028 15.084 21.8788 15.132 22.2388 15.132C22.4908 15.132 22.7068 15.12 22.8988 15.084C23.0908 15.048 23.2588 15 23.4268 14.94L23.2468 14.136C23.1268 14.184 23.0068 14.208 22.8748 14.232C22.7428 14.256 22.5868 14.268 22.4188 14.268C22.1308 14.268 21.9268 14.184 21.7948 13.992C21.6508 13.812 21.5908 13.572 21.5908 13.26V9.624H23.2348V8.796H21.5908V7.104H20.5468V8.796H19.5868V9.624H20.5468ZM26.591 7.416V15H27.707V7.416H30.539V6.432H23.759V7.416H26.591ZM30.2532 8.796V15H31.2972V11.316C31.2972 11.052 31.3452 10.824 31.4412 10.62C31.5372 10.428 31.6812 10.248 31.8612 10.092C32.0292 9.936 32.2212 9.828 32.4252 9.756C32.6172 9.684 32.8212 9.648 33.0132 9.648C33.1092 9.648 33.1932 9.66 33.2772 9.672C33.3492 9.684 33.4332 9.696 33.5172 9.708L33.6492 8.736C33.4932 8.712 33.3132 8.688 33.0972 8.688C32.7372 8.688 32.4132 8.784 32.1012 8.964C31.7892 9.156 31.5132 9.42 31.2852 9.756V8.796H30.2532ZM38.4063 14.148V15H39.4143V10.968C39.4143 10.608 39.3663 10.272 39.2823 9.972C39.1983 9.684 39.0663 9.432 38.8743 9.228C38.6823 9.036 38.4303 8.88 38.1183 8.772C37.8063 8.664 37.4343 8.604 36.9903 8.604C36.2583 8.604 35.6823 8.736 35.2623 9C34.8303 9.264 34.5663 9.672 34.4583 10.236L35.4063 10.344C35.4783 10.056 35.6223 9.84 35.8623 9.672C36.0903 9.504 36.4503 9.42 36.9543 9.42C37.4583 9.42 37.8183 9.54 38.0463 9.768C38.2623 10.008 38.3823 10.38 38.3823 10.908V11.148L37.3143 11.184C36.9063 11.208 36.5223 11.244 36.1503 11.304C35.7663 11.376 35.4303 11.484 35.1303 11.628C34.8303 11.784 34.5903 11.988 34.4103 12.252C34.2303 12.516 34.1463 12.864 34.1463 13.284C34.1463 13.596 34.1943 13.872 34.3023 14.1C34.3983 14.34 34.5423 14.532 34.7343 14.688C34.9263 14.844 35.1423 14.964 35.4063 15.036C35.6703 15.108 35.9583 15.144 36.2703 15.144C36.7743 15.144 37.2063 15.048 37.5543 14.856C37.8903 14.664 38.1783 14.424 38.4063 14.148ZM38.3823 11.892V12.588C38.3823 13.116 38.2023 13.536 37.8663 13.836C37.5183 14.148 37.0383 14.292 36.4263 14.292C35.9943 14.292 35.6823 14.208 35.4903 14.016C35.2983 13.824 35.2143 13.572 35.2143 13.26C35.2143 13.056 35.2383 12.876 35.3103 12.708C35.3823 12.552 35.4903 12.42 35.6583 12.312C35.8263 12.204 36.0423 12.12 36.3303 12.048C36.6063 11.988 36.9543 11.952 37.3863 11.928L38.3823 11.892ZM46.3753 12.9H45.3193C45.2473 13.344 45.0793 13.692 44.8393 13.944C44.5993 14.208 44.2273 14.328 43.7233 14.328C43.3873 14.328 43.0993 14.268 42.8713 14.136C42.6313 14.016 42.4513 13.836 42.3073 13.62C42.1633 13.404 42.0553 13.14 41.9953 12.84C41.9233 12.552 41.8993 12.228 41.8993 11.892C41.8993 11.556 41.9233 11.244 41.9953 10.944C42.0673 10.656 42.1753 10.392 42.3193 10.176C42.4633 9.96 42.6553 9.78 42.8953 9.66C43.1233 9.54 43.3993 9.468 43.7353 9.468C43.9753 9.468 44.1793 9.504 44.3473 9.576C44.5153 9.648 44.6713 9.744 44.7913 9.864C44.9113 9.984 44.9953 10.128 45.0673 10.296C45.1393 10.464 45.1873 10.656 45.2353 10.848L46.2793 10.656C46.1593 10.02 45.9073 9.516 45.4993 9.156C45.0913 8.796 44.5153 8.604 43.7713 8.604C43.3033 8.604 42.8833 8.688 42.5233 8.844C42.1513 9.012 41.8393 9.228 41.5873 9.516C41.3233 9.804 41.1313 10.152 40.9993 10.56C40.8553 10.968 40.7953 11.424 40.7953 11.916C40.7953 12.42 40.8553 12.876 40.9753 13.284C41.0953 13.692 41.2873 14.028 41.5273 14.316C41.7673 14.604 42.0793 14.82 42.4393 14.964C42.7993 15.12 43.2193 15.192 43.6993 15.192C44.4913 15.192 45.1153 14.988 45.5593 14.58C45.9913 14.172 46.2673 13.62 46.3753 12.9ZM47.7024 6.432V15H48.7344V12.528L49.8984 11.484L51.9504 15H53.1384L50.6784 10.872L52.8984 8.796H51.6384L48.7344 11.424V6.432H47.7024ZM59.0782 13.26H58.0702C57.9742 13.596 57.8182 13.872 57.5782 14.064C57.3382 14.256 56.9542 14.352 56.4382 14.352C56.1262 14.352 55.8622 14.304 55.6342 14.184C55.3942 14.076 55.2022 13.92 55.0462 13.728C54.8902 13.536 54.7702 13.296 54.6862 13.032C54.6022 12.768 54.5662 12.468 54.5662 12.156H59.1742V11.628C59.1742 11.196 59.1142 10.788 59.0062 10.416C58.8982 10.056 58.7302 9.732 58.5142 9.468C58.2982 9.204 58.0102 8.988 57.6742 8.832C57.3262 8.688 56.9182 8.604 56.4382 8.604C56.0062 8.604 55.6222 8.688 55.2622 8.832C54.9022 8.976 54.5902 9.192 54.3262 9.468C54.0622 9.756 53.8702 10.104 53.7262 10.512C53.5822 10.932 53.5102 11.412 53.5102 11.94C53.5102 12.972 53.7622 13.764 54.2662 14.34C54.7702 14.916 55.4902 15.192 56.4382 15.192C57.2302 15.192 57.8422 15.024 58.2742 14.676C58.7062 14.34 58.9702 13.86 59.0782 13.26ZM58.1302 11.376H54.5902C54.6382 10.74 54.8182 10.248 55.1302 9.912C55.4422 9.576 55.8742 9.408 56.4262 9.408C56.7262 9.408 56.9902 9.456 57.2062 9.552C57.4222 9.648 57.5902 9.792 57.7342 9.96C57.8662 10.128 57.9622 10.332 58.0342 10.572C58.0942 10.812 58.1302 11.088 58.1302 11.376ZM65.0699 14.112V15H66.0899V6.432H65.0459V9.552C64.7579 9.192 64.4459 8.94 64.1099 8.808C63.7739 8.676 63.4379 8.604 63.1139 8.604C62.6819 8.604 62.2859 8.688 61.9499 8.832C61.6139 8.988 61.3259 9.204 61.0859 9.492C60.8459 9.78 60.6659 10.14 60.5459 10.548C60.4139 10.956 60.3539 11.424 60.3539 11.928C60.3539 12.384 60.4019 12.816 60.5099 13.212C60.6059 13.62 60.7739 13.968 60.9899 14.256C61.2059 14.544 61.4699 14.772 61.8059 14.94C62.1419 15.108 62.5379 15.192 62.9939 15.192C63.4499 15.192 63.8459 15.108 64.1819 14.916C64.5179 14.724 64.8059 14.46 65.0699 14.112ZM65.0819 11.712V12.132C65.0819 12.576 65.0099 12.936 64.8899 13.224C64.7699 13.512 64.5899 13.752 64.3499 13.944C64.1579 14.088 63.9779 14.184 63.7979 14.232C63.6059 14.292 63.4019 14.316 63.1739 14.316C62.9579 14.316 62.7419 14.28 62.5379 14.196C62.3339 14.124 62.1539 13.992 61.9859 13.8C61.8179 13.62 61.6859 13.368 61.5899 13.056C61.4939 12.744 61.4459 12.36 61.4459 11.904C61.4459 11.472 61.4819 11.1 61.5779 10.788C61.6739 10.476 61.7939 10.224 61.9619 10.032C62.1299 9.84 62.3219 9.696 62.5379 9.6C62.7539 9.516 62.9939 9.468 63.2579 9.468C63.4739 9.468 63.6659 9.504 63.8459 9.552C64.0259 9.612 64.2059 9.708 64.3859 9.852C64.6259 10.044 64.8059 10.284 64.9139 10.56C65.0219 10.836 65.0819 11.22 65.0819 11.712Z" fill="#878D9C"/>
<path d="M77.2345 8.99885L81.6251 5.06432L81.133 8.99885H83.1513L84.2761 0L72 11.0012H80.8827L81.133 8.99885H77.2345Z" fill="#AFB3BD"/>
<path d="M92.0339 8.99902H83.1507L82.9004 11.0013H80.8826L79.7578 20.0002L92.0339 8.99902ZM82.9009 11.0013H86.7999L82.4094 14.9359L82.9009 11.0013Z" fill="#AFB3BD"/>
</svg>
