<svg width="124" height="124" viewBox="0 0 124 124" fill="none" xmlns="http://www.w3.org/2000/svg">
<path d="M68.1532 0.615234V12.9845C92.3994 16.0306 111.23 36.7691 111.23 61.846C111.23 88.9845 89.1379 111.077 61.9994 111.077C34.8609 111.077 12.7686 88.9845 12.7686 61.846C12.7686 36.7998 31.5994 16.0306 55.8456 13.0152V0.615234C24.7994 3.72293 0.460938 29.9998 0.460938 61.846C0.460938 95.7845 28.0609 123.384 61.9994 123.384C95.9379 123.384 123.538 95.7845 123.538 61.846C123.538 29.9998 99.1994 3.72293 68.1532 0.615234Z" fill="#5500F9"/>
<path d="M68.1534 68.0002V12.9848C66.1115 12.7373 64.0564 12.614 61.9996 12.6155C59.9415 12.6079 57.8854 12.7415 55.8457 13.0155V68.0002H68.1534Z" fill="#5500F9"/>
<path d="M68.1534 80.4609H55.8457V92.7686H68.1534V80.4609Z" fill="#5500F9"/>
</svg>
