<svg width="58" height="40" viewBox="0 0 58 40" fill="none" xmlns="http://www.w3.org/2000/svg">
<path d="M8.78365 12.3095V9.23257C8.78585 8.82517 8.96283 8.43503 9.27612 8.14695C9.5894 7.85887 10.0137 7.69613 10.4567 7.69411H47.2644C47.7075 7.69613 48.1317 7.85887 48.445 8.14695C48.7583 8.43503 48.9353 8.82517 48.9375 9.23257V12.3095H52.2837V9.23257C52.2837 8.0085 51.7548 6.83455 50.8136 5.969C49.8723 5.10345 48.5956 4.61719 47.2644 4.61719H10.4567C9.12555 4.61719 7.84889 5.10345 6.9076 5.969C5.96631 6.83455 5.4375 8.0085 5.4375 9.23257V30.771C5.4375 31.9951 5.96631 33.1691 6.9076 34.0346C7.84889 34.9002 9.12555 35.3864 10.4567 35.3864H47.2644C48.5956 35.3864 49.8723 34.9002 50.8136 34.0346C51.7548 33.1691 52.2837 31.9951 52.2837 30.771V15.3864H48.9375V30.771C48.9353 31.1784 48.7583 31.5686 48.445 31.8567C48.1317 32.1447 47.7075 32.3075 47.2644 32.3095H10.4567C10.0137 32.3075 9.5894 32.1447 9.27612 31.8567C8.96283 31.5686 8.78585 31.1784 8.78365 30.771V15.3864H48.9375V12.3095H8.78365Z" fill="#F7D7D0"/>
<path d="M22.1683 18.4629H12.1299V21.5398H22.1683V18.4629Z" fill="#0F1A38"/>
</svg>
