<svg width="107" height="107" viewBox="0 0 107 107" fill="none" xmlns="http://www.w3.org/2000/svg">
<path d="M78.1925 45.2693V86.4231H28.8079V53.5H69.9618V45.2693H37.0387V37.0385C37.0387 32.6726 38.773 28.4856 41.8602 25.3984C44.9473 22.3113 49.1344 20.577 53.5002 20.577C57.8661 20.577 62.0532 22.3113 65.1403 25.3984C68.2274 28.4856 69.9618 32.6726 69.9618 37.0385V45.2693H78.1925V37.0385C78.1925 30.4897 75.591 24.2091 70.9603 19.5784C66.3296 14.9477 60.049 12.3462 53.5002 12.3462C46.9514 12.3462 40.6708 14.9477 36.0401 19.5784C31.4094 24.2091 28.8079 30.4897 28.8079 37.0385V45.2693H20.5771V94.6539H86.4233V45.2693H78.1925Z" fill="#D7D9DE"/>
<path d="M53.5003 78.1925C58.046 78.1925 61.7311 74.5075 61.7311 69.9617C61.7311 65.416 58.046 61.731 53.5003 61.731C48.9546 61.731 45.2695 65.416 45.2695 69.9617C45.2695 74.5075 48.9546 78.1925 53.5003 78.1925Z" fill="#D7D9DE"/>
</svg>
