<svg width="311" height="56" viewBox="0 0 311 56" fill="none" xmlns="http://www.w3.org/2000/svg">
<g opacity="0.2" clip-path="url(#clip0)">
<path d="M211.258 235L360 85.8938L360 48.6445L174.087 235L211.258 235Z" fill="#878D9C"/>
<path d="M43.9141 29.9861L-49.0019 -63.1846L-49.0019 -25.8674L-49.0019 -25.8266L6.74228 29.9861L-49.0019 85.9484L-49.0019 123.211L-11.8301 85.894L43.9141 29.9861Z" fill="#878D9C"/>
<path d="M118.277 29.9854L-48.9959 -137.725L-48.9959 -100.462L81.1733 29.9854L-48.9959 160.487L-48.9959 197.75L118.277 29.9854Z" fill="#878D9C"/>
<path d="M-11.8162 -175L-11.9246 -175L-49.0016 -175L155.457 29.9864L-48.988 235L-11.8162 235L192.629 29.9864L-11.8162 -175Z" fill="#878D9C"/>
<path d="M62.5432 -175L25.3578 -175L229.816 29.9864L25.3714 235L62.5432 235L266.988 29.9864L62.5432 -175Z" fill="#878D9C"/>
<path d="M341.398 29.9864L136.899 -175L99.7273 -175L304.199 29.9864L99.7273 235L136.899 235L341.398 29.9864Z" fill="#878D9C"/>
<path d="M211.258 -175L174.087 -175L360 11.355L360 -25.9214L211.258 -175Z" fill="#878D9C"/>
</g>
<defs>
<clipPath id="clip0">
<rect width="409" height="410" fill="white" transform="matrix(1 0 0 -1 -49 235)"/>
</clipPath>
</defs>
</svg>
