<svg width="14" height="10" viewBox="0 0 14 10" fill="none" xmlns="http://www.w3.org/2000/svg">
<path d="M7.66887 9.61508C8.05121 9.61508 8.36117 9.30513 8.36117 8.92278C8.36117 8.54043 8.05121 8.23047 7.66887 8.23047C7.28652 8.23047 6.97656 8.54043 6.97656 8.92278C6.97656 9.30513 7.28652 9.61508 7.66887 9.61508Z" fill="#0F1A38"/>
<path d="M9.74505 9.61508C10.1274 9.61508 10.4374 9.30513 10.4374 8.92278C10.4374 8.54043 10.1274 8.23047 9.74505 8.23047C9.36269 8.23047 9.05273 8.54043 9.05273 8.92278C9.05273 9.30513 9.36269 9.61508 9.74505 9.61508Z" fill="#0F1A38"/>
<path d="M12.41 9.28308C12.6109 8.95778 12.5101 8.53119 12.1848 8.33027C11.8595 8.12936 11.4329 8.2302 11.232 8.55551C11.031 8.88082 11.1319 9.3074 11.4572 9.50832C11.7825 9.70923 12.2091 9.60839 12.41 9.28308Z" fill="#0F1A38"/>
<path d="M12.2792 5.00015C12.2795 5.69672 12.0827 6.37914 11.7115 6.96861L12.4915 7.46015C12.9569 6.72412 13.2034 5.87095 13.2023 5.00015C13.2046 2.45477 11.1323 0.384766 8.58923 0.384766H8.58692C7.73748 0.386135 6.90478 0.621081 6.1799 1.06391C5.45502 1.50673 4.86588 2.14038 4.47692 2.89554C4.35923 2.884 4.24154 2.87707 4.12154 2.87707H4.11923C2.26154 2.87707 0.750001 4.3863 0.750001 6.244C0.749388 7.13717 1.10346 7.99404 1.73438 8.62626C2.3653 9.25848 3.22144 9.61431 4.11462 9.61554H6.05308V8.69246H4.11692C3.79552 8.69276 3.47722 8.62961 3.18028 8.50661C2.88334 8.38362 2.6136 8.2032 2.38655 7.97572C2.1595 7.74824 1.97959 7.47816 1.85716 7.18099C1.73472 6.88382 1.67217 6.5654 1.67308 6.244C1.67308 4.8963 2.77154 3.80015 4.11923 3.80015H4.12846C4.02368 4.19152 3.97092 4.595 3.97154 5.00015H4.89462C4.89523 4.02108 5.28443 3.08228 5.97674 2.38997C6.66905 1.69766 7.60785 1.30845 8.58692 1.30784C10.6246 1.30784 12.2792 2.96477 12.2792 5.00015Z" fill="#0F1A38"/>
</svg>
