<svg width="22" height="22" viewBox="0 0 22 22" fill="none" xmlns="http://www.w3.org/2000/svg">
  <path fill-rule="evenodd" clip-rule="evenodd"
    d="M10.9897 18.4404C15.1046 18.4404 18.4404 15.1046 18.4404 10.9897C18.4404 6.87483 15.1046 3.53906 10.9897 3.53906C6.87483 3.53906 3.53906 6.87483 3.53906 10.9897C3.53906 15.1046 6.87483 18.4404 10.9897 18.4404ZM10.9897 19.4404C15.6569 19.4404 19.4404 15.6569 19.4404 10.9897C19.4404 6.32255 15.6569 2.53906 10.9897 2.53906C6.32255 2.53906 2.53906 6.32255 2.53906 10.9897C2.53906 15.6569 6.32255 19.4404 10.9897 19.4404ZM10.2891 9.40677H11.6891V15.5727H10.2891V9.40677ZM11.6891 6.40677H10.2891V7.80677H11.6891V6.40677Z"
    fill="#5F667A" />
</svg>
