<svg width="28" height="28" viewBox="0 0 28 28" fill="none" xmlns="http://www.w3.org/2000/svg">
<path d="M14.0063 3.23071H13.9955C9.30011 3.2361 5.48242 7.05379 5.48242 11.7546C5.48242 17.053 8.8155 21.1076 12.477 24.7692L14.0009 23.2453C10.544 19.7884 7.63627 16.2346 7.63627 11.7546C7.63627 8.24379 10.4901 5.38456 14.0009 5.38456C17.5117 5.38456 20.3655 8.24379 20.3655 11.7546C20.3655 16.2346 17.4578 19.7884 14.0009 23.2453L15.5247 24.7692C19.1863 21.1076 22.5193 17.053 22.5193 11.7546C22.5193 7.05379 18.7017 3.2361 14.0063 3.23071Z" fill="#878D9C"/>
<path d="M13.9952 7.53833C13.1432 7.53833 12.3104 7.79097 11.602 8.26431C10.8936 8.73764 10.3414 9.41041 10.0154 10.1975C9.68937 10.9847 9.60406 11.8508 9.77027 12.6864C9.93649 13.522 10.3468 14.2896 10.9492 14.892C11.5516 15.4945 12.3192 15.9047 13.1548 16.0709C13.9904 16.2371 14.8565 16.1518 15.6437 15.8258C16.4308 15.4998 17.1036 14.9476 17.5769 14.2392C18.0502 13.5308 18.3029 12.698 18.3029 11.846C18.3015 10.704 17.8472 9.60914 17.0396 8.8016C16.2321 7.99406 15.1372 7.53975 13.9952 7.53833V7.53833ZM13.9952 13.9999C13.5692 13.9999 13.1528 13.8735 12.7986 13.6369C12.4444 13.4002 12.1683 13.0638 12.0053 12.6703C11.8423 12.2767 11.7996 11.8436 11.8827 11.4258C11.9658 11.008 12.171 10.6242 12.4722 10.323C12.7734 10.0218 13.1572 9.81667 13.575 9.73356C13.9928 9.65045 14.4259 9.69311 14.8194 9.85613C15.213 10.0191 15.5494 10.2952 15.7861 10.6494C16.0227 11.0036 16.149 11.42 16.149 11.846C16.1476 12.4168 15.9202 12.9638 15.5166 13.3674C15.113 13.7711 14.566 13.9984 13.9952 13.9999V13.9999Z" fill="#878D9C"/>
</svg>
