<svg width="50" height="50" viewBox="0 0 50 50" fill="none" xmlns="http://www.w3.org/2000/svg">
    <path
        d="M27.4597 0.446045V5.39374C37.1582 6.6122 44.6905 14.9076 44.6905 24.9384C44.6905 35.7937 35.8536 44.6307 24.9982 44.6307C14.1428 44.6307 5.30589 35.7937 5.30589 24.9384C5.30589 14.9199 12.8382 6.6122 22.5367 5.40604V0.446045C10.1182 1.68912 0.382812 12.1999 0.382812 24.9384C0.382812 38.5137 11.4228 49.5537 24.9982 49.5537C38.5736 49.5537 49.6136 38.5137 49.6136 24.9384C49.6136 12.1999 39.8782 1.68912 27.4597 0.446045Z"
        fill="#5500F9" />
    <path
        d="M27.4582 27.3998V5.39367C26.6415 5.29468 25.8194 5.24536 24.9967 5.24598C24.1735 5.2429 23.351 5.29636 22.5352 5.40598V27.3998H27.4582Z"
        fill="#5500F9" />
    <path d="M27.4582 32.3845H22.5352V37.3076H27.4582V32.3845Z" fill="#5500F9" />
</svg>
