<svg width="40" height="40" viewBox="0 0 40 40" fill="none" xmlns="http://www.w3.org/2000/svg">
<path d="M34.5306 18.6236L6.83831 4.77745C6.60478 4.6591 6.34456 4.60326 6.08303 4.6154C5.8215 4.62753 5.56758 4.70722 5.346 4.84668C5.12286 4.98433 4.9386 5.17671 4.81071 5.40558C4.68281 5.63445 4.61552 5.8922 4.61523 6.15438V18.4621H7.69216V8.64668L27.3306 18.4621H7.69216V21.539H27.3306L7.69216 31.3544V21.539H4.61523V33.8467C4.61552 34.1089 4.68281 34.3666 4.81071 34.5955C4.9386 34.8243 5.12286 35.0167 5.346 35.1544C5.56812 35.2924 5.8219 35.3713 6.08314 35.3834C6.34438 35.3955 6.60437 35.3405 6.83831 35.2236L34.5306 21.3775C34.7866 21.2499 35.002 21.0534 35.1525 20.8102C35.3031 20.567 35.3828 20.2866 35.3828 20.0005C35.3828 19.7145 35.3031 19.4341 35.1525 19.1909C35.002 18.9476 34.7866 18.7512 34.5306 18.6236Z" fill="#F7D7D0"/>
</svg>
