<svg width="20" height="20" viewBox="0 0 20 20" fill="none" xmlns="http://www.w3.org/2000/svg">
<path d="M11.6665 5.83268V3.33268C11.6665 2.89065 11.4909 2.46673 11.1783 2.15417C10.8658 1.84161 10.4419 1.66602 9.99984 1.66602H3.33317C2.89114 1.66602 2.46722 1.84161 2.15466 2.15417C1.8421 2.46673 1.6665 2.89065 1.6665 3.33268V16.666C1.6665 17.108 1.8421 17.532 2.15466 17.8445C2.46722 18.1571 2.89114 18.3327 3.33317 18.3327H9.99984C10.4419 18.3327 10.8658 18.1571 11.1783 17.8445C11.4909 17.532 11.6665 17.108 11.6665 16.666V14.166" stroke="#B07A5C" stroke-width="1.5" stroke-linecap="round" stroke-linejoin="round"/>
<path d="M8.3335 10H18.3335" stroke="#B07A5C" stroke-width="1.5" stroke-linecap="round" stroke-linejoin="round"/>
<path d="M15 6.66602L18.3333 9.99935L15 13.3327" stroke="#B07A5C" stroke-width="1.5" stroke-linecap="round" stroke-linejoin="round"/>
</svg>
