<svg width="68" height="108" viewBox="0 0 68 108" fill="none" xmlns="http://www.w3.org/2000/svg">
<path d="M19.3846 0.153809H8.61539V21.6923H19.3846V0.153809Z" fill="#EFEEE8"/>
<path d="M67.8461 48.6152H46.3077V59.3845H67.8461V48.6152Z" fill="#EFEEE8"/>
<path d="M19.3846 86.3076H8.61539V107.846H19.3846V86.3076Z" fill="#EFEEE8"/>
<path d="M40.6271 73.0271L33.0121 80.6421L48.2421 95.8721L55.8571 88.2571L40.6271 73.0271Z" fill="#EFEEE8"/>
<path d="M48.2568 12.1411L33.0268 27.3711L40.6418 34.9861L55.8717 19.7561L48.2568 12.1411Z" fill="#EFEEE8"/>
<path d="M13.9998 32.4614C9.73995 32.4614 5.57571 33.7246 2.03373 36.0913C-1.50825 38.458 -4.26889 41.8218 -5.89908 45.7575C-7.52927 49.6931 -7.95581 54.0238 -7.12474 58.2018C-6.29367 62.3799 -4.24233 66.2176 -1.23013 69.2298C1.78208 72.2421 5.61986 74.2934 9.79791 75.1245C13.976 75.9555 18.3066 75.529 22.2423 73.8988C26.1779 72.2686 29.5417 69.508 31.9084 65.966C34.2751 62.424 35.5383 58.2598 35.5383 53.9999C35.5312 48.2897 33.2597 42.8155 29.222 38.7778C25.1843 34.7401 19.71 32.4686 13.9998 32.4614ZM13.9998 64.7691C11.8699 64.7691 9.78778 64.1375 8.01679 62.9541C6.2458 61.7708 4.86548 60.0889 4.05038 58.1211C3.23529 56.1533 3.02202 53.9879 3.43755 51.8989C3.85309 49.8099 4.87876 47.891 6.38486 46.3849C7.89096 44.8788 9.80985 43.8531 11.8989 43.4376C13.9879 43.022 16.1532 43.2353 18.1211 44.0504C20.0889 44.8655 21.7708 46.2458 22.9541 48.0168C24.1375 49.7878 24.7691 51.8699 24.7691 53.9999C24.7691 56.856 23.6345 59.5952 21.6148 61.6149C19.5952 63.6345 16.856 64.7691 13.9998 64.7691Z" fill="#EFEEE8"/>
</svg>
