<svg width="28" height="29" viewBox="0 0 28 29" fill="none" xmlns="http://www.w3.org/2000/svg">
  <path
    d="M20 11C20.0022 8.72947 19.2317 6.52579 17.8151 4.75135C16.3985 2.97692 14.4203 1.73738 12.2057 1.23658C9.99104 0.735784 7.67194 1.00355 5.62972 1.99583C3.5875 2.98812 1.94376 4.64585 0.968818 6.69641C-0.00612372 8.74696 -0.25422 11.0683 0.26533 13.2785C0.784879 15.4888 2.04114 17.4565 3.82752 18.858C5.6139 20.2595 7.82403 21.0113 10.0945 20.9899C12.3649 20.9684 14.5604 20.175 16.32 18.74L26.32 28.74L27.74 27.32L17.74 17.32C19.2033 15.5391 20.0022 13.305 20 11ZM10 19C8.41775 19 6.87104 18.5308 5.55544 17.6518C4.23985 16.7727 3.21447 15.5233 2.60897 14.0615C2.00347 12.5997 1.84504 10.9911 2.15372 9.43927C2.4624 7.88742 3.22433 6.46196 4.34315 5.34314C5.46197 4.22432 6.88743 3.46239 8.43928 3.15371C9.99113 2.84503 11.5997 3.00346 13.0615 3.60896C14.5233 4.21446 15.7727 5.23984 16.6518 6.55543C17.5308 7.87102 18 9.41774 18 11C18 13.1217 17.1572 15.1566 15.6569 16.6568C14.1566 18.1571 12.1217 19 10 19Z"
    fill="#0F1A38" />
</svg>
