<svg width="45" height="15" viewBox="0 0 45 15" fill="none" xmlns="http://www.w3.org/2000/svg">
<path d="M12.5499 0.269562L9.10779 9.7194L8.69632 7.68212L7.47773 1.49976C7.47773 1.49976 7.32738 0.261719 5.76062 0.261719H0.0633049L0 0.496792C0 0.496792 1.74084 0.857234 3.78238 2.06393L6.92382 14.0055H10.6904L16.4431 0.261719H12.5499V0.269562Z" fill="white" fill-opacity="0.6" style="mix-blend-mode:lighten"/>
<path d="M17.8431 0.27002L15.5879 14.0217H19.1962L21.4593 0.27002H17.8431Z" fill="white" fill-opacity="0.6" style="mix-blend-mode:lighten"/>
<path d="M26.6513 4.08624C26.6513 2.53477 30.1726 2.73066 31.7156 3.57692L32.2299 0.622854C32.2299 0.622854 30.6395 0.0273438 28.9777 0.0273438C27.1815 0.0273438 22.9244 0.803077 22.9244 4.57989C22.9244 8.12947 27.9253 8.17648 27.9253 10.0414C27.9253 11.9063 23.4387 11.5693 21.959 10.394L21.4209 13.4813C21.4209 13.4813 23.0351 14.257 25.4961 14.257C27.9649 14.257 31.684 12.9954 31.684 9.54773C31.6919 5.97464 26.6513 5.64554 26.6513 4.08624Z" fill="white" fill-opacity="0.6" style="mix-blend-mode:lighten"/>
<path d="M41.395 0.27002H38.4909C37.1457 0.27002 36.8213 1.29649 36.8213 1.29649L31.4326 14.0138H35.1992L35.9509 11.9687H40.5483L40.9677 14.0138H44.2832L41.395 0.27002ZM36.9954 9.1557L38.8945 4.01548L39.9627 9.1557H36.9954Z" fill="white" fill-opacity="0.6" style="mix-blend-mode:lighten"/>
</svg>
