<svg width="200" height="86" viewBox="0 0 200 86" fill="none" xmlns="http://www.w3.org/2000/svg">
<path fill-rule="evenodd" clip-rule="evenodd" d="M125.268 84.3738V14.552H140.012V84.3738H125.268Z" fill="url(#paint0_linear)" fill-opacity="0.5"/>
<path fill-rule="evenodd" clip-rule="evenodd" d="M-5 1.542L5.99744 70.304C7.60326 80.4232 17.2382 87.3621 27.4571 85.7237C35.4862 84.4709 41.7635 78.2066 43.0287 70.304L50.5225 23.7077C50.8631 21.5393 52.9555 20.0455 55.1453 20.3829C56.8484 20.672 58.211 21.973 58.5029 23.7077L65.9968 70.304C67.6026 80.4714 77.2375 87.3621 87.505 85.7719C95.5341 84.5191 101.811 78.303 103.077 70.3523L111.349 19.4191C111.787 16.6243 114.22 14.6005 117.042 14.6005H125.315V0L117.042 0C106.97 0 98.3565 7.22798 96.7993 17.1062L88.5269 68.0393C88.1863 70.2077 86.0939 71.7014 83.9041 71.3641C82.201 71.075 80.8384 69.774 80.5465 68.0393L73.0527 21.443C71.4468 11.3238 61.8119 4.38497 51.593 6.02331C43.5639 7.27615 37.2866 13.5404 36.0214 21.443L28.5276 68.0393C28.187 70.2077 26.0945 71.7014 23.9048 71.3641C22.2016 71.075 20.8391 69.774 20.5472 68.0393L9.93901 1.59016H-5V1.542Z" fill="url(#paint1_linear)" fill-opacity="0.5"/>
<path d="M185.011 85.8731C174.257 85.8731 165.498 81.9218 159.659 74.4529C154.695 68.1405 152.116 59.5152 152.116 49.5407C152.116 39.5661 154.744 30.989 159.659 24.6284C165.498 17.1595 174.257 13.2083 185.011 13.2083C195.765 13.2083 204.524 17.1595 210.364 24.6284C215.327 30.9408 217.906 39.5661 217.906 49.5407C217.906 59.5152 215.279 68.0924 210.364 74.4529C204.524 81.9218 195.765 85.8731 185.011 85.8731ZM185.011 25.8813C178.393 25.8813 173.381 28.4833 170.072 32.6755C166.909 36.6749 165.255 42.5537 165.255 49.5889C165.255 56.6241 166.909 62.4546 170.072 66.5022C173.381 70.6944 178.393 73.2965 185.011 73.2965C191.629 73.2965 196.641 70.6944 199.95 66.5022C203.113 62.5028 204.768 56.6241 204.768 49.5889C204.768 42.5537 203.113 36.7231 199.95 32.6755C196.641 28.4833 191.629 25.8813 185.011 25.8813Z" fill="url(#paint2_linear)" fill-opacity="0.5"/>
<defs>
<linearGradient id="paint0_linear" x1="132.64" y1="14.552" x2="132.64" y2="84.3738" gradientUnits="userSpaceOnUse">
<stop stop-color="#646E87"/>
<stop offset="1" stop-color="#28365E"/>
</linearGradient>
<linearGradient id="paint1_linear" x1="60.1574" y1="0" x2="60.1574" y2="86" gradientUnits="userSpaceOnUse">
<stop stop-color="#646E87"/>
<stop offset="1" stop-color="#28365E"/>
</linearGradient>
<linearGradient id="paint2_linear" x1="185.011" y1="13.2083" x2="185.011" y2="85.8731" gradientUnits="userSpaceOnUse">
<stop stop-color="#646E87"/>
<stop offset="1" stop-color="#28365E"/>
</linearGradient>
</defs>
</svg>
