<svg width="196" height="138" viewBox="0 0 196 138" fill="none" xmlns="http://www.w3.org/2000/svg">
<path d="M190.586 130.752C190.586 130.533 190.586 130.24 190.806 129.947C190.952 129.727 191.098 129.581 191.537 129.581C192.122 129.508 193.513 129.508 194.464 129.508V129.727C194.464 130.093 194.317 130.606 194.171 130.899C193.805 131.704 193.147 132.363 192.122 132.363C190.952 132.29 190.586 131.704 190.586 130.752ZM189.196 131.558C189.196 132.729 190.074 133.607 191.464 133.607C192.342 133.607 193.513 133.315 194.317 130.972H194.39V133.315H196V127.458C196 125.847 195.268 124.529 193.074 124.529C191.537 124.529 190.293 125.481 189.781 126.506H189.854C190.293 126.14 191.025 125.628 192.342 125.628C193.951 125.628 194.464 126.286 194.464 127.531V128.483C193.366 128.702 191.757 129.068 190.879 129.361C189.489 129.947 189.196 130.825 189.196 131.558ZM187.074 124.456L185.465 125.042V133.241H187.074V124.456ZM185.245 121.747C185.245 122.333 185.684 122.772 186.27 122.772C186.855 122.772 187.294 122.333 187.294 121.747C187.294 121.162 186.855 120.723 186.27 120.723C185.684 120.723 185.245 121.162 185.245 121.747ZM176.612 130.533C176.612 128.995 176.832 128.117 177.124 127.311C177.563 126.286 178.222 125.701 179.319 125.701C181.075 125.701 181.733 127.238 181.733 129.288C181.733 131.558 180.856 132.656 179.027 132.656C178.368 132.656 177.49 132.509 176.612 132.29V130.533ZM176.612 120.21L175.003 120.796V133.241C175.881 133.461 176.832 133.534 177.563 133.534C178.807 133.534 179.758 133.241 180.782 132.509C182.172 131.484 183.124 129.874 183.124 128.117C183.124 126.286 182.099 124.456 179.978 124.456C177.929 124.456 177.124 126.14 176.612 127.677H176.466V120.21H176.612ZM166.735 130.752C166.735 130.533 166.735 130.24 166.955 129.947C167.101 129.727 167.247 129.581 167.686 129.581C168.272 129.508 169.662 129.508 170.613 129.508V129.727C170.613 130.093 170.467 130.606 170.32 130.899C169.954 131.704 169.296 132.363 168.272 132.363C167.101 132.29 166.735 131.704 166.735 130.752ZM165.345 131.558C165.345 132.729 166.223 133.607 167.613 133.607C168.491 133.607 169.662 133.315 170.467 130.972H170.54V133.315H172.149V127.458C172.149 125.847 171.418 124.529 169.223 124.529C167.686 124.529 166.443 125.481 165.931 126.506H166.004C166.443 126.14 167.174 125.628 168.491 125.628C170.101 125.628 170.613 126.286 170.613 127.531V128.483C169.516 128.702 167.906 129.068 167.028 129.361C165.638 129.947 165.345 130.825 165.345 131.558ZM161.029 124.456L159.419 125.042V133.241H161.029V130.459C161.029 128.702 161.175 127.897 161.687 127.165C162.053 126.653 162.638 126.067 163.663 126.067C163.955 126.067 164.175 126.14 164.467 126.14L164.833 124.529C164.614 124.456 164.321 124.383 163.955 124.383C163.224 124.383 162.711 124.749 162.199 125.481C161.907 125.994 161.468 126.653 161.248 127.531H161.102V124.456H161.029ZM151.371 122.26L153.786 128.336H148.957L151.371 122.26ZM151.518 121.015L146.543 133.315H147.201C147.348 132.436 147.786 131.045 148.445 129.434L148.738 128.629V128.702H153.859L155.688 133.315H157.59L152.615 121.015H151.518ZM140.617 124.456L139.007 125.042V133.241H140.617V124.456ZM138.788 121.747C138.788 122.333 139.227 122.772 139.812 122.772C140.397 122.772 140.836 122.333 140.836 121.747C140.836 121.162 140.397 120.723 139.812 120.723C139.227 120.723 138.788 121.162 138.788 121.747ZM129.35 128.922C129.35 126.799 130.008 125.408 131.984 125.408C132.715 125.408 133.593 125.628 134.471 125.994V127.531C134.471 129.068 134.252 129.947 133.959 130.752C133.52 131.777 132.862 132.363 131.764 132.363C130.008 132.363 129.35 130.752 129.35 128.922ZM127.887 129.947C127.887 131.704 128.911 133.534 131.032 133.534C133.081 133.534 133.886 131.85 134.398 130.313H134.544V133.168H136.154V120.137L134.544 120.723V124.456C134.178 124.383 133.813 124.383 133.52 124.383C132.496 124.383 131.398 124.676 130.301 125.481C128.838 126.579 127.887 128.117 127.887 129.947ZM119.4 124.456L117.79 125.042V130.386C117.79 132.656 118.961 133.534 120.424 133.534C122.18 133.534 123.277 132.216 123.863 130.313H124.009V133.168H125.619V124.383L124.009 124.969V127.458C124.009 129.215 123.863 129.947 123.351 130.752C122.838 131.558 122.107 132.143 121.083 132.143C119.766 132.143 119.4 131.338 119.4 129.947V124.456ZM128.911 83.8981L135.861 63.9119L142.812 83.8981H128.911ZM132.642 56.7374L117.644 98.0276H123.936L127.009 89.2424H144.641L147.713 98.0276H154.225L139.373 56.7374H132.642ZM109.742 130.752C109.742 130.533 109.742 130.24 109.962 129.947C110.108 129.727 110.255 129.581 110.694 129.581C111.279 129.508 112.669 129.508 113.62 129.508V129.727C113.62 130.093 113.474 130.606 113.327 130.899C112.962 131.704 112.303 132.363 111.279 132.363C110.108 132.29 109.742 131.704 109.742 130.752ZM108.352 131.558C108.352 132.729 109.23 133.607 110.62 133.607C111.498 133.607 112.669 133.315 113.474 130.972H113.547V133.315H115.156V127.458C115.156 125.847 114.425 124.529 112.23 124.529C110.694 124.529 109.45 125.481 108.938 126.506H109.011C109.45 126.14 110.181 125.628 111.498 125.628C113.108 125.628 113.62 126.286 113.62 127.531V128.483C112.523 128.702 110.913 129.068 110.035 129.361C108.645 129.947 108.352 130.825 108.352 131.558ZM98.7682 130.24L98.2561 130.386C98.6219 132.07 100.012 133.534 102.573 133.534C105.06 133.534 106.962 132.143 106.962 129.947C106.962 127.824 105.206 127.019 103.012 126.14C100.89 125.262 100.305 124.676 100.305 123.431C100.305 121.967 101.109 120.942 102.865 120.942C104.548 120.942 105.792 121.821 106.231 123.578L106.743 123.431C106.304 121.894 105.06 120.649 102.792 120.649C100.378 120.649 98.7682 121.967 98.7682 124.09C98.7682 125.628 99.7193 126.653 102.134 127.677C104.475 128.629 105.353 129.215 105.353 130.679C105.353 132.143 104.475 133.241 102.499 133.241C100.524 133.241 99.0609 132.216 98.7682 130.24ZM90.5741 122.04C89.6962 123.138 88.8182 124.31 87.9403 125.408H89.0377V133.315H90.6473V125.408H93.3542V124.822H90.6473V123.431C90.6473 122.26 90.7936 121.601 92.5495 121.601C92.9884 121.601 93.2811 121.601 93.7201 121.674V120.283C93.5006 120.21 93.1348 120.21 92.8421 120.21C91.5252 120.21 91.1594 120.649 90.5741 122.04ZM114.059 56.7374H87.355V98.0276H93.4274V80.3841H112.376V74.9666H93.4274V62.1549H114.059V56.7374ZM79.234 128.043C79.234 125.994 80.1852 125.115 81.5752 125.115C83.6237 125.115 85.2333 127.458 85.2333 130.093C85.2333 132.143 84.2822 133.022 82.8921 133.022C80.8436 133.022 79.234 130.679 79.234 128.043ZM77.7708 129.288C77.7708 131.85 79.4535 133.607 81.8679 133.607C84.3554 133.607 86.6234 131.777 86.6234 128.849C86.6234 126.286 84.9406 124.529 82.5263 124.529C80.112 124.456 77.7708 126.286 77.7708 129.288ZM66.5039 83.8981H52.6032L59.5536 63.9119L66.5039 83.8981ZM71.4789 98.0276H77.9903L63.1385 56.7374H56.3345L41.3363 98.0276H47.6282L50.701 89.2424H68.333L71.4789 98.0276ZM59.4072 124.456L57.7977 125.115V133.315H59.4072V130.533C59.4072 128.776 59.5536 128.043 59.9925 127.311C60.5047 126.433 61.2363 125.92 62.2606 125.92C63.5775 125.92 63.8701 126.726 63.8701 128.117V133.241H65.4797V130.459C65.4797 128.702 65.626 127.97 66.065 127.238C66.5771 126.36 67.3087 125.847 68.333 125.847C69.6499 125.847 69.9425 126.653 69.9425 128.043V133.168H71.5521V127.531C71.5521 125.262 70.4547 124.383 68.9914 124.383C67.2355 124.383 66.1381 125.701 65.626 127.604H65.4797V127.531C65.4797 125.262 64.3822 124.383 62.919 124.383C61.1631 124.383 60.0657 125.701 59.5536 127.604H59.4072V124.456ZM48.1404 128.043C48.1404 125.994 49.0915 125.115 50.4815 125.115C52.5301 125.115 54.1396 127.458 54.1396 130.093C54.1396 132.143 53.1885 133.022 51.7984 133.022C49.7499 133.022 48.1404 130.679 48.1404 128.043ZM46.6771 129.288C46.6771 131.85 48.3598 133.607 50.7742 133.607C53.2617 133.607 55.5297 131.777 55.5297 128.849C55.5297 126.286 53.847 124.529 51.4326 124.529C49.0183 124.456 46.6771 126.286 46.6771 129.288ZM37.6782 128.922C37.6782 126.799 38.3367 125.408 40.3121 125.408C41.0437 125.408 41.9216 125.628 42.7996 125.994V127.531C42.7996 129.068 42.5801 129.947 42.2874 130.752C41.8485 131.777 41.19 132.363 40.0926 132.363C38.3367 132.363 37.6782 130.752 37.6782 128.922ZM36.2882 129.947C36.2882 131.704 37.3124 133.534 39.4341 133.534C41.4826 133.534 42.2874 131.85 42.7996 130.313H42.9459V133.168H44.5554V120.137L42.9459 120.723V124.456C42.5801 124.383 42.2143 124.383 41.9216 124.383C40.8974 124.383 39.7999 124.676 38.7025 125.481C37.2393 126.579 36.2882 128.117 36.2882 129.947ZM29.7036 132.363C27.9477 132.363 27.2893 130.825 27.2893 128.922C27.2893 126.799 27.9477 125.408 29.9231 125.408C30.6547 125.408 31.5327 125.628 32.4106 125.994V127.531C32.4106 129.068 32.1911 129.947 31.8985 130.752C31.3863 131.704 30.8011 132.363 29.7036 132.363ZM32.3374 130.386H32.4838V133.241C32.4838 135.364 32.3374 136.536 31.4595 137.048C31.1669 137.195 30.8011 137.341 30.4352 137.341C29.2647 137.341 28.2404 136.463 28.2404 135.73C28.2404 135.364 28.4599 135.218 29.411 134.559C31.0205 133.461 31.6058 132.656 32.3374 130.386ZM30.8011 132.875C30.1426 133.681 29.1183 134.193 28.3867 134.559C26.9966 135.218 26.704 135.438 26.704 136.097C26.704 136.829 27.5819 138 29.1183 138C29.9963 138 30.7279 137.78 31.6058 137.268C33.1422 136.389 34.0933 134.998 34.0933 132.656V124.456L33.2885 124.749C32.6301 124.529 32.0448 124.456 31.3863 124.456C30.3621 124.456 29.2647 124.749 28.1672 125.554C26.7772 126.506 25.8261 128.117 25.8261 129.947C25.8261 131.704 26.8503 133.534 28.972 133.534C29.7036 133.607 30.2889 133.315 30.8011 132.875ZM17.4125 124.456L15.8029 125.042V133.241H17.4125V130.459C17.4125 128.702 17.5588 127.97 18.0709 127.165C18.5831 126.36 19.3147 125.774 20.4121 125.774C21.8022 125.774 22.168 126.579 22.168 127.97V133.095H23.7775V127.458C23.7775 125.188 22.6069 124.31 21.0706 124.31C19.2415 124.31 18.1441 125.628 17.5588 127.531H17.4125V124.456ZM12.8033 124.456L11.1937 125.042V133.241H12.8033V124.456ZM10.9742 121.747C10.9742 122.333 11.4132 122.772 11.9985 122.772C12.5838 122.772 13.0228 122.333 13.0228 121.747C13.0228 121.162 12.5838 120.723 11.9985 120.723C11.4132 120.723 10.9742 121.162 10.9742 121.747ZM1.82904 121.015H0V133.315H1.75587V127.238H2.34117C2.92646 128.336 6.21874 132.143 7.31616 133.315H9.65733C7.97462 131.558 4.68234 127.897 3.65808 126.286C4.02389 125.92 4.53603 125.408 5.56029 124.31C7.38933 122.48 7.97462 121.894 8.92572 121.015H8.04778C7.60881 121.674 7.09668 122.26 5.3408 124.09C3.73125 125.774 2.70698 126.653 2.34117 126.872H1.82904V121.015ZM17.7051 55.7125C8.63307 55.7125 2.04853 60.5443 2.04853 67.8652C2.04853 74.3077 5.92609 77.6753 14.486 79.5788L20.2658 80.8233C25.9724 82.0679 28.8988 83.4589 28.8988 87.1194C28.8988 90.6334 25.6797 93.0493 18.5099 93.0493C12.8033 93.0493 7.53565 90.4138 4.60919 86.7533L0 90.7798C3.14595 95.2456 10.0963 99.0525 18.2904 99.0525C28.1672 99.0525 34.9713 94.5867 34.9713 86.3873C34.9713 79.0663 29.7768 76.504 21.5095 74.6005L16.315 73.4292C11.4132 72.331 8.26727 71.4525 8.26727 67.426C8.26727 63.4727 11.779 61.6424 17.4856 61.6424C22.0216 61.6424 26.265 63.1066 29.9231 65.9618L33.508 61.2032C29.3378 57.5427 23.2654 55.7125 17.7051 55.7125ZM63.2116 41.3634L75.4296 0.0732028H69.0646L58.9683 35.2138L48.9451 0.0732028H42.1411L32.1911 34.9942L22.0948 0H15.6566L27.8746 41.2902H36.5076L45.5797 9.15119L54.6517 41.2902H63.2116V41.3634ZM102.134 16.765C101.183 17.4971 100.305 18.3024 99.573 19.3273C96.0612 23.9395 92.0373 28.991 87.2818 35.2138C84.1359 39.3135 82.819 40.8509 80.6973 40.8509C78.9414 40.8509 77.4782 39.3867 77.4782 37.5565C77.4782 36.3119 77.844 35.2138 80.2583 30.6016C83.6237 24.0127 91.1594 9.29761 94.7443 2.19629L102.134 16.765ZM121.448 41.3634L108.938 17.131C110.62 15.8865 112.23 15.4472 114.278 15.4472C115.522 15.4472 116.912 15.5204 118.083 15.7401C115.742 14.6419 113.181 13.9098 110.62 13.9098C109.596 13.9098 108.499 14.0562 107.401 14.2759L100.085 0.0732028H94.2322C89.0377 10.3225 82.0142 24.0127 78.6488 30.5284C76.3807 34.921 75.9418 36.1655 75.9418 37.5565C75.9418 40.2652 78.0635 42.3883 81.1362 42.3883C86.1112 42.3883 91.7447 38.3618 97.5976 30.6016C99.4267 28.2589 101.402 25.6965 103.597 22.7682C103.89 22.3289 104.182 21.9629 104.475 21.5968L114.498 41.2902H121.448V41.3634ZM158.322 20.7183C158.322 25.6965 157.005 29.5767 154.517 32.3586C152.03 35.1406 149.177 35.9459 141.495 35.9459H135.861V5.56392H141.495C149.177 5.56392 152.03 6.36923 154.517 9.15119C157.005 11.8599 158.322 15.74 158.322 20.7183ZM158.541 36.8244C162.199 33.3103 164.321 27.2339 164.321 20.7183C164.321 14.1294 162.199 8.12625 158.541 4.61219C154.444 0.658877 150.567 0.0732028 140.836 0.0732028H129.789V41.3634H140.836C150.567 41.3634 154.517 40.7777 158.541 36.8244ZM174.564 41.3634H180.636V0.0732028H174.564V41.3634ZM189.269 68.5973C189.269 73.0631 186.489 75.4058 180.343 75.4058H170.101V61.8621H180.709C186.635 61.8621 189.269 64.4244 189.269 68.5973ZM194.903 68.817C194.903 65.2297 193.805 62.3745 191.83 60.3979C189.269 57.9088 185.245 56.7374 179.173 56.7374H164.028V98.0276H170.101V80.7501H179.465L189.123 98.0276H196L185.904 80.2377C191.171 78.7003 194.903 75.1862 194.903 68.817Z" fill="#FFF"/>
</svg>
