<svg width="220" height="150" viewBox="0 0 220 150" fill="none" xmlns="http://www.w3.org/2000/svg">
<path d="M135.499 103.98L142.173 84.9224L148.847 103.98H135.499ZM139.049 78.0958L124.708 117.491H130.742L133.653 109.1H150.479L153.39 117.491H159.567L145.439 78.0958H139.049ZM121.3 78.0958H95.8829V117.491H101.634V100.709H119.738V95.5889H101.634V83.2869H121.3V78.0958ZM76.0038 103.98H62.7275L69.4012 84.9224L76.0038 103.98ZM80.6896 117.491H86.8664L72.738 78.0958H66.2773L51.936 117.491H57.9707L60.8815 109.1H77.7078L80.6896 117.491ZM29.43 77.1003C20.7684 77.1003 14.4497 81.7225 14.4497 88.6912C14.4497 94.8778 18.1415 98.0777 26.3061 99.8555L31.8439 101.064C37.2396 102.273 40.0795 103.624 40.0795 107.038C40.0795 110.38 36.9556 112.726 30.2109 112.726C24.7442 112.726 19.7034 110.238 17.0056 106.682L12.6038 110.522C15.5856 114.789 22.1883 118.415 29.998 118.415C39.4405 118.415 45.9012 114.22 45.9012 106.326C45.9012 99.3577 40.9315 96.8689 33.0508 95.0911L28.081 94.0245C23.3953 93.0289 20.4134 92.1045 20.4134 88.2646C20.4134 84.4957 23.7502 82.7891 29.217 82.7891C33.5478 82.7891 37.5946 84.1402 41.0735 86.9135L44.4813 82.3624C40.5765 78.8781 34.7547 77.1003 29.43 77.1003ZM72.88 63.4472L84.5235 24.0523H78.4887L68.8332 57.6162L59.2486 24.0523H52.7169L43.2034 57.4029L33.5478 24.0523H27.4421L39.0855 63.4472H47.3212L55.9828 32.7988L64.6444 63.4472H72.88ZM109.94 39.9098C109.017 40.6209 108.236 41.4031 107.455 42.3276C104.048 46.7364 100.285 51.5718 95.741 57.474C92.7591 61.385 91.4811 62.8783 89.4932 62.8783C87.7893 62.8783 86.3694 61.5272 86.3694 59.6784C86.3694 58.4695 86.7244 57.474 88.9963 53.0652C92.1911 46.7364 99.3618 32.7277 102.841 25.9723L109.94 39.9098ZM128.399 63.4472L116.472 40.3365C118.034 39.1987 119.596 38.7721 121.584 38.7721C122.72 38.7721 124.069 38.8432 125.205 39.0565C122.933 37.9899 120.519 37.2788 118.105 37.2788C117.111 37.2788 116.046 37.421 115.052 37.6343L108.094 24.0523H102.557C97.5869 33.7944 90.9132 46.9497 87.7183 53.1363C85.5884 57.3318 85.1624 58.4695 85.1624 59.8206C85.1624 62.4517 87.1503 64.4427 90.1322 64.4427C94.889 64.4427 100.214 60.6028 105.822 53.2074C107.526 50.9319 109.443 48.5141 111.573 45.7408C111.857 45.3853 112.141 44.9586 112.425 44.6742L121.939 63.4472H128.399ZM163.472 43.7498C163.472 48.5141 162.194 52.2118 159.851 54.8429C157.437 57.474 154.81 58.2562 147.427 58.2562H142.031V29.2433H147.427C154.739 29.2433 157.437 30.0255 159.851 32.6566C162.194 35.2166 163.472 38.9854 163.472 43.7498ZM163.756 59.1095C167.235 55.7673 169.294 50.0074 169.294 43.7498C169.294 37.4921 167.235 31.7322 163.756 28.39C159.851 24.6212 156.159 24.0523 146.859 24.0523H136.351V63.4472H146.859C156.159 63.4472 159.851 62.8783 163.756 59.1095ZM178.949 63.4472H184.7V23.9812H178.949V63.4472ZM193.007 89.4023C193.007 93.6689 190.309 95.9444 184.487 95.9444H174.76V83.0024H184.842C190.451 83.0024 193.007 85.4202 193.007 89.4023ZM198.402 89.6156C198.402 86.2024 197.408 83.4291 195.42 81.5802C193.007 79.2336 189.173 78.0958 183.351 78.0958H168.939V117.491H174.689V100.993H183.635L192.865 117.491H199.396L189.812 100.567C194.781 99.0733 198.402 95.7311 198.402 89.6156Z" fill="#F4E5D2"/>
</svg>
