<svg width="220" height="149" viewBox="0 0 220 149" fill="none" xmlns="http://www.w3.org/2000/svg">
<path fill-rule="evenodd" clip-rule="evenodd" d="M36.8299 77.7974C38.8171 77.7974 40.4494 79.4444 40.4494 81.4493C40.4494 83.5259 38.8171 85.1013 36.8299 85.1013C34.8428 85.1013 33.2104 83.4543 33.2104 81.4493C33.2104 79.4444 34.8428 77.7974 36.8299 77.7974ZM70.2567 33.4733C66.3533 31.9696 62.8758 31.1819 59.2564 31.1819C54.1465 31.1819 50.0303 34.5474 49.9593 38.9153C49.9593 41.2783 51.6626 43.2117 55.0691 45.2883C55.9117 45.8057 56.6218 46.2278 57.2875 46.6234C57.9115 46.9942 58.4963 47.3418 59.1144 47.7229C63.7274 50.5871 65.5017 52.7353 65.5017 56.4588C65.5017 65.4096 56.2047 71.2097 40.9462 71.2097C28.8103 71.2097 16.6035 63.691 16.6035 52.3773C16.6035 43.7129 23.9134 37.698 33.8492 34.5474L33.9201 34.7622C27.178 38.9153 23.6295 44.2858 23.6295 50.9452C23.6295 64.4071 41.372 71.4961 57.0563 65.5528C60.8887 64.1207 62.6629 62.0441 62.9468 59.8959C63.3016 57.3181 62.0951 55.886 56.5595 52.5921C55.9484 52.2351 55.5122 51.9664 55.0462 51.6793C54.4839 51.3329 53.8781 50.9596 52.8691 50.3723C46.4108 46.5056 44.5656 42.9253 44.5656 38.7005C44.5656 31.6831 51.3077 25.6682 60.108 25.6682C64.0113 25.6682 67.6308 26.6707 70.2567 27.8164V33.4733ZM50.9529 81.521C50.9529 83.5259 49.3206 85.1729 47.3334 85.1729C45.3463 85.1729 43.714 83.5259 43.714 81.521C43.714 79.516 45.3463 77.869 47.3334 77.869C49.3206 77.869 50.9529 79.516 50.9529 81.521ZM102.548 57.6761H76.2181V51.5896H96.2316V46.6488C96.2316 37.7696 91.4057 32.614 83.8829 32.614C82.5344 32.614 79.1989 32.972 77.0698 33.4733L76.9278 27.888C79.8376 26.9571 82.4635 26.6707 85.0184 26.6707C92.6122 26.6707 98.2188 30.5374 100.845 36.7672C101.98 39.345 102.548 43.0685 102.548 46.9352V57.6761ZM119.155 57.6761H112.839V14.6409H119.155V57.6761ZM145.414 51.7328H152.936V42.1376C152.936 35.8363 149.956 32.5424 144.136 32.5424C138.672 32.5424 135.123 37.0536 135.123 42.7105C135.123 49.0834 138.388 51.7328 145.414 51.7328ZM159.253 42.2092V50.4439C159.253 65.1948 153.433 72.8566 133.775 73.2147L133.42 67.1281C146.052 66.6985 150.453 63.333 151.943 57.6761H144.704C134.626 57.6761 128.736 52.3057 128.736 43.4981C128.736 33.1869 135.407 26.4559 144.349 26.4559C153.646 26.4559 159.253 31.8979 159.253 42.2092ZM59.8241 113.171V89.684H66.2114V111.882C66.2114 125.702 61.8822 130.141 48.185 131.216L47.9721 129.354L47.7592 127.206L47.5463 125.487C56.1337 124.556 59.8241 122.48 59.8241 113.171ZM116.032 73.0714C118.232 73.0714 120.006 74.8616 120.006 77.0814C120.006 79.3011 118.232 81.0913 116.032 81.0913C113.832 81.0913 112.058 79.3011 112.058 77.0814C112.058 74.8616 113.832 73.0714 116.032 73.0714ZM167.359 110.307H197.08V104.721C197.08 96.2002 193.815 91.2594 186.292 91.2594C177.863 91.2594 170.071 98.1779 167.359 110.307ZM121.994 110.378C123.129 107.729 124.194 103.79 124.194 100.855C124.194 94.2668 120.361 91.2594 115.393 91.2594C109.574 91.2594 106.309 94.9829 106.309 99.9953C106.309 106.153 110.355 110.378 117.877 110.378H121.994ZM203.396 116.393H162.304C156.627 116.393 153.788 115.892 150.665 114.818C149.317 115.892 147.756 116.393 144.562 116.393H87.8571C80.1924 116.393 76.2891 113.386 76.2891 107.084V72.5702H82.6054V105.366C82.6054 108.803 84.0248 110.45 87.5733 110.45H104.819C101.554 108.087 99.993 104.148 99.993 100.067C99.993 90.7581 107.303 85.2444 115.535 85.2444C123.981 85.2444 130.51 90.2569 130.51 100.067C130.51 103.79 129.587 107.013 128.31 110.45H143.71C146.762 110.45 147.756 109.304 147.756 106.225V94.41H154.143V105.795C154.143 107.299 154.072 108.516 153.859 109.519C155.775 110.235 158.117 110.45 160.956 110.45C164.15 95.1261 174.511 85.2444 187.073 85.2444C197.86 85.2444 203.396 92.7631 203.396 104.077V116.393Z" fill="#FCF9F4"/>
</svg>
