<svg width="19" height="21" viewBox="0 0 19 21" fill="none" xmlns="http://www.w3.org/2000/svg">
<path d="M9.7373 20.4634C14.7734 20.4634 18.9219 16.315 18.9219 11.2789C18.9219 6.89314 15.7842 3.18415 11.6445 2.29646V0.969309C11.6445 0.257395 11.0908 0.0552463 10.4932 0.48591L7.39941 2.70075C6.91602 3.05232 6.9248 3.59724 7.39941 3.94001L10.4844 6.16364C11.082 6.59431 11.6445 6.40095 11.6445 5.68025V4.41462C14.6592 5.24079 16.8564 7.99177 16.8564 11.2789C16.8564 15.2252 13.6836 18.4068 9.7373 18.4068C5.79102 18.4068 2.60938 15.2252 2.61816 11.2789C2.62695 9.05525 3.6377 7.11286 5.24609 5.80329C5.70312 5.37263 5.85254 4.77497 5.46582 4.29157C5.11426 3.84333 4.47266 3.78181 3.92773 4.24763C1.89746 5.80329 0.552734 8.53669 0.552734 11.2789C0.552734 16.315 4.70117 20.4634 9.7373 20.4634ZM7.29395 15.023C7.72461 15.023 7.99707 14.733 7.99707 14.2759V8.90583C7.99707 8.31697 7.67188 8.00935 7.16211 8.00935C6.85449 8.00935 6.6084 8.10603 6.24805 8.39607L5.16699 9.20466C4.91211 9.42439 4.79785 9.61775 4.79785 9.87263C4.79785 10.2154 5.06152 10.4879 5.39551 10.4879C5.61523 10.4879 5.74707 10.4351 5.92285 10.2418L6.59082 9.67048H6.59961V14.2759C6.59961 14.733 6.87207 15.023 7.29395 15.023ZM11.6621 15.0933C13.1562 15.0933 14.1318 14.1353 14.1318 12.65C14.1318 11.3228 13.2354 10.4527 12.0752 10.4527C11.5215 10.4527 10.9766 10.7164 10.7305 11.1383L10.8623 9.32771H13.3057C13.6572 9.32771 13.9121 9.07282 13.9121 8.70368C13.9121 8.33454 13.6572 8.09724 13.3057 8.09724H10.5195C10.0186 8.09724 9.72852 8.40486 9.69336 8.95857L9.52637 11.4459C9.49121 11.9381 9.76367 12.2105 10.2119 12.2105C10.5635 12.2105 10.6865 12.1314 10.9062 11.9556C11.1963 11.7095 11.4424 11.5777 11.7764 11.5777C12.4004 11.5777 12.7871 12.0347 12.7871 12.6939C12.7871 13.3619 12.3301 13.8629 11.6973 13.8629C11.2139 13.8629 10.8447 13.5816 10.6162 13.1949C10.4844 12.9927 10.3262 12.8697 10.0625 12.8697C9.71094 12.8697 9.46484 13.1246 9.46484 13.4849C9.46484 13.6168 9.48242 13.7486 9.55273 13.8892C9.79004 14.4781 10.5723 15.0933 11.6621 15.0933Z" fill="white"/>
</svg>
