<svg width="19" height="21" viewBox="0 0 19 21" fill="none" xmlns="http://www.w3.org/2000/svg">
<path d="M0.24707 11.2681C0.24707 16.2955 4.38672 20.4351 9.41406 20.4351C14.4414 20.4351 18.5811 16.2955 18.5811 11.2681C18.5811 8.50838 17.2188 5.78377 15.1709 4.21053C14.6348 3.77108 14.0107 3.82381 13.6768 4.27205C13.2988 4.74666 13.4482 5.32674 13.8965 5.73983C15.5312 7.05819 16.5596 9.01815 16.5684 11.2681C16.5771 15.232 13.3779 18.4224 9.41406 18.4224C5.4502 18.4224 2.26855 15.232 2.26855 11.2681C2.26855 7.95467 4.4834 5.1949 7.52441 4.38631V5.63436C7.52441 6.33748 8.07812 6.53963 8.6582 6.11776L11.7256 3.92049C12.2002 3.58651 12.2002 3.05037 11.7256 2.7076L8.66699 0.510334C8.07812 0.0884589 7.52441 0.281818 7.52441 0.993732V2.3033C3.39355 3.18221 0.24707 6.89119 0.24707 11.2681ZM6.95312 14.9947C7.375 14.9947 7.64746 14.7135 7.64746 14.2564V8.87752C7.64746 8.30623 7.33105 7.99862 6.82129 7.99862C6.52246 7.99862 6.28516 8.09529 5.9248 8.37654L4.84375 9.18514C4.58887 9.40487 4.47461 9.58944 4.47461 9.84432C4.47461 10.1783 4.73828 10.4596 5.06348 10.4596C5.2832 10.4596 5.41504 10.398 5.58203 10.2135L6.25879 9.64217H6.26758V14.2564C6.26758 14.7135 6.54004 14.9947 6.95312 14.9947ZM11.3301 15.0738C12.8242 15.0738 13.791 14.1158 13.791 12.6392C13.791 11.3121 12.9033 10.442 11.7344 10.442C11.1807 10.442 10.6357 10.6969 10.3896 11.1187L10.5215 9.30819H12.9736C13.3252 9.30819 13.5801 9.0533 13.5801 8.69295C13.5801 8.3326 13.3252 8.09529 12.9736 8.09529H10.1963C9.69531 8.09529 9.41406 8.40291 9.37891 8.93904L9.20312 11.4263C9.16797 11.9185 9.44043 12.1822 9.87988 12.1822C10.2314 12.1822 10.3545 12.1119 10.5742 11.9361C10.873 11.6812 11.1191 11.5494 11.4443 11.5494C12.0771 11.5494 12.4727 12.0152 12.4727 12.6744C12.4727 13.3512 12.0068 13.8609 11.374 13.8609C10.8818 13.8609 10.5127 13.5797 10.2754 13.193C10.1436 12.982 9.98535 12.859 9.73047 12.859C9.37891 12.859 9.13281 13.1051 9.13281 13.4566C9.13281 13.5972 9.15918 13.7203 9.2207 13.8697C9.45801 14.4586 10.2402 15.0738 11.3301 15.0738Z" fill="white"/>
</svg>
