<svg width="75" height="75" viewBox="0 0 75 75" fill="none" xmlns="http://www.w3.org/2000/svg">
<g filter="url(#filter0_d_184_3790)">
<rect x="10" y="4" width="55" height="55" rx="27.5" fill="#B47046" shape-rendering="crispEdges"/>
<path d="M52.7575 29.4554C52.7283 29.5747 52.6771 29.694 52.6723 29.8158C52.6431 30.4635 52.6114 31.1136 52.6041 31.7613C52.5944 33.0274 52.6017 34.2911 52.6017 35.5572C52.6017 35.5962 52.6017 35.6351 52.5822 35.6863C52.0952 35.1311 51.6472 34.5516 51.1919 33.977C50.7317 33.3951 50.2739 32.8107 49.8162 32.2239C49.3633 31.6419 48.9153 31.0551 48.4648 30.4708C48.3869 30.7873 48.4599 35.3357 48.5525 35.584H47.9072C48.0631 34.6758 48.0241 33.753 48.0314 32.8326C48.0411 31.7077 48.0314 30.5828 48.0314 29.4603V29.3288C48.0314 29.3288 48.0509 29.3142 48.0582 29.3093C48.0898 29.3361 48.1239 29.3605 48.1507 29.3945C48.6864 30.069 49.2245 30.741 49.7553 31.4179C50.5637 32.4503 51.3647 33.4851 52.1756 34.5224C52.1756 34.5029 52.1829 34.4761 52.1829 34.4518C52.178 33.0834 52.1756 31.7126 52.1683 30.3442C52.1683 30.0958 52.1439 29.8474 52.1269 29.5991C52.1244 29.5455 52.105 29.4919 52.0928 29.4286H52.7551V29.4506L52.7575 29.4554Z" fill="#F4E5D2"/>
<path d="M37.063 35.5911H36.4348C36.4786 35.1406 36.4274 34.695 36.3934 34.2495C36.352 33.7065 36.2984 33.1635 36.2497 32.6205C36.2034 32.1189 36.1523 31.6174 36.106 31.1158C36.0914 30.9672 36.0793 30.8163 36.0622 30.641C36.0427 30.6824 36.033 30.6994 36.0233 30.7189C35.6191 31.6125 35.2197 32.5085 34.8131 33.3997C34.4917 34.1082 34.1679 34.8143 33.8416 35.518C33.827 35.5521 33.7759 35.5887 33.7393 35.5887C33.7053 35.5887 33.6517 35.5521 33.6371 35.5205C32.9383 34.0011 32.2443 32.4793 31.5504 30.9575C31.5066 30.8625 31.4725 30.7627 31.4213 30.6678C31.2874 32.3064 31.0464 33.9329 31.022 35.5887H30.4011C30.5716 35.0335 30.6203 34.4564 30.6909 33.8818C30.7688 33.2609 30.8394 32.6376 30.9051 32.0167C30.9733 31.386 31.0318 30.7554 31.0926 30.1248C31.1194 29.8594 31.1438 29.5964 31.1681 29.331L31.1998 29.314C31.2241 29.3456 31.2533 29.3773 31.2704 29.4114C31.6575 30.2197 32.052 31.0232 32.4245 31.8389C32.853 32.7715 33.2621 33.7114 33.6785 34.6464C33.6955 34.6829 33.7101 34.7194 33.7369 34.7778C33.81 34.605 33.8684 34.4491 33.9366 34.2982C34.5964 32.8665 35.2563 31.4347 35.9161 30.003C36.0087 29.8009 36.1061 29.6013 36.2059 29.4016C36.2229 29.3675 36.2521 29.3407 36.2741 29.3115L36.2984 29.3286C36.4055 30.3731 36.5054 31.4201 36.6198 32.4647C36.7343 33.5068 36.8219 34.5562 37.063 35.5911Z" fill="#F4E5D2"/>
<path d="M27.5866 35.5917H26.9268C26.9122 35.4919 26.9122 35.3945 26.8805 35.3068C26.6638 34.7079 26.4398 34.1137 26.2182 33.5172C25.8262 32.4751 25.4342 31.4329 25.0422 30.3908C25.0422 30.3859 25.0349 30.3811 25.0203 30.364C24.9935 30.4346 24.9691 30.4979 24.9424 30.5613C24.3702 31.9978 23.798 33.4344 23.2282 34.871C23.1649 35.0317 23.1089 35.1973 23.0553 35.3628C23.0334 35.431 23.0358 35.5041 23.0261 35.5868H22.3809C22.8094 34.7639 23.1479 33.9043 23.496 33.0521C23.9903 31.8469 24.47 30.6367 24.957 29.429C24.9618 29.4144 24.9667 29.3998 24.974 29.3876C24.9935 29.3633 25.0154 29.3438 25.0349 29.3219C25.0592 29.3438 25.0933 29.3633 25.1055 29.3901C25.2565 29.7845 25.4025 30.179 25.5559 30.571C26.1354 32.0368 26.7149 33.5026 27.2969 34.966C27.3797 35.1754 27.4844 35.375 27.5842 35.5893" fill="#F4E5D2"/>
<path d="M40.5366 35.5893H39.8962C40.0253 35.3117 40.1641 35.0439 40.2785 34.7663C40.9408 33.1666 41.5958 31.562 42.2532 29.9598C42.3287 29.7772 42.3969 29.5946 42.4723 29.4144C42.487 29.3803 42.521 29.3511 42.5478 29.3219C42.5722 29.3536 42.6087 29.3803 42.6233 29.4169C43.1614 30.8072 43.6947 32.1999 44.2401 33.5878C44.4616 34.1551 44.7076 34.7152 44.9438 35.2776C44.9876 35.3823 45.046 35.4797 45.102 35.5868H44.4178C44.4495 35.3823 44.3618 35.1973 44.2936 35.0146C43.8286 33.7826 43.3587 32.553 42.8912 31.3209C42.7718 31.0068 42.655 30.6903 42.5308 30.3567C42.4821 30.4785 42.4407 30.588 42.3993 30.6952C41.8417 32.0952 41.2841 33.4928 40.729 34.8929C40.6632 35.0609 40.6072 35.2338 40.5537 35.4067C40.5366 35.4602 40.5415 35.5187 40.5366 35.5893Z" fill="#F4E5D2"/>
<path d="M25.9725 27.5798H24.0952V27.9767H25.9725V27.5798Z" fill="#F4E5D2"/>
</g>
<defs>
<filter id="filter0_d_184_3790" x="0" y="0" width="75" height="75" filterUnits="userSpaceOnUse" color-interpolation-filters="sRGB">
<feFlood flood-opacity="0" result="BackgroundImageFix"/>
<feColorMatrix in="SourceAlpha" type="matrix" values="0 0 0 0 0 0 0 0 0 0 0 0 0 0 0 0 0 0 127 0" result="hardAlpha"/>
<feOffset dy="6"/>
<feGaussianBlur stdDeviation="5"/>
<feComposite in2="hardAlpha" operator="out"/>
<feColorMatrix type="matrix" values="0 0 0 0 0 0 0 0 0 0 0 0 0 0 0 0 0 0 0.5 0"/>
<feBlend mode="normal" in2="BackgroundImageFix" result="effect1_dropShadow_184_3790"/>
<feBlend mode="normal" in="SourceGraphic" in2="effect1_dropShadow_184_3790" result="shape"/>
</filter>
</defs>
</svg>
