<svg width="48" height="48" viewBox="0 0 48 48" fill="none" xmlns="http://www.w3.org/2000/svg">
<g filter="url(#filter0_d_184_2714)">
<rect x="4" width="40" height="40" rx="20" fill="#F4E5D2" shape-rendering="crispEdges"/>
<path d="M35.0963 18.5131C35.0751 18.5999 35.0379 18.6867 35.0343 18.7752C35.0131 19.2462 34.9901 19.719 34.9848 20.1901C34.9777 21.1109 34.983 22.03 34.983 22.9508C34.983 22.9791 34.983 23.0075 34.9688 23.0446C34.6147 22.6409 34.2888 22.2194 33.9577 21.8015C33.623 21.3783 33.2901 20.9533 32.9572 20.5265C32.6278 20.1033 32.302 19.6765 31.9744 19.2515C31.9177 19.4818 31.9708 22.7896 32.0381 22.9703H31.5688C31.6822 22.3098 31.6538 21.6386 31.6592 20.9692C31.6662 20.1511 31.6592 19.333 31.6592 18.5167V18.421C31.6592 18.421 31.6733 18.4104 31.6786 18.4069C31.7017 18.4263 31.7265 18.444 31.7459 18.4688C32.1355 18.9594 32.5269 19.4481 32.9129 19.9404C33.5008 20.6912 34.0834 21.4438 34.6731 22.1982C34.6731 22.184 34.6784 22.1645 34.6784 22.1468C34.6749 21.1516 34.6731 20.1547 34.6678 19.1595C34.6678 18.9788 34.6501 18.7982 34.6377 18.6176C34.6359 18.5786 34.6217 18.5397 34.6129 18.4936H35.0945V18.5096L35.0963 18.5131Z" fill="#5D4632"/>
<path d="M23.6821 22.9754H23.2253C23.2571 22.6478 23.2199 22.3237 23.1951 21.9997C23.165 21.6048 23.1261 21.2099 23.0907 20.815C23.057 20.4502 23.0198 20.0854 22.9862 19.7206C22.9756 19.6126 22.9667 19.5028 22.9543 19.3753C22.9402 19.4054 22.9331 19.4178 22.926 19.432C22.632 20.0819 22.3416 20.7335 22.0459 21.3817C21.8121 21.897 21.5766 22.4105 21.3393 22.9223C21.3287 22.9471 21.2915 22.9736 21.265 22.9736C21.2402 22.9736 21.2012 22.9471 21.1906 22.924C20.6824 21.819 20.1777 20.7123 19.673 19.6055C19.6411 19.5365 19.6163 19.4639 19.5791 19.3948C19.4817 20.5866 19.3064 21.7695 19.2887 22.9736H18.8372C18.9611 22.5699 18.9965 22.1502 19.0479 21.7323C19.1046 21.2807 19.1559 20.8274 19.2037 20.3758C19.2533 19.9172 19.2958 19.4585 19.3401 18.9999C19.3596 18.8069 19.3773 18.6156 19.395 18.4226L19.418 18.4102C19.4357 18.4332 19.4569 18.4563 19.4693 18.4811C19.7509 19.069 20.0378 19.6533 20.3087 20.2466C20.6204 20.9248 20.9179 21.6083 21.2207 22.2883C21.2331 22.3149 21.2437 22.3414 21.2632 22.3839C21.3163 22.2582 21.3588 22.1449 21.4084 22.0351C21.8883 20.9938 22.3682 19.9526 22.8481 18.9114C22.9154 18.7644 22.9862 18.6192 23.0588 18.474C23.0712 18.4492 23.0924 18.4297 23.1084 18.4084L23.1261 18.4208C23.204 19.1805 23.2766 19.942 23.3598 20.7017C23.4431 21.4596 23.5068 22.2228 23.6821 22.9754Z" fill="#5D4632"/>
<path d="M16.7902 22.9759H16.3103C16.2997 22.9033 16.2997 22.8324 16.2766 22.7687C16.119 22.3331 15.9561 21.901 15.795 21.4671C15.5099 20.7092 15.2248 19.9513 14.9397 19.1934C14.9397 19.1899 14.9344 19.1863 14.9237 19.1739C14.9042 19.2253 14.8865 19.2713 14.8671 19.3174C14.4509 20.3621 14.0348 21.4069 13.6204 22.4517C13.5744 22.5686 13.5336 22.689 13.4947 22.8094C13.4787 22.859 13.4805 22.9121 13.4734 22.9723H13.0042C13.3158 22.3738 13.562 21.7487 13.8152 21.1289C14.1747 20.2524 14.5235 19.3723 14.8777 18.4939C14.8812 18.4833 14.8848 18.4727 14.8901 18.4638C14.9042 18.4461 14.9202 18.432 14.9344 18.416C14.9521 18.432 14.9768 18.4461 14.9857 18.4656C15.0955 18.7525 15.2017 19.0393 15.3133 19.3244C15.7348 20.3905 16.1562 21.4565 16.5794 22.5208C16.6396 22.6731 16.7158 22.8183 16.7884 22.9741" fill="#5D4632"/>
<path d="M26.2084 22.9741H25.7427C25.8365 22.7722 25.9375 22.5774 26.0207 22.3756C26.5024 21.2121 26.9787 20.0452 27.4568 18.88C27.5117 18.7472 27.5613 18.6143 27.6162 18.4833C27.6268 18.4585 27.6516 18.4373 27.6711 18.416C27.6888 18.439 27.7154 18.4585 27.726 18.4851C28.1173 19.4962 28.5052 20.5091 28.9018 21.5185C29.063 21.9311 29.2418 22.3384 29.4136 22.7474C29.4455 22.8236 29.488 22.8944 29.5287 22.9723H29.0311C29.0541 22.8236 28.9904 22.689 28.9408 22.5562C28.6026 21.6602 28.2608 20.7659 27.9208 19.8699C27.834 19.6414 27.749 19.4112 27.6587 19.1686C27.6233 19.2572 27.5932 19.3368 27.5631 19.4148C27.1576 20.433 26.7521 21.4494 26.3483 22.4677C26.3005 22.5898 26.2598 22.7156 26.2208 22.8413C26.2084 22.8803 26.2119 22.9228 26.2084 22.9741Z" fill="#5D4632"/>
<path d="M15.6163 17.149H14.251V17.4377H15.6163V17.149Z" fill="#5D4632"/>
</g>
<defs>
<filter id="filter0_d_184_2714" x="0" y="0" width="48" height="48" filterUnits="userSpaceOnUse" color-interpolation-filters="sRGB">
<feFlood flood-opacity="0" result="BackgroundImageFix"/>
<feColorMatrix in="SourceAlpha" type="matrix" values="0 0 0 0 0 0 0 0 0 0 0 0 0 0 0 0 0 0 127 0" result="hardAlpha"/>
<feOffset dy="4"/>
<feGaussianBlur stdDeviation="2"/>
<feComposite in2="hardAlpha" operator="out"/>
<feColorMatrix type="matrix" values="0 0 0 0 0 0 0 0 0 0 0 0 0 0 0 0 0 0 0.3 0"/>
<feBlend mode="normal" in2="BackgroundImageFix" result="effect1_dropShadow_184_2714"/>
<feBlend mode="normal" in="SourceGraphic" in2="effect1_dropShadow_184_2714" result="shape"/>
</filter>
</defs>
</svg>
