<svg width="75" height="75" viewBox="0 0 75 75" fill="none" xmlns="http://www.w3.org/2000/svg">
<g filter="url(#filter0_d_111_2754)">
<rect x="10" y="4" width="55" height="55" rx="27.5" fill="#B47046" shape-rendering="crispEdges"/>
<mask id="mask0_111_2754" style="mask-type:luminance" maskUnits="userSpaceOnUse" x="21" y="18" width="33" height="27">
<path d="M27.678 25.7312L37.6021 20.8862L47.3304 25.6376V42.3992H27.678V25.7312ZM37.5979 18.0806L21.7856 25.8036L22.8926 28.0686L25.1533 26.9616V44.9196H49.8466V26.868L52.1073 27.9749L53.2142 25.7099L37.5979 18.0806Z" fill="white"/>
</mask>
<g mask="url(#mask0_111_2754)">
<path d="M53.2185 18.0806H21.7856V44.9196H53.2185V18.0806Z" fill="#F4E5D2"/>
</g>
<mask id="mask1_111_2754" style="mask-type:luminance" maskUnits="userSpaceOnUse" x="30" y="26" width="15" height="14">
<path d="M30.6324 38.1929C30.6324 37.7885 30.7602 37.4394 31.518 35.9535C32.6079 33.8248 35.0304 29.0777 36.1927 26.7872L38.5854 31.5045C38.2788 31.7344 37.9978 32.0069 37.7552 32.3219C36.6099 33.7992 35.3327 35.4426 33.8 37.4394C32.791 38.7507 32.3525 39.2616 31.6798 39.2616C31.1008 39.2616 30.6324 38.7975 30.6324 38.1929ZM36.065 26.123C34.3833 29.4226 32.1226 33.8546 31.0454 35.9535C30.3131 37.3755 30.1812 37.7629 30.1812 38.2227C30.1812 39.104 30.8623 39.781 31.8543 39.781C33.4551 39.781 35.2646 38.4782 37.1762 35.9876C37.7637 35.2212 38.4023 34.3953 39.1133 33.4587C39.2112 33.3267 39.3091 33.2032 39.4028 33.0883L42.6257 39.4446H44.8311L40.7993 31.6365C41.34 31.2448 41.8636 31.0958 42.5278 31.0958C42.9237 31.0958 43.3708 31.1256 43.7625 31.1809C43.0046 30.819 42.1744 30.5849 41.3527 30.5849C41.0121 30.5849 40.663 30.6274 40.3182 30.7041L37.9553 26.123H36.0692H36.065Z" fill="white"/>
</mask>
<g mask="url(#mask1_111_2754)">
<path d="M44.8224 26.123H30.1768V39.781H44.8224V26.123Z" fill="#F4E5D2"/>
</g>
</g>
<defs>
<filter id="filter0_d_111_2754" x="0" y="0" width="75" height="75" filterUnits="userSpaceOnUse" color-interpolation-filters="sRGB">
<feFlood flood-opacity="0" result="BackgroundImageFix"/>
<feColorMatrix in="SourceAlpha" type="matrix" values="0 0 0 0 0 0 0 0 0 0 0 0 0 0 0 0 0 0 127 0" result="hardAlpha"/>
<feOffset dy="6"/>
<feGaussianBlur stdDeviation="5"/>
<feComposite in2="hardAlpha" operator="out"/>
<feColorMatrix type="matrix" values="0 0 0 0 0 0 0 0 0 0 0 0 0 0 0 0 0 0 0.5 0"/>
<feBlend mode="normal" in2="BackgroundImageFix" result="effect1_dropShadow_111_2754"/>
<feBlend mode="normal" in="SourceGraphic" in2="effect1_dropShadow_111_2754" result="shape"/>
</filter>
</defs>
</svg>
