<svg width="48" height="48" viewBox="0 0 48 48" fill="none" xmlns="http://www.w3.org/2000/svg">
<g filter="url(#filter0_d_99_1867)">
<rect x="4" width="40" height="40" rx="20" fill="#F4E5D2" shape-rendering="crispEdges"/>
<mask id="mask0_99_1867" style="mask-type:luminance" maskUnits="userSpaceOnUse" x="13" y="11" width="22" height="18">
<path d="M17.4127 16.131L24.0685 12.8817L30.5929 16.0682V27.3096H17.4127V16.131ZM24.0656 11L13.4609 16.1796L14.2033 17.6986L15.7195 16.9562V29H32.2804V16.8934L33.7966 17.6358L34.539 16.1168L24.0656 11Z" fill="white"/>
</mask>
<g mask="url(#mask0_99_1867)">
<path d="M34.5418 11H13.4609V29H34.5418V11Z" fill="#5D4632"/>
</g>
<mask id="mask1_99_1867" style="mask-type:luminance" maskUnits="userSpaceOnUse" x="19" y="16" width="10" height="10">
<path d="M19.3945 24.4884C19.3945 24.2172 19.4801 23.983 19.9884 22.9865C20.7193 21.5588 22.344 18.3752 23.1235 16.839L24.7282 20.0027C24.5226 20.1569 24.3342 20.3396 24.1714 20.5509C23.4033 21.5417 22.5467 22.6439 21.5188 23.983C20.8421 24.8625 20.548 25.2051 20.0969 25.2051C19.7085 25.2051 19.3945 24.8939 19.3945 24.4884ZM23.0379 16.3936C21.91 18.6064 20.3938 21.5788 19.6714 22.9865C19.1803 23.9402 19.0918 24.2 19.0918 24.5084C19.0918 25.0995 19.5486 25.5535 20.2139 25.5535C21.2875 25.5535 22.5011 24.6797 23.7831 23.0094C24.1771 22.4954 24.6054 21.9415 25.0823 21.3133C25.148 21.2248 25.2136 21.142 25.2764 21.0649L27.4379 25.3279H28.917L26.213 20.0912C26.5756 19.8285 26.9268 19.7286 27.3723 19.7286C27.6378 19.7286 27.9376 19.7486 28.2003 19.7857C27.6921 19.543 27.1353 19.3859 26.5842 19.3859C26.3558 19.3859 26.1216 19.4145 25.8903 19.4659L24.3056 16.3936H23.0407H23.0379Z" fill="white"/>
</mask>
<g mask="url(#mask1_99_1867)">
<path d="M28.9112 16.3936H19.0889V25.5535H28.9112V16.3936Z" fill="#5D4632"/>
</g>
</g>
<defs>
<filter id="filter0_d_99_1867" x="0" y="0" width="48" height="48" filterUnits="userSpaceOnUse" color-interpolation-filters="sRGB">
<feFlood flood-opacity="0" result="BackgroundImageFix"/>
<feColorMatrix in="SourceAlpha" type="matrix" values="0 0 0 0 0 0 0 0 0 0 0 0 0 0 0 0 0 0 127 0" result="hardAlpha"/>
<feOffset dy="4"/>
<feGaussianBlur stdDeviation="2"/>
<feComposite in2="hardAlpha" operator="out"/>
<feColorMatrix type="matrix" values="0 0 0 0 0 0 0 0 0 0 0 0 0 0 0 0 0 0 0.3 0"/>
<feBlend mode="normal" in2="BackgroundImageFix" result="effect1_dropShadow_99_1867"/>
<feBlend mode="normal" in="SourceGraphic" in2="effect1_dropShadow_99_1867" result="shape"/>
</filter>
</defs>
</svg>
