<svg width="40" height="40" viewBox="0 0 40 40" fill="none" xmlns="http://www.w3.org/2000/svg">
<path d="M32.8077 8H11.1406L10.5283 8.6123V12.1406C10.5283 12.2134 10.5465 12.2801 10.5708 12.3468H7.6123L7 12.9591V30.7765L7.6123 31.3888H29.2794L29.8917 30.7765V27.042H32.8077L33.42 26.4297V8.6123L32.8077 8ZM11.6559 30.1642L12.6684 17.1603H15.6329L16.0754 19.1124L16.6695 19.5913H19.531L20.1251 19.1306L20.6222 17.1603H23.4958L24.7629 30.1642H11.6559ZM28.6671 30.1642H25.9875C25.9875 30.1642 25.9875 30.146 25.9875 30.1399L24.6537 16.4874L24.0475 15.9357H20.1433L19.5492 16.3964L19.0521 18.3667H17.1606L16.7181 16.4146L16.1239 15.9357H12.1046L11.4922 16.4995L10.4313 30.1521C10.4313 30.1521 10.4313 30.1581 10.4313 30.1642H8.22461V13.5714H28.6671V30.1642ZM32.1954 25.8174H29.8917V12.9591L29.2794 12.3468H11.7166C11.7408 12.2801 11.759 12.2134 11.759 12.1406V9.22461H32.2015V25.8174H32.1954Z" fill="#614530"/>
<path d="M17.6759 22.5619L15.7117 26.1327L16.2452 27.042H20.1675L20.701 26.1327L18.7368 22.5619H17.6638H17.6759ZM17.2818 25.8174L18.2094 24.1321L19.1369 25.8174H17.2818Z" fill="#614530"/>
</svg>
