<svg width="75" height="75" viewBox="0 0 75 75" fill="none" xmlns="http://www.w3.org/2000/svg">
<g filter="url(#filter0_d_111_2768)">
<rect x="10" y="4" width="55" height="55" rx="27.5" fill="#B47046" shape-rendering="crispEdges"/>
<g clip-path="url(#clip0_111_2768)">
<path d="M52.9568 25.6399L37.7917 18.5H37.1399L22.043 25.6474C21.6641 25.827 21.5049 26.2761 21.6868 26.6428C21.8687 27.017 22.3158 27.1742 22.6948 26.9945L25.4156 25.7073V43.7516L26.1734 44.5H48.7582L49.516 43.7516V25.6773L52.305 26.9945C52.4111 27.0469 52.5248 27.0694 52.6309 27.0694C52.9113 27.0694 53.1842 26.9122 53.313 26.6428C53.4949 26.2686 53.3357 25.8195 52.9568 25.6474V25.6399ZM48.0003 43.0032H26.9313V24.9888L37.4658 20.0043L48.0003 24.9663V43.0032Z" fill="#F4E5D2"/>
<path d="M37.5038 31.5375C36.8747 31.5375 36.3669 32.0389 36.3669 32.6601V38.3181C36.3669 38.9393 36.8747 39.4408 37.5038 39.4408C38.1328 39.4408 38.6406 38.9393 38.6406 38.3181V32.6601C38.6406 32.0389 38.1328 31.5375 37.5038 31.5375Z" fill="#F4E5D2"/>
<path d="M36.2609 28.5513C36.2609 29.2323 36.8141 29.7787 37.5038 29.7787C38.1934 29.7787 38.7467 29.2323 38.7467 28.5513C38.7467 27.8702 38.1934 27.3239 37.5038 27.3239C36.8141 27.3239 36.2609 27.8702 36.2609 28.5513Z" fill="#F4E5D2"/>
</g>
</g>
<defs>
<filter id="filter0_d_111_2768" x="0" y="0" width="75" height="75" filterUnits="userSpaceOnUse" color-interpolation-filters="sRGB">
<feFlood flood-opacity="0" result="BackgroundImageFix"/>
<feColorMatrix in="SourceAlpha" type="matrix" values="0 0 0 0 0 0 0 0 0 0 0 0 0 0 0 0 0 0 127 0" result="hardAlpha"/>
<feOffset dy="6"/>
<feGaussianBlur stdDeviation="5"/>
<feComposite in2="hardAlpha" operator="out"/>
<feColorMatrix type="matrix" values="0 0 0 0 0 0 0 0 0 0 0 0 0 0 0 0 0 0 0.5 0"/>
<feBlend mode="normal" in2="BackgroundImageFix" result="effect1_dropShadow_111_2768"/>
<feBlend mode="normal" in="SourceGraphic" in2="effect1_dropShadow_111_2768" result="shape"/>
</filter>
<clipPath id="clip0_111_2768">
<rect width="31.7778" height="26" fill="white" transform="translate(21.6111 18.5)"/>
</clipPath>
</defs>
</svg>
