<svg width="75" height="75" viewBox="0 0 75 75" fill="none" xmlns="http://www.w3.org/2000/svg">
<g filter="url(#filter0_d_184_3771)">
<rect x="10" y="4" width="55" height="55" rx="27.5" fill="#B47046" shape-rendering="crispEdges"/>
<path d="M38.7105 28.5061C38.7872 29.0121 38.7534 29.5151 38.7289 30.015C38.689 30.015 38.6492 30.0211 38.6093 30.0242C38.5817 29.9107 38.5541 29.7972 38.5265 29.6837C38.3977 29.1103 37.9684 28.7515 37.3887 28.7484C36.7999 28.7453 36.2111 28.7515 35.6254 28.7545C35.607 28.7545 35.5855 28.7668 35.5487 28.7791V31.4379C35.9811 31.4624 36.4013 31.4992 36.8091 31.3122C37.2323 31.119 37.3244 30.6927 37.4716 30.3032C37.4961 30.3155 37.5237 30.3278 37.5482 30.34V32.8118C37.4869 32.775 37.4102 32.7566 37.3949 32.7167C37.033 31.7599 36.6098 31.5207 35.5457 31.6955V34.4065C36.2295 34.4065 36.9226 34.4617 37.6034 34.3881C38.1953 34.3237 38.5664 33.7839 38.6737 33.0663C38.689 32.9651 38.7412 32.8701 38.778 32.7719C38.8178 32.7811 38.8608 32.7934 38.9006 32.8026V34.6825H33.537C33.5462 34.5107 33.6075 34.4341 33.8068 34.4402C34.4907 34.4617 34.4416 34.4893 34.4416 33.787C34.4416 32.318 34.4416 30.8491 34.4416 29.3801C34.4416 28.6349 34.4508 28.7453 33.8222 28.7515C33.6259 28.7515 33.5278 28.7024 33.537 28.5H38.7105V28.5061Z" fill="#F4E5D2"/>
<path d="M46.7883 28.5054C46.7975 28.6526 46.7606 28.7446 46.5828 28.7323C46.3957 28.72 46.2056 28.7323 45.9694 28.7323V34.6909H45.5922C45.5646 34.6388 45.5432 34.5774 45.5064 34.5314C44.6262 33.4336 43.7461 32.3388 42.8659 31.2409C42.3814 30.6398 41.8999 30.0387 41.3847 29.4009V34.4578H42.1698C42.1759 34.5468 42.1821 34.6204 42.1851 34.6909H40.293V34.4732C40.3574 34.464 40.3972 34.4548 40.4371 34.4548C41.0872 34.4578 41.0995 34.5437 41.0995 33.7801C41.0964 32.2805 41.0995 30.7778 41.0995 29.2782C41.0995 28.9327 40.9268 28.7589 40.5812 28.7568C40.4984 28.7568 40.4156 28.7568 40.3052 28.7568C40.3022 28.6679 40.296 28.5882 40.293 28.5115H42.0594C43.2523 29.9774 44.4453 31.4402 45.6382 32.9061C45.7026 31.5874 45.7026 30.2994 45.7026 29.0114C45.7026 28.8243 45.6045 28.7507 45.4236 28.7568C45.215 28.763 45.0065 28.7568 44.798 28.7568C44.7888 28.6556 44.7796 28.582 44.7734 28.5115H46.7913L46.7883 28.5054Z" fill="#F4E5D2"/>
<path d="M26.597 28.5059C26.5847 29.0149 26.5694 29.5209 26.5571 30.03C26.5172 30.0331 26.4743 30.0392 26.4344 30.0423C26.4038 29.9319 26.37 29.8215 26.3486 29.708C26.2412 29.1836 25.907 28.8125 25.3826 28.7788C24.6956 28.7359 24.0025 28.7696 23.3033 28.7696V31.4499C23.7541 31.4683 24.1835 31.5204 24.6036 31.3119C25.0084 31.1095 25.1096 30.6985 25.2292 30.2937C25.263 30.3121 25.2936 30.3336 25.3274 30.352V32.8238C25.3028 32.836 25.2783 32.8452 25.2568 32.8575C25.1495 32.6152 25.0912 32.327 24.9226 32.143C24.7355 31.9436 24.4564 31.7903 24.1896 31.7136C23.9197 31.6339 23.6131 31.6738 23.3064 31.6584V34.4553C23.5364 34.4553 23.7725 34.4675 24.0087 34.4522C24.2019 34.4369 24.2816 34.5074 24.2663 34.6945H21.3008V34.443C21.448 34.4491 21.5952 34.4553 21.7424 34.4553C22.1748 34.4553 22.184 34.4461 22.184 34.0137C22.184 32.5416 22.1932 31.0727 22.184 29.6007C22.1779 28.6285 22.3557 28.7604 21.3038 28.7635V28.512H26.6031L26.597 28.5059Z" fill="#F4E5D2"/>
<path d="M30.0297 31.9861C29.7291 31.2807 29.4439 30.6183 29.1311 29.8823C28.8521 30.6245 28.6006 31.2899 28.3368 31.9861H30.0297ZM29.7506 28.5054C30.5725 30.4098 31.3974 32.3112 32.2101 34.2186C32.2837 34.3934 32.3818 34.4609 32.5628 34.4394C32.667 34.4272 32.7744 34.4272 32.8756 34.4425C32.9216 34.4486 32.9614 34.5069 33.0013 34.5406C32.9553 34.5713 32.9154 34.6112 32.8664 34.6327C32.8296 34.648 32.7836 34.6357 32.7406 34.6357C31.9617 34.6357 31.1858 34.6357 30.4069 34.6357C30.3271 34.6357 30.2443 34.6204 30.1646 34.6143C30.1554 34.5836 30.1462 34.5499 30.1401 34.5192C30.2198 34.4916 30.3026 34.4394 30.3823 34.4425C31.2288 34.4671 31.0509 34.3474 30.8025 33.7617C30.6154 33.317 30.4161 32.8785 30.2351 32.4338C30.1707 32.2805 30.0941 32.2038 29.9131 32.2069C29.4317 32.2192 28.9471 32.2069 28.4626 32.2192C28.3675 32.2192 28.2203 32.2805 28.1927 32.3541C27.9228 33.0318 27.6714 33.7188 27.3984 34.4456H28.113C28.1222 34.4732 28.1314 34.5008 28.1436 34.5314C28.0823 34.5682 28.024 34.6357 27.9627 34.6357C27.4904 34.6449 27.0182 34.6449 26.5428 34.6357C26.4846 34.6357 26.4263 34.5805 26.3711 34.5529C26.4294 34.5161 26.4968 34.4364 26.549 34.4456C27.0212 34.5376 27.1715 34.2616 27.3156 33.8752C27.9842 32.0812 28.6834 30.2963 29.3734 28.5084H29.7506V28.5054Z" fill="#F4E5D2"/>
<path d="M49.1885 31.962H50.8782C50.5746 31.2628 50.2864 30.6035 49.9736 29.8859C49.6976 30.6127 49.4492 31.2751 49.1885 31.962ZM50.5716 28.5059C51.099 29.7111 51.6265 30.9163 52.1509 32.1246C52.4361 32.7747 52.7275 33.4249 52.9881 34.0842C53.0955 34.3571 53.2365 34.4951 53.5371 34.443C53.6383 34.4246 53.7456 34.4369 53.8499 34.4369V34.627C52.9667 34.6301 52.0835 34.6393 51.2033 34.6362C51.142 34.6362 51.0776 34.5718 51.0162 34.5381C51.0806 34.5043 51.142 34.4491 51.2064 34.443C51.6848 34.4123 51.8269 34.1721 51.6327 33.7223C51.4456 33.2899 51.2677 32.8514 51.0653 32.4282C51.0193 32.3331 50.8782 32.2288 50.7801 32.2258C50.2864 32.2043 49.7926 32.2074 49.2989 32.2258C49.21 32.2258 49.072 32.2994 49.0413 32.373C48.7714 33.0415 48.523 33.7193 48.247 34.443C48.4709 34.443 48.6549 34.4369 48.8358 34.4461C48.8849 34.4461 48.9309 34.4982 48.9799 34.5258C48.9339 34.5657 48.8849 34.6362 48.8389 34.6362C48.3451 34.6454 47.8514 34.6423 47.3577 34.6362C47.3147 34.6362 47.2749 34.5749 47.2319 34.5381C47.2749 34.5043 47.3239 34.4399 47.3577 34.4461C47.9403 34.5841 48.0477 34.1701 48.201 33.7622C48.8358 32.0755 49.489 30.398 50.133 28.7175C50.1606 28.65 50.176 28.5764 50.1974 28.5089H50.5746L50.5716 28.5059Z" fill="#F4E5D2"/>
</g>
<defs>
<filter id="filter0_d_184_3771" x="0" y="0" width="75" height="75" filterUnits="userSpaceOnUse" color-interpolation-filters="sRGB">
<feFlood flood-opacity="0" result="BackgroundImageFix"/>
<feColorMatrix in="SourceAlpha" type="matrix" values="0 0 0 0 0 0 0 0 0 0 0 0 0 0 0 0 0 0 127 0" result="hardAlpha"/>
<feOffset dy="6"/>
<feGaussianBlur stdDeviation="5"/>
<feComposite in2="hardAlpha" operator="out"/>
<feColorMatrix type="matrix" values="0 0 0 0 0 0 0 0 0 0 0 0 0 0 0 0 0 0 0.5 0"/>
<feBlend mode="normal" in2="BackgroundImageFix" result="effect1_dropShadow_184_3771"/>
<feBlend mode="normal" in="SourceGraphic" in2="effect1_dropShadow_184_3771" result="shape"/>
</filter>
</defs>
</svg>
