<svg width="48" height="48" viewBox="0 0 48 48" fill="none" xmlns="http://www.w3.org/2000/svg">
<g filter="url(#filter0_d_184_2717)">
<rect x="4" width="40" height="40" rx="20" fill="#F4E5D2" shape-rendering="crispEdges"/>
<path d="M24.8804 17.8228C24.9362 18.1908 24.9117 18.5566 24.8938 18.9201C24.8648 18.9201 24.8358 18.9246 24.8068 18.9268C24.7868 18.8443 24.7667 18.7618 24.7466 18.6793C24.6529 18.2622 24.3407 18.0012 23.9192 17.999C23.4909 17.9968 23.0627 18.0012 22.6367 18.0035C22.6233 18.0035 22.6077 18.0124 22.581 18.0213V19.955C22.8954 19.9729 23.201 19.9996 23.4976 19.8636C23.8054 19.7231 23.8723 19.413 23.9794 19.1298C23.9972 19.1387 24.0173 19.1476 24.0351 19.1566V20.9542C23.9905 20.9274 23.9348 20.9141 23.9236 20.8851C23.6604 20.1892 23.3527 20.0152 22.5787 20.1424V22.114C23.0761 22.114 23.5801 22.1541 24.0753 22.1006C24.5057 22.0538 24.7756 21.6612 24.8537 21.1393C24.8648 21.0657 24.9027 20.9966 24.9295 20.9252C24.9585 20.9319 24.9897 20.9408 25.0187 20.9475V22.3147H21.1179C21.1246 22.1898 21.1692 22.134 21.3141 22.1385C21.8115 22.1541 21.7758 22.1742 21.7758 21.6634C21.7758 20.5951 21.7758 19.5268 21.7758 18.4585C21.7758 17.9165 21.7825 17.9968 21.3253 18.0012C21.1825 18.0012 21.1112 17.9656 21.1179 17.8184H24.8804V17.8228Z" fill="#5D4632"/>
<path d="M30.7551 17.8223C30.7618 17.9293 30.735 17.9962 30.6057 17.9873C30.4696 17.9784 30.3313 17.9873 30.1596 17.9873V22.3208H29.8853C29.8652 22.2829 29.8496 22.2383 29.8228 22.2049C29.1827 21.4064 28.5426 20.6102 27.9025 19.8117C27.5501 19.3746 27.1999 18.9374 26.8252 18.4735V22.1513H27.3962C27.4007 22.216 27.4051 22.2695 27.4074 22.3208H26.0312V22.1625C26.0781 22.1558 26.1071 22.1491 26.1361 22.1491C26.6089 22.1513 26.6178 22.2138 26.6178 21.6584C26.6156 20.5678 26.6178 19.4749 26.6178 18.3843C26.6178 18.133 26.4922 18.0066 26.2409 18.0052C26.1807 18.0052 26.1205 18.0052 26.0402 18.0052C26.0379 17.9405 26.0335 17.8825 26.0312 17.8267H27.3159C28.1835 18.8928 29.0511 19.9567 29.9187 21.0228C29.9656 20.0637 29.9656 19.127 29.9656 18.1903C29.9656 18.0542 29.8942 18.0007 29.7626 18.0052C29.6109 18.0096 29.4593 18.0052 29.3076 18.0052C29.3009 17.9316 29.2942 17.878 29.2898 17.8267H30.7573L30.7551 17.8223Z" fill="#5D4632"/>
<path d="M16.0705 17.8226C16.0616 18.1929 16.0505 18.5609 16.0415 18.9311C16.0125 18.9333 15.9813 18.9378 15.9523 18.94C15.93 18.8597 15.9055 18.7794 15.8899 18.6969C15.8118 18.3155 15.5687 18.0457 15.1873 18.0211C14.6877 17.9899 14.1837 18.0144 13.6752 18.0144V19.9638C14.003 19.9771 14.3153 20.015 14.6208 19.8634C14.9152 19.7162 14.9888 19.4173 15.0758 19.1229C15.1003 19.1363 15.1226 19.1519 15.1472 19.1653V20.9629C15.1293 20.9719 15.1115 20.9786 15.0959 20.9875C15.0178 20.8113 14.9754 20.6016 14.8528 20.4678C14.7167 20.3228 14.5138 20.2113 14.3197 20.1556C14.1235 20.0976 13.9004 20.1266 13.6774 20.1154V22.1495C13.8447 22.1495 14.0164 22.1584 14.1881 22.1472C14.3286 22.1361 14.3866 22.1874 14.3755 22.3234H12.2188V22.1406C12.3258 22.145 12.4329 22.1495 12.5399 22.1495C12.8544 22.1495 12.8611 22.1428 12.8611 21.8283C12.8611 20.7577 12.8678 19.6894 12.8611 18.6189C12.8566 17.9118 12.986 18.0077 12.221 18.01V17.8271H16.075L16.0705 17.8226Z" fill="#5D4632"/>
<path d="M18.567 20.3537C18.3485 19.8407 18.141 19.359 17.9135 18.8237C17.7106 19.3634 17.5277 19.8474 17.3359 20.3537H18.567ZM18.3641 17.8223C18.9618 19.2073 19.5618 20.5901 20.1528 21.9774C20.2063 22.1045 20.2777 22.1536 20.4093 22.138C20.4851 22.129 20.5632 22.129 20.6368 22.1402C20.6702 22.1447 20.6992 22.187 20.7282 22.2116C20.6948 22.2339 20.6658 22.2629 20.6301 22.2785C20.6033 22.2896 20.5699 22.2807 20.5386 22.2807C19.9721 22.2807 19.4079 22.2807 18.8414 22.2807C18.7834 22.2807 18.7232 22.2695 18.6652 22.2651C18.6585 22.2428 18.6518 22.2183 18.6473 22.1959C18.7053 22.1759 18.7655 22.138 18.8235 22.1402C19.4391 22.158 19.3097 22.071 19.1291 21.6451C18.993 21.3217 18.8481 21.0027 18.7165 20.6793C18.6696 20.5678 18.6139 20.512 18.4823 20.5143C18.1321 20.5232 17.7797 20.5143 17.4273 20.5232C17.3582 20.5232 17.2511 20.5678 17.2311 20.6213C17.0348 21.1142 16.8519 21.6138 16.6534 22.1424H17.1731C17.1798 22.1625 17.1865 22.1826 17.1954 22.2049C17.1508 22.2316 17.1084 22.2807 17.0638 22.2807C16.7203 22.2874 16.3768 22.2874 16.0311 22.2807C15.9888 22.2807 15.9464 22.2406 15.9062 22.2205C15.9486 22.1937 15.9977 22.1357 16.0356 22.1424C16.3791 22.2093 16.4884 22.0086 16.5932 21.7276C17.0794 20.4228 17.5879 19.1248 18.0897 17.8245H18.3641V17.8223Z" fill="#5D4632"/>
<path d="M32.5008 20.3362H33.7297C33.5089 19.8277 33.2993 19.3482 33.0718 18.8263C32.8711 19.3549 32.6904 19.8366 32.5008 20.3362ZM33.5067 17.8226C33.8903 18.6992 34.2739 19.5757 34.6553 20.4544C34.8628 20.9272 35.0746 21.4001 35.2642 21.8796C35.3423 22.0781 35.4449 22.1785 35.6634 22.1406C35.737 22.1272 35.8151 22.1361 35.8909 22.1361V22.2744C35.2486 22.2766 34.6063 22.2833 33.9662 22.2811C33.9215 22.2811 33.8747 22.2342 33.8301 22.2097C33.8769 22.1852 33.9216 22.145 33.9684 22.1406C34.3163 22.1183 34.4197 21.9435 34.2784 21.6164C34.1424 21.3019 34.013 20.983 33.8658 20.6752C33.8323 20.6061 33.7297 20.5303 33.6584 20.528C33.2993 20.5124 32.9402 20.5146 32.5811 20.528C32.5164 20.528 32.4161 20.5816 32.3938 20.6351C32.1975 21.1213 32.0168 21.6142 31.8161 22.1406C31.9789 22.1406 32.1128 22.1361 32.2443 22.1428C32.28 22.1428 32.3135 22.1807 32.3492 22.2008C32.3157 22.2298 32.28 22.2811 32.2466 22.2811C31.8875 22.2878 31.5284 22.2855 31.1693 22.2811C31.1381 22.2811 31.1091 22.2365 31.0779 22.2097C31.1091 22.1852 31.1448 22.1383 31.1693 22.1428C31.5931 22.2431 31.6711 21.9421 31.7827 21.6454C32.2443 20.4187 32.7194 19.1987 33.1878 17.9765C33.2078 17.9275 33.219 17.8739 33.2346 17.8249H33.5089L33.5067 17.8226Z" fill="#5D4632"/>
</g>
<defs>
<filter id="filter0_d_184_2717" x="0" y="0" width="48" height="48" filterUnits="userSpaceOnUse" color-interpolation-filters="sRGB">
<feFlood flood-opacity="0" result="BackgroundImageFix"/>
<feColorMatrix in="SourceAlpha" type="matrix" values="0 0 0 0 0 0 0 0 0 0 0 0 0 0 0 0 0 0 127 0" result="hardAlpha"/>
<feOffset dy="4"/>
<feGaussianBlur stdDeviation="2"/>
<feComposite in2="hardAlpha" operator="out"/>
<feColorMatrix type="matrix" values="0 0 0 0 0 0 0 0 0 0 0 0 0 0 0 0 0 0 0.3 0"/>
<feBlend mode="normal" in2="BackgroundImageFix" result="effect1_dropShadow_184_2717"/>
<feBlend mode="normal" in="SourceGraphic" in2="effect1_dropShadow_184_2717" result="shape"/>
</filter>
</defs>
</svg>
