<svg width="40" height="40" viewBox="0 0 40 40" fill="none" xmlns="http://www.w3.org/2000/svg">
<path d="M33.6245 7.61702C33.3149 7.49317 32.9681 7.6356 32.8381 7.94524L30.0389 14.7139L28.0015 13.6736L30.8564 6.76242C30.9864 6.45278 30.8378 6.09979 30.5282 5.97594C30.2185 5.85208 29.8717 5.99452 29.7417 6.30415L26.924 13.1224L26.5214 12.918L25.6916 13.2215L23.3755 18.6897L10.1477 14.7016L9.46032 14.9555L6.02332 20.4175C5.84373 20.6962 5.93043 21.0739 6.2153 21.2473C6.49398 21.4269 6.86554 21.3402 7.04513 21.0554L10.2344 15.9835L23.5427 19.9964L24.2734 19.6558L26.5462 14.2866L30.2433 16.1754L25.9703 27.7621C24.3787 28.4248 22.7129 28.8706 21.0037 29.106C19.3068 29.3351 17.5852 29.3475 15.8822 29.1369C15.5478 29.0936 15.2506 29.3289 15.2134 29.6633C15.1763 29.9977 15.4054 30.295 15.7398 30.3321C16.6006 30.4374 17.4676 30.4932 18.3346 30.4932C19.2821 30.4932 20.2296 30.4312 21.1709 30.3012C23.072 30.0411 24.9237 29.5271 26.6886 28.7716L27.0168 28.4248L31.5685 16.0887L31.2775 15.3456L31.1165 15.2651L33.9528 8.40351C34.0828 8.09387 33.9342 7.74088 33.6245 7.61702Z" fill="#614530"/>
<path d="M15.6159 25.4212C15.6159 22.9813 13.628 20.9934 11.1881 20.9934C8.74814 20.9934 6.76025 22.9813 6.76025 25.4212C6.76025 27.6568 8.42611 29.5085 10.5874 29.7995V32.7597C10.5874 33.0941 10.8599 33.3604 11.1881 33.3604C11.5163 33.3604 11.7888 33.0879 11.7888 32.7597V29.7995C13.9439 29.5023 15.6159 27.6568 15.6159 25.4212ZM11.1881 28.6415C9.41076 28.6415 7.96785 27.1986 7.96785 25.4212C7.96785 23.6439 9.41076 22.201 11.1881 22.201C12.9654 22.201 14.4083 23.6439 14.4083 25.4212C14.4083 27.1986 12.9654 28.6415 11.1881 28.6415Z" fill="#614530"/>
</svg>
