<svg width="48" height="48" viewBox="0 0 48 48" fill="none" xmlns="http://www.w3.org/2000/svg">
<g filter="url(#filter0_d_99_1869)">
<rect x="4" width="40" height="40" rx="20" fill="#F4E5D2" shape-rendering="crispEdges"/>
<mask id="mask0_99_1869" style="mask-type:luminance" maskUnits="userSpaceOnUse" x="13" y="11" width="22" height="18">
<path d="M33.5969 11.5L29.9148 15.1821L30.0903 15.3576L23.9975 21.4503L17.9015 15.3576L18.077 15.1821L14.3982 11.5L13.6333 12.2616L17.3154 15.9437L17.4909 15.7682L23.5836 21.8609L19.7293 25.7185C18.7624 26.6854 15.9446 25.7881 15.1002 25.394C14.2525 25 13.3518 26.5232 13.7194 27.3974C14.0869 28.2715 15.5903 28.3046 16.3651 28.4636C16.4777 28.4868 16.5903 28.4967 16.6995 28.5H16.7492C18.0836 28.4834 19.2724 27 20.1432 26.1291L24.0009 22.2715L27.8585 26.1291C28.7293 27 29.9148 28.4801 31.2525 28.5H31.3022C31.4114 28.5 31.524 28.4868 31.6366 28.4636C32.4081 28.3046 33.9148 28.2715 34.2823 27.3974C34.6499 26.5232 33.7459 25 32.9015 25.394C32.0538 25.7881 29.2393 26.6854 28.2724 25.7185L24.4148 21.8609L30.5075 15.7682L30.683 15.9437L34.3651 12.2616L33.6035 11.5L33.5969 11.5Z" fill="white"/>
</mask>
<g mask="url(#mask0_99_1869)">
<path d="M34.6396 11.5H13.3516V28.4967H34.6396V11.5Z" fill="#5D4632"/>
</g>
<mask id="mask1_99_1869" style="mask-type:luminance" maskUnits="userSpaceOnUse" x="22" y="12" width="4" height="5">
<path d="M22.1401 14.4105C22.1401 15.4336 22.9713 16.2648 23.9944 16.2648C25.0176 16.2648 25.8487 15.4336 25.8487 14.4105C25.8487 13.3873 25.0176 12.5562 23.9944 12.5562C22.9713 12.5562 22.1401 13.3873 22.1401 14.4105Z" fill="white"/>
</mask>
<g mask="url(#mask1_99_1869)">
<path d="M25.8521 12.5562H22.1401V16.2681H25.8521V12.5562Z" fill="#5D4632"/>
</g>
</g>
<defs>
<filter id="filter0_d_99_1869" x="0" y="0" width="48" height="48" filterUnits="userSpaceOnUse" color-interpolation-filters="sRGB">
<feFlood flood-opacity="0" result="BackgroundImageFix"/>
<feColorMatrix in="SourceAlpha" type="matrix" values="0 0 0 0 0 0 0 0 0 0 0 0 0 0 0 0 0 0 127 0" result="hardAlpha"/>
<feOffset dy="4"/>
<feGaussianBlur stdDeviation="2"/>
<feComposite in2="hardAlpha" operator="out"/>
<feColorMatrix type="matrix" values="0 0 0 0 0 0 0 0 0 0 0 0 0 0 0 0 0 0 0.3 0"/>
<feBlend mode="normal" in2="BackgroundImageFix" result="effect1_dropShadow_99_1869"/>
<feBlend mode="normal" in="SourceGraphic" in2="effect1_dropShadow_99_1869" result="shape"/>
</filter>
</defs>
</svg>
