<svg width="48" height="48" viewBox="0 0 48 48" fill="none" xmlns="http://www.w3.org/2000/svg">
<g filter="url(#filter0_d_99_1870)">
<rect x="4" width="40" height="40" rx="20" fill="#F4E5D2" shape-rendering="crispEdges"/>
<g clip-path="url(#clip0_99_1870)">
<path d="M21.1943 18.1554C20.0285 18.2435 19.0596 19.1347 18.8368 20.3212C18.785 20.601 18.9664 20.8756 19.2513 20.9274C19.2824 20.9326 19.3135 20.9378 19.3498 20.9378C19.5933 20.9378 19.8109 20.7668 19.8576 20.5129C19.9923 19.7875 20.5778 19.2383 21.2721 19.1865C21.8524 19.1451 22.4275 19.4611 22.7384 19.9948C22.8835 20.2435 23.1995 20.3264 23.4482 20.1865C23.6969 20.0414 23.7798 19.7254 23.6399 19.4767C23.1322 18.601 22.1788 18.0777 21.1995 18.1502L21.1943 18.1554Z" fill="#442A18"/>
<path d="M24.3135 19.5855C24.3808 19.6166 24.4482 19.6269 24.5207 19.6269C24.7228 19.6269 24.9093 19.5129 24.9974 19.3161C25.0129 19.2746 25.4326 18.3523 26.3912 18.228C27.1166 18.1347 27.8471 18.5233 28.2098 19.1969C28.3446 19.4508 28.6606 19.544 28.9093 19.4093C29.1632 19.2746 29.2565 18.9585 29.1218 18.7098C28.557 17.658 27.4015 17.0518 26.2513 17.2072C24.7072 17.4145 24.0699 18.8497 24.044 18.9119C23.93 19.1762 24.0492 19.4767 24.3135 19.5907V19.5855Z" fill="#442A18"/>
<path d="M22.0803 16.0415C21.0699 15.7824 19.9819 16.1658 19.3135 17.0208C19.1373 17.2487 19.1788 17.57 19.4016 17.7461C19.6295 17.9223 19.9508 17.8809 20.1269 17.6581C20.5415 17.1296 21.2098 16.8912 21.8212 17.0467C22.614 17.2487 22.9145 18.0311 22.9301 18.0622C23.0078 18.2695 23.2047 18.399 23.4171 18.399C23.4793 18.399 23.5415 18.3886 23.5984 18.3679C23.8679 18.2695 24.0026 17.9689 23.899 17.6995C23.8472 17.5648 23.3653 16.3731 22.0751 16.0415H22.0803Z" fill="#442A18"/>
<path d="M34.5674 15.943L24.1995 11H23.7539L13.4327 15.943C13.1736 16.0674 13.0648 16.3731 13.1891 16.6321C13.3135 16.8912 13.6192 17 13.8783 16.8756L15.7332 15.9845V28.4767L16.2513 28.9948H31.6917L32.2099 28.4767V15.9689L34.1166 16.8808C34.1891 16.9171 34.2668 16.9326 34.3394 16.9326C34.5311 16.9326 34.7176 16.8238 34.8057 16.6373C34.9301 16.3782 34.8213 16.0674 34.5622 15.9482L34.5674 15.943ZM31.1788 27.9637H24.2876V22.0622C24.3912 21.7824 24.8472 20.7565 25.842 20.7565H25.8523C27.0078 20.7617 27.4016 21.7202 27.4119 21.7565C27.5104 22.0259 27.8109 22.1606 28.0803 22.057C28.3498 21.9585 28.4845 21.658 28.3808 21.3886C28.3549 21.3212 27.7332 19.7306 25.8575 19.7202H25.842C24.5881 19.7202 23.8834 20.601 23.5415 21.2228C23.2409 20.9689 22.8731 20.7979 22.4793 20.7409C21.4586 20.6062 20.4741 21.2435 20.1477 22.2591C20.0596 22.5337 20.2099 22.8238 20.4793 22.9119C20.7539 23 21.0441 22.8497 21.1321 22.5803C21.3031 22.0466 21.8264 21.7047 22.3446 21.7668C22.7798 21.8238 23.1529 22.171 23.2669 22.6321C23.2669 22.6321 23.2669 22.6373 23.2669 22.6425L23.2461 27.9585H16.7746V15.4922L23.9767 12.0415L31.1788 15.4767V27.9637Z" fill="#442A18"/>
</g>
</g>
<defs>
<filter id="filter0_d_99_1870" x="0" y="0" width="48" height="48" filterUnits="userSpaceOnUse" color-interpolation-filters="sRGB">
<feFlood flood-opacity="0" result="BackgroundImageFix"/>
<feColorMatrix in="SourceAlpha" type="matrix" values="0 0 0 0 0 0 0 0 0 0 0 0 0 0 0 0 0 0 127 0" result="hardAlpha"/>
<feOffset dy="4"/>
<feGaussianBlur stdDeviation="2"/>
<feComposite in2="hardAlpha" operator="out"/>
<feColorMatrix type="matrix" values="0 0 0 0 0 0 0 0 0 0 0 0 0 0 0 0 0 0 0.3 0"/>
<feBlend mode="normal" in2="BackgroundImageFix" result="effect1_dropShadow_99_1870"/>
<feBlend mode="normal" in="SourceGraphic" in2="effect1_dropShadow_99_1870" result="shape"/>
</filter>
<clipPath id="clip0_99_1870">
<rect width="21.7254" height="18" fill="white" transform="translate(13.1373 11)"/>
</clipPath>
</defs>
</svg>
