<svg width="75" height="75" viewBox="0 0 75 75" fill="none" xmlns="http://www.w3.org/2000/svg">
<g filter="url(#filter0_d_111_2710)">
<rect x="10" y="4" width="55" height="55" rx="27.5" fill="#B47046" shape-rendering="crispEdges"/>
<g clip-path="url(#clip0_111_2710)">
<path d="M33.4473 28.8356C31.7634 28.9628 30.3639 30.2501 30.042 31.964C29.9672 32.3681 30.2291 32.7648 30.6408 32.8396C30.6857 32.8471 30.7306 32.8546 30.783 32.8546C31.1347 32.8546 31.4491 32.6076 31.5164 32.2409C31.711 31.1931 32.5567 30.3998 33.5596 30.325C34.3978 30.2651 35.2286 30.7216 35.6776 31.4925C35.8872 31.8517 36.3437 31.9715 36.7029 31.7694C37.0622 31.5598 37.1819 31.1033 36.9799 30.7441C36.2464 29.4793 34.8693 28.7234 33.4548 28.8281L33.4473 28.8356Z" fill="#F4E5D2"/>
<path d="M37.9528 30.9013C38.0501 30.9462 38.1474 30.9611 38.2521 30.9611C38.544 30.9611 38.8134 30.7965 38.9407 30.5121C38.9631 30.4522 39.5694 29.12 40.9539 28.9404C42.0017 28.8057 43.057 29.367 43.5809 30.3399C43.7755 30.7067 44.232 30.8414 44.5912 30.6468C44.958 30.4522 45.0927 29.9957 44.8981 29.6364C44.0823 28.1171 42.4133 27.2415 40.7518 27.466C38.5216 27.7654 37.601 29.8385 37.5636 29.9283C37.3989 30.31 37.5711 30.7441 37.9528 30.9087V30.9013Z" fill="#F4E5D2"/>
<path d="M34.7271 25.7821C33.2677 25.4079 31.696 25.9618 30.7305 27.1967C30.4761 27.526 30.536 27.99 30.8578 28.2444C31.1871 28.4989 31.6511 28.439 31.9056 28.1172C32.5043 27.3538 33.4698 27.0096 34.3529 27.2341C35.498 27.526 35.932 28.6561 35.9545 28.701C36.0668 29.0003 36.3512 29.1874 36.658 29.1874C36.7478 29.1874 36.8376 29.1725 36.92 29.1425C37.3091 29.0003 37.5037 28.5663 37.354 28.1771C37.2792 27.9825 36.5832 26.2611 34.7196 25.7821H34.7271Z" fill="#F4E5D2"/>
<path d="M52.7638 25.6399L37.788 18.5H37.1443L22.2359 25.6399C21.8617 25.8195 21.7045 26.2611 21.8841 26.6353C22.0637 27.0095 22.5053 27.1667 22.8795 26.987L25.5588 25.6998V43.7441L26.3073 44.4925H48.6101L49.3585 43.7441V25.6773L52.1127 26.9945C52.2174 27.0469 52.3297 27.0694 52.4345 27.0694C52.7114 27.0694 52.9808 26.9122 53.1081 26.6428C53.2877 26.2686 53.1305 25.8195 52.7563 25.6474L52.7638 25.6399ZM47.8691 43.0032H37.9152V34.4787C38.0649 34.0746 38.7235 32.5927 40.1604 32.5927H40.1754C41.8444 32.6002 42.4132 33.9847 42.4282 34.0371C42.5704 34.4263 43.0044 34.6209 43.3936 34.4712C43.7828 34.329 43.9774 33.8949 43.8277 33.5058C43.7903 33.4085 42.8922 31.1108 40.1829 31.0959H40.1604C38.3493 31.0959 37.3314 32.3682 36.8375 33.2663C36.4034 32.8995 35.872 32.6526 35.3032 32.5702C33.8288 32.3756 32.4069 33.2962 31.9353 34.7631C31.8081 35.1598 32.0252 35.5789 32.4143 35.7061C32.811 35.8333 33.2301 35.6163 33.3573 35.2271C33.6043 34.4562 34.3602 33.9623 35.1086 34.0521C35.7373 34.1344 36.2762 34.6359 36.4408 35.302C36.4408 35.302 36.4408 35.3094 36.4408 35.3169L36.4109 42.9957H27.0632V24.9888L37.4661 20.0043L47.8691 24.9663V43.0032Z" fill="#F4E5D2"/>
</g>
</g>
<defs>
<filter id="filter0_d_111_2710" x="0" y="0" width="75" height="75" filterUnits="userSpaceOnUse" color-interpolation-filters="sRGB">
<feFlood flood-opacity="0" result="BackgroundImageFix"/>
<feColorMatrix in="SourceAlpha" type="matrix" values="0 0 0 0 0 0 0 0 0 0 0 0 0 0 0 0 0 0 127 0" result="hardAlpha"/>
<feOffset dy="6"/>
<feGaussianBlur stdDeviation="5"/>
<feComposite in2="hardAlpha" operator="out"/>
<feColorMatrix type="matrix" values="0 0 0 0 0 0 0 0 0 0 0 0 0 0 0 0 0 0 0.5 0"/>
<feBlend mode="normal" in2="BackgroundImageFix" result="effect1_dropShadow_111_2710"/>
<feBlend mode="normal" in="SourceGraphic" in2="effect1_dropShadow_111_2710" result="shape"/>
</filter>
<clipPath id="clip0_111_2710">
<rect width="31.3811" height="26" fill="white" transform="translate(21.8094 18.5)"/>
</clipPath>
</defs>
</svg>
