<svg width="48" height="48" viewBox="0 0 48 48" fill="none" xmlns="http://www.w3.org/2000/svg">
<g filter="url(#filter0_d_184_2719)">
<rect x="4" width="40" height="40" rx="20" fill="#F4E5D2" shape-rendering="crispEdges"/>
<path d="M16.2108 18.1502C16.2043 18.1437 16.1966 18.1359 16.1901 18.1295C16.1513 18.1489 16.1125 18.1683 16.0737 18.1889C15.4803 18.5199 14.914 18.8936 14.3645 19.2944C13.987 19.5698 13.6624 19.9021 13.3754 20.2718C13.3508 20.3029 13.3314 20.3391 13.3004 20.3869C13.3599 20.3947 13.4026 20.405 13.4452 20.4063C13.6017 20.4115 13.74 20.3533 13.8667 20.2706C14.0102 20.1762 14.1537 20.0792 14.2882 19.9732C14.7356 19.6228 15.157 19.2453 15.5656 18.8509C15.7466 18.6764 15.9173 18.4915 16.0905 18.3092C16.1358 18.2614 16.1707 18.2045 16.2095 18.1502M12.8 20.2744C12.8117 20.2667 12.8298 20.2602 12.8363 20.2486C12.9578 19.9977 13.1466 19.7986 13.3289 19.5944C13.5409 19.3565 13.8034 19.1793 14.0542 18.9867C14.5946 18.5729 15.1583 18.1954 15.7389 17.8412C15.9793 17.6951 16.2302 17.5696 16.4926 17.4675C16.7137 17.3822 16.9309 17.2904 17.1301 17.1611C17.2412 17.0874 17.3486 17.0059 17.4507 16.9193C17.7119 16.6943 17.7571 16.4112 17.6537 16.0944C17.5619 15.8151 17.3744 15.616 17.1094 15.4984C16.7835 15.3536 16.4409 15.2876 16.0828 15.32C15.832 15.3419 15.6057 15.4337 15.3924 15.5591C15.2915 15.6186 15.1945 15.6884 15.0963 15.7544C15.051 15.7841 15.0071 15.8164 14.9618 15.8462C14.9075 15.8837 14.8506 15.894 14.7912 15.8565C14.7291 15.8177 14.6955 15.7583 14.7058 15.6871C14.7149 15.629 14.7343 15.5682 14.764 15.5178C14.9269 15.2398 15.1661 15.0575 15.4829 14.9903C15.8785 14.9062 16.2793 14.8817 16.6827 14.9424C16.8547 14.9683 17.0176 15.0239 17.1753 15.095C17.3149 15.1596 17.4533 15.2243 17.5903 15.2915C17.7261 15.3574 17.8489 15.4428 17.9549 15.5501C18.0635 15.66 18.1347 15.7893 18.1631 15.9406C18.2445 16.3737 18.1204 16.7525 17.8515 17.0913C17.8282 17.121 17.8024 17.1481 17.7675 17.1869C17.8127 17.196 17.845 17.2024 17.8774 17.2102C18.2135 17.2774 18.4126 17.5063 18.4346 17.8476C18.4449 18.0015 18.4269 18.1527 18.3881 18.3014C18.3389 18.4876 18.2588 18.6609 18.1709 18.8302C18.1553 18.8613 18.1398 18.8923 18.123 18.9259C18.1696 18.9427 18.198 18.9194 18.2264 18.9026C18.4062 18.8005 18.5859 18.6958 18.7656 18.5923C19.1509 18.3725 19.5349 18.1502 19.9228 17.9355C20.0107 17.8864 20.1102 17.8554 20.2072 17.8256C20.2576 17.8101 20.3145 17.8075 20.3675 17.8114C20.4464 17.8179 20.4852 17.867 20.4878 17.9459C20.4904 18.0157 20.4723 18.0816 20.4257 18.1321C20.3559 18.2058 20.2848 18.282 20.2033 18.3389C19.7999 18.6221 19.4909 18.9931 19.2142 19.3927C19.1923 19.4237 19.1742 19.4586 19.1599 19.4935C19.1315 19.5569 19.1483 19.5814 19.2194 19.5827C19.2543 19.5827 19.2892 19.5775 19.3228 19.5698C19.4819 19.5349 19.6189 19.4534 19.7508 19.3629C19.8038 19.3267 19.8529 19.2866 19.906 19.2517C20.0171 19.178 20.1296 19.2207 20.1813 19.3681C20.1697 19.3759 20.1503 19.3875 20.1322 19.4004C19.8659 19.6021 19.5814 19.7715 19.2556 19.8594C19.1729 19.8814 19.0862 19.8943 19.0009 19.893C18.8005 19.8904 18.6906 19.7728 18.6854 19.5724C18.6816 19.3888 18.7449 19.2233 18.8264 19.0617C18.8419 19.0306 18.8587 19.0009 18.8781 18.966C18.8289 18.9479 18.7979 18.9763 18.7669 18.9931C18.6415 19.0617 18.5174 19.1354 18.3919 19.2052C18.1489 19.3396 17.9071 19.4754 17.6614 19.6047C17.5774 19.6487 17.4856 19.6784 17.3951 19.7068C17.3266 19.7288 17.2555 19.7211 17.1882 19.6952C17.1119 19.6668 17.0602 19.6125 17.0344 19.5349C17.0124 19.4676 17.0227 19.4082 17.0757 19.3603C17.1249 19.3151 17.1766 19.2724 17.2309 19.2336C17.3822 19.1263 17.5024 18.9944 17.5929 18.8315C17.708 18.6247 17.8192 18.4178 17.8838 18.1889C17.9071 18.1062 17.9239 18.0209 17.9304 17.9355C17.9433 17.7571 17.858 17.6588 17.6808 17.6407C17.5451 17.6278 17.4119 17.6459 17.2826 17.6834C17.2374 17.6963 17.1973 17.7364 17.1637 17.7726C16.9102 18.0454 16.6646 18.3273 16.4034 18.5936C16.1203 18.882 15.8242 19.1586 15.5294 19.4379C15.2514 19.7017 14.9709 19.9603 14.689 20.2201C14.4964 20.3973 14.2934 20.5628 14.0581 20.683C13.8318 20.7981 13.5913 20.8588 13.3379 20.8459C13.25 20.842 13.1608 20.8213 13.078 20.7929C12.9668 20.7554 12.8931 20.6714 12.8505 20.5628C12.8388 20.5343 12.8182 20.5097 12.8026 20.4839V20.2731L12.8 20.2744Z" fill="#5D4632"/>
<path d="M23.1532 24.6464C23.1985 24.6245 23.2179 24.587 23.2192 24.5404C23.2192 24.5029 23.2037 24.4732 23.1688 24.4564C23.1364 24.4409 23.1067 24.4473 23.0821 24.4719C23.0537 24.4991 23.0511 24.534 23.0653 24.5676C23.0821 24.6064 23.108 24.6387 23.1532 24.6464ZM23.3498 24.9994C23.2722 24.8921 23.183 24.8081 23.0757 24.7499C22.9593 24.8106 22.9567 24.958 23.0356 25.033C23.1274 25.1197 23.2515 25.1093 23.3498 24.9994ZM23.0498 25.2037C23.0356 25.1972 23.0214 25.1895 23.0071 25.183C22.874 25.1197 22.8287 24.9684 22.9115 24.8469C22.9412 24.8029 22.9826 24.7667 23.0252 24.7201C23.0149 24.702 22.9994 24.6801 22.9865 24.6555C22.9464 24.5792 22.9619 24.4978 23.0239 24.4486C23.0951 24.3917 23.214 24.3892 23.2722 24.4435C23.3161 24.4848 23.3187 24.5559 23.2748 24.6064C23.2541 24.6296 23.2295 24.649 23.2049 24.671C23.2838 24.7421 23.3588 24.8094 23.4403 24.8805C23.4933 24.83 23.5295 24.7667 23.5476 24.6982C23.554 24.6736 23.5256 24.6413 23.5114 24.6077H23.7725C23.6135 24.662 23.5553 24.8068 23.4713 24.9218C23.5683 25.108 23.6471 25.1416 23.8023 25.0744C23.7885 25.1141 23.7488 25.1567 23.6833 25.2024H23.5295C23.4778 25.1533 23.426 25.1041 23.3795 25.0615C23.3019 25.1093 23.2243 25.1559 23.1468 25.2024H23.0511L23.0498 25.2037Z" fill="#5D4632"/>
<path d="M28.4649 24.8186C28.4597 24.7087 28.4365 24.6079 28.3641 24.5251C28.2619 24.4049 28.0809 24.4113 27.993 24.5367C27.8947 24.6764 27.9193 24.9582 28.0408 25.0798C28.1649 25.2039 28.3692 25.1612 28.4287 24.9944C28.4481 24.9388 28.4533 24.8781 28.4662 24.8186M28.1132 25.2039C28.09 25.1948 28.0667 25.1832 28.0434 25.1754C27.8779 25.1173 27.7913 24.9983 27.7784 24.8264C27.7654 24.6609 27.8533 24.5044 27.9994 24.4346C28.1598 24.3583 28.3188 24.3725 28.4623 24.4721C28.6924 24.6298 28.6588 25.0125 28.4054 25.1457C28.3602 25.169 28.3123 25.1845 28.2658 25.2039H28.1119H28.1132Z" fill="#5D4632"/>
<path d="M18.0236 24.8247C18.0184 24.7148 17.9939 24.6139 17.9241 24.5299C17.8193 24.4058 17.6344 24.4122 17.5478 24.5428C17.4547 24.6824 17.478 24.9565 17.5956 25.0794C17.7146 25.2022 17.9189 25.1673 17.9809 25.0083C18.0042 24.9501 18.0107 24.8867 18.0249 24.8247M17.6706 25.2061C17.6474 25.197 17.6241 25.1854 17.6008 25.1776C17.4392 25.1207 17.35 25.007 17.3371 24.8376C17.3241 24.6669 17.3888 24.5312 17.5388 24.4445C17.69 24.3579 17.8982 24.376 18.0352 24.4833C18.2628 24.6617 18.1969 25.0574 17.9202 25.1686C17.8878 25.1815 17.8555 25.1931 17.8232 25.2061H17.6693H17.6706Z" fill="#5D4632"/>
<path d="M21.578 25.205C21.578 25.205 21.5755 25.1985 21.5729 25.1973C21.4936 25.1593 21.46 25.0899 21.472 24.9891C21.4837 25.0111 21.494 25.0343 21.5056 25.0563C21.5405 25.121 21.5923 25.1572 21.6685 25.1494C21.7203 25.1442 21.7603 25.1197 21.7797 25.0705C21.7978 25.0227 21.794 24.9736 21.7552 24.9374C21.7229 24.9076 21.6841 24.8844 21.6479 24.8598C21.6104 24.8352 21.5703 24.8158 21.5354 24.7874C21.4643 24.7279 21.4526 24.6465 21.4694 24.5611C21.4863 24.4758 21.5431 24.4228 21.6272 24.3995C21.7073 24.3775 21.7836 24.3892 21.869 24.4124C21.8715 24.4577 21.8728 24.5017 21.8754 24.5469C21.869 24.5469 21.8625 24.5495 21.8573 24.5508C21.847 24.5327 21.8366 24.5159 21.8263 24.4978C21.7978 24.4499 21.7578 24.4241 21.6996 24.4318C21.6427 24.4383 21.6052 24.468 21.5897 24.5236C21.5729 24.5818 21.5845 24.6335 21.6349 24.6684C21.6841 24.7034 21.7384 24.7305 21.7914 24.7602C21.8702 24.8042 21.9155 24.8701 21.9155 24.9607C21.9155 25.0576 21.8741 25.1326 21.781 25.1727C21.7578 25.183 21.7358 25.1934 21.7125 25.2037H21.578V25.205Z" fill="#5D4632"/>
<path d="M27.0714 25.205C27.0714 25.205 27.0688 25.1985 27.0662 25.1972C26.9852 25.1593 26.9477 25.0864 26.9538 24.9787C26.9706 25.0071 26.9822 25.0214 26.99 25.0382C27.0106 25.0834 27.0378 25.1196 27.0856 25.139C27.1542 25.1649 27.2291 25.1442 27.2641 25.0886C27.299 25.0317 27.2847 24.958 27.2214 24.9115C27.1774 24.8791 27.1283 24.8559 27.0818 24.8287C27.0184 24.7925 26.9719 24.7421 26.9589 24.6671C26.9331 24.5171 27.021 24.3995 27.1748 24.3904C27.2343 24.3865 27.2938 24.3982 27.3597 24.4034C27.3636 24.4564 27.3675 24.5016 27.3701 24.5469C27.3636 24.5482 27.3571 24.5495 27.3507 24.552C27.3365 24.5301 27.3235 24.5055 27.308 24.4848C27.2615 24.4227 27.18 24.4124 27.1218 24.4602C27.0675 24.5055 27.0572 24.596 27.105 24.6477C27.1283 24.6723 27.1593 24.6904 27.1891 24.7085C27.224 24.7305 27.2628 24.7473 27.2977 24.7693C27.3778 24.8197 27.414 24.8934 27.405 24.9878C27.3972 25.0796 27.3468 25.1403 27.2654 25.1765C27.2447 25.1856 27.2253 25.1946 27.2059 25.2037H27.0714V25.205Z" fill="#5D4632"/>
<path d="M31.192 25.2055C31.1843 25.2003 31.1778 25.1926 31.1688 25.19C31.0653 25.1473 31.0498 25.115 31.0783 24.9844C31.0938 25.0167 31.1054 25.0413 31.1183 25.0646C31.1455 25.1111 31.183 25.1434 31.2373 25.1499C31.3006 25.159 31.3588 25.1318 31.3834 25.0827C31.4105 25.0297 31.3989 24.9624 31.3446 24.9198C31.3019 24.8862 31.2528 24.8629 31.2063 24.8357C31.1468 24.8008 31.0977 24.7582 31.0796 24.6883C31.0395 24.5345 31.1313 24.4026 31.289 24.3923C31.3485 24.3884 31.408 24.4 31.4752 24.4052C31.4791 24.4595 31.4817 24.5047 31.4842 24.55C31.4791 24.5513 31.4726 24.5539 31.4661 24.5552C31.4545 24.5345 31.4429 24.5151 31.4299 24.4957C31.3847 24.4272 31.3006 24.4117 31.2386 24.4608C31.1804 24.506 31.1726 24.6004 31.2257 24.656C31.2476 24.678 31.2761 24.6948 31.3032 24.7116C31.3356 24.731 31.3705 24.7478 31.4041 24.7659C31.4894 24.815 31.5282 24.89 31.5204 24.9883C31.5127 25.084 31.4623 25.146 31.3743 25.1822C31.3575 25.1887 31.3407 25.199 31.3239 25.2068H31.1895L31.192 25.2055Z" fill="#5D4632"/>
<path d="M27.482 17.7179C27.4419 17.7076 27.4122 17.6985 27.3825 17.6908C27.0088 17.599 26.63 17.5486 26.2473 17.5253C26.0055 17.5111 25.7637 17.4904 25.5219 17.471C25.1858 17.4425 24.8522 17.4749 24.5186 17.5123C24.3984 17.5253 24.2781 17.5408 24.1579 17.5628C24.0894 17.5744 24.0221 17.599 23.9562 17.6222C23.9252 17.6339 23.898 17.6572 23.8515 17.6856C23.898 17.7128 23.9291 17.7321 23.9614 17.7477C24.017 17.7748 24.0674 17.8071 24.0933 17.8666C24.1333 17.9597 24.092 18.036 23.9898 18.0424C23.9368 18.0463 23.8799 18.045 23.8282 18.0334C23.6756 17.9972 23.5308 17.9364 23.4003 17.8485C23.3537 17.8175 23.3123 17.7722 23.2839 17.7257C23.2386 17.6533 23.249 17.5925 23.3162 17.5395C23.3757 17.4917 23.4403 17.449 23.5089 17.418C23.7287 17.3158 23.964 17.2745 24.2019 17.2421C24.6363 17.1839 25.0733 17.1788 25.5116 17.1982C25.9383 17.2176 26.3662 17.2266 26.7929 17.2576C27.0334 17.2757 27.2726 17.3262 27.5117 17.3637C27.5648 17.3714 27.6178 17.3843 27.6721 17.3921C27.8686 17.4218 27.8001 17.4361 27.972 17.3288C28.2927 17.1284 28.5823 16.8879 28.8719 16.6474C28.9482 16.584 29.0258 16.522 29.1098 16.4715C29.2468 16.3914 29.3955 16.341 29.5584 16.3772C29.6076 16.3888 29.6567 16.4082 29.6994 16.4341C29.7795 16.4819 29.8041 16.5556 29.7627 16.6396C29.7343 16.6952 29.6955 16.7482 29.6502 16.7922C29.4938 16.9448 29.3141 17.065 29.1305 17.1814C29.0089 17.2576 28.8848 17.3288 28.7607 17.4024C28.7426 17.4141 28.7232 17.4244 28.7012 17.4387C28.7245 17.4774 28.7607 17.4658 28.7892 17.4697C29.3567 17.5447 29.9218 17.5317 30.4881 17.4503C30.9432 17.3844 31.4021 17.3611 31.8624 17.3507C32.3033 17.3404 32.7416 17.2964 33.1799 17.2512C33.701 17.1982 34.2168 17.1064 34.7301 17.0042C34.8142 16.9874 34.9008 16.9784 34.9861 16.9797C35.0365 16.9797 35.0947 17.0004 35.1361 17.0288C35.2227 17.0883 35.2201 17.2059 35.1296 17.2602C35.074 17.2938 35.0081 17.3171 34.9435 17.33C34.7431 17.3675 34.5401 17.3947 34.3384 17.4283C33.6661 17.5395 32.9873 17.5822 32.3085 17.621C31.7952 17.6507 31.2832 17.6934 30.7738 17.7619C30.3536 17.8188 29.9295 17.8524 29.5041 17.842C29.1175 17.833 28.7323 17.8033 28.3496 17.7502C28.2849 17.7412 28.2332 17.7554 28.1802 17.7929C27.9707 17.9429 27.7858 18.1161 27.6255 18.3165C27.2971 18.7251 26.939 19.1039 26.5459 19.4517C26.3093 19.6599 26.0869 19.8849 25.8568 20.1008C25.8012 20.1525 25.7404 20.199 25.6771 20.243C25.6215 20.2818 25.5581 20.3038 25.4883 20.2999C25.3616 20.2934 25.284 20.1965 25.306 20.0723C25.3177 20.0077 25.3474 19.9521 25.3978 19.9094C25.6357 19.7077 25.8555 19.4828 26.1167 19.3082C26.18 19.2656 26.2343 19.21 26.2873 19.1557C26.4451 18.9927 26.5951 18.8234 26.7567 18.6656C26.9571 18.4704 27.1161 18.2428 27.2803 18.0205C27.3333 17.9494 27.3837 17.8757 27.4355 17.802C27.451 17.7787 27.4639 17.7541 27.4833 17.7218" fill="#5D4632"/>
<path d="M27.0534 23.139C27.0586 23.1455 27.0638 23.1532 27.0689 23.1597C27.109 23.1455 27.1517 23.1364 27.1879 23.1144C27.2512 23.0782 27.312 23.0356 27.3702 22.9929C27.7193 22.733 28.0335 22.4344 28.3321 22.1202C28.6838 21.7504 29.0355 21.3819 29.4091 21.0354C29.4259 21.0199 29.4389 21.0005 29.4544 20.9824C29.4104 20.9953 29.3781 21.0199 29.3458 21.0445C28.9605 21.3496 28.5778 21.6573 28.1912 21.9599C27.7917 22.2714 27.4413 22.6309 27.1297 23.0291C27.1013 23.0653 27.078 23.1028 27.0521 23.1403M30.715 19.4205C30.7615 19.4154 30.7861 19.4167 30.8094 19.4102C31.046 19.3494 31.2852 19.3197 31.5295 19.3249C31.5864 19.3249 31.6446 19.3249 31.7015 19.3223C31.7985 19.3184 31.8902 19.2925 31.9704 19.2344C31.9937 19.2176 32.0182 19.202 32.0454 19.1917C32.0842 19.1762 32.123 19.1775 32.1475 19.2163C32.1695 19.2512 32.1592 19.2835 32.132 19.3119C32.1191 19.3262 32.1049 19.3378 32.0894 19.3507C31.9989 19.4296 31.8941 19.4852 31.7778 19.5136C31.5735 19.5641 31.4054 19.6701 31.2515 19.811C30.8352 20.1873 30.4111 20.5544 29.9948 20.9294C29.8319 21.0768 29.6768 21.2332 29.5216 21.3884C29.0704 21.8396 28.6192 22.2895 28.146 22.7175C28.0748 22.7809 28.0115 22.8545 27.9546 22.9308C27.8007 23.1351 27.6042 23.2916 27.396 23.4338C27.237 23.5411 27.056 23.554 26.8711 23.5385C26.8375 23.5359 26.8026 23.5217 26.7716 23.5062C26.6552 23.448 26.6203 23.3549 26.6901 23.2476C26.7987 23.0795 26.906 22.9063 27.0379 22.7576C27.6171 22.1072 28.2403 21.5009 28.9023 20.9333C29.1803 20.6954 29.4764 20.4872 29.8203 20.354C29.8526 20.3411 29.8836 20.323 29.9134 20.3062C30.1241 20.186 30.3349 20.067 30.5443 19.9455C30.5883 19.9196 30.6322 19.8925 30.671 19.8601C30.7033 19.8343 30.7305 19.802 30.7189 19.7438C30.684 19.7477 30.6503 19.7477 30.6167 19.7541C30.4913 19.7774 30.3672 19.8071 30.2405 19.8252C30.172 19.8356 30.0996 19.8356 30.031 19.8252C29.916 19.8071 29.881 19.7386 29.925 19.6313C29.9496 19.5731 29.9819 19.5175 30.009 19.4593C30.0155 19.4464 30.0194 19.4309 30.031 19.396C29.9741 19.4244 29.9341 19.4464 29.8927 19.4632C29.8552 19.4774 29.8138 19.493 29.7737 19.4942C29.7143 19.4955 29.6884 19.4503 29.713 19.396C29.7246 19.3701 29.7414 19.3443 29.7634 19.3275C29.828 19.2809 29.8914 19.2279 29.9625 19.1995C30.1189 19.1374 30.2819 19.087 30.4409 19.0327C30.5973 18.9784 30.7525 18.9176 30.9115 18.8736C31.055 18.8336 31.2037 18.8077 31.3511 18.7831C31.4015 18.7754 31.4597 18.7857 31.5101 18.8025C31.5916 18.8297 31.611 18.8892 31.5644 18.9603C31.4623 19.1128 31.3291 19.2279 31.1416 19.2667C31.0486 19.2861 30.9529 19.3016 30.8598 19.3249C30.8094 19.3365 30.7551 19.3507 30.7085 19.4218" fill="#5D4632"/>
<path d="M24.6441 19.3418C24.8845 19.3469 25.0862 19.2991 25.2724 19.1918C25.2892 19.1827 25.3035 19.1698 25.3203 19.1607C25.3655 19.1388 25.3991 19.1504 25.4237 19.1957C25.4457 19.2357 25.4431 19.2771 25.4198 19.3146C25.394 19.3547 25.3668 19.3948 25.3306 19.4258C25.2854 19.4659 25.2349 19.5021 25.1819 19.5279C24.9492 19.6404 24.7022 19.7012 24.445 19.7167C24.3855 19.7206 24.3247 19.7089 24.2652 19.696C24.1877 19.6792 24.1359 19.6288 24.1204 19.5486C24.1127 19.5111 24.1088 19.4736 24.1036 19.4361C24.0997 19.4051 24.0972 19.3754 24.092 19.3288C24.0325 19.3508 23.9834 19.3624 23.9407 19.387C23.7998 19.4685 23.6614 19.5525 23.5231 19.6378C23.3848 19.7232 23.2477 19.8111 23.1094 19.8964C23.09 19.908 23.0706 19.9184 23.0512 19.9287C22.9478 19.9805 22.8624 19.974 22.8055 19.9093C22.7448 19.8408 22.7422 19.7167 22.8055 19.6339C22.8443 19.5835 22.8922 19.5409 22.9348 19.493C22.9749 19.4478 23.0163 19.4025 23.0525 19.3547C23.077 19.3224 23.0964 19.2849 23.0745 19.228C23.0396 19.2319 23.0008 19.228 22.9684 19.2422C22.8986 19.2719 22.8288 19.3043 22.7629 19.343C22.6672 19.3999 22.5754 19.4633 22.481 19.5241C22.4112 19.568 22.3802 19.568 22.3453 19.5305C22.3065 19.4879 22.3052 19.3999 22.3453 19.3534C22.3621 19.3353 22.384 19.3185 22.406 19.3068C22.6284 19.1853 22.8249 19.0276 23.0305 18.8828C23.1456 18.8026 23.2645 18.7276 23.4003 18.6849C23.4921 18.6565 23.5865 18.641 23.6834 18.6643C23.8618 18.7095 23.9161 18.8453 23.814 18.9965C23.7804 19.0457 23.7403 19.0896 23.7119 19.1504C23.7429 19.1375 23.7752 19.1271 23.8037 19.1116C23.995 19.0095 24.1864 18.906 24.3751 18.8C24.4631 18.7509 24.5536 18.7341 24.6518 18.7573C24.7772 18.7871 24.8225 18.8517 24.807 18.9784C24.7966 19.0715 24.7604 19.1569 24.71 19.2357C24.6919 19.2642 24.6738 19.2926 24.6454 19.3405" fill="#5D4632"/>
<path d="M28.0721 19.4022C28.129 19.4268 28.1716 19.4048 28.213 19.3815C28.3617 19.2988 28.4871 19.1863 28.6047 19.0648C28.6384 19.0312 28.6681 18.9937 28.6965 18.9549C28.7146 18.9303 28.734 18.9006 28.7043 18.8696C28.5931 18.8928 28.1341 19.2742 28.0734 19.4009M28.6784 19.4514C28.6358 19.4798 28.5931 19.507 28.553 19.5367C28.4987 19.5768 28.447 19.6182 28.3927 19.6582C28.2052 19.7979 27.9945 19.8224 27.7734 19.7733C27.5924 19.7332 27.5006 19.5522 27.5795 19.3815C27.6079 19.3195 27.6519 19.26 27.701 19.2122C27.8717 19.0506 28.0462 18.8902 28.2259 18.7377C28.3074 18.6679 28.4005 18.6084 28.4923 18.5528C28.619 18.4778 28.7496 18.4778 28.8698 18.5644C28.9357 18.611 28.9913 18.6097 29.0534 18.5644C29.0818 18.5437 29.1129 18.5269 29.1439 18.5101C29.2072 18.4752 29.2745 18.4804 29.3378 18.5049C29.4025 18.5308 29.4335 18.5916 29.4141 18.6614C29.3999 18.7092 29.3766 18.7558 29.3482 18.7971C29.3042 18.8592 29.2525 18.9161 29.2047 18.9756C29.1827 19.0027 29.1594 19.0299 29.1387 19.0583C29.0909 19.1243 29.0857 19.1695 29.1193 19.2161C29.1568 19.2691 29.2318 19.2923 29.299 19.2652C29.334 19.251 29.3663 19.2303 29.3999 19.2109C29.427 19.1954 29.4542 19.1773 29.4826 19.163C29.5292 19.1372 29.5693 19.1566 29.6055 19.1876C29.6443 19.2199 29.6391 19.2626 29.6184 19.3014C29.6003 19.335 29.5783 19.3673 29.5525 19.3932C29.3365 19.613 29.0262 19.6143 28.8232 19.5367C28.7767 19.5186 28.7366 19.485 28.6797 19.4501" fill="#5D4632"/>
<path d="M33.5062 18.7026C33.3239 18.6638 33.1158 18.8099 33.0589 19.009C33.2218 18.925 33.4183 18.9056 33.5062 18.7026ZM32.9619 19.415C33.0201 19.459 33.0744 19.4667 33.1261 19.4629C33.2308 19.4551 33.3356 19.4422 33.4377 19.4215C33.589 19.3904 33.7286 19.3284 33.8618 19.2508C33.9006 19.2288 33.9407 19.2069 33.982 19.1926C34.0234 19.1771 34.0648 19.1823 34.0958 19.2185C34.1255 19.2547 34.1294 19.2961 34.1074 19.3349C34.0855 19.3723 34.0596 19.4124 34.026 19.4383C33.7403 19.6568 33.4222 19.7913 33.055 19.79C33.0227 19.79 32.9917 19.7861 32.9593 19.7809C32.7977 19.7551 32.6839 19.6697 32.6245 19.5159C32.6102 19.4809 32.5986 19.446 32.5818 19.4034C32.5391 19.4279 32.5042 19.4486 32.4693 19.468C32.4176 19.4952 32.3633 19.5146 32.3038 19.4926C32.2314 19.4667 32.2107 19.4111 32.2573 19.3517C32.2818 19.3193 32.3168 19.2948 32.3491 19.2702C32.4202 19.2172 32.4939 19.1655 32.565 19.1125C32.618 19.0737 32.6542 19.022 32.671 18.9586C32.7059 18.828 32.7757 18.7181 32.8805 18.6354C32.9917 18.5462 33.1028 18.4505 33.2257 18.3807C33.4131 18.2734 33.6187 18.2811 33.8191 18.3522C33.951 18.4001 34.0092 18.5294 33.9613 18.6742C33.9381 18.744 33.898 18.8138 33.8489 18.8707C33.6911 19.0517 33.4907 19.1771 33.2761 19.278C33.2037 19.3116 33.1287 19.3387 33.055 19.3711C33.0266 19.3827 33.0007 19.3969 32.9619 19.4163" fill="#5D4632"/>
<path d="M20.6682 19.6947C20.7031 19.6985 20.7187 19.7037 20.7329 19.7024C20.9061 19.683 21.0716 19.6417 21.2242 19.555C21.325 19.4981 21.3936 19.4115 21.4375 19.3055C21.4828 19.1969 21.4737 19.1723 21.3716 19.1129C21.3289 19.0883 21.2914 19.0702 21.2397 19.1025C21.038 19.2305 20.857 19.3779 20.7277 19.5822C20.7083 19.6132 20.6928 19.6468 20.6669 19.6947M21.8952 19.2809C21.9469 19.2564 21.9831 19.2383 22.0206 19.224C22.0711 19.2034 22.1202 19.1982 22.1616 19.2434C22.1939 19.2796 22.2029 19.3495 22.1706 19.396C22.146 19.4309 22.1124 19.4658 22.0749 19.4839C22.0193 19.5124 21.956 19.5305 21.8952 19.546C21.828 19.5641 21.7582 19.5757 21.6883 19.5874C21.6004 19.6016 21.5241 19.6365 21.4608 19.6998C21.316 19.8472 21.1389 19.9364 20.9423 19.9933C20.8531 20.0192 20.7665 20.0489 20.6773 20.0748C20.5932 20.0981 20.5092 20.111 20.4226 20.0851C20.2868 20.0463 20.2157 19.9481 20.2235 19.8084C20.2312 19.6804 20.2765 19.5667 20.3579 19.4684C20.3838 19.4361 20.4122 19.4064 20.4407 19.3766C20.5053 19.3094 20.5558 19.2383 20.5868 19.1465C20.6476 18.9706 20.7885 18.875 20.963 18.8245C21.0458 18.8013 21.1272 18.7754 21.2074 18.7457C21.3419 18.694 21.475 18.6616 21.6147 18.7289C21.6366 18.7392 21.6702 18.7289 21.6974 18.725C21.7504 18.7146 21.8021 18.6952 21.8551 18.6888C21.934 18.681 21.9767 18.7121 21.9922 18.7896C21.9999 18.8284 22.0025 18.8724 21.9935 18.9125C21.9741 19.003 21.9469 19.0909 21.9224 19.1801C21.9146 19.2098 21.9056 19.2383 21.8939 19.2822" fill="#5D4632"/>
<path d="M16.3723 24.2505C16.3684 24.2583 16.3671 24.2622 16.3645 24.2635C16.2861 24.2902 16.2469 24.3458 16.2469 24.4302C16.2469 24.4962 16.2469 24.5634 16.2469 24.6423C16.4124 24.6539 16.5701 24.6475 16.7408 24.6462C16.7485 24.5376 16.7524 24.4341 16.7382 24.3307C16.7356 24.31 16.702 24.2919 16.6787 24.2777C16.6619 24.2673 16.6386 24.266 16.6115 24.2583C16.6761 24.2273 16.9735 24.2273 17.0356 24.257C17.0213 24.2635 17.011 24.2712 16.9994 24.2738C16.9399 24.2829 16.9205 24.3191 16.9218 24.3747C16.9218 24.4858 16.9218 24.597 16.9218 24.7082C16.9218 24.813 16.9244 24.919 16.9218 25.0237C16.9192 25.0896 16.936 25.1362 17.0097 25.1478C17.0162 25.1478 17.0226 25.1582 17.0407 25.175H16.627C16.627 25.175 16.6231 25.1659 16.6218 25.162C16.6425 25.1543 16.6619 25.1452 16.6839 25.1401C16.724 25.1297 16.7447 25.1039 16.746 25.0651C16.7472 24.9578 16.746 24.8504 16.746 24.7289C16.5805 24.7237 16.4227 24.725 16.2534 24.7289C16.2469 24.8504 16.243 24.9668 16.2559 25.0832C16.2585 25.1026 16.2844 25.1233 16.3038 25.1362C16.3232 25.1491 16.3477 25.1517 16.3801 25.162C16.3102 25.1866 16.0361 25.1879 15.9573 25.162C15.9728 25.1556 15.9805 25.1491 15.9883 25.1478C16.0672 25.1349 16.0775 25.0806 16.0775 25.0134C16.0762 24.8155 16.0775 24.619 16.0775 24.4212C16.0775 24.3048 16.0749 24.3022 15.965 24.257C16.0077 24.2169 16.0555 24.2402 16.0969 24.2376C16.1447 24.235 16.1926 24.235 16.2404 24.2376C16.2844 24.2402 16.3335 24.2182 16.3749 24.2518" fill="#5D4632"/>
<path d="M25.0477 24.6918C25.1486 24.693 25.2391 24.7008 25.2921 24.6051C25.3361 24.5263 25.3231 24.406 25.2688 24.344C25.2171 24.2858 25.1395 24.2716 25.0477 24.3039V24.6918ZM25.0439 24.7603C25.0439 24.8598 25.0439 24.9581 25.0439 25.0564C25.0439 25.0977 25.0658 25.1288 25.1085 25.1404C25.1266 25.1443 25.1434 25.1494 25.1667 25.1559C25.1098 25.1895 24.8435 25.1934 24.7607 25.1663C24.8288 25.118 24.8629 25.0473 24.8629 24.9542V24.4577C24.8629 24.3638 24.8232 24.2931 24.7439 24.2457C24.7685 24.2405 24.7853 24.2341 24.8021 24.2341C24.9262 24.2341 25.0503 24.2315 25.1744 24.2341C25.2249 24.2341 25.2766 24.2418 25.3257 24.2522C25.4098 24.2703 25.4692 24.3194 25.4899 24.406C25.5119 24.5004 25.4925 24.5831 25.4175 24.6491C25.3891 24.6737 25.3567 24.693 25.3205 24.7189C25.3335 24.7435 25.3438 24.7654 25.3567 24.7861C25.393 24.8417 25.4317 24.8973 25.4692 24.9516C25.5235 25.0318 25.5662 25.1236 25.6774 25.1572C25.6296 25.1973 25.5869 25.1727 25.5494 25.1818C25.4408 25.2063 25.3774 25.1572 25.327 25.0667C25.2766 24.9749 25.2145 24.8896 25.1602 24.7991C25.1344 24.7551 25.1046 24.7305 25.0387 24.7603" fill="#5D4632"/>
<path d="M29.2061 24.7747C29.2901 24.789 29.3586 24.7851 29.4013 24.7153C29.4388 24.6571 29.4284 24.5498 29.3858 24.5006C29.3418 24.4502 29.281 24.4386 29.2061 24.4683V24.7747ZM29.2875 25.1794H28.9656C28.9785 25.1652 28.9837 25.1536 28.9927 25.1523C29.0419 25.1393 29.0561 25.1057 29.0561 25.0592C29.0561 24.8872 29.0535 24.7153 29.0561 24.5446C29.0561 24.4813 29.0263 24.4463 28.9733 24.414C28.9901 24.4127 29.007 24.4101 29.0238 24.4101C29.1104 24.4101 29.1957 24.4063 29.2823 24.4088C29.3302 24.4088 29.378 24.4127 29.4246 24.4218C29.4996 24.436 29.5539 24.4761 29.5694 24.5549C29.5849 24.6351 29.5681 24.7062 29.4996 24.7592C29.4802 24.7747 29.4595 24.789 29.431 24.8097C29.5215 24.9338 29.5758 25.0786 29.7077 25.1678C29.5991 25.2156 29.5112 25.1962 29.4504 25.1057C29.4013 25.032 29.3547 24.9558 29.3069 24.8808C29.2785 24.8355 29.2772 24.8355 29.2061 24.8368C29.2061 24.9208 29.1996 25.0062 29.2099 25.0902C29.2138 25.1212 29.2578 25.1458 29.2901 25.1807" fill="#5D4632"/>
<path d="M25.9851 24.4116H26.5243C26.5269 24.4608 26.5307 24.5112 26.5333 24.5629C26.5282 24.5668 26.523 24.5719 26.5178 24.5758C26.4583 24.4194 26.3394 24.453 26.2179 24.4607V24.7297C26.3303 24.7685 26.3769 24.7555 26.4506 24.6573C26.4738 24.7387 26.4596 24.8137 26.4519 24.8952C26.4027 24.7814 26.3148 24.7956 26.2191 24.8098C26.2036 24.8991 26.2075 24.987 26.2166 25.0749C26.2178 25.0956 26.2515 25.1266 26.2722 25.1279C26.3381 25.1331 26.4053 25.1305 26.4713 25.1214C26.4984 25.1176 26.523 25.0878 26.545 25.0658C26.5592 25.0516 26.5682 25.0309 26.5902 24.996C26.6057 25.0723 26.576 25.1214 26.5695 25.1783H25.9761C26.011 25.1499 26.0459 25.1344 26.0575 25.1072C26.0718 25.0775 26.0679 25.0387 26.0679 25.0051C26.0679 24.8551 26.0679 24.7064 26.0679 24.5564C26.0679 24.4672 26.0666 24.4672 25.9864 24.4129" fill="#5D4632"/>
<path d="M19.5156 24.4111H20.0742V24.5882C20.0341 24.5197 20.0134 24.4576 19.9423 24.4576H19.7665V24.7382C19.8634 24.7563 19.9501 24.7641 20.0044 24.658V24.8985C19.9707 24.8662 19.9462 24.8235 19.9087 24.8093C19.8712 24.7938 19.822 24.8054 19.7665 24.8054C19.7522 24.8972 19.7548 24.9877 19.7639 25.0782C19.7678 25.1144 19.8014 25.1299 19.835 25.1299C19.8893 25.1299 19.9436 25.1299 19.9966 25.1261C20.0664 25.1196 20.0961 25.0653 20.1285 24.9942C20.1543 25.0666 20.1272 25.117 20.1117 25.1752H19.5363C19.6152 25.139 19.6191 25.0744 19.6165 25.0019C19.6139 24.8584 19.6165 24.7162 19.6165 24.5727C19.6165 24.4731 19.6165 24.4731 19.5156 24.4098" fill="#5D4632"/>
<path d="M18.9948 25.1776H18.6612C18.6612 25.1776 18.6586 25.1685 18.6573 25.1634C18.6729 25.1582 18.6871 25.1517 18.7026 25.1478C18.7388 25.1375 18.7556 25.1116 18.7556 25.0767C18.7556 24.8776 18.7556 24.6772 18.7556 24.4755C18.6806 24.4535 18.6095 24.4561 18.5436 24.4678C18.5099 24.4742 18.4841 24.5143 18.4492 24.544C18.4337 24.4936 18.4569 24.4419 18.4569 24.3915C18.7065 24.4148 18.9521 24.407 19.2055 24.3954C19.203 24.4406 19.2004 24.4923 19.1978 24.544C19.1861 24.544 19.1745 24.5466 19.1745 24.544C19.1461 24.4691 19.0879 24.451 19.0142 24.4587C18.9806 24.4626 18.9457 24.4587 18.9082 24.4587C18.9043 24.4949 18.8991 24.5195 18.8991 24.544C18.8991 24.7031 18.8991 24.8621 18.8991 25.0211C18.8991 25.1155 18.9056 25.122 18.9922 25.175" fill="#5D4632"/>
<path d="M30.4142 24.4624V24.5787C30.4142 24.7222 30.4142 24.8645 30.4142 25.008C30.4142 25.1205 30.4142 25.1205 30.5099 25.1735C30.4 25.1877 30.2888 25.1812 30.1738 25.167C30.1854 25.1618 30.1957 25.1528 30.2074 25.1502C30.2487 25.1425 30.2694 25.1153 30.2694 25.0765C30.2694 24.8761 30.2694 24.677 30.2694 24.4753C30.1931 24.4546 30.122 24.4559 30.0548 24.4688C30.0225 24.4753 29.9966 24.518 29.9643 24.5477C29.9462 24.4973 29.9682 24.4456 29.9734 24.3951C30.2216 24.4171 30.4647 24.4042 30.7194 24.4042C30.7168 24.443 30.7142 24.4947 30.7103 24.5555C30.6586 24.527 30.6521 24.452 30.5823 24.4611C30.5332 24.4675 30.4815 24.4611 30.4117 24.4611" fill="#5D4632"/>
<path d="M20.4709 24.4111H20.8187C20.789 24.4279 20.7787 24.4369 20.767 24.4395C20.7295 24.4486 20.7166 24.4744 20.7166 24.5093C20.7166 24.6942 20.7166 24.8778 20.7166 25.0627C20.7166 25.1093 20.7438 25.1325 20.7877 25.1364C20.9067 25.1468 21.0204 25.1429 21.076 25.002C21.0928 25.0731 21.0903 25.0873 21.0515 25.1791H20.4865C20.5175 25.1481 20.5511 25.1274 20.564 25.0976C20.577 25.0679 20.5731 25.0291 20.5731 24.9942C20.5731 24.8546 20.5731 24.7149 20.5731 24.574C20.5731 24.4744 20.5731 24.4744 20.4709 24.4098" fill="#5D4632"/>
</g>
<defs>
<filter id="filter0_d_184_2719" x="0" y="0" width="48" height="48" filterUnits="userSpaceOnUse" color-interpolation-filters="sRGB">
<feFlood flood-opacity="0" result="BackgroundImageFix"/>
<feColorMatrix in="SourceAlpha" type="matrix" values="0 0 0 0 0 0 0 0 0 0 0 0 0 0 0 0 0 0 127 0" result="hardAlpha"/>
<feOffset dy="4"/>
<feGaussianBlur stdDeviation="2"/>
<feComposite in2="hardAlpha" operator="out"/>
<feColorMatrix type="matrix" values="0 0 0 0 0 0 0 0 0 0 0 0 0 0 0 0 0 0 0.3 0"/>
<feBlend mode="normal" in2="BackgroundImageFix" result="effect1_dropShadow_184_2719"/>
<feBlend mode="normal" in="SourceGraphic" in2="effect1_dropShadow_184_2719" result="shape"/>
</filter>
</defs>
</svg>
