<svg width="48" height="48" viewBox="0 0 48 48" fill="none" xmlns="http://www.w3.org/2000/svg">
<g filter="url(#filter0_d_99_1872)">
<rect x="4" width="40" height="40" rx="20" fill="#F4E5D2" shape-rendering="crispEdges"/>
<mask id="mask0_99_1872" style="mask-type:luminance" maskUnits="userSpaceOnUse" x="14" y="10" width="20" height="20">
<path d="M23.1096 10.5018C20.985 10.7048 18.9161 11.6214 17.2891 13.2484C15.4428 15.0947 14.5131 17.5073 14.5 19.9265V20.0345C14.5131 22.4537 15.4428 24.8696 17.2891 26.7127C19.1354 28.559 21.5481 29.4887 23.9673 29.5018H24.0753C26.4945 29.4887 28.9104 28.559 30.7534 26.7127C32.3804 25.0857 33.297 23.0168 33.5 20.8922C33.1104 21.8317 32.5375 22.7123 31.7715 23.4751C28.6649 26.5817 23.6301 26.5817 20.5234 23.4751C17.4168 20.3684 17.4168 15.3336 20.5234 12.227C21.2862 11.4642 22.1668 10.8881 23.1063 10.4985L23.1096 10.5018Z" fill="white"/>
</mask>
<g mask="url(#mask0_99_1872)">
<path d="M33.5 10.502H14.5V29.5019H33.5V10.502Z" fill="#5D4632"/>
</g>
<mask id="mask1_99_1872" style="mask-type:luminance" maskUnits="userSpaceOnUse" x="22" y="13" width="8" height="8">
<path d="M24.5666 17.6773L24.1672 20.0016L26.2558 18.9049L28.3411 20.0016L27.9417 17.6773L29.6309 16.034L27.2968 15.6935L26.2558 13.582L25.2115 15.6935L22.8774 16.034L24.5666 17.6773Z" fill="white"/>
</mask>
<g mask="url(#mask1_99_1872)">
<path d="M29.6276 13.582H22.8774V20.0016H29.6276V13.582Z" fill="#5D4632"/>
</g>
</g>
<defs>
<filter id="filter0_d_99_1872" x="0" y="0" width="48" height="48" filterUnits="userSpaceOnUse" color-interpolation-filters="sRGB">
<feFlood flood-opacity="0" result="BackgroundImageFix"/>
<feColorMatrix in="SourceAlpha" type="matrix" values="0 0 0 0 0 0 0 0 0 0 0 0 0 0 0 0 0 0 127 0" result="hardAlpha"/>
<feOffset dy="4"/>
<feGaussianBlur stdDeviation="2"/>
<feComposite in2="hardAlpha" operator="out"/>
<feColorMatrix type="matrix" values="0 0 0 0 0 0 0 0 0 0 0 0 0 0 0 0 0 0 0.3 0"/>
<feBlend mode="normal" in2="BackgroundImageFix" result="effect1_dropShadow_99_1872"/>
<feBlend mode="normal" in="SourceGraphic" in2="effect1_dropShadow_99_1872" result="shape"/>
</filter>
</defs>
</svg>
