<svg width="75" height="75" viewBox="0 0 75 75" fill="none" xmlns="http://www.w3.org/2000/svg">
<g filter="url(#filter0_d_111_2718)">
<rect x="10" y="4" width="55" height="55" rx="27.5" fill="#B47046" shape-rendering="crispEdges"/>
<mask id="mask0_111_2718" style="mask-type:luminance" maskUnits="userSpaceOnUse" x="23" y="17" width="29" height="29">
<path d="M36.1742 17.3594C33.0113 17.6615 29.9313 19.0261 27.5091 21.4482C24.7605 24.1969 23.3764 27.7886 23.3569 31.3901V31.551C23.3764 35.1525 24.7605 38.7491 27.5091 41.4929C30.2578 44.2415 33.8496 45.6256 37.4511 45.6451H37.6119C41.2134 45.6256 44.81 44.2415 47.5538 41.4929C49.9759 39.0708 51.3405 35.9907 51.6427 32.8278C51.0627 34.2265 50.2099 35.5375 49.0695 36.673C44.4445 41.298 36.9491 41.298 32.3242 36.673C27.6992 32.0481 27.6992 24.5526 32.3242 19.9277C33.4597 18.7922 34.7707 17.9344 36.1693 17.3545L36.1742 17.3594Z" fill="white"/>
</mask>
<g mask="url(#mask0_111_2718)">
<path d="M51.6427 17.3594H23.3569V45.6451H51.6427V17.3594Z" fill="#F4E5D2"/>
</g>
<mask id="mask1_111_2718" style="mask-type:luminance" maskUnits="userSpaceOnUse" x="35" y="21" width="11" height="11">
<path d="M38.3428 28.042L37.7483 31.5022L40.8576 29.8696L43.962 31.5022L43.3674 28.042L45.8821 25.5956L42.4073 25.0887L40.8576 21.9453L39.3029 25.0887L35.8281 25.5956L38.3428 28.042Z" fill="white"/>
</mask>
<g mask="url(#mask1_111_2718)">
<path d="M45.8773 21.9453H35.8281V31.5022H45.8773V21.9453Z" fill="#F4E5D2"/>
</g>
</g>
<defs>
<filter id="filter0_d_111_2718" x="0" y="0" width="75" height="75" filterUnits="userSpaceOnUse" color-interpolation-filters="sRGB">
<feFlood flood-opacity="0" result="BackgroundImageFix"/>
<feColorMatrix in="SourceAlpha" type="matrix" values="0 0 0 0 0 0 0 0 0 0 0 0 0 0 0 0 0 0 127 0" result="hardAlpha"/>
<feOffset dy="6"/>
<feGaussianBlur stdDeviation="5"/>
<feComposite in2="hardAlpha" operator="out"/>
<feColorMatrix type="matrix" values="0 0 0 0 0 0 0 0 0 0 0 0 0 0 0 0 0 0 0.5 0"/>
<feBlend mode="normal" in2="BackgroundImageFix" result="effect1_dropShadow_111_2718"/>
<feBlend mode="normal" in="SourceGraphic" in2="effect1_dropShadow_111_2718" result="shape"/>
</filter>
</defs>
</svg>
