<svg width="75" height="75" viewBox="0 0 75 75" fill="none" xmlns="http://www.w3.org/2000/svg">
<g filter="url(#filter0_d_184_3747)">
<rect x="10" y="4" width="55" height="55" rx="27.5" fill="#B47046" shape-rendering="crispEdges"/>
<path d="M26.7899 28.9563C26.781 28.9474 26.7703 28.9367 26.7614 28.9278C26.7081 28.9545 26.6547 28.9812 26.6014 29.0096C25.7854 29.4647 25.0068 29.9785 24.2512 30.5296C23.7321 30.9083 23.2859 31.3652 22.8912 31.8736C22.8574 31.9163 22.8308 31.9661 22.7881 32.0318C22.8699 32.0425 22.9285 32.0567 22.9872 32.0585C23.2023 32.0656 23.3925 31.9856 23.5668 31.8718C23.7641 31.7421 23.9614 31.6087 24.1463 31.4629C24.7614 30.9812 25.341 30.4621 25.9027 29.9198C26.1516 29.6798 26.3863 29.4256 26.6245 29.175C26.6867 29.1092 26.7347 29.031 26.7881 28.9563M22.1001 31.8772C22.1161 31.8665 22.141 31.8576 22.1499 31.8416C22.317 31.4967 22.5765 31.2229 22.8272 30.9421C23.1188 30.6149 23.4796 30.3714 23.8245 30.1065C24.5676 29.5376 25.3428 29.0185 26.141 28.5314C26.4716 28.3305 26.8165 28.1581 27.1774 28.0176C27.4814 27.9003 27.7801 27.7741 28.0539 27.5963C28.2067 27.495 28.3543 27.383 28.4947 27.2639C28.8538 26.9545 28.9161 26.5652 28.7738 26.1296C28.6476 25.7456 28.3898 25.4719 28.0254 25.3101C27.5774 25.111 27.1063 25.0203 26.6139 25.0648C26.269 25.095 25.9579 25.2212 25.6645 25.3936C25.5259 25.4754 25.3925 25.5714 25.2574 25.6621C25.1952 25.703 25.1348 25.7474 25.0725 25.7883C24.9979 25.8399 24.9196 25.8541 24.8379 25.8025C24.7525 25.7492 24.7063 25.6674 24.7205 25.5696C24.733 25.4896 24.7596 25.4061 24.8005 25.3368C25.0245 24.9545 25.3534 24.7039 25.789 24.6114C26.333 24.4959 26.8841 24.4621 27.4387 24.5456C27.6752 24.5812 27.8992 24.6576 28.1161 24.7554C28.3081 24.8443 28.4983 24.9332 28.6867 25.0256C28.8734 25.1163 29.0423 25.2336 29.1881 25.3812C29.3374 25.5323 29.4352 25.7101 29.4743 25.9181C29.5863 26.5136 29.4156 27.0345 29.0458 27.5003C29.0138 27.5412 28.9783 27.5785 28.9303 27.6319C28.9925 27.6443 29.037 27.6532 29.0814 27.6639C29.5436 27.7563 29.8174 28.071 29.8476 28.5403C29.8618 28.7518 29.8369 28.9598 29.7836 29.1643C29.7161 29.4203 29.6058 29.6585 29.485 29.8914C29.4636 29.9341 29.4423 29.9767 29.4192 30.0229C29.4832 30.0461 29.5223 30.0141 29.5614 29.9909C29.8085 29.8505 30.0556 29.7065 30.3027 29.5643C30.8325 29.2621 31.3605 28.9563 31.8938 28.6612C32.0147 28.5936 32.1516 28.551 32.2849 28.5101C32.3543 28.4887 32.4325 28.4852 32.5054 28.4905C32.6138 28.4994 32.6672 28.567 32.6707 28.6754C32.6743 28.7714 32.6494 28.8621 32.5854 28.9314C32.4894 29.0327 32.3916 29.1376 32.2796 29.2158C31.7249 29.6052 31.3001 30.1154 30.9196 30.6647C30.8894 30.7074 30.8645 30.7554 30.8449 30.8034C30.8058 30.8905 30.8289 30.9243 30.9267 30.9261C30.9747 30.9261 31.0227 30.9189 31.0689 30.9083C31.2876 30.8603 31.476 30.7483 31.6574 30.6238C31.7303 30.5741 31.7978 30.5189 31.8707 30.4709C32.0236 30.3696 32.1783 30.4283 32.2494 30.6309C32.2334 30.6416 32.2067 30.6576 32.1818 30.6754C31.8156 30.9527 31.4245 31.1856 30.9765 31.3065C30.8627 31.3367 30.7436 31.3545 30.6263 31.3527C30.3507 31.3492 30.1996 31.1874 30.1925 30.9118C30.1872 30.6594 30.2743 30.4318 30.3863 30.2096C30.4076 30.1669 30.4307 30.1261 30.4574 30.0781C30.3898 30.0532 30.3472 30.0923 30.3045 30.1154C30.1321 30.2096 29.9614 30.3109 29.7889 30.4069C29.4547 30.5918 29.1223 30.7785 28.7845 30.9563C28.669 31.0167 28.5427 31.0576 28.4183 31.0967C28.3241 31.1269 28.2263 31.1163 28.1338 31.0807C28.029 31.0416 27.9578 30.9669 27.9223 30.8603C27.8921 30.7678 27.9063 30.6861 27.9792 30.6203C28.0467 30.5581 28.1178 30.4994 28.1925 30.4461C28.4005 30.2985 28.5658 30.1172 28.6903 29.8932C28.8485 29.6087 29.0014 29.3243 29.0903 29.0096C29.1223 28.8958 29.1454 28.7785 29.1543 28.6612C29.1721 28.4158 29.0547 28.2807 28.8112 28.2558C28.6245 28.2381 28.4414 28.263 28.2636 28.3145C28.2014 28.3323 28.1463 28.3874 28.1001 28.4372C27.7516 28.8123 27.4139 29.1998 27.0547 29.5661C26.6654 29.9625 26.2583 30.3429 25.853 30.7269C25.4708 31.0896 25.085 31.4452 24.6974 31.8025C24.4325 32.046 24.1534 32.2736 23.8299 32.4389C23.5188 32.5972 23.1881 32.6807 22.8397 32.6629C22.7188 32.6576 22.5961 32.6292 22.4823 32.59C22.3294 32.5385 22.2281 32.4229 22.1694 32.2736C22.1534 32.2345 22.125 32.2007 22.1037 32.1652V31.8754L22.1001 31.8772Z" fill="#F4E5D2"/>
<path d="M36.3357 37.8886C36.3979 37.8584 36.4246 37.8068 36.4263 37.7428C36.4263 37.6913 36.405 37.6504 36.357 37.6273C36.3126 37.606 36.2717 37.6148 36.2379 37.6486C36.1988 37.686 36.1952 37.734 36.2148 37.7802C36.2379 37.8335 36.2734 37.878 36.3357 37.8886ZM36.6059 38.374C36.4992 38.2264 36.3766 38.1108 36.229 38.0308C36.069 38.1144 36.0654 38.3171 36.1739 38.4202C36.3001 38.5393 36.4708 38.5251 36.6059 38.374ZM36.1935 38.6548C36.1739 38.6459 36.1543 38.6353 36.1348 38.6264C35.9517 38.5393 35.8895 38.3313 36.0032 38.1642C36.0441 38.1037 36.101 38.054 36.1597 37.99C36.1455 37.9651 36.1241 37.9348 36.1063 37.9011C36.0512 37.7962 36.0726 37.6842 36.1579 37.6166C36.2557 37.5384 36.4192 37.5348 36.4992 37.6095C36.5597 37.6664 36.5632 37.7642 36.5028 37.8335C36.4743 37.8655 36.4406 37.8922 36.4068 37.9224C36.5152 38.0202 36.6183 38.1126 36.7303 38.2104C36.8032 38.1411 36.853 38.054 36.8779 37.9597C36.8868 37.926 36.8477 37.8815 36.8281 37.8353H37.1872C36.9686 37.91 36.8886 38.1091 36.773 38.2673C36.9063 38.5233 37.0148 38.5695 37.2281 38.4771C37.2092 38.5316 37.1546 38.5902 37.0646 38.6531H36.853C36.7819 38.5855 36.7108 38.518 36.6468 38.4593C36.5401 38.5251 36.4334 38.5891 36.3268 38.6531H36.1952L36.1935 38.6548Z" fill="#F4E5D2"/>
<path d="M43.6393 38.1255C43.6322 37.9744 43.6002 37.8357 43.5007 37.7219C43.3602 37.5566 43.1113 37.5655 42.9904 37.7379C42.8553 37.9299 42.8891 38.3175 43.0562 38.4846C43.2269 38.6553 43.5078 38.5966 43.5896 38.3673C43.6162 38.2908 43.6233 38.2073 43.6411 38.1255M43.1558 38.6553C43.1238 38.6428 43.0918 38.6268 43.0598 38.6161C42.8322 38.5361 42.7131 38.3726 42.6953 38.1361C42.6776 37.9086 42.7984 37.6935 42.9993 37.5975C43.2198 37.4926 43.4384 37.5122 43.6358 37.649C43.9522 37.8659 43.906 38.3921 43.5575 38.5753C43.4953 38.6073 43.4296 38.6286 43.3656 38.6553H43.154H43.1558Z" fill="#F4E5D2"/>
<path d="M29.2824 38.1338C29.2753 37.9827 29.2415 37.844 29.1455 37.7285C29.0015 37.5578 28.7473 37.5667 28.6282 37.7462C28.5002 37.9382 28.5322 38.3151 28.694 38.484C28.8575 38.6529 29.1384 38.6049 29.2237 38.3862C29.2557 38.3062 29.2646 38.2191 29.2842 38.1338M28.7971 38.6582C28.7651 38.6458 28.7331 38.6298 28.7011 38.6191C28.4788 38.5409 28.3562 38.3844 28.3384 38.1516C28.3206 37.9169 28.4095 37.7302 28.6157 37.6111C28.8237 37.492 29.11 37.5169 29.2984 37.6645C29.6113 37.9098 29.5206 38.4538 29.1402 38.6067C29.0957 38.6244 29.0513 38.6404 29.0068 38.6582H28.7953H28.7971Z" fill="#F4E5D2"/>
<path d="M34.1697 38.6567C34.1697 38.6567 34.1661 38.6478 34.1626 38.6461C34.0535 38.5939 34.0073 38.4985 34.0239 38.3598C34.0399 38.3901 34.0541 38.4221 34.0701 38.4523C34.1181 38.5412 34.1892 38.5909 34.2941 38.5803C34.3652 38.5732 34.4203 38.5394 34.447 38.4718C34.4719 38.4061 34.4665 38.3385 34.4132 38.2887C34.3688 38.2478 34.3154 38.2158 34.2657 38.1821C34.2141 38.1483 34.159 38.1216 34.111 38.0825C34.0132 38.0007 33.9972 37.8887 34.0203 37.7714C34.0434 37.6541 34.1217 37.5812 34.2372 37.5492C34.3474 37.519 34.4523 37.535 34.5697 37.567C34.5732 37.6292 34.575 37.6896 34.5786 37.7518C34.5697 37.7518 34.5608 37.7554 34.5537 37.7572C34.5394 37.7323 34.5252 37.7092 34.511 37.6843C34.4719 37.6185 34.4168 37.583 34.3368 37.5936C34.2585 37.6025 34.207 37.6434 34.1857 37.7198C34.1626 37.7998 34.1785 37.871 34.2479 37.919C34.3154 37.9669 34.3901 38.0043 34.463 38.0452C34.5714 38.1056 34.6337 38.1963 34.6337 38.3207C34.6337 38.4541 34.5768 38.5572 34.4488 38.6123C34.4168 38.6265 34.3866 38.6407 34.3546 38.6549H34.1697V38.6567Z" fill="#F4E5D2"/>
<path d="M41.7232 38.6567C41.7232 38.6567 41.7196 38.6478 41.7161 38.646C41.6047 38.5939 41.5531 38.4937 41.5614 38.3456C41.5845 38.3847 41.6005 38.4043 41.6112 38.4274C41.6396 38.4896 41.677 38.5394 41.7427 38.566C41.837 38.6016 41.9401 38.5732 41.9881 38.4967C42.0361 38.4185 42.0165 38.3172 41.9294 38.2532C41.869 38.2087 41.8014 38.1767 41.7374 38.1394C41.6503 38.0896 41.5863 38.0203 41.5685 37.9172C41.533 37.7109 41.6539 37.5492 41.8654 37.5367C41.9472 37.5314 42.029 37.5474 42.1196 37.5545C42.125 37.6274 42.1303 37.6896 42.1339 37.7518C42.125 37.7536 42.1161 37.7554 42.1072 37.7589C42.0876 37.7287 42.0699 37.6949 42.0485 37.6665C41.9845 37.5812 41.8725 37.5669 41.7925 37.6327C41.7179 37.6949 41.7036 37.8194 41.7694 37.8905C41.8014 37.9243 41.8441 37.9492 41.885 37.974C41.933 38.0043 41.9863 38.0274 42.0343 38.0576C42.1445 38.1269 42.1943 38.2283 42.1819 38.358C42.1712 38.4843 42.1019 38.5678 41.9899 38.6176C41.9614 38.63 41.9347 38.6425 41.9081 38.6549H41.7232V38.6567Z" fill="#F4E5D2"/>
<path d="M47.3891 38.6574C47.3784 38.6503 47.3695 38.6396 47.3571 38.636C47.2149 38.5774 47.1935 38.5329 47.2326 38.3534C47.254 38.3978 47.27 38.4316 47.2878 38.4636C47.3251 38.5276 47.3766 38.572 47.4513 38.5809C47.5384 38.5934 47.6184 38.556 47.6522 38.4885C47.6895 38.4156 47.6735 38.3232 47.5989 38.2645C47.5402 38.2183 47.4726 38.1863 47.4086 38.1489C47.3269 38.1009 47.2593 38.0423 47.2344 37.9463C47.1793 37.7347 47.3055 37.5534 47.5224 37.5392C47.6042 37.5338 47.686 37.5498 47.7784 37.5569C47.7838 37.6316 47.7873 37.6938 47.7909 37.756C47.7838 37.7578 47.7749 37.7614 47.766 37.7632C47.75 37.7347 47.734 37.708 47.7162 37.6814C47.654 37.5872 47.5384 37.5658 47.4531 37.6334C47.3731 37.6956 47.3624 37.8254 47.4353 37.9018C47.4655 37.932 47.5046 37.9552 47.542 37.9783C47.5864 38.0049 47.6344 38.028 47.6806 38.0529C47.798 38.1205 47.8513 38.2236 47.8406 38.3587C47.83 38.4903 47.7606 38.5756 47.6397 38.6254C47.6166 38.6343 47.5935 38.6485 47.5704 38.6592H47.3855L47.3891 38.6574Z" fill="#F4E5D2"/>
<path d="M42.2878 28.3619C42.2327 28.3477 42.1918 28.3352 42.1509 28.3246C41.6372 28.1983 41.1163 28.129 40.59 28.097C40.2576 28.0775 39.9252 28.049 39.5927 28.0223C39.1305 27.9832 38.6718 28.0277 38.2132 28.0792C38.0478 28.097 37.8825 28.1183 37.7172 28.1486C37.623 28.1646 37.5305 28.1983 37.4398 28.2303C37.3972 28.2463 37.3598 28.2783 37.2958 28.3175C37.3598 28.3548 37.4025 28.3815 37.447 28.4028C37.5234 28.4401 37.5927 28.4846 37.6283 28.5663C37.6834 28.6943 37.6265 28.7992 37.4861 28.8081C37.4132 28.8135 37.335 28.8117 37.2638 28.7957C37.0541 28.7459 36.855 28.6623 36.6754 28.5415C36.6114 28.4988 36.5545 28.4366 36.5154 28.3726C36.4532 28.273 36.4674 28.1895 36.5598 28.1166C36.6416 28.0508 36.7305 27.9921 36.8247 27.9495C37.127 27.809 37.4505 27.7521 37.7776 27.7077C38.3749 27.6277 38.9758 27.6206 39.5785 27.6472C40.1652 27.6739 40.7536 27.6863 41.3403 27.729C41.6709 27.7539 41.9998 27.8232 42.3287 27.8748C42.4016 27.8855 42.4745 27.9032 42.5491 27.9139C42.8194 27.9548 42.7251 27.9743 42.9616 27.8268C43.4025 27.5512 43.8007 27.2206 44.1989 26.8899C44.3038 26.8028 44.4105 26.7175 44.526 26.6481C44.7145 26.5379 44.9189 26.4686 45.1429 26.5184C45.2105 26.5344 45.278 26.561 45.3367 26.5966C45.4469 26.6624 45.4807 26.7637 45.4238 26.8792C45.3847 26.9557 45.3314 27.0286 45.2691 27.089C45.054 27.2988 44.8069 27.4641 44.5545 27.6241C44.3874 27.729 44.2167 27.8268 44.046 27.9281C44.0211 27.9441 43.9945 27.9583 43.9643 27.9779C43.9963 28.0312 44.046 28.0152 44.0851 28.0206C44.8656 28.1237 45.6425 28.1059 46.4211 27.9939C47.0469 27.9032 47.678 27.8712 48.3109 27.857C48.9171 27.8428 49.5198 27.7823 50.1224 27.7201C50.8389 27.6472 51.5482 27.521 52.254 27.3806C52.3695 27.3575 52.4886 27.345 52.606 27.3468C52.6753 27.3468 52.7553 27.3752 52.8122 27.4144C52.9313 27.4961 52.9278 27.6579 52.8033 27.7326C52.7269 27.7788 52.6362 27.8108 52.5473 27.8286C52.2718 27.8801 51.9927 27.9175 51.7153 27.9637C50.7909 28.1166 49.8575 28.1752 48.9242 28.2286C48.2184 28.2695 47.5145 28.3281 46.814 28.4223C46.2362 28.5006 45.6531 28.5468 45.0682 28.5326C44.5367 28.5201 44.0069 28.4792 43.4807 28.4063C43.3918 28.3939 43.3207 28.4135 43.2478 28.465C42.9598 28.6712 42.7056 28.9095 42.4852 29.185C42.0336 29.7468 41.5412 30.2677 41.0007 30.7459C40.6754 31.0321 40.3696 31.3414 40.0532 31.6383C39.9767 31.7094 39.8932 31.7734 39.8061 31.8339C39.7296 31.8872 39.6425 31.9174 39.5465 31.9121C39.3723 31.9032 39.2656 31.7699 39.2958 31.5992C39.3118 31.5103 39.3527 31.4339 39.4221 31.3752C39.7492 31.0979 40.0514 30.7886 40.4105 30.5486C40.4976 30.4899 40.5723 30.4134 40.6452 30.3388C40.862 30.1148 41.0683 29.8819 41.2905 29.665C41.566 29.3966 41.7847 29.0837 42.0105 28.7779C42.0834 28.6801 42.1527 28.5788 42.2238 28.4775C42.2451 28.4455 42.2629 28.4117 42.2896 28.3672" fill="#F4E5D2"/>
<path d="M41.6985 35.816C41.7056 35.8249 41.7127 35.8356 41.7198 35.8445C41.7749 35.8249 41.8336 35.8125 41.8834 35.7822C41.9705 35.7325 42.054 35.6738 42.134 35.6151C42.614 35.2578 43.046 34.8471 43.4567 34.4151C43.9402 33.9067 44.4238 33.4 44.9376 32.9236C44.9607 32.9023 44.9784 32.8756 44.9998 32.8507C44.9393 32.8685 44.8949 32.9023 44.8504 32.936C44.3207 33.3556 43.7945 33.7787 43.2629 34.1947C42.7136 34.6231 42.2318 35.1174 41.8033 35.6649C41.7642 35.7147 41.7322 35.7663 41.6967 35.8178M46.7331 30.7032C46.7971 30.6961 46.8309 30.6978 46.8629 30.6889C47.1882 30.6054 47.5171 30.5645 47.8531 30.5716C47.9313 30.5716 48.0113 30.5716 48.0895 30.5681C48.2229 30.5627 48.3491 30.5272 48.4593 30.4472C48.4913 30.4241 48.5251 30.4027 48.5624 30.3885C48.6158 30.3672 48.6691 30.3689 48.7029 30.4223C48.7331 30.4703 48.7189 30.5147 48.6815 30.5538C48.6638 30.5734 48.6442 30.5894 48.6229 30.6072C48.4984 30.7156 48.3544 30.7921 48.1944 30.8312C47.9135 30.9005 47.6824 31.0463 47.4709 31.2401C46.8984 31.7574 46.3153 32.2623 45.7429 32.7778C45.5189 32.9805 45.3056 33.1956 45.0922 33.4089C44.4718 34.0294 43.8513 34.648 43.2007 35.2365C43.1029 35.3236 43.0158 35.4249 42.9376 35.5298C42.726 35.8107 42.4558 36.0258 42.1696 36.2214C41.9509 36.3689 41.702 36.3867 41.4478 36.3654C41.4016 36.3618 41.3536 36.3422 41.3109 36.3209C41.1509 36.2409 41.1029 36.1129 41.1989 35.9654C41.3482 35.7342 41.4958 35.496 41.6771 35.2916C42.4736 34.3974 43.3305 33.5636 44.2407 32.7832C44.6229 32.456 45.03 32.1698 45.5029 31.9867C45.5473 31.9689 45.59 31.944 45.6309 31.9209C45.9207 31.7556 46.2104 31.592 46.4984 31.4249C46.5589 31.3894 46.6193 31.352 46.6727 31.3076C46.7171 31.272 46.7544 31.2276 46.7384 31.1476C46.6904 31.1529 46.6442 31.1529 46.598 31.1618C46.4256 31.1938 46.2549 31.2347 46.0807 31.2596C45.9864 31.2738 45.8869 31.2738 45.7927 31.2596C45.6344 31.2347 45.5864 31.1405 45.6469 30.9929C45.6807 30.9129 45.7251 30.8365 45.7624 30.7565C45.7713 30.7387 45.7767 30.7174 45.7927 30.6694C45.7144 30.7085 45.6593 30.7387 45.6024 30.7618C45.5509 30.7814 45.494 30.8027 45.4389 30.8045C45.3571 30.8063 45.3216 30.7441 45.3553 30.6694C45.3713 30.6338 45.3944 30.5983 45.4247 30.5752C45.5135 30.5112 45.6007 30.4383 45.6984 30.3992C45.9136 30.3138 46.1376 30.2445 46.3562 30.1698C46.5713 30.0952 46.7847 30.0116 47.0033 29.9512C47.2007 29.8961 47.4051 29.8605 47.6078 29.8267C47.6771 29.8161 47.7571 29.8303 47.8264 29.8534C47.9384 29.8907 47.9651 29.9725 47.9011 30.0703C47.7607 30.2801 47.5775 30.4383 47.3198 30.4916C47.1918 30.5183 47.0602 30.5396 46.9322 30.5716C46.8629 30.5876 46.7882 30.6072 46.7242 30.7049" fill="#F4E5D2"/>
<path d="M38.3856 30.5947C38.7163 30.6018 38.9936 30.536 39.2496 30.3885C39.2727 30.376 39.2923 30.3582 39.3154 30.3458C39.3776 30.3156 39.4238 30.3316 39.4576 30.3938C39.4878 30.4489 39.4843 30.5058 39.4523 30.5573C39.4167 30.6125 39.3794 30.6676 39.3296 30.7102C39.2674 30.7653 39.1981 30.8151 39.1252 30.8507C38.8052 31.0053 38.4656 31.0889 38.1118 31.1102C38.0301 31.1156 37.9465 31.0996 37.8647 31.0818C37.7581 31.0587 37.687 30.9893 37.6656 30.8791C37.655 30.8276 37.6496 30.776 37.6425 30.7245C37.6372 30.6818 37.6336 30.6409 37.6265 30.5769C37.5447 30.6071 37.4772 30.6231 37.4185 30.6569C37.2247 30.7689 37.0345 30.8845 36.8443 31.0018C36.6541 31.1191 36.4656 31.24 36.2754 31.3573C36.2487 31.3733 36.2221 31.3876 36.1954 31.4018C36.0532 31.4729 35.9359 31.464 35.8576 31.3751C35.7741 31.2809 35.7705 31.1102 35.8576 30.9965C35.911 30.9271 35.9767 30.8685 36.0354 30.8027C36.0905 30.7405 36.1474 30.6782 36.1972 30.6125C36.231 30.568 36.2576 30.5165 36.2274 30.4382C36.1794 30.4436 36.1261 30.4382 36.0816 30.4578C35.9856 30.4987 35.8896 30.5431 35.799 30.5965C35.6674 30.6747 35.5412 30.7618 35.4114 30.8453C35.3154 30.9058 35.2728 30.9058 35.2248 30.8542C35.1714 30.7956 35.1696 30.6747 35.2248 30.6107C35.2479 30.5858 35.2781 30.5627 35.3083 30.5467C35.6141 30.3796 35.8843 30.1627 36.167 29.9636C36.3252 29.8533 36.4887 29.7502 36.6754 29.6916C36.8016 29.6525 36.9314 29.6311 37.0647 29.6631C37.3101 29.7253 37.3847 29.912 37.2443 30.12C37.1981 30.1876 37.143 30.248 37.1039 30.3316C37.1465 30.3138 37.191 30.2996 37.2301 30.2782C37.4932 30.1378 37.7563 29.9956 38.0158 29.8498C38.1367 29.7822 38.2612 29.7591 38.3963 29.7911C38.5687 29.832 38.631 29.9209 38.6096 30.0951C38.5954 30.2231 38.5456 30.3405 38.4763 30.4489C38.4514 30.488 38.4265 30.5271 38.3874 30.5929" fill="#F4E5D2"/>
<path d="M43.0992 30.6779C43.1775 30.7117 43.2361 30.6814 43.293 30.6494C43.4975 30.5357 43.6699 30.381 43.8317 30.2139C43.8779 30.1677 43.9188 30.1161 43.9579 30.0628C43.9828 30.029 44.0095 29.9881 43.9686 29.9454C43.8157 29.9774 43.1846 30.5019 43.101 30.6761M43.933 30.7454C43.8743 30.7845 43.8157 30.8219 43.7606 30.8628C43.6859 30.9179 43.6148 30.9748 43.5401 31.0299C43.2823 31.2219 42.9926 31.2556 42.6886 31.1881C42.4397 31.133 42.3135 30.8841 42.4219 30.6494C42.461 30.5641 42.5215 30.4823 42.589 30.4165C42.8237 30.1943 43.0637 29.9739 43.3108 29.7641C43.4228 29.6681 43.5508 29.5863 43.677 29.5099C43.8512 29.4068 44.0308 29.4068 44.1961 29.5259C44.2868 29.5899 44.3632 29.5881 44.4486 29.5259C44.4877 29.4974 44.5303 29.4743 44.573 29.4512C44.6601 29.4032 44.7526 29.4103 44.8397 29.4441C44.9286 29.4797 44.9712 29.5632 44.9446 29.6592C44.925 29.725 44.893 29.789 44.8539 29.8459C44.7934 29.9312 44.7223 30.0094 44.6566 30.0912C44.6263 30.1285 44.5943 30.1659 44.5659 30.205C44.5001 30.2957 44.493 30.3579 44.5392 30.4219C44.5908 30.4948 44.6939 30.5268 44.7863 30.4894C44.8343 30.4699 44.8788 30.4414 44.925 30.4148C44.9623 30.3934 44.9997 30.3685 45.0388 30.349C45.1028 30.3134 45.1579 30.3401 45.2077 30.3828C45.261 30.4272 45.2539 30.4859 45.2255 30.5392C45.2006 30.5854 45.1703 30.6299 45.1348 30.6654C44.8379 30.9677 44.4112 30.9694 44.1321 30.8628C44.0681 30.8379 44.013 30.7917 43.9348 30.7437" fill="#F4E5D2"/>
<path d="M50.5711 29.7159C50.3204 29.6626 50.0342 29.8635 49.956 30.1372C50.18 30.0217 50.4502 29.995 50.5711 29.7159ZM49.8226 30.6955C49.9026 30.7559 49.9773 30.7666 50.0484 30.7612C50.1924 30.7506 50.3364 30.7328 50.4769 30.7043C50.6849 30.6617 50.8769 30.5763 51.06 30.4697C51.1133 30.4395 51.1684 30.4092 51.2253 30.3897C51.2822 30.3683 51.3391 30.3755 51.3817 30.4252C51.4226 30.475 51.428 30.5319 51.3977 30.5852C51.3675 30.6368 51.332 30.6919 51.2857 30.7275C50.8928 31.0279 50.4555 31.2128 49.9506 31.211C49.9062 31.211 49.8635 31.2057 49.8191 31.1986C49.5969 31.163 49.4404 31.0457 49.3586 30.8341C49.3391 30.7861 49.3231 30.7381 49.3 30.6795C49.2413 30.7132 49.1933 30.7417 49.1453 30.7683C49.0742 30.8057 48.9995 30.8323 48.9178 30.8021C48.8182 30.7666 48.7898 30.6901 48.8538 30.6083C48.8875 30.5639 48.9355 30.5301 48.98 30.4963C49.0778 30.4235 49.1791 30.3523 49.2769 30.2795C49.3497 30.2261 49.3995 30.155 49.4226 30.0679C49.4706 29.8884 49.5666 29.7372 49.7106 29.6235C49.8635 29.5008 50.0164 29.3692 50.1853 29.2732C50.4431 29.1257 50.7257 29.1364 51.0013 29.2341C51.1826 29.2999 51.2626 29.4777 51.1968 29.6768C51.1648 29.7728 51.1097 29.8688 51.0422 29.947C50.8253 30.1959 50.5497 30.3683 50.2546 30.507C50.1551 30.5532 50.052 30.5906 49.9506 30.635C49.9115 30.651 49.876 30.6706 49.8226 30.6972" fill="#F4E5D2"/>
<path d="M32.919 31.08C32.967 31.0853 32.9883 31.0924 33.0079 31.0907C33.2461 31.064 33.4736 31.0071 33.6834 30.888C33.8221 30.8098 33.9163 30.6907 33.9767 30.5449C34.039 30.3956 34.0265 30.3618 33.8861 30.28C33.8274 30.2462 33.7759 30.2213 33.7048 30.2658C33.4274 30.4418 33.1785 30.6445 33.0008 30.9253C32.9741 30.968 32.9528 31.0142 32.9172 31.08M34.6061 30.5111C34.6772 30.4773 34.727 30.4525 34.7785 30.4329C34.8479 30.4045 34.9154 30.3973 34.9723 30.4596C35.0167 30.5093 35.0292 30.6053 34.9847 30.6693C34.951 30.7173 34.9047 30.7653 34.8532 30.7902C34.7767 30.8293 34.6896 30.8542 34.6061 30.8756C34.5136 30.9005 34.4176 30.9165 34.3216 30.9325C34.2007 30.952 34.0959 31 34.0087 31.0871C33.8096 31.2898 33.5661 31.4124 33.2959 31.4907C33.1732 31.5262 33.0541 31.5671 32.9314 31.6027C32.8159 31.6347 32.7003 31.6524 32.5812 31.6169C32.3945 31.5636 32.2968 31.4284 32.3074 31.2364C32.3181 31.0605 32.3803 30.904 32.4923 30.7689C32.5279 30.7245 32.567 30.6836 32.6061 30.6427C32.695 30.5502 32.7643 30.4525 32.807 30.3262C32.8905 30.0845 33.0843 29.9529 33.3243 29.8836C33.4381 29.8516 33.5501 29.816 33.6603 29.7751C33.8452 29.704 34.0283 29.6596 34.2203 29.752C34.2505 29.7662 34.2967 29.752 34.3341 29.7467C34.407 29.7325 34.4781 29.7058 34.551 29.6969C34.6594 29.6862 34.7181 29.7289 34.7394 29.8356C34.7501 29.8889 34.7536 29.9493 34.7412 30.0045C34.7145 30.1289 34.6772 30.2498 34.6434 30.3725C34.6327 30.4133 34.6203 30.4525 34.6043 30.5129" fill="#F4E5D2"/>
<path d="M27.0121 37.3443C27.0067 37.355 27.005 37.3603 27.0014 37.3621C26.8935 37.3988 26.8396 37.4753 26.8396 37.5914C26.8396 37.6821 26.8396 37.7745 26.8396 37.883C27.0672 37.899 27.2841 37.8901 27.5187 37.8883C27.5294 37.739 27.5347 37.5967 27.5152 37.4545C27.5116 37.4261 27.4654 37.4012 27.4334 37.3816C27.4103 37.3674 27.3783 37.3656 27.341 37.355C27.4298 37.3123 27.8387 37.3123 27.9241 37.3532C27.9045 37.3621 27.8903 37.3727 27.8743 37.3763C27.7925 37.3887 27.7658 37.4385 27.7676 37.515C27.7676 37.6679 27.7676 37.8207 27.7676 37.9736C27.7676 38.1176 27.7712 38.2634 27.7676 38.4074C27.7641 38.4981 27.7872 38.5621 27.8885 38.5781C27.8974 38.5781 27.9063 38.5923 27.9312 38.6154H27.3623C27.3623 38.6154 27.357 38.603 27.3552 38.5976C27.3836 38.587 27.4103 38.5745 27.4405 38.5674C27.4956 38.5532 27.5241 38.5176 27.5258 38.4643C27.5276 38.3167 27.5258 38.1692 27.5258 38.0021C27.2983 37.995 27.0814 37.9967 26.8485 38.0021C26.8396 38.1692 26.8343 38.3292 26.8521 38.4892C26.8556 38.5158 26.8912 38.5443 26.9178 38.5621C26.9445 38.5798 26.9783 38.5834 27.0227 38.5976C26.9267 38.6314 26.5499 38.6332 26.4414 38.5976C26.4627 38.5887 26.4734 38.5798 26.4841 38.5781C26.5925 38.5603 26.6067 38.4856 26.6067 38.3932C26.605 38.1212 26.6067 37.851 26.6067 37.579C26.6067 37.419 26.6032 37.4154 26.4521 37.3532C26.5107 37.2981 26.5765 37.3301 26.6334 37.3265C26.6992 37.323 26.765 37.323 26.8307 37.3265C26.8912 37.3301 26.9587 37.2999 27.0156 37.3461" fill="#F4E5D2"/>
<path d="M38.9405 37.951C39.0792 37.9528 39.2036 37.9634 39.2765 37.8319C39.3369 37.7234 39.3191 37.5581 39.2445 37.4728C39.1734 37.3928 39.0667 37.3732 38.9405 37.4176V37.951ZM38.9351 38.0452C38.9351 38.1821 38.9351 38.3172 38.9351 38.4523C38.9351 38.5092 38.9654 38.5519 39.024 38.5679C39.0489 38.5732 39.072 38.5803 39.104 38.5892C39.0258 38.6354 38.6596 38.6408 38.5458 38.6034C38.6394 38.537 38.6863 38.4399 38.6863 38.3119V37.6292C38.6863 37.5 38.6317 37.4028 38.5227 37.3376C38.5565 37.3305 38.5796 37.3216 38.6027 37.3216C38.7734 37.3216 38.944 37.3181 39.1147 37.3216C39.184 37.3216 39.2551 37.3323 39.3227 37.3465C39.4383 37.3714 39.52 37.439 39.5485 37.5581C39.5787 37.6879 39.552 37.8016 39.4489 37.8923C39.4098 37.9261 39.3654 37.9528 39.3156 37.9883C39.3334 38.0221 39.3476 38.0523 39.3654 38.0808C39.4152 38.1572 39.4685 38.2336 39.52 38.3083C39.5947 38.4185 39.6534 38.5447 39.8063 38.591C39.7405 38.6461 39.6818 38.6123 39.6303 38.6247C39.4809 38.6585 39.3938 38.591 39.3245 38.4665C39.2551 38.3403 39.1698 38.223 39.0952 38.0985C39.0596 38.0381 39.0187 38.0043 38.928 38.0452" fill="#F4E5D2"/>
<path d="M44.6585 38.065C44.7741 38.0846 44.8683 38.0792 44.927 37.9832C44.9785 37.9032 44.9643 37.7557 44.9057 37.6881C44.8452 37.6188 44.7617 37.6028 44.6585 37.6437V38.065ZM44.7705 38.6214H44.3279C44.3457 38.6019 44.3528 38.5859 44.3652 38.5841C44.4328 38.5663 44.4523 38.5201 44.4523 38.4561C44.4523 38.2197 44.4488 37.9832 44.4523 37.7486C44.4523 37.6614 44.4114 37.6134 44.3385 37.569C44.3617 37.5672 44.3848 37.5637 44.4079 37.5637C44.527 37.5637 44.6443 37.5583 44.7634 37.5619C44.8292 37.5619 44.895 37.5672 44.959 37.5797C45.0621 37.5992 45.1368 37.6543 45.1581 37.7628C45.1794 37.873 45.1563 37.9708 45.0621 38.0437C45.0354 38.065 45.007 38.0846 44.9679 38.113C45.0923 38.2837 45.167 38.4828 45.3483 38.6054C45.199 38.6712 45.0781 38.6445 44.9945 38.5201C44.927 38.4188 44.863 38.3139 44.7972 38.2108C44.7581 38.1486 44.7563 38.1486 44.6585 38.1503C44.6585 38.2659 44.6497 38.3832 44.6639 38.4988C44.6692 38.5414 44.7297 38.5752 44.7741 38.6232" fill="#F4E5D2"/>
<path d="M40.2295 37.5658H40.9708C40.9744 37.6334 40.9797 37.7027 40.9833 37.7738C40.9761 37.7791 40.969 37.7862 40.9619 37.7916C40.8801 37.5765 40.7166 37.6227 40.5495 37.6333V38.0031C40.7041 38.0565 40.7681 38.0387 40.8695 37.9036C40.9015 38.0156 40.8819 38.1187 40.8713 38.2307C40.8037 38.0742 40.6828 38.0938 40.5513 38.1133C40.5299 38.236 40.5353 38.3569 40.5477 38.4778C40.5495 38.5062 40.5957 38.5489 40.6241 38.5507C40.7148 38.5578 40.8073 38.5542 40.8979 38.5418C40.9353 38.5365 40.969 38.4956 40.9993 38.4653C41.0188 38.4458 41.0313 38.4173 41.0615 38.3693C41.0828 38.4742 41.0419 38.5418 41.033 38.62H40.217C40.265 38.5809 40.313 38.5596 40.329 38.5222C40.3486 38.4813 40.3433 38.428 40.3433 38.3818C40.3433 38.1756 40.3433 37.9711 40.3433 37.7649C40.3433 37.6422 40.3415 37.6422 40.2313 37.5676" fill="#F4E5D2"/>
<path d="M31.334 37.565H32.102V37.8086C32.0469 37.7143 32.0184 37.629 31.9206 37.629H31.6789V38.0148C31.8122 38.0397 31.9313 38.0503 32.006 37.9046V38.2352C31.9598 38.1908 31.926 38.1321 31.8744 38.1126C31.8229 38.0912 31.7553 38.1072 31.6789 38.1072C31.6593 38.2335 31.6629 38.3579 31.6753 38.4823C31.6807 38.5321 31.7269 38.5535 31.7731 38.5535C31.8478 38.5535 31.9224 38.5535 31.9953 38.5481C32.0913 38.5392 32.1322 38.4646 32.1766 38.3668C32.2122 38.4663 32.1749 38.5357 32.1535 38.6157H31.3624C31.4709 38.5659 31.4762 38.477 31.4727 38.3774C31.4691 38.1801 31.4727 37.9846 31.4727 37.7872C31.4727 37.6503 31.4727 37.6503 31.334 37.5632" fill="#F4E5D2"/>
<path d="M30.6179 38.619H30.1592C30.1592 38.619 30.1557 38.6065 30.1539 38.5994C30.1752 38.5923 30.1948 38.5834 30.2161 38.5781C30.2659 38.5639 30.289 38.5283 30.289 38.4803C30.289 38.2065 30.289 37.931 30.289 37.6536C30.1859 37.6234 30.0881 37.627 29.9975 37.643C29.9512 37.6519 29.9157 37.707 29.8677 37.7479C29.8464 37.6785 29.8784 37.6074 29.8784 37.5381C30.2215 37.5701 30.5592 37.5594 30.9077 37.5434C30.9041 37.6056 30.9006 37.6768 30.897 37.7479C30.881 37.7479 30.865 37.7514 30.865 37.7479C30.8259 37.6448 30.7459 37.6199 30.6446 37.6305C30.5983 37.6359 30.5503 37.6305 30.4988 37.6305C30.4935 37.6803 30.4863 37.7141 30.4863 37.7479C30.4863 37.9665 30.4863 38.1852 30.4863 38.4039C30.4863 38.5336 30.4952 38.5425 30.6143 38.6154" fill="#F4E5D2"/>
<path d="M46.3197 37.6355V37.7955C46.3197 37.9929 46.3197 38.1884 46.3197 38.3858C46.3197 38.5404 46.3197 38.5404 46.4513 38.6133C46.3002 38.6329 46.1473 38.624 45.9891 38.6044C46.0051 38.5973 46.0193 38.5849 46.0353 38.5813C46.0922 38.5706 46.1206 38.5333 46.1206 38.48C46.1206 38.2044 46.1206 37.9306 46.1206 37.6533C46.0157 37.6249 45.918 37.6266 45.8255 37.6444C45.7811 37.6533 45.7455 37.712 45.7011 37.7529C45.6762 37.6835 45.7064 37.6124 45.7135 37.5431C46.0548 37.5733 46.3891 37.5555 46.7393 37.5555C46.7357 37.6089 46.7322 37.68 46.7268 37.7635C46.6557 37.7244 46.6468 37.6213 46.5508 37.6338C46.4833 37.6426 46.4122 37.6338 46.3162 37.6338" fill="#F4E5D2"/>
<path d="M32.6475 37.565H33.1257C33.0848 37.5881 33.0706 37.6006 33.0546 37.6041C33.003 37.6166 32.9852 37.6521 32.9852 37.7001C32.9852 37.9543 32.9852 38.2068 32.9852 38.461C32.9852 38.525 33.0226 38.557 33.083 38.5623C33.2466 38.5766 33.403 38.5712 33.4795 38.3775C33.5026 38.4752 33.499 38.4948 33.4457 38.621H32.6688C32.7115 38.5783 32.7577 38.5499 32.7755 38.509C32.7932 38.4681 32.7879 38.4148 32.7879 38.3668C32.7879 38.1748 32.7879 37.9828 32.7879 37.789C32.7879 37.6521 32.7879 37.6521 32.6475 37.5632" fill="#F4E5D2"/>
</g>
<defs>
<filter id="filter0_d_184_3747" x="0" y="0" width="75" height="75" filterUnits="userSpaceOnUse" color-interpolation-filters="sRGB">
<feFlood flood-opacity="0" result="BackgroundImageFix"/>
<feColorMatrix in="SourceAlpha" type="matrix" values="0 0 0 0 0 0 0 0 0 0 0 0 0 0 0 0 0 0 127 0" result="hardAlpha"/>
<feOffset dy="6"/>
<feGaussianBlur stdDeviation="5"/>
<feComposite in2="hardAlpha" operator="out"/>
<feColorMatrix type="matrix" values="0 0 0 0 0 0 0 0 0 0 0 0 0 0 0 0 0 0 0.5 0"/>
<feBlend mode="normal" in2="BackgroundImageFix" result="effect1_dropShadow_184_3747"/>
<feBlend mode="normal" in="SourceGraphic" in2="effect1_dropShadow_184_3747" result="shape"/>
</filter>
</defs>
</svg>
