<svg width="48" height="48" viewBox="0 0 48 48" fill="none" xmlns="http://www.w3.org/2000/svg">
<g filter="url(#filter0_d_184_2716)">
<rect x="4" width="40" height="40" rx="20" fill="#F4E5D2" shape-rendering="crispEdges"/>
<path d="M15.7488 19.8753C15.4599 19.9379 15.1342 20.1513 14.9521 20.396C14.4093 21.1246 14.2548 21.9342 14.4443 22.8191C14.5712 23.4098 14.9337 23.8164 15.4286 24.1273C15.5225 24.1862 15.5979 24.1678 15.6365 24.0924C15.712 23.9433 15.7929 23.7869 15.8168 23.625C15.8647 23.3067 15.7616 23.005 15.6439 22.7106C15.4765 22.2874 15.3679 21.8495 15.3495 21.3969C15.3274 20.8597 15.4728 20.3592 15.7469 19.8753M15.7819 24.3021C16.2566 24.4548 16.7166 24.4935 17.1931 24.4364C17.9272 24.3499 18.5068 23.9838 18.9723 23.441C19.3513 22.9995 19.5868 22.4751 19.6935 21.8955C19.8076 21.281 19.8168 20.6738 19.6015 20.0777C19.4525 19.6637 19.2262 19.3142 18.8306 19.0897C18.0689 18.6573 17.1029 18.8652 16.4994 19.4061C15.8849 19.9563 15.7377 20.683 15.8334 21.4595C15.8812 21.8569 16.0266 22.2414 16.1241 22.6333C16.275 23.2368 16.2878 23.8127 15.78 24.3039M16.4645 24.8577C15.942 24.8357 15.3845 24.7455 14.895 24.4217C14.3192 24.0408 13.9365 23.5312 13.8298 22.8283C13.7102 22.0446 13.8574 21.3215 14.2934 20.6646C14.678 20.0851 15.2189 19.7226 15.896 19.5589C15.9567 19.5441 16.0137 19.4908 16.0597 19.4411C16.413 19.0713 16.8288 18.8082 17.3255 18.6812C18.1185 18.4788 18.8637 18.5782 19.55 19.0382C19.9842 19.3289 20.2123 19.7594 20.3577 20.2433C20.6281 21.1485 20.4018 21.9765 19.9364 22.7548C19.4561 23.5606 18.7643 24.142 17.9272 24.5542C17.4838 24.7713 17.0073 24.8486 16.4663 24.8559" fill="#5D4632"/>
<path d="M20.3829 24.1987C20.968 24.2539 21.4905 24.114 21.9707 23.8105C22.3976 23.5437 22.7343 23.1831 22.9956 22.7562C23.174 22.4637 23.3727 22.173 23.3562 21.8031C23.347 21.6099 23.2366 21.5032 23.0452 21.4904C22.7509 21.4701 22.5153 21.6081 22.2909 21.7627C21.8309 22.0791 21.4261 22.4563 21.0986 22.9144C20.8135 23.3137 20.5798 23.7405 20.3811 24.1987M19.5991 24.6274C19.7169 24.3716 19.8273 24.1288 19.9395 23.8896C20.2173 23.2971 20.497 22.7065 20.7748 22.1159C21.1354 21.345 21.4961 20.5722 21.8567 19.7995C21.8898 19.7277 21.9229 19.656 21.9505 19.5824C22.0112 19.4242 21.9395 19.3266 21.7684 19.3395C21.7058 19.3432 21.6451 19.3726 21.5825 19.3837C21.5623 19.3874 21.5365 19.3653 21.5145 19.3542C21.5255 19.3322 21.531 19.2954 21.5476 19.288C21.991 19.1132 22.4362 18.9421 22.8796 18.771C22.8944 18.7802 22.9091 18.7912 22.922 18.8004C22.3939 19.9154 21.8659 21.0322 21.3525 22.1122C21.7205 21.8841 22.1069 21.6283 22.5098 21.4002C22.8704 21.196 23.2715 21.115 23.6855 21.1592C23.9744 21.1904 24.1161 21.4278 24.0369 21.7663C23.8953 22.3717 23.5439 22.8666 23.0894 23.2769C22.6957 23.6338 22.2614 23.9411 21.772 24.1619C21.3452 24.3532 20.8981 24.4765 20.4363 24.5427C20.2357 24.5722 20.0352 24.5998 19.8346 24.6237C19.7629 24.631 19.6893 24.6237 19.6028 24.6237" fill="#5D4632"/>
<path d="M32.2509 21.1608C32.2141 21.2656 32.1883 21.3631 32.1442 21.4533C32.1313 21.4791 32.0687 21.4901 32.0282 21.4901C31.675 21.4901 31.3273 21.5251 30.9887 21.6244C30.365 21.8066 29.9437 22.2279 29.6272 22.7743C29.4506 23.0798 29.3052 23.3981 29.2721 23.7513C29.2353 24.1377 29.377 24.2886 29.7578 24.3143C30.0633 24.3364 30.3411 24.2223 30.5821 24.0402C31.066 23.674 31.3769 23.1846 31.5683 22.6143C31.5904 22.5499 31.6106 22.48 31.6124 22.4137C31.618 22.1157 31.4873 21.9482 31.1525 22.0752C30.9262 22.1598 30.7955 22.342 30.6631 22.526C30.6502 22.5444 30.6373 22.5628 30.6226 22.5812C30.6171 22.5885 30.6079 22.5904 30.6005 22.5959C30.5711 22.4873 30.606 22.3254 30.7035 22.1948C30.9685 21.8397 31.3346 21.6998 31.7651 21.7477C32.0522 21.7808 32.2454 22.1285 32.1644 22.4174C32.0135 22.9583 31.675 23.3741 31.2813 23.7495C30.9482 24.0678 30.5729 24.3327 30.1424 24.5002C29.8222 24.6253 29.491 24.7026 29.1433 24.6069C28.8305 24.5204 28.63 24.1911 28.6797 23.8709C28.7901 23.1644 29.1875 22.6382 29.7026 22.1764C30.0853 21.8342 30.5195 21.5711 30.9942 21.3871C31.3898 21.2344 31.8001 21.1221 32.2527 21.1552" fill="#5D4632"/>
<path d="M26.5147 22.7017C26.5588 22.9556 26.4907 23.1856 26.316 23.4045C26.0326 23.7578 25.7382 24.089 25.339 24.3171C25.006 24.5085 24.649 24.6244 24.27 24.6501C24.1173 24.6593 23.9535 24.6317 23.8082 24.5802C23.5911 24.5048 23.523 24.3042 23.4991 24.0945C23.4696 23.8332 23.5414 23.5885 23.6444 23.3548C24.0363 22.4735 24.684 21.8406 25.5524 21.434C25.775 21.3291 26.0105 21.2426 26.2479 21.1782C26.3988 21.1359 26.5699 21.1249 26.7263 21.147C27.0188 21.1875 27.0354 21.3034 26.9765 21.5959C26.9378 21.7909 26.7925 21.9216 26.6361 22.0356C26.1964 22.3613 25.7088 22.56 25.1568 22.5839C25.0262 22.5894 24.9287 22.5324 24.8569 22.3871C25.0391 22.3871 25.2065 22.3999 25.3721 22.3852C25.7309 22.3521 26.0565 22.227 26.3233 21.9804C26.3914 21.9179 26.4429 21.8277 26.4797 21.7394C26.5478 21.5793 26.4503 21.4469 26.2773 21.434C26.0142 21.4156 25.7732 21.491 25.5524 21.6235C24.9397 21.9952 24.4871 22.5048 24.2277 23.1782C24.1412 23.4027 24.0915 23.6327 24.0842 23.8774C24.075 24.2012 24.3326 24.33 24.5883 24.3079C25.1936 24.2582 25.637 23.9197 25.9958 23.4616C26.1872 23.2168 26.3472 22.9482 26.5165 22.698" fill="#5D4632"/>
<path d="M26.3835 24.6603C26.5381 24.3475 26.689 24.0587 26.8214 23.7625C27.0772 23.1958 27.3256 22.6254 27.5758 22.055C27.5905 22.0219 27.6016 21.9851 27.6089 21.9502C27.6457 21.757 27.5519 21.6797 27.3661 21.7423C27.3219 21.757 27.2722 21.7551 27.2262 21.7625C27.2207 21.7423 27.2152 21.722 27.2078 21.7018C27.6089 21.5178 28.01 21.3356 28.4258 21.1443C28.4553 21.5343 28.2492 21.8342 28.137 22.1673C28.3706 22.0054 28.6006 21.8342 28.8398 21.6815C29.0845 21.5251 29.3384 21.3835 29.5923 21.2418C29.7929 21.1296 30.0136 21.1498 30.2565 21.1608C30.1995 21.2952 30.1461 21.4184 30.102 21.5196C29.9014 21.5362 29.7045 21.527 29.5206 21.573C29.171 21.6613 28.8821 21.8747 28.5988 22.09C28.0192 22.5297 27.6752 23.1369 27.39 23.7864C27.2888 24.0182 27.1876 24.2482 27.0809 24.4782C27.068 24.5058 27.033 24.5352 27.0054 24.5407C26.8086 24.5812 26.6117 24.6162 26.3872 24.6585" fill="#5D4632"/>
<path d="M32.6496 21.5859C32.6883 21.5233 32.6993 21.4773 32.7251 21.4681C33.0949 21.332 33.4647 21.1995 33.8529 21.0597C33.8676 21.2897 33.8014 21.4865 33.7131 21.6687C33.4463 22.2207 33.1648 22.7671 32.8925 23.3172C32.7894 23.5233 32.6846 23.7275 32.5981 23.941C32.5245 24.1231 32.6165 24.2169 32.8079 24.1765C32.8741 24.1617 32.9403 24.1415 33.0066 24.1268C33.0139 24.1268 33.0231 24.1323 33.0673 24.147C33.0231 24.1857 32.9955 24.2206 32.9606 24.2353C32.6036 24.377 32.243 24.515 31.875 24.6567C31.8474 24.412 31.9026 24.1857 31.9983 23.9796C32.2191 23.5031 32.4619 23.0376 32.6956 22.5666C32.8152 22.3237 32.9422 22.0827 33.0489 21.8324C33.0838 21.7533 33.0636 21.6521 33.0691 21.5601C32.9808 21.5565 32.8925 21.5473 32.806 21.5473C32.7711 21.5473 32.7361 21.5638 32.6496 21.5841" fill="#5D4632"/>
<path d="M15.4446 25.8433V26.364H14.8467V25.8451H14.5413V27.1422H14.843V26.5167H15.4502V27.1441H15.7501V25.8433H15.4446Z" fill="#5D4632"/>
<path d="M29.9931 25.9488V26.4603C30.2507 26.4493 30.317 26.3775 30.3041 26.1365C30.2967 25.9801 30.2213 25.9323 29.9931 25.9488ZM29.9876 27.1392H29.6675V25.8366C29.8754 25.8366 30.0888 25.8274 30.3022 25.8384C30.477 25.8476 30.5911 25.9525 30.615 26.0887C30.6445 26.2635 30.5672 26.3941 30.3887 26.4732C30.3685 26.4824 30.3482 26.4898 30.3022 26.51C30.4439 26.7216 30.5801 26.9221 30.7162 27.1227C30.4623 27.1981 30.3758 27.1632 30.2452 26.9442C30.1698 26.8154 30.0888 26.6903 29.9895 26.5284V27.1374L29.9876 27.1392Z" fill="#5D4632"/>
<path d="M24.7074 25.9474V26.4626C24.943 26.4589 25.0368 26.3761 25.0331 26.1885C25.0294 25.9916 24.9577 25.9364 24.7074 25.9493M24.3928 25.8389C24.5934 25.8389 24.7921 25.8334 24.9908 25.8389C25.1858 25.8462 25.3201 25.9511 25.3422 26.0983C25.368 26.2676 25.2778 26.4037 25.0901 26.4828C25.0736 26.4902 25.057 26.4957 25.0165 26.5086C25.0901 26.619 25.1564 26.722 25.2245 26.8232C25.2944 26.9263 25.3661 27.0256 25.4397 27.1323C25.1417 27.1894 25.1085 27.1765 24.9595 26.9373C24.8822 26.8122 24.8013 26.6889 24.7038 26.5344V27.1434H24.3928V25.837V25.8389Z" fill="#5D4632"/>
<path d="M16.3222 26.4977C16.3314 26.5014 16.3425 26.505 16.3517 26.5087C16.3554 26.5602 16.3554 26.6118 16.3609 26.6614C16.3885 26.8914 16.5191 27.0478 16.6958 27.0662C16.9368 27.0901 17.1097 26.9834 17.1649 26.7332C17.1999 26.575 17.2017 26.402 17.1796 26.2401C17.1576 26.08 17.0453 25.9641 16.8816 25.9255C16.7123 25.8868 16.5559 25.9347 16.4713 26.0892C16.4014 26.2143 16.3701 26.3615 16.3222 26.4977ZM16.7767 25.8096C17.2146 25.8004 17.5127 26.0579 17.5311 26.4443C17.5476 26.8436 17.2643 27.1453 16.8485 27.1711C16.6332 27.1858 16.4253 27.16 16.256 27.0165C16.0297 26.8252 15.9911 26.5676 16.0647 26.3027C16.1383 26.034 16.3406 25.8795 16.613 25.8261C16.6718 25.8151 16.7344 25.8132 16.7767 25.8096Z" fill="#5D4632"/>
<path d="M29.1058 26.4975C29.0893 26.3889 29.0819 26.3153 29.0654 26.2435C29.0175 26.0485 28.8869 25.9308 28.7139 25.9179C28.5189 25.9032 28.3736 25.9841 28.2963 26.1755C28.2172 26.3742 28.2061 26.5821 28.276 26.7882C28.3368 26.9721 28.4398 27.0549 28.6146 27.066C28.8059 27.077 28.9458 27.0016 29.0138 26.8268C29.0598 26.7127 29.0801 26.5894 29.104 26.4993M28.6422 27.1745C28.2006 27.1745 27.9154 26.9206 27.9136 26.5232C27.9117 26.1037 28.2264 25.8075 28.6735 25.8093C29.1132 25.8093 29.4168 26.0816 29.4131 26.4735C29.4094 26.893 29.1022 27.1745 28.6422 27.1745Z" fill="#5D4632"/>
<path d="M24.7835 15.4012C24.6805 15.1528 24.5903 14.9062 24.4744 14.6689C24.3309 14.3727 24.1211 14.1224 23.8709 13.909C23.7863 13.8373 23.7384 13.7581 23.7366 13.6496C23.7348 13.4435 23.7366 13.2375 23.7642 13.0277C24.5057 13.6551 24.8461 14.4407 24.7835 15.3993" fill="#5D4632"/>
<path d="M27.6102 16.5336C26.6627 16.8188 25.6176 16.4618 25.0969 15.9172C25.4723 16.0644 25.8366 16.1711 26.2211 16.1564C26.4437 16.1491 26.6645 16.1159 26.8853 16.0975C26.9295 16.0939 26.9883 16.0828 27.0196 16.1031C27.2202 16.2411 27.4133 16.3882 27.6102 16.5336Z" fill="#5D4632"/>
<path d="M24.4462 15.6163C24.2475 15.5942 24.0782 15.5666 23.9071 15.5592C23.4821 15.539 23.0773 15.6291 22.6817 15.78C22.6284 15.8002 22.5511 15.8039 22.5014 15.78C22.2954 15.688 22.0948 15.585 21.874 15.4746C22.6192 15.0698 23.7305 15.1232 24.448 15.6144" fill="#5D4632"/>
<path d="M24.874 15.4547C24.9715 14.8328 24.874 14.2588 24.609 13.716C24.5483 13.5927 24.5244 13.4897 24.5796 13.3646C24.6568 13.1879 24.7286 13.0076 24.8096 12.8145C25.2677 13.5099 25.3284 14.6488 24.874 15.4547Z" fill="#5D4632"/>
<path d="M27.4055 14.4312C26.9492 15.2113 26.0513 15.6841 25.1038 15.6915C25.273 15.6142 25.4165 15.5553 25.5564 15.4854C25.9685 15.2812 26.2978 14.9813 26.5738 14.6152C26.6161 14.5581 26.6934 14.5066 26.7615 14.4956C26.9749 14.4624 27.1902 14.4496 27.4055 14.4293" fill="#5D4632"/>
<path d="M24.5333 15.5079C24.375 15.4251 24.2205 15.3331 24.0567 15.2595C23.6777 15.0884 23.2785 15.0056 22.8626 15.0221C22.7559 15.0258 22.6731 14.9982 22.6032 14.9173C22.4671 14.7609 22.3291 14.6063 22.2058 14.4334C23.1662 14.3984 23.939 14.7572 24.5333 15.5079Z" fill="#5D4632"/>
<path d="M24.2556 18.6402C23.9024 17.7423 24.1434 16.6494 24.6475 16.0662C24.6107 16.2538 24.5666 16.4507 24.5353 16.6512C24.4691 17.0597 24.5261 17.4571 24.6383 17.8509C24.6549 17.9116 24.653 17.9925 24.6236 18.0459C24.5132 18.2409 24.3881 18.4286 24.2556 18.6402Z" fill="#5D4632"/>
<path d="M24.571 15.9749C24.1699 16.4771 23.9381 17.0181 23.8995 17.6363C23.8958 17.6988 23.8608 17.7743 23.8148 17.8129C23.6437 17.9583 23.4616 18.0907 23.2647 18.2434C23.2169 17.4265 23.8019 16.3796 24.571 15.973" fill="#5D4632"/>
<path d="M21.9909 16.5432C22.6845 15.8495 23.4996 15.5938 24.4637 15.7373C24.4324 15.7576 24.4214 15.7723 24.4066 15.7741C23.8271 15.8477 23.3321 16.0998 22.9053 16.4898C22.7986 16.5873 22.69 16.6278 22.5539 16.6131C22.3662 16.591 22.1767 16.5671 21.989 16.5432" fill="#5D4632"/>
<path d="M27.6883 15.5186C26.8879 16.0448 26.0324 16.1202 25.1309 15.789C25.1769 15.7909 25.2229 15.7945 25.2689 15.7945C25.3204 15.7945 25.37 15.7909 25.4216 15.789C25.9404 15.7651 26.4151 15.6106 26.853 15.3327C26.91 15.2959 26.9965 15.2665 27.0572 15.2812C27.2725 15.3309 27.4822 15.4026 27.6957 15.4652L27.6901 15.5186H27.6883Z" fill="#5D4632"/>
<path d="M24.9007 16.1C25.0221 16.2895 25.1436 16.4956 25.2834 16.6887C25.4987 16.9868 25.7802 17.215 26.093 17.4063C26.1445 17.4376 26.2034 17.4909 26.2162 17.5443C26.2678 17.7632 26.3009 17.9877 26.3432 18.2195C25.7379 18.1275 24.8915 16.847 24.9007 16.1Z" fill="#5D4632"/>
<path d="M27.1452 17.5145C26.2123 17.452 25.2961 16.7179 25.0293 16.061C25.2574 16.2119 25.5021 16.4143 25.78 16.5486C26.0394 16.6756 26.3319 16.7308 26.6079 16.8209C26.6594 16.8375 26.7257 16.8522 26.7514 16.8908C26.8821 17.0859 27.0035 17.2864 27.1452 17.5145Z" fill="#5D4632"/>
<path d="M24.7739 16.0969C24.8034 16.2772 24.8273 16.4465 24.8604 16.6121C24.9506 17.05 25.1493 17.4345 25.4253 17.7841C25.4565 17.8227 25.4841 17.8853 25.4768 17.9295C25.44 18.1576 25.3921 18.3821 25.3443 18.6231C24.7868 18.1061 24.4888 16.9598 24.7739 16.0969Z" fill="#5D4632"/>
<path d="M26.7846 13.6348C26.5363 14.5382 25.9917 15.184 25.1104 15.5428C25.149 15.5023 25.1858 15.4636 25.2244 15.4232C25.2667 15.3808 25.3109 15.3385 25.3532 15.2944C25.6954 14.9301 25.9254 14.5051 26.045 14.0212C26.0542 13.9862 26.0634 13.9365 26.0873 13.9218C26.3063 13.8041 26.5289 13.6937 26.7497 13.5796L26.7846 13.6329V13.6348Z" fill="#5D4632"/>
<path d="M24.4797 15.8698C24.3049 16.0004 24.1301 16.12 23.9663 16.2543C23.6646 16.5045 23.442 16.8191 23.2782 17.1724C23.234 17.2662 23.1752 17.3233 23.0813 17.349C22.8826 17.4042 22.6821 17.4539 22.4631 17.5109C22.7152 16.7603 23.5652 16.0133 24.4797 15.8698Z" fill="#5D4632"/>
<path d="M25.0514 15.4295C25.1379 15.1407 25.2556 14.8334 25.3182 14.5151C25.3642 14.2778 25.3495 14.0239 25.3421 13.7792C25.3384 13.6577 25.3421 13.5547 25.4341 13.4627C25.5739 13.3247 25.7064 13.1757 25.8536 13.0193C26.0284 13.6964 25.7653 14.8058 25.0496 15.4295" fill="#5D4632"/>
<path d="M22.817 13.5643C23.7204 13.8238 24.4803 14.6719 24.6256 15.3913C24.4435 15.211 24.2595 14.9829 24.0314 14.8136C23.7848 14.6315 23.4941 14.5082 23.2255 14.3518C23.1629 14.315 23.093 14.2617 23.0654 14.1991C22.9771 14.0022 22.9053 13.798 22.8152 13.5643" fill="#5D4632"/>
<path d="M23.1657 26.3222C23.3129 26.2192 23.3865 26.0481 23.2981 25.9819C23.2466 25.9432 23.1344 25.934 23.0774 25.9653C22.9854 26.0131 23.0295 26.1677 23.1657 26.3222ZM22.9743 26.5393C22.8069 26.6847 22.7811 26.8117 22.875 26.9312C22.9743 27.06 23.1657 27.0766 23.3423 26.9588C23.2209 26.819 23.0994 26.6829 22.9743 26.5393ZM23.2595 26.4621C23.3257 26.5338 23.4269 26.6479 23.5484 26.7822C23.6348 26.6553 23.714 26.5412 23.7986 26.4161C23.8299 26.4492 23.8611 26.4823 23.8998 26.5246C23.8243 26.6111 23.7526 26.6957 23.6772 26.7767C23.6256 26.8301 23.6146 26.8705 23.6772 26.9257C23.7471 26.9864 23.8059 27.0582 23.8667 27.1428C23.7066 27.1208 23.5281 27.2293 23.4196 27.0766C23.2337 27.1134 23.07 27.1649 22.9026 27.1723C22.7094 27.1815 22.599 27.0858 22.5585 26.9294C22.5254 26.8043 22.6045 26.6516 22.7517 26.5596C22.8032 26.5283 22.8547 26.5007 22.9136 26.4676C22.8915 26.429 22.875 26.3977 22.8529 26.3664C22.7701 26.2468 22.7314 26.118 22.8179 25.9892C22.9081 25.8549 23.0534 25.8292 23.2025 25.8494C23.4472 25.8825 23.5484 26.0371 23.4398 26.2026C23.3865 26.2854 23.3276 26.3627 23.2577 26.4639" fill="#5D4632"/>
<path d="M19.0234 25.8366H19.7833V25.9893C19.6324 25.9819 19.4889 25.9764 19.3325 25.969V26.3848H19.7667V26.532H19.327V27.0012H19.7925C19.7888 27.0509 19.7852 27.0932 19.7815 27.141H19.0234V25.8347V25.8366Z" fill="#5D4632"/>
<path d="M32.9102 25.9013C32.8844 25.9694 32.8642 26.0246 32.8384 26.0963C32.7372 25.9436 32.6048 25.8903 32.4484 25.9418C32.3968 25.9583 32.3306 26.019 32.3233 26.0669C32.3159 26.1221 32.3508 26.2067 32.395 26.2417C32.4796 26.3042 32.5882 26.3318 32.6783 26.387C32.7759 26.4477 32.8844 26.5085 32.947 26.5986C33.0592 26.7587 32.9709 26.9924 32.774 27.0917C32.5367 27.2095 32.292 27.2095 32.0381 27.1064C32.062 27.0218 32.0822 26.9464 32.1135 26.8378C32.1981 27.031 32.3306 27.088 32.5036 27.0678C32.6048 27.0567 32.6857 27.0199 32.7096 26.9132C32.7335 26.8028 32.6747 26.7348 32.5845 26.6906C32.498 26.6465 32.406 26.6097 32.3177 26.5692C32.1282 26.4845 32.0178 26.33 32.0399 26.1754C32.0657 25.9988 32.2092 25.859 32.4097 25.8259C32.5772 25.7964 32.7409 25.8056 32.9102 25.9013Z" fill="#5D4632"/>
<path d="M27.5383 26.1171C27.4519 25.9441 27.3267 25.9 27.1851 25.9349C27.1225 25.9497 27.0508 26.0067 27.025 26.0637C26.99 26.1392 27.025 26.2165 27.1115 26.2569C27.2035 26.2992 27.2955 26.3471 27.3875 26.3912C27.5475 26.4667 27.6947 26.555 27.6947 26.7629C27.6947 26.934 27.5733 27.0738 27.3599 27.1419C27.1593 27.2063 26.9588 27.2026 26.749 27.107C26.7693 27.0278 26.7895 26.9506 26.8171 26.8365C26.9109 27.0481 27.06 27.107 27.2366 27.061C27.3047 27.0426 27.382 26.9745 27.4114 26.9101C27.45 26.8199 27.3911 26.7408 27.301 26.6967C27.1924 26.6451 27.0802 26.5973 26.9735 26.544C26.841 26.4777 26.7527 26.3784 26.7545 26.2165C26.7564 26.049 26.8429 25.9294 26.99 25.8669C27.1961 25.7786 27.404 25.7951 27.6138 25.8945C27.5899 25.9644 27.5715 26.0251 27.5402 26.1171" fill="#5D4632"/>
<path d="M22.0449 25.902C22.021 25.9682 22.0008 26.0234 21.975 26.0952C21.883 25.9646 21.7708 25.8965 21.6328 25.9333C21.5666 25.9498 21.4875 26.0014 21.4562 26.0602C21.412 26.1449 21.4654 26.2221 21.5519 26.2645C21.6347 26.3049 21.7193 26.3473 21.8039 26.3841C22.0358 26.4816 22.1278 26.5938 22.1204 26.7741C22.113 26.9526 21.9897 27.1016 21.7653 27.1513C21.6236 27.1826 21.4691 27.1752 21.3219 27.1642C21.2041 27.155 21.1508 27.0832 21.2152 26.9618C21.228 26.936 21.2336 26.9047 21.2501 26.8459C21.3384 27.0262 21.4672 27.0832 21.6347 27.0703C21.7451 27.0611 21.8242 27.017 21.8518 26.9066C21.8794 26.7999 21.8094 26.7392 21.7267 26.6968C21.6328 26.6472 21.5298 26.6104 21.4341 26.5625C21.2372 26.465 21.16 26.327 21.1894 26.1412C21.2152 25.9793 21.3734 25.8431 21.5703 25.8247C21.7285 25.81 21.8849 25.8119 22.0431 25.9038" fill="#5D4632"/>
<path d="M26.032 26.3916H26.4552C26.457 26.4357 26.4588 26.478 26.4625 26.5314H26.0265V27.0061H26.4607V27.1422H25.7266V25.8433H26.4625V25.9905C26.3208 25.9849 26.1847 25.9776 26.032 25.9721V26.3934V26.3916Z" fill="#5D4632"/>
<path d="M18.0445 25.9701C17.9194 25.9756 17.8053 25.9811 17.6784 25.9866C17.6747 25.9443 17.6729 25.9002 17.6692 25.845H18.7069V25.9811H18.3573V27.1421H18.0445V25.9701Z" fill="#5D4632"/>
<path d="M30.8657 25.8398V25.9834H31.2116V27.1425H31.5207V25.9815H31.8611V25.8398H30.8657Z" fill="#5D4632"/>
<path d="M20.1611 25.845V27.1458H20.9173V27.0096H20.4666V25.845H20.1611Z" fill="#5D4632"/>
<path d="M33.9276 20.6542C33.7234 20.6542 33.6332 20.5843 33.635 20.426C33.6369 20.2513 33.8337 20.093 34.0472 20.0949C34.222 20.0949 34.3084 20.1703 34.3084 20.3249C34.3084 20.5199 34.1539 20.6542 33.9294 20.6542" fill="#5D4632"/>
</g>
<defs>
<filter id="filter0_d_184_2716" x="0" y="0" width="48" height="48" filterUnits="userSpaceOnUse" color-interpolation-filters="sRGB">
<feFlood flood-opacity="0" result="BackgroundImageFix"/>
<feColorMatrix in="SourceAlpha" type="matrix" values="0 0 0 0 0 0 0 0 0 0 0 0 0 0 0 0 0 0 127 0" result="hardAlpha"/>
<feOffset dy="4"/>
<feGaussianBlur stdDeviation="2"/>
<feComposite in2="hardAlpha" operator="out"/>
<feColorMatrix type="matrix" values="0 0 0 0 0 0 0 0 0 0 0 0 0 0 0 0 0 0 0.3 0"/>
<feBlend mode="normal" in2="BackgroundImageFix" result="effect1_dropShadow_184_2716"/>
<feBlend mode="normal" in="SourceGraphic" in2="effect1_dropShadow_184_2716" result="shape"/>
</filter>
</defs>
</svg>
