<svg width="75" height="75" viewBox="0 0 75 75" fill="none" xmlns="http://www.w3.org/2000/svg">
<g filter="url(#filter0_d_184_3704)">
<rect x="10" y="4" width="55" height="55" rx="27.5" fill="#B47046" shape-rendering="crispEdges"/>
<path d="M26.1543 31.3285C25.7571 31.4145 25.3093 31.708 25.0588 32.0445C24.3125 33.0463 24.1 34.1594 24.3606 35.3763C24.5352 36.1884 25.0336 36.7474 25.7141 37.175C25.8431 37.2559 25.9468 37.2306 26 37.1269C26.1037 36.922 26.215 36.707 26.2479 36.4843C26.3137 36.0467 26.172 35.6318 26.0101 35.227C25.7799 34.6451 25.6306 34.043 25.6053 33.4207C25.5749 32.682 25.7748 31.9939 26.1517 31.3285M26.1998 37.4153C26.8525 37.6253 27.485 37.6784 28.1402 37.6C29.1496 37.4811 29.9465 36.9777 30.5866 36.2314C31.1077 35.6242 31.4315 34.9032 31.5783 34.1063C31.7351 33.2613 31.7478 32.4265 31.4518 31.6068C31.2469 31.0376 30.9357 30.5569 30.3918 30.2483C29.3444 29.6537 28.0162 29.9396 27.1865 30.6834C26.3415 31.4398 26.1391 32.4391 26.2707 33.5067C26.3364 34.0532 26.5363 34.5819 26.6704 35.1208C26.8778 35.9505 26.8955 36.7424 26.1973 37.4179M27.1384 38.1793C26.4199 38.149 25.6534 38.025 24.9804 37.5798C24.1886 37.0561 23.6624 36.3553 23.5156 35.3889C23.3512 34.3112 23.5536 33.317 24.1532 32.4138C24.6819 31.6169 25.4257 31.1185 26.3567 30.8934C26.4401 30.8731 26.5186 30.7998 26.5818 30.7315C27.0675 30.223 27.6393 29.8612 28.3224 29.6866C29.4127 29.4084 30.4373 29.545 31.3809 30.1774C31.978 30.5771 32.2917 31.1691 32.4915 31.8345C32.8634 33.0792 32.5523 34.2176 31.9122 35.2877C31.2519 36.3958 30.3007 37.1952 29.1496 37.7619C28.5399 38.0604 27.8847 38.1667 27.1409 38.1768" fill="#F4E5D2"/>
<path d="M32.5262 37.2731C33.3307 37.349 34.0492 37.1567 34.7095 36.7393C35.2964 36.3725 35.7594 35.8766 36.1186 35.2897C36.364 34.8875 36.6372 34.4877 36.6145 33.9792C36.6018 33.7136 36.45 33.5669 36.1869 33.5492C35.7821 33.5213 35.4583 33.7111 35.1497 33.9236C34.5172 34.3587 33.9606 34.8773 33.5103 35.5073C33.1182 36.0563 32.7969 36.6432 32.5237 37.2731M31.4485 37.8626C31.6104 37.5109 31.7622 37.177 31.9165 36.8481C32.2985 36.0335 32.6831 35.2214 33.0651 34.4093C33.5609 33.3493 34.0568 32.2868 34.5526 31.2242C34.5982 31.1256 34.6437 31.0269 34.6816 30.9257C34.7651 30.7082 34.6665 30.5741 34.4312 30.5918C34.3452 30.5968 34.2617 30.6373 34.1757 30.6525C34.1478 30.6576 34.1124 30.6272 34.0821 30.612C34.0972 30.5817 34.1048 30.5311 34.1276 30.5209C34.7373 30.2806 35.3495 30.0453 35.9592 29.8101C35.9795 29.8227 35.9997 29.8379 36.0174 29.8505C35.2913 31.3836 34.5653 32.9192 33.8594 34.4043C34.3654 34.0906 34.8967 33.7389 35.4507 33.4252C35.9466 33.1444 36.4981 33.0331 37.0673 33.0938C37.4645 33.1368 37.6593 33.4632 37.5505 33.9287C37.3557 34.761 36.8725 35.4415 36.2476 36.0057C35.7062 36.4964 35.1092 36.9189 34.4362 37.2225C33.8493 37.4856 33.2346 37.6551 32.5996 37.7462C32.3238 37.7867 32.0481 37.8246 31.7723 37.8575C31.6737 37.8676 31.5725 37.8575 31.4536 37.8575" fill="#F4E5D2"/>
<path d="M48.8446 33.0959C48.794 33.2401 48.7586 33.3742 48.6979 33.4982C48.6802 33.5336 48.5942 33.5488 48.5385 33.5488C48.0528 33.5488 47.5746 33.5968 47.1092 33.7334C46.2515 33.9839 45.6722 34.5632 45.2371 35.3146C44.9942 35.7346 44.7943 36.1722 44.7488 36.658C44.6982 37.1892 44.893 37.3967 45.4167 37.4321C45.8366 37.4624 46.2186 37.3056 46.55 37.0551C47.2154 36.5517 47.6429 35.8788 47.906 35.0945C47.9364 35.006 47.9642 34.9098 47.9668 34.8187C47.9743 34.4089 47.7947 34.1787 47.3343 34.3533C47.0231 34.4696 46.8435 34.7201 46.6614 34.9731C46.6437 34.9984 46.626 35.0237 46.6057 35.049C46.5981 35.0591 46.5855 35.0616 46.5753 35.0692C46.5349 34.9199 46.5829 34.6973 46.717 34.5177C47.0813 34.0294 47.5848 33.8372 48.1767 33.9029C48.5714 33.9485 48.837 34.4266 48.7257 34.8238C48.5183 35.5676 48.0528 36.1393 47.5114 36.6554C47.0535 37.0931 46.5374 37.4574 45.9454 37.6876C45.5052 37.8596 45.0498 37.9659 44.5717 37.8343C44.1416 37.7154 43.8659 37.2626 43.9342 36.8224C44.086 35.8509 44.6324 35.1274 45.3408 34.4924C45.867 34.0219 46.464 33.6601 47.1167 33.4071C47.6607 33.1971 48.2248 33.0428 48.8472 33.0883" fill="#F4E5D2"/>
<path d="M40.9573 35.2148C41.0181 35.5639 40.9244 35.8801 40.6841 36.1812C40.2945 36.6669 39.8897 37.1223 39.3408 37.436C38.8829 37.6991 38.3921 37.8585 37.8709 37.8939C37.6609 37.9065 37.4358 37.8686 37.2359 37.7977C36.9374 37.694 36.8438 37.4183 36.8109 37.1299C36.7704 36.7706 36.8691 36.4342 37.0108 36.1129C37.5496 34.9011 38.4401 34.0308 39.6342 33.4717C39.9403 33.3275 40.2642 33.2086 40.5905 33.12C40.798 33.0619 41.0332 33.0467 41.2483 33.077C41.6505 33.1327 41.6733 33.2921 41.5923 33.6943C41.5392 33.9625 41.3393 34.1421 41.1243 34.299C40.5197 34.7467 39.8493 35.02 39.0903 35.0529C38.9107 35.0604 38.7766 34.982 38.6779 34.7822C38.9284 34.7822 39.1586 34.7999 39.3863 34.7796C39.8796 34.7341 40.3274 34.5621 40.6942 34.2231C40.7878 34.137 40.8587 34.0131 40.9093 33.8917C41.0029 33.6716 40.8688 33.4894 40.631 33.4717C40.2692 33.4464 39.9378 33.5501 39.6342 33.7323C38.7918 34.2433 38.1694 34.9441 37.8127 35.87C37.6938 36.1786 37.6255 36.4949 37.6154 36.8313C37.6028 37.2766 37.9569 37.4537 38.3086 37.4233C39.1409 37.355 39.7506 36.8895 40.2439 36.2596C40.507 35.9231 40.7271 35.5538 40.9599 35.2097" fill="#F4E5D2"/>
<path d="M40.7771 37.9079C40.9896 37.4778 41.1971 37.0806 41.3792 36.6733C41.7309 35.8942 42.0724 35.1099 42.4165 34.3256C42.4367 34.2801 42.4519 34.2295 42.462 34.1814C42.5126 33.9158 42.3836 33.8096 42.128 33.8956C42.0673 33.9158 41.999 33.9133 41.9358 33.9234C41.9282 33.8956 41.9206 33.8677 41.9105 33.8399C42.462 33.5869 43.0135 33.3365 43.5852 33.0734C43.6257 33.6097 43.3424 34.0221 43.1881 34.48C43.5093 34.2573 43.8256 34.0221 44.1545 33.8121C44.4909 33.597 44.84 33.4022 45.1892 33.2074C45.4649 33.0531 45.7685 33.081 46.1024 33.0961C46.024 33.2808 45.9506 33.4503 45.8899 33.5895C45.6142 33.6122 45.3435 33.5996 45.0905 33.6628C44.6098 33.7842 44.2126 34.0777 43.823 34.3737C43.0261 34.9783 42.5531 35.8132 42.1609 36.7062C42.0218 37.025 41.8827 37.3412 41.7359 37.6575C41.7182 37.6954 41.6701 37.7359 41.6322 37.7435C41.3615 37.7991 41.0908 37.8472 40.7822 37.9054" fill="#F4E5D2"/>
<path d="M49.3929 33.6806C49.4461 33.5945 49.4613 33.5313 49.4967 33.5187C50.0052 33.3314 50.5137 33.1493 51.0475 32.957C51.0677 33.2733 50.9766 33.544 50.8552 33.7944C50.4884 34.5534 50.1013 35.3047 49.7269 36.0612C49.5852 36.3445 49.441 36.6253 49.3221 36.9188C49.2209 37.1692 49.3474 37.2983 49.6105 37.2426C49.7016 37.2224 49.7927 37.1945 49.8837 37.1743C49.8939 37.1743 49.9065 37.1819 49.9672 37.2021C49.9065 37.2552 49.8686 37.3033 49.8205 37.3235C49.3297 37.5183 48.8339 37.7081 48.3279 37.9029C48.2899 37.5664 48.3658 37.2552 48.4974 36.9719C48.801 36.3167 49.1349 35.6766 49.4562 35.029C49.6206 34.695 49.7952 34.3636 49.9419 34.0196C49.99 33.9108 49.9622 33.7716 49.9698 33.6452C49.8483 33.6401 49.7269 33.6274 49.608 33.6274C49.5599 33.6274 49.5119 33.6502 49.3929 33.678" fill="#F4E5D2"/>
<path d="M25.7363 39.5344V40.2504H24.9141V39.537H24.4941V41.3205H24.909V40.4603H25.7439V41.323H26.1563V39.5344H25.7363Z" fill="#F4E5D2"/>
<path d="M45.7407 39.6797V40.3829C46.0949 40.3678 46.186 40.2691 46.1683 39.9377C46.1582 39.7227 46.0544 39.6569 45.7407 39.6797ZM45.7332 41.3165H45.293V39.5253C45.5788 39.5253 45.8723 39.5127 46.1658 39.5279C46.4061 39.5405 46.5629 39.6847 46.5958 39.8719C46.6363 40.1122 46.5301 40.2919 46.2847 40.4007C46.2568 40.4133 46.229 40.4234 46.1658 40.4513C46.3606 40.7422 46.5478 41.0179 46.735 41.2937C46.3859 41.3974 46.267 41.3493 46.0873 41.0483C45.9836 40.8712 45.8723 40.6992 45.7357 40.4766V41.3139L45.7332 41.3165Z" fill="#F4E5D2"/>
<path d="M38.4726 39.6778V40.3861C38.7965 40.3811 38.9255 40.2672 38.9204 40.0092C38.9154 39.7385 38.8167 39.6626 38.4726 39.6803M38.04 39.5285C38.3158 39.5285 38.589 39.5209 38.8622 39.5285C39.1304 39.5386 39.3151 39.6828 39.3455 39.8852C39.3809 40.118 39.2569 40.3052 38.9989 40.414C38.9761 40.4241 38.9533 40.4317 38.8977 40.4494C38.9989 40.6012 39.0899 40.7428 39.1835 40.882C39.2797 41.0237 39.3783 41.1603 39.4795 41.307C39.0697 41.3854 39.0242 41.3677 38.8192 41.0388C38.713 40.8668 38.6017 40.6973 38.4676 40.4848V41.3222H38.04V39.526V39.5285Z" fill="#F4E5D2"/>
<path d="M26.943 40.4343C26.9557 40.4393 26.9709 40.4444 26.9835 40.4495C26.9886 40.5203 26.9886 40.5911 26.9962 40.6594C27.0341 40.9757 27.2137 41.1907 27.4566 41.216C27.788 41.2489 28.0258 41.1022 28.1017 40.7581C28.1498 40.5405 28.1523 40.3027 28.1219 40.0801C28.0916 39.86 27.9373 39.7006 27.7121 39.6475C27.4794 39.5944 27.2643 39.6601 27.1479 39.8727C27.0518 40.0447 27.0088 40.2471 26.943 40.4343ZM27.5679 39.4881C28.17 39.4755 28.5798 39.8296 28.6051 40.3609C28.6279 40.9099 28.2383 41.3248 27.6666 41.3602C27.3706 41.3804 27.0847 41.345 26.852 41.1477C26.5408 40.8846 26.4876 40.5304 26.5888 40.1661C26.69 39.7968 26.9683 39.5843 27.3427 39.5109C27.4237 39.4957 27.5097 39.4932 27.5679 39.4881Z" fill="#F4E5D2"/>
<path d="M44.5205 40.4341C44.4977 40.2848 44.4876 40.1836 44.4648 40.085C44.399 39.8168 44.2194 39.6549 43.9816 39.6372C43.7134 39.6169 43.5136 39.7283 43.4073 39.9914C43.2985 40.2646 43.2834 40.5505 43.3795 40.8338C43.463 41.0868 43.6047 41.2006 43.845 41.2158C44.1081 41.231 44.3004 41.1273 44.394 40.8869C44.4572 40.7301 44.485 40.5606 44.5179 40.4366M43.8829 41.3651C43.2758 41.3651 42.8836 41.016 42.8811 40.4695C42.8786 39.8927 43.3112 39.4854 43.9259 39.4879C44.5306 39.4879 44.948 39.8623 44.9429 40.4012C44.9379 40.978 44.5154 41.3651 43.8829 41.3651Z" fill="#F4E5D2"/>
<path d="M38.5772 25.1766C38.4355 24.8351 38.3115 24.4961 38.1521 24.1697C37.9548 23.7624 37.6664 23.4183 37.3223 23.1249C37.206 23.0262 37.1402 22.9174 37.1377 22.7682C37.1351 22.4848 37.1377 22.2015 37.1756 21.9131C38.1951 22.7758 38.6632 23.856 38.5772 25.1741" fill="#F4E5D2"/>
<path d="M42.4641 26.7336C41.1612 27.1257 39.7242 26.6349 39.0083 25.8861C39.5244 26.0885 40.0253 26.2352 40.554 26.215C40.8601 26.2049 41.1637 26.1593 41.4673 26.134C41.528 26.129 41.609 26.1138 41.652 26.1416C41.9278 26.3314 42.1934 26.5338 42.4641 26.7336Z" fill="#F4E5D2"/>
<path d="M38.1134 25.4723C37.8402 25.4419 37.6074 25.404 37.3721 25.3939C36.7877 25.366 36.2312 25.49 35.6873 25.6974C35.6139 25.7253 35.5077 25.7303 35.4393 25.6974C35.156 25.571 34.8802 25.4293 34.5767 25.2775C35.6012 24.7209 37.1293 24.7943 38.1159 25.4698" fill="#F4E5D2"/>
<path d="M38.7015 25.2502C38.8356 24.3951 38.7015 23.6058 38.3372 22.8595C38.2538 22.69 38.2209 22.5483 38.2968 22.3763C38.403 22.1334 38.5017 21.8855 38.613 21.6199C39.2429 22.5762 39.3264 24.1421 38.7015 25.2502Z" fill="#F4E5D2"/>
<path d="M42.1824 23.8429C41.555 24.9155 40.3205 25.5657 39.0176 25.5758C39.2503 25.4696 39.4476 25.3886 39.6399 25.2925C40.2066 25.0117 40.6594 24.5993 41.0389 24.0958C41.0971 24.0174 41.2034 23.9466 41.297 23.9314C41.5904 23.8859 41.8864 23.8682 42.1824 23.8403" fill="#F4E5D2"/>
<path d="M38.2332 25.3233C38.0156 25.2094 37.8031 25.083 37.578 24.9818C37.0568 24.7465 36.5078 24.6326 35.9361 24.6554C35.7894 24.6605 35.6755 24.6225 35.5794 24.5112C35.3922 24.2962 35.2025 24.0837 35.033 23.8459C36.3535 23.7978 37.4161 24.2911 38.2332 25.3233Z" fill="#F4E5D2"/>
<path d="M37.8514 29.6302C37.3657 28.3956 37.6971 26.8929 38.3902 26.0909C38.3397 26.349 38.2789 26.6197 38.2359 26.8954C38.1449 27.4571 38.2233 28.0035 38.3776 28.5449C38.4004 28.6284 38.3978 28.7397 38.3574 28.8131C38.2056 29.0812 38.0335 29.3393 37.8514 29.6302Z" fill="#F4E5D2"/>
<path d="M38.2853 25.9654C37.7338 26.6561 37.415 27.3998 37.3619 28.2499C37.3568 28.3359 37.3088 28.4396 37.2455 28.4927C37.0103 28.6926 36.7598 28.8747 36.4891 29.0847C36.4233 27.9615 37.2278 26.522 38.2853 25.9629" fill="#F4E5D2"/>
<path d="M34.7374 26.7469C35.6911 25.7931 36.8119 25.4415 38.1375 25.6388C38.0945 25.6667 38.0793 25.6869 38.0591 25.6894C37.2622 25.7906 36.5816 26.1372 35.9947 26.6735C35.848 26.8076 35.6987 26.8633 35.5115 26.843C35.2535 26.8127 34.9929 26.7798 34.7349 26.7469" fill="#F4E5D2"/>
<path d="M42.5714 25.3383C41.4709 26.0618 40.2946 26.1655 39.0549 25.7102C39.1182 25.7127 39.1814 25.7177 39.2447 25.7177C39.3155 25.7177 39.3838 25.7127 39.4547 25.7102C40.1681 25.6773 40.8208 25.4648 41.4229 25.0827C41.5013 25.0322 41.6202 24.9917 41.7037 25.0119C41.9997 25.0802 42.2881 25.1789 42.5815 25.2649L42.5739 25.3383H42.5714Z" fill="#F4E5D2"/>
<path d="M38.7384 26.1375C38.9054 26.398 39.0723 26.6814 39.2646 26.947C39.5606 27.3568 39.9476 27.6705 40.3777 27.9336C40.4486 27.9767 40.5295 28.05 40.5472 28.1234C40.6181 28.4244 40.6636 28.7331 40.7218 29.0518C39.8895 28.9254 38.7257 27.1646 38.7384 26.1375Z" fill="#F4E5D2"/>
<path d="M41.8244 28.0826C40.5417 27.9965 39.2819 26.9871 38.915 26.084C39.2287 26.2914 39.5652 26.5697 39.9472 26.7544C40.3039 26.929 40.7062 27.0049 41.0856 27.1288C41.1565 27.1516 41.2476 27.1718 41.283 27.2249C41.4626 27.4931 41.6296 27.7689 41.8244 28.0826Z" fill="#F4E5D2"/>
<path d="M38.5642 26.1333C38.6046 26.3812 38.6375 26.614 38.6831 26.8417C38.807 27.4438 39.0802 27.9725 39.4597 28.4532C39.5027 28.5063 39.5407 28.5923 39.5306 28.653C39.48 28.9667 39.4142 29.2754 39.3484 29.6068C38.5819 28.8959 38.172 27.3198 38.5642 26.1333Z" fill="#F4E5D2"/>
<path d="M41.329 22.7478C40.9875 23.9899 40.2387 24.8779 39.0269 25.3712C39.08 25.3156 39.1306 25.2624 39.1837 25.2068C39.2419 25.1486 39.3026 25.0904 39.3608 25.0297C39.8313 24.5288 40.1476 23.9444 40.312 23.279C40.3247 23.231 40.3373 23.1627 40.3702 23.1424C40.6713 22.9805 40.9774 22.8287 41.2809 22.6719L41.329 22.7452V22.7478Z" fill="#F4E5D2"/>
<path d="M38.1594 25.8209C37.9191 26.0005 37.6788 26.165 37.4536 26.3497C37.0387 26.6937 36.7326 27.1263 36.5074 27.6121C36.4467 27.7411 36.3658 27.8195 36.2367 27.8549C35.9635 27.9308 35.6878 27.9991 35.3867 28.0776C35.7333 27.0454 36.9021 26.0183 38.1594 25.8209Z" fill="#F4E5D2"/>
<path d="M38.9456 25.2156C39.0646 24.8184 39.2265 24.3959 39.3125 23.9583C39.3757 23.6319 39.3555 23.2828 39.3454 22.9463C39.3403 22.7793 39.3454 22.6377 39.4719 22.5112C39.6641 22.3214 39.8463 22.1165 40.0487 21.9015C40.289 22.8325 39.9272 24.358 38.9431 25.2156" fill="#F4E5D2"/>
<path d="M35.8734 22.651C37.1155 23.0077 38.1604 24.174 38.3602 25.1631C38.1098 24.9152 37.8568 24.6015 37.5431 24.3688C37.2041 24.1183 36.8044 23.9488 36.435 23.7338C36.349 23.6832 36.2529 23.6098 36.2149 23.5238C36.0935 23.2531 35.9948 22.9723 35.8708 22.651" fill="#F4E5D2"/>
<path d="M36.3529 40.193C36.5553 40.0514 36.6565 39.8161 36.5351 39.725C36.4643 39.6719 36.3099 39.6592 36.2315 39.7022C36.105 39.768 36.1657 39.9805 36.3529 40.193ZM36.0898 40.4915C35.8596 40.6914 35.8242 40.866 35.9532 41.0304C36.0898 41.2075 36.3529 41.2303 36.5958 41.0684C36.4288 40.8761 36.2619 40.6889 36.0898 40.4915ZM36.482 40.3853C36.573 40.484 36.7122 40.6408 36.8792 40.8255C36.9981 40.6509 37.1068 40.4941 37.2232 40.322C37.2662 40.3676 37.3092 40.4131 37.3623 40.4713C37.2586 40.5902 37.16 40.7066 37.0562 40.8179C36.9854 40.8913 36.9702 40.9469 37.0562 41.0228C37.1524 41.1063 37.2333 41.205 37.3168 41.3213C37.0967 41.291 36.8513 41.4402 36.7021 41.2303C36.4465 41.2809 36.2214 41.3517 35.9912 41.3618C35.7255 41.3745 35.5738 41.2429 35.5181 41.0279C35.4726 40.8558 35.5813 40.6459 35.7837 40.5194C35.8546 40.4764 35.9254 40.4384 36.0064 40.3929C35.976 40.3398 35.9532 40.2967 35.9229 40.2537C35.809 40.0893 35.7559 39.9122 35.8748 39.7351C35.9988 39.5504 36.1986 39.515 36.4035 39.5429C36.74 39.5884 36.8791 39.8009 36.7299 40.0286C36.6565 40.1424 36.5756 40.2487 36.4794 40.3878" fill="#F4E5D2"/>
<path d="M30.6572 39.5254H31.7021V39.7353C31.4946 39.7252 31.2973 39.7176 31.0822 39.7075V40.2793H31.6793V40.4816H31.0746V41.1268H31.7147C31.7096 41.1951 31.7046 41.2532 31.6995 41.319H30.6572V39.5228V39.5254Z" fill="#F4E5D2"/>
<path d="M49.7512 39.6143C49.7158 39.7079 49.688 39.7838 49.6526 39.8825C49.5134 39.6725 49.3313 39.5992 49.1163 39.67C49.0454 39.6928 48.9543 39.7763 48.9442 39.842C48.9341 39.9179 48.9822 40.0343 49.0429 40.0824C49.1593 40.1684 49.3085 40.2063 49.4325 40.2822C49.5666 40.3657 49.7158 40.4492 49.8018 40.5732C49.9562 40.7933 49.8347 41.1145 49.564 41.2512C49.2377 41.4131 48.9012 41.4131 48.5521 41.2714C48.585 41.155 48.6128 41.0513 48.6558 40.902C48.7722 41.1677 48.9543 41.2461 49.1921 41.2183C49.3313 41.2031 49.4426 41.1525 49.4755 41.0058C49.5084 40.854 49.4274 40.7604 49.3035 40.6997C49.1846 40.6389 49.0581 40.5883 48.9366 40.5327C48.6761 40.4163 48.5243 40.2038 48.5546 39.9913C48.59 39.7484 48.7874 39.5562 49.0631 39.5106C49.2933 39.4701 49.5185 39.4828 49.7512 39.6143Z" fill="#F4E5D2"/>
<path d="M42.3651 39.9111C42.2462 39.6733 42.0742 39.6126 41.8794 39.6606C41.7933 39.6809 41.6947 39.7593 41.6593 39.8377C41.6112 39.9415 41.6593 40.0477 41.7782 40.1034C41.9047 40.1616 42.0312 40.2273 42.1577 40.2881C42.3777 40.3918 42.5801 40.5132 42.5801 40.7991C42.5801 41.0344 42.4132 41.2266 42.1197 41.3202C41.8439 41.4088 41.5682 41.4037 41.2798 41.2722C41.3076 41.1634 41.3354 41.0571 41.3734 40.9003C41.5024 41.1912 41.7073 41.2722 41.9502 41.2089C42.0438 41.1836 42.1501 41.09 42.1905 41.0015C42.2437 40.8775 42.1627 40.7687 42.0387 40.708C41.8895 40.6372 41.7352 40.5714 41.5884 40.498C41.4063 40.407 41.2849 40.2703 41.2874 40.0477C41.2899 39.8175 41.4088 39.6531 41.6112 39.567C41.8945 39.4456 42.1804 39.4684 42.4688 39.605C42.4359 39.7011 42.4106 39.7846 42.3676 39.9111" fill="#F4E5D2"/>
<path d="M34.8117 39.6152C34.7788 39.7063 34.7509 39.7822 34.7155 39.8808C34.589 39.7012 34.4347 39.6076 34.245 39.6582C34.1539 39.681 34.0451 39.7518 34.0021 39.8328C33.9414 39.9491 34.0148 40.0554 34.1337 40.1136C34.2475 40.1692 34.3639 40.2274 34.4802 40.278C34.799 40.4121 34.9255 40.5664 34.9154 40.8143C34.9053 41.0597 34.7358 41.2647 34.4271 41.333C34.2323 41.376 34.0198 41.3658 33.8174 41.3507C33.6555 41.338 33.5821 41.2394 33.6707 41.0724C33.6884 41.037 33.696 40.994 33.7188 40.913C33.8402 41.1609 34.0173 41.2394 34.2475 41.2217C34.3993 41.209 34.5081 41.1483 34.546 40.9965C34.584 40.8498 34.4878 40.7663 34.374 40.7081C34.245 40.6398 34.1033 40.5892 33.9717 40.5234C33.701 40.3893 33.5948 40.1996 33.6353 39.9441C33.6707 39.7214 33.8883 39.5342 34.1589 39.5089C34.3765 39.4887 34.5916 39.4912 34.8091 39.6177" fill="#F4E5D2"/>
<path d="M40.2942 40.2883H40.8761C40.8786 40.349 40.8811 40.4072 40.8862 40.4806H40.2866V41.1333H40.8837V41.3205H39.8743V39.5344H40.8862V39.7368C40.6914 39.7292 40.5042 39.7191 40.2942 39.7115V40.2908V40.2883Z" fill="#F4E5D2"/>
<path d="M29.3112 39.7088C29.1392 39.7164 28.9824 39.7239 28.8078 39.7315C28.8028 39.6734 28.8002 39.6126 28.7952 39.5367H30.222V39.7239H29.7413V41.3203H29.3112V39.7088Z" fill="#F4E5D2"/>
<path d="M46.9402 39.53V39.7274H47.4158V41.3212H47.8408V39.7248H48.3088V39.53H46.9402Z" fill="#F4E5D2"/>
<path d="M32.2212 39.5367V41.3253H33.261V41.1381H32.6412V39.5367H32.2212Z" fill="#F4E5D2"/>
<path d="M51.1503 32.3995C50.8695 32.3995 50.7456 32.3033 50.7481 32.0858C50.7506 31.8454 51.0213 31.6279 51.3148 31.6304C51.5551 31.6304 51.674 31.7341 51.674 31.9466C51.674 32.2148 51.4615 32.3995 51.1529 32.3995" fill="#F4E5D2"/>
</g>
<defs>
<filter id="filter0_d_184_3704" x="0" y="0" width="75" height="75" filterUnits="userSpaceOnUse" color-interpolation-filters="sRGB">
<feFlood flood-opacity="0" result="BackgroundImageFix"/>
<feColorMatrix in="SourceAlpha" type="matrix" values="0 0 0 0 0 0 0 0 0 0 0 0 0 0 0 0 0 0 127 0" result="hardAlpha"/>
<feOffset dy="6"/>
<feGaussianBlur stdDeviation="5"/>
<feComposite in2="hardAlpha" operator="out"/>
<feColorMatrix type="matrix" values="0 0 0 0 0 0 0 0 0 0 0 0 0 0 0 0 0 0 0.5 0"/>
<feBlend mode="normal" in2="BackgroundImageFix" result="effect1_dropShadow_184_3704"/>
<feBlend mode="normal" in="SourceGraphic" in2="effect1_dropShadow_184_3704" result="shape"/>
</filter>
</defs>
</svg>
