<svg width="24" height="24" viewBox="0 0 24 24" fill="none" xmlns="http://www.w3.org/2000/svg">
<path fill-rule="evenodd" clip-rule="evenodd" d="M12.671 11.583V7.15205C12.671 6.33605 12.01 5.67505 11.194 5.67505C10.378 5.67505 9.71703 6.33605 9.71703 7.15205V15.675L7.07103 14.317C6.46903 14.008 5.73603 14.123 5.25803 14.601C4.62503 15.234 4.65503 16.269 5.32303 16.865L10.148 21.168C10.514 21.495 10.988 21.675 11.479 21.675H16.112C17.049 21.675 17.861 21.024 18.064 20.109L19.137 15.279C19.45 13.869 18.507 12.487 17.08 12.266L12.671 11.583Z" stroke="#FCF9F4" stroke-width="1.5" stroke-linecap="round" stroke-linejoin="round"/>
<path d="M2.99035 11.7147C1.63131 7.98652 3.73091 4.64429 7.67947 4.25036" stroke="#FCF9F4" stroke-width="1.5" stroke-linecap="round" stroke-linejoin="round"/>
</svg>
