<svg width="48" height="48" viewBox="0 0 48 48" fill="none" xmlns="http://www.w3.org/2000/svg">
<g filter="url(#filter0_d_99_1868)">
<rect x="4" width="40" height="40" rx="20" fill="#F4E5D2" shape-rendering="crispEdges"/>
<mask id="mask0_99_1868" style="mask-type:luminance" maskUnits="userSpaceOnUse" x="13" y="10" width="22" height="20">
<path d="M16.9651 10.503C16.7896 10.6249 17.0008 10.8033 16.9294 10.9461C16.864 10.8955 16.7985 10.842 16.6855 10.7558C16.6617 10.9253 16.635 11.0472 16.632 11.1691C16.6231 11.4725 16.632 11.7936 16.4565 12.0434C16.1175 12.5222 15.9391 13.0664 15.7131 13.5958C15.5941 13.8724 15.4633 14.143 15.3235 14.4077C15.2283 14.5861 15.151 14.7586 15.1659 14.9667C15.1956 15.3325 15.3681 15.5526 15.7398 15.6061C16.1681 15.6686 16.2781 15.6121 16.4536 15.2522C16.5012 15.1541 16.6052 15.056 16.7063 15.0173C17.0513 14.8775 17.3606 14.6931 17.6074 14.4077C17.661 14.3452 17.7234 14.2917 17.7799 14.2352C17.8929 14.1281 18.0059 14.1281 18.1219 14.2322C18.3063 14.3987 18.4252 14.601 18.4431 14.8508C18.4758 15.3861 18.4698 15.9213 18.2349 16.421C18.1457 16.6083 18.0535 16.7986 17.9554 16.98C17.8453 17.1912 17.7085 17.3904 17.6134 17.6046C17.3844 18.125 17.316 18.6751 17.3309 19.2372C17.3338 19.3799 17.2833 19.4692 17.1465 19.4781C16.7718 19.4959 16.3941 19.5227 16.0224 19.5048C15.6417 19.49 15.264 19.4067 14.8834 19.3918C14.5265 19.377 14.2499 19.6506 14.1488 19.9926C14.0269 20.403 13.9288 20.8371 13.7057 21.191C13.3756 21.7174 13.3697 22.2319 13.5005 22.785C13.56 23.0437 13.6165 23.3054 13.6641 23.5671C13.6968 23.7426 13.7027 23.924 13.7325 24.1024C13.7533 24.2273 13.7771 24.3612 13.9317 24.3998C14.0894 24.4415 14.2261 24.4087 14.3481 24.2928C14.7049 23.9567 14.6841 23.1924 14.2916 22.8623C14.1696 22.7583 14.1221 22.6393 14.134 22.4995C14.1756 21.9642 14.247 21.4289 14.5354 20.965C14.6455 20.7866 14.8328 20.6438 15.0142 20.5279C15.1302 20.4505 15.2967 20.4476 15.4781 20.4C15.4038 20.513 15.3324 20.5754 15.3205 20.6498C15.2224 21.2089 15.1897 21.7799 14.9518 22.3092C14.812 22.6244 14.8923 22.9099 15.1272 23.1567C15.3324 23.3738 15.4662 23.6296 15.5109 23.924C15.5436 24.15 15.6506 24.3255 15.8142 24.4742C15.9034 24.5545 15.9896 24.6377 16.1205 24.5812C16.2484 24.5247 16.2811 24.4058 16.2811 24.2779C16.2811 24.0578 16.2811 23.8348 16.2811 23.6147C16.2811 23.3649 16.1948 23.1776 15.9391 23.0883C15.8796 23.0675 15.8053 22.9932 15.7993 22.9397C15.7636 22.4757 15.725 22.0118 15.7309 21.5509C15.7309 21.2594 15.9004 21.0126 16.0997 20.8015C16.1919 20.7033 16.2989 20.6974 16.3852 20.8015C16.6885 21.1613 17.1138 21.2327 17.5361 21.313C17.8334 21.3695 18.0892 21.3249 18.2765 21.0632C18.3063 21.0215 18.3509 20.9888 18.3866 20.9531C18.4847 20.852 18.5739 20.8461 18.6899 20.9412C18.9219 21.1345 19.1628 21.3189 19.4066 21.4973C20.4088 22.2319 21.4943 22.7136 22.773 22.6006C23.0169 22.5798 23.2578 22.5263 23.5611 22.4757C23.6027 22.6185 23.6652 22.7999 23.7098 22.9872C23.7514 23.1627 23.7425 23.353 23.8109 23.5136C24.1053 24.1946 24.4205 24.8667 24.7239 25.5448C24.7774 25.6667 24.822 25.7946 24.8518 25.9224C24.9737 26.4815 24.8666 26.7194 24.3581 26.9573C24.0518 27.1031 23.7901 27.2964 23.57 27.5491C23.4332 27.7097 23.2667 27.7543 23.0615 27.7633C22.8266 27.7722 22.5827 27.796 22.3656 27.8703C22.1069 27.9595 21.7827 28.2629 21.8541 28.593C21.8838 28.7298 21.8571 28.8874 21.8273 29.0301C21.7857 29.2413 21.8214 29.3454 22.0325 29.3959C22.2407 29.4465 22.4548 29.4703 22.666 29.497C22.6808 29.497 22.6957 29.497 22.7106 29.5H22.7314C22.8652 29.497 22.9752 29.4256 23.0526 29.3067C23.1091 29.2204 23.1715 29.1312 23.2013 29.0331C23.2488 28.8755 23.35 28.816 23.5016 28.7982C23.7752 28.7654 23.9923 28.6465 24.1469 28.4086C24.5692 27.7603 25.1224 27.2815 25.8926 27.0852C25.9937 27.0585 26.0919 27.0198 26.184 26.9692C26.4428 26.8324 26.6242 26.6302 26.6004 26.3209C26.5855 26.1038 26.5558 25.8778 26.4785 25.6786C26.3149 25.2593 26.306 24.8281 26.3298 24.3909C26.3357 24.3047 26.3654 24.2214 26.3952 24.1411C26.4755 23.9181 26.6539 23.7813 26.8413 23.6445C27.5134 23.1508 28.0635 22.5531 28.3728 21.768C28.4442 21.5895 28.4709 21.3873 28.4858 21.194C28.5066 20.9472 28.4918 20.6974 28.4918 20.4535C28.9705 20.3465 29.2412 20.4981 29.3423 20.9442C29.4047 21.2327 29.4315 21.5271 29.4672 21.8215C29.5088 22.1367 29.5207 22.4579 29.5861 22.7701C29.714 23.3917 30.1095 23.8199 30.6686 24.0995C31.2812 24.4058 31.9504 24.3968 32.5987 24.3136C33.1994 24.2363 33.7882 24.0608 34.383 23.924C34.4395 23.9121 34.493 23.8734 34.5792 23.8348C34.4514 23.7961 34.3651 23.7694 34.2759 23.7426C33.7823 23.5909 33.2767 23.469 32.7979 23.2817C32.3994 23.127 32.0277 22.901 31.6559 22.6899C31.531 22.6185 31.4418 22.4847 31.3348 22.3776C31.3467 22.3568 31.3556 22.333 31.3675 22.3122C31.4507 22.3122 31.537 22.3151 31.6203 22.3122C31.8998 22.3033 32.1764 22.3003 32.4559 22.2795C32.5422 22.2735 32.6224 22.22 32.7057 22.1902C32.7027 22.1724 32.6968 22.1575 32.6938 22.1397C32.6462 22.1218 32.5987 22.101 32.5511 22.0891C32.1526 21.985 31.8106 21.7947 31.534 21.4825C31.1206 21.0126 30.7132 20.5338 30.2731 20.0877C29.7051 19.5138 29.0033 19.2015 28.1884 19.1748C28.0457 19.1688 27.9356 19.1242 27.8464 19.0052C27.5699 18.6454 27.1981 18.4015 26.7907 18.2291C26.0681 17.9257 25.3097 17.7711 24.5246 17.7384C24.0548 17.7205 23.5849 17.673 23.1477 17.4678C22.9812 17.3904 22.892 17.2893 22.9068 17.096C22.9633 16.2961 22.7879 15.5466 22.3864 14.8567C22.2318 14.5861 22.0355 14.3393 21.8511 14.0776C22.0415 14.1549 22.2348 14.2322 22.4281 14.3095C22.4489 14.2946 22.4667 14.2828 22.4875 14.2679C22.4637 14.1816 22.4578 14.0894 22.4162 14.0151C22.1069 13.4709 21.6816 13.0308 21.1761 12.6679C20.9352 12.4955 20.6943 12.323 20.4415 12.1445C20.5099 12.1237 20.5783 12.1267 20.6467 12.1326C20.7567 12.1386 20.8638 12.1445 20.9619 12.0464C20.0341 11.2286 18.9546 11.1096 17.8334 11.2732C17.6045 10.9372 17.3546 10.6546 16.968 10.5L16.9651 10.503Z" fill="white"/>
</mask>
<g mask="url(#mask0_99_1868)">
<path d="M34.5822 10.5029H13.3696V29.5059H34.5822V10.5029Z" fill="#5D4632"/>
</g>
</g>
<defs>
<filter id="filter0_d_99_1868" x="0" y="0" width="48" height="48" filterUnits="userSpaceOnUse" color-interpolation-filters="sRGB">
<feFlood flood-opacity="0" result="BackgroundImageFix"/>
<feColorMatrix in="SourceAlpha" type="matrix" values="0 0 0 0 0 0 0 0 0 0 0 0 0 0 0 0 0 0 127 0" result="hardAlpha"/>
<feOffset dy="4"/>
<feGaussianBlur stdDeviation="2"/>
<feComposite in2="hardAlpha" operator="out"/>
<feColorMatrix type="matrix" values="0 0 0 0 0 0 0 0 0 0 0 0 0 0 0 0 0 0 0.3 0"/>
<feBlend mode="normal" in2="BackgroundImageFix" result="effect1_dropShadow_99_1868"/>
<feBlend mode="normal" in="SourceGraphic" in2="effect1_dropShadow_99_1868" result="shape"/>
</filter>
</defs>
</svg>
