<svg width="40" height="40" viewBox="0 0 40 40" fill="none" xmlns="http://www.w3.org/2000/svg">
<path d="M32.7908 34.0204L33.5 33.3112V15.6609L33.2033 15.082L20.4089 6L19.5694 6.01447L6.78223 15.7333L6.5 16.2978V33.3112L7.20919 34.0204H32.7908ZM7.91839 16.6524L20.0109 7.45457L32.0816 16.0228V32.602H7.91839V16.6524Z" fill="#614530"/>
<path d="M23.2383 19.5326V19.1707C23.2383 17.3833 21.7837 15.9287 19.9963 15.9287C18.2088 15.9287 16.7542 17.3833 16.7542 19.1707V19.5326H15.0898L14.3806 20.2418V27.5219L15.0898 28.231H24.8883L25.5974 27.5219V20.2418L24.8883 19.5326H23.2311H23.2383ZM18.1799 19.1707C18.1799 18.1648 18.9976 17.3471 20.0035 17.3471C21.0094 17.3471 21.8271 18.1648 21.8271 19.1707V19.5326H18.1871V19.1707H18.1799ZM24.1935 26.8054H15.8135V20.9437H24.1935V26.8054Z" fill="#614530"/>
</svg>
