<svg width="75" height="75" viewBox="0 0 75 75" fill="none" xmlns="http://www.w3.org/2000/svg">
<g filter="url(#filter0_d_111_2746)">
<rect x="10" y="4" width="55" height="55" rx="27.5" fill="#B47046" shape-rendering="crispEdges"/>
<mask id="mask0_111_2746" style="mask-type:luminance" maskUnits="userSpaceOnUse" x="23" y="18" width="29" height="27">
<path d="M28.095 18.8038C27.8605 18.9668 28.1427 19.2053 28.0473 19.3962C27.9598 19.3286 27.8724 19.257 27.7213 19.1417C27.6895 19.3683 27.6537 19.5313 27.6497 19.6943C27.6378 20.0998 27.6497 20.5292 27.4152 20.8632C26.962 21.5032 26.7234 22.2308 26.4213 22.9385C26.2622 23.3082 26.0873 23.67 25.9005 24.0238C25.7732 24.2623 25.6699 24.4929 25.6897 24.7712C25.7295 25.2602 25.9601 25.5544 26.4571 25.626C27.0295 25.7095 27.1766 25.6339 27.4112 25.1529C27.4748 25.0217 27.614 24.8905 27.7491 24.8388C28.2103 24.652 28.6238 24.4055 28.9538 24.0238C29.0253 23.9403 29.1088 23.8688 29.1843 23.7932C29.3354 23.6501 29.4865 23.6501 29.6415 23.7892C29.888 24.0119 30.0471 24.2822 30.0709 24.6162C30.1146 25.3318 30.1067 26.0474 29.7926 26.7153C29.6734 26.9658 29.5501 27.2202 29.4189 27.4627C29.2718 27.745 29.0889 28.0114 28.9617 28.2976C28.6556 28.9934 28.5641 29.7289 28.584 30.4803C28.588 30.6711 28.5204 30.7904 28.3375 30.8023C27.8366 30.8261 27.3317 30.8619 26.8347 30.8381C26.3259 30.8182 25.8209 30.7069 25.3121 30.687C24.835 30.6671 24.4652 31.0329 24.3301 31.4901C24.1671 32.0387 24.0359 32.6192 23.7377 33.0923C23.2964 33.796 23.2885 34.4837 23.4634 35.2232C23.5429 35.5691 23.6184 35.919 23.682 36.2688C23.7258 36.5034 23.7337 36.7459 23.7735 36.9844C23.8013 37.1514 23.8331 37.3303 24.0399 37.382C24.2506 37.4377 24.4334 37.3939 24.5964 37.2389C25.0735 36.7896 25.0457 35.7679 24.5209 35.3266C24.3579 35.1874 24.2943 35.0284 24.3102 34.8416C24.3659 34.1259 24.4613 33.4103 24.8469 32.7901C24.994 32.5516 25.2445 32.3608 25.487 32.2057C25.642 32.1023 25.8647 32.0984 26.1072 32.0347C26.0078 32.1858 25.9124 32.2693 25.8965 32.3687C25.7653 33.1161 25.7216 33.8794 25.4035 34.5871C25.2166 35.0085 25.324 35.3902 25.6381 35.7202C25.9124 36.0104 26.0913 36.3523 26.1509 36.7459C26.1947 37.048 26.3378 37.2826 26.5564 37.4814C26.6757 37.5887 26.791 37.7001 26.9659 37.6245C27.1369 37.549 27.1806 37.3899 27.1806 37.219C27.1806 36.9248 27.1806 36.6266 27.1806 36.3324C27.1806 35.9985 27.0653 35.748 26.7234 35.6287C26.6439 35.6009 26.5445 35.5015 26.5366 35.43C26.4889 34.8098 26.4372 34.1896 26.4451 33.5733C26.4451 33.1837 26.6717 32.8537 26.9381 32.5715C27.0613 32.4403 27.2045 32.4323 27.3198 32.5715C27.7253 33.0525 28.2938 33.1479 28.8583 33.2553C29.2559 33.3308 29.5978 33.2712 29.8483 32.9213C29.888 32.8657 29.9477 32.8219 29.9954 32.7742C30.1266 32.639 30.2458 32.6311 30.4009 32.7583C30.711 33.0167 31.033 33.2632 31.359 33.5018C32.6988 34.4837 34.1499 35.1278 35.8595 34.9767C36.1855 34.9489 36.5075 34.8773 36.913 34.8098C36.9687 35.0006 37.0522 35.2431 37.1118 35.4936C37.1675 35.7281 37.1555 35.9826 37.247 36.1973C37.6406 37.1077 38.062 38.0062 38.4675 38.9126C38.5391 39.0756 38.5987 39.2466 38.6384 39.4175C38.8014 40.165 38.6583 40.483 37.9785 40.8011C37.569 40.9959 37.2191 41.2543 36.9249 41.5922C36.7421 41.8069 36.5194 41.8665 36.2451 41.8785C35.931 41.8904 35.605 41.9222 35.3148 42.0216C34.9689 42.1409 34.5356 42.5464 34.631 42.9877C34.6707 43.1705 34.635 43.3813 34.5952 43.5721C34.5395 43.8544 34.5873 43.9935 34.8695 44.0611C35.1478 44.1287 35.4341 44.1605 35.7163 44.1963C35.7362 44.1963 35.7561 44.1963 35.776 44.2002H35.8038C35.9827 44.1963 36.1298 44.1008 36.2332 43.9418C36.3087 43.8265 36.3922 43.7073 36.432 43.5761C36.4956 43.3654 36.6307 43.2858 36.8335 43.262C37.1993 43.2183 37.4895 43.0592 37.6962 42.7412C38.2608 41.8745 39.0002 41.2344 40.0299 40.972C40.1651 40.9362 40.2963 40.8845 40.4195 40.817C40.7654 40.6341 41.0079 40.3637 40.9761 39.9503C40.9563 39.66 40.9165 39.3579 40.8131 39.0915C40.5945 38.531 40.5825 37.9545 40.6143 37.3701C40.6223 37.2548 40.6621 37.1435 40.7018 37.0361C40.8092 36.7379 41.0477 36.5551 41.2982 36.3722C42.1967 35.7122 42.9321 34.9131 43.3456 33.8635C43.441 33.625 43.4768 33.3547 43.4967 33.0962C43.5245 32.7663 43.5046 32.4323 43.5046 32.1063C44.1447 31.9632 44.5065 32.1659 44.6417 32.7623C44.7252 33.1479 44.761 33.5415 44.8087 33.9351C44.8643 34.3565 44.8802 34.7859 44.9677 35.2033C45.1386 36.0343 45.6674 36.6067 46.4148 36.9805C47.2338 37.3899 48.1283 37.378 48.995 37.2667C49.7981 37.1633 50.5853 36.9288 51.3804 36.7459C51.4559 36.73 51.5275 36.6783 51.6428 36.6266C51.4718 36.5749 51.3566 36.5392 51.2373 36.5034C50.5773 36.3006 49.9015 36.1376 49.2614 35.8872C48.7286 35.6804 48.2317 35.3783 47.7347 35.096C47.5678 35.0006 47.4485 34.8217 47.3054 34.6786C47.3213 34.6507 47.3332 34.6189 47.3491 34.5911C47.4604 34.5911 47.5757 34.5951 47.687 34.5911C48.0607 34.5792 48.4305 34.5752 48.8042 34.5474C48.9195 34.5394 49.0268 34.4678 49.1381 34.4281C49.1342 34.4042 49.1262 34.3844 49.1222 34.3605C49.0586 34.3366 48.995 34.3088 48.9314 34.2929C48.3987 34.1538 47.9415 33.8993 47.5717 33.4819C47.0191 32.8537 46.4745 32.2137 45.8861 31.6173C45.1267 30.85 44.1885 30.4326 43.0991 30.3968C42.9083 30.3888 42.7612 30.3292 42.6419 30.1702C42.2722 29.6891 41.7752 29.3631 41.2306 29.1325C40.2645 28.727 39.2507 28.5203 38.2011 28.4765C37.573 28.4527 36.9448 28.3891 36.3604 28.1148C36.1378 28.0114 36.0185 27.8762 36.0384 27.6178C36.1139 26.5483 35.8793 25.5465 35.3426 24.6241C35.1359 24.2623 34.8735 23.9324 34.627 23.5825C34.8815 23.6859 35.1399 23.7892 35.3983 23.8926C35.4261 23.8727 35.45 23.8568 35.4778 23.837C35.446 23.7217 35.438 23.5984 35.3824 23.499C34.9689 22.7715 34.4004 22.1831 33.7245 21.6981C33.4025 21.4675 33.0805 21.2369 32.7426 20.9983C32.834 20.9705 32.9254 20.9745 33.0169 20.9824C33.164 20.9904 33.3071 20.9983 33.4383 20.8671C32.1979 19.7738 30.7547 19.6148 29.2559 19.8335C28.9498 19.3842 28.6158 19.0065 28.099 18.7998L28.095 18.8038Z" fill="white"/>
</mask>
<g mask="url(#mask0_111_2746)">
<path d="M51.6469 18.8037H23.2886V44.2081H51.6469V18.8037Z" fill="#F4E5D2"/>
</g>
</g>
<defs>
<filter id="filter0_d_111_2746" x="0" y="0" width="75" height="75" filterUnits="userSpaceOnUse" color-interpolation-filters="sRGB">
<feFlood flood-opacity="0" result="BackgroundImageFix"/>
<feColorMatrix in="SourceAlpha" type="matrix" values="0 0 0 0 0 0 0 0 0 0 0 0 0 0 0 0 0 0 127 0" result="hardAlpha"/>
<feOffset dy="6"/>
<feGaussianBlur stdDeviation="5"/>
<feComposite in2="hardAlpha" operator="out"/>
<feColorMatrix type="matrix" values="0 0 0 0 0 0 0 0 0 0 0 0 0 0 0 0 0 0 0.5 0"/>
<feBlend mode="normal" in2="BackgroundImageFix" result="effect1_dropShadow_111_2746"/>
<feBlend mode="normal" in="SourceGraphic" in2="effect1_dropShadow_111_2746" result="shape"/>
</filter>
</defs>
</svg>
