<svg width="40" height="40" viewBox="0 0 40 40" fill="none" xmlns="http://www.w3.org/2000/svg">
<path d="M20 34C27.7166 34 34 27.7166 34 20C34 12.2834 27.7166 6 20 6C12.2834 6 6 12.2834 6 20C6 27.7166 12.2834 34 20 34ZM20 7.56897C26.8491 7.56897 32.431 13.1433 32.431 20C32.431 26.8567 26.8567 32.431 20 32.431C13.1433 32.431 7.56897 26.8491 7.56897 20C7.56897 13.1509 13.1433 7.56897 20 7.56897Z" fill="#614530"/>
<path d="M25.8008 20.6864V19.3061L17.0508 14.5011L15.8892 15.1875V24.805L17.0508 25.4914L25.8008 20.6864ZM17.4581 16.5227L23.7943 20L17.4581 23.4774V16.5227Z" fill="#614530"/>
</svg>
