<svg width="40" height="40" viewBox="0 0 40 40" fill="none" xmlns="http://www.w3.org/2000/svg">
<path d="M32.3623 9.74803L32.3315 9.55109C32.2823 9.40338 31.076 6 27.7219 6H24.3123L23.7092 6.60313V10.2219H7.60313L7 10.8251V32.827L7.60313 33.4302H20.6258C20.9582 33.4302 21.229 33.1594 21.229 32.827C21.229 32.4947 20.9582 32.2239 20.6258 32.2239H8.20626V11.4282H23.703V14.8562H12.0405L11.4373 15.4593V28.6728L12.0405 29.276H31.2237C31.2053 29.5529 31.1868 29.8175 31.156 30.0576C30.9591 31.6085 29.402 32.1316 29.0697 32.2239H24.3C23.9677 32.2239 23.6969 32.4947 23.6969 32.827C23.6969 33.1594 23.9677 33.4302 24.3 33.4302H29.1497L29.2851 33.4117C29.3959 33.3871 32.0361 32.747 32.35 30.2053C32.4054 29.756 32.4423 29.239 32.4546 28.6851C32.4546 28.679 32.4546 28.6667 32.4546 28.6605C32.5223 26.5372 32.3561 24.0324 32.35 23.9339V9.74803H32.3623ZM24.9093 7.20626H27.7157C29.9805 7.20626 30.9652 9.38492 31.156 9.85266V23.9709C31.156 23.9709 31.2422 25.2264 31.2668 26.6788C30.7129 26.1372 30.1775 25.7987 30.1406 25.7741L29.8205 25.6818H24.9093V7.20626ZM12.6436 20.8013H16.7055V21.9891C16.7055 22.3215 16.9763 22.5923 17.3086 22.5923C17.641 22.5923 17.9118 22.3215 17.9118 21.9891V18.2657C17.9118 17.9334 17.641 17.6626 17.3086 17.6626C16.9763 17.6626 16.7055 17.9334 16.7055 18.2657V19.5951H12.6436V16.0563H23.6969V19.5951H20.9274C20.5951 19.5951 20.3243 19.8659 20.3243 20.1982C20.3243 20.5305 20.5951 20.8013 20.9274 20.8013H23.6969V26.2849L24.3 26.888H29.6359C29.9621 27.1158 30.4975 27.5527 30.8791 28.0635H17.9118V26.2849C17.9118 25.9526 17.641 25.6818 17.3086 25.6818C16.9763 25.6818 16.7055 25.9526 16.7055 26.2849V28.0635H12.6436V20.8013Z" fill="#614530"/>
</svg>
