<svg width="24" height="24" viewBox="0 0 24 24" fill="none" xmlns="http://www.w3.org/2000/svg">
<path d="M20 19L5 4" stroke="black" stroke-width="1.5" stroke-linecap="round" stroke-linejoin="round"/>
<path d="M19.4552 4.3877L12.4214 11.4215" stroke="black" stroke-width="1.5" stroke-linecap="round" stroke-linejoin="round"/>
<path fill-rule="evenodd" clip-rule="evenodd" d="M8.65 21.0002H4.35C3.60442 21.0002 3 20.3958 3 19.6502V17.0471C3 16.637 3.18643 16.2491 3.50668 15.9929L5.61468 14.3066C6.10772 13.9121 6.80828 13.9121 7.30132 14.3066L9.49332 16.0601C9.81357 16.3163 10 16.7042 10 17.1143V19.6502C10 20.3958 9.39558 21.0002 8.65 21.0002Z" stroke="black" stroke-width="1.5" stroke-linecap="round" stroke-linejoin="round"/>
<path d="M3 12V8C3 5.23858 5.23858 3 8 3H16C18.7614 3 21 5.23858 21 8V16C21 18.7614 18.7614 21 16 21H13" stroke="black" stroke-width="1.5" stroke-linecap="round" stroke-linejoin="round"/>
</svg>
