<svg width="40" height="40" viewBox="0 0 40 40" fill="none" xmlns="http://www.w3.org/2000/svg">
<path d="M6 7.59636V32.4242L7.02136 33C9.62615 31.4028 13.8829 29.463 19.3736 29.2984C25.8513 29.0928 30.8416 31.5331 33.2339 33L34.2552 32.4242V7.59636L33.275 7C30.444 8.44635 25.865 10.1669 20.1207 10.1669H20.0042C15.4938 10.1463 10.9902 9.05642 6.96652 7L6 7.59636ZM7.34353 8.67255C11.2987 10.5096 15.6515 11.4899 20.0111 11.5104H20.1276C25.5154 11.5104 29.923 10.0641 32.9185 8.67255V31.2589C29.9436 29.6138 25.584 27.9412 20.1413 27.9412C19.874 27.9412 19.6066 27.9412 19.3393 27.9549C14.2257 28.1057 10.1265 29.7234 7.35038 31.2589V8.67255H7.34353Z" fill="#614530"/>
<path d="M25.3167 20.4832L23.6373 22.1626L24.5833 23.1154L27.3389 20.3598V19.407L24.4393 16.5074L23.4865 17.4534L25.1659 19.1397H15.0895L16.7689 17.4534L15.8229 16.5074L12.9165 19.407V20.3598L15.6721 23.1154L16.6249 22.1626L14.9386 20.4832H25.3167Z" fill="#614530"/>
</svg>
