<svg width="40" height="40" viewBox="0 0 40 40" fill="none" xmlns="http://www.w3.org/2000/svg">
<path d="M24.2228 24.7252L24.9092 24.0388V15.4421L24.2228 14.7557H15.5926L14.9062 15.4421V24.0388L15.5926 24.7252H24.2228ZM16.279 16.1285H23.5364V23.3524H16.279V16.1285Z" fill="#614530"/>
<path d="M6.70324 13.8182C7.07992 13.8182 7.38964 13.5085 7.38964 13.1318V8.24335L12.0019 12.8305C12.1358 12.9644 12.3116 13.0314 12.4874 13.0314C12.6632 13.0314 12.839 12.9644 12.9729 12.8305C13.2408 12.5626 13.2408 12.1274 12.9729 11.8595L8.46946 7.3728H13.1152C13.4919 7.3728 13.8016 7.06308 13.8016 6.6864C13.8016 6.30972 13.4919 6 13.1152 6H6.70324L6.01685 6.6864V13.1235C6.01685 13.5001 6.32656 13.8099 6.70324 13.8099V13.8182Z" fill="#614530"/>
<path d="M13.1402 33.7908C13.5169 33.7908 13.8266 33.4811 13.8266 33.1044C13.8266 32.7277 13.5169 32.418 13.1402 32.418H8.24335L12.8472 27.8308C13.1151 27.563 13.1151 27.1277 12.8472 26.8598C12.5794 26.592 12.1441 26.592 11.8762 26.8598L7.3728 31.3465V26.7175C7.3728 26.3408 7.06308 26.0311 6.6864 26.0311C6.30972 26.0311 6 26.3408 6 26.7175V33.1044L6.6864 33.7908H13.1486H13.1402Z" fill="#614530"/>
<path d="M26.8849 7.3728H31.5306L27.0272 11.8595C26.7593 12.1274 26.7593 12.5626 27.0272 12.8305C27.1611 12.9644 27.3369 13.0314 27.5127 13.0314C27.6885 13.0314 27.8643 12.9644 27.9982 12.8305L32.6104 8.24335V13.1318C32.6104 13.5085 32.9202 13.8182 33.2968 13.8182C33.6735 13.8182 33.9832 13.5085 33.9832 13.1318V6.6864L33.2968 6H26.8849C26.5082 6 26.1985 6.30972 26.1985 6.6864C26.1985 7.06308 26.5082 7.3728 26.8849 7.3728Z" fill="#614530"/>
<path d="M26.8513 33.7908H33.3134L33.9998 33.1044V26.7175C33.9998 26.3408 33.6901 26.0311 33.3134 26.0311C32.9368 26.0311 32.627 26.3408 32.627 26.7175V31.3465L28.1152 26.8598C27.8474 26.592 27.4121 26.592 27.1442 26.8598C26.8764 27.1277 26.8764 27.563 27.1442 27.8308L31.7481 32.418H26.8429C26.4662 32.418 26.1565 32.7277 26.1565 33.1044C26.1565 33.4811 26.4662 33.7908 26.8429 33.7908H26.8513Z" fill="#614530"/>
</svg>
