<svg width="48" height="48" viewBox="0 0 48 48" fill="none" xmlns="http://www.w3.org/2000/svg">
<g filter="url(#filter0_d_2784_39797)">
<rect x="4" width="40" height="40" rx="20" fill="#F4E5D2" shape-rendering="crispEdges"/>
<path d="M20.6617 18.0825L19.1285 20.8713L19.5107 21.5173H22.5769L22.9591 20.8713L21.426 18.0825H20.6617ZM20.2431 20.6483L21.0393 19.1971L21.8354 20.6483H20.2431Z" fill="#5D4632"/>
<path d="M33.0814 19.6156C31.9304 19.5428 30.8659 20.3844 30.552 21.6127L30.5429 24.9747C30.2881 25.0429 29.9833 25.0884 29.5511 25.0884C28.7914 25.0884 28.4365 24.9519 28.0271 24.7882C27.836 24.7154 27.6267 24.6335 27.3811 24.5698L27.1627 20.6073C27.1627 20.6073 27.19 20.621 27.2036 20.6255C27.2355 20.6346 27.2673 20.6346 27.3037 20.6346C27.5039 20.6346 27.6813 20.4982 27.7268 20.298C27.8633 19.6975 28.2727 19.238 28.7914 19.1015C29.2645 18.9741 29.6921 19.1652 29.774 19.2016C30.1152 19.3699 30.3063 19.6292 30.3882 19.7748C30.511 19.9841 30.7749 20.0523 30.9841 19.9295C31.1934 19.8067 31.2617 19.5428 31.1388 19.3335C31.0069 19.1061 30.7021 18.6875 30.1516 18.4191C29.9696 18.3281 29.3145 18.0552 28.5593 18.2599C27.927 18.4282 27.4038 18.8786 27.099 19.4882L26.7078 12.4094L26.271 12H23.6279L23.1911 12.4367V13.7924H21.9219L21.4851 14.2292V15.3529H20.4524V14.2292L20.0157 13.7924H18.7464V12.4367L18.3097 12H15.6665L15.2298 12.4094L14.5474 24.77C14.5474 24.77 14.5474 24.7836 14.5474 24.7927C14.1152 24.6244 13.6284 24.4333 12.7049 24.4333C12.4638 24.4333 12.2682 24.6289 12.2682 24.8701C12.2682 25.1112 12.4638 25.3068 12.7049 25.3068C13.4647 25.3068 13.8195 25.4433 14.229 25.6071C14.6611 25.7754 15.1479 25.9664 16.0714 25.9664C16.9949 25.9664 17.4817 25.7754 17.9139 25.6071C18.3234 25.4478 18.6782 25.3068 19.4379 25.3068C20.1977 25.3068 20.5525 25.4433 20.962 25.6071C21.3941 25.7754 21.8809 25.9664 22.8044 25.9664C23.728 25.9664 24.2147 25.7754 24.6469 25.6071C25.0564 25.4478 25.4112 25.3068 26.1709 25.3068C26.9307 25.3068 27.2855 25.4433 27.6995 25.6071C28.1317 25.7754 28.6185 25.9664 29.542 25.9664C29.9469 25.9664 30.2653 25.9301 30.5338 25.8755V26.9491C30.5338 26.9491 30.5383 26.9855 30.5429 27.0082C30.2835 27.0765 29.9833 27.1265 29.542 27.1265C28.7823 27.1265 28.4274 26.99 28.018 26.8263C27.5858 26.6579 27.099 26.4669 26.1755 26.4669C25.252 26.4669 24.7652 26.6579 24.333 26.8263C23.9236 26.9855 23.5687 27.1265 22.809 27.1265C22.5679 27.1265 22.3723 27.3221 22.3723 27.5633C22.3723 27.8044 22.5679 28 22.809 28C23.7325 28 24.2193 27.8089 24.6515 27.6406C25.0609 27.4814 25.4158 27.3403 26.1755 27.3403C26.9352 27.3403 27.2901 27.4768 27.7041 27.6406C28.1363 27.8089 28.623 28 29.5466 28C30.4701 28 30.9614 27.8089 31.389 27.6406C31.7985 27.4814 32.1533 27.3403 32.9131 27.3403C33.1542 27.3403 33.3498 27.1447 33.3498 26.9036C33.3498 26.6625 33.1542 26.4669 32.9131 26.4669C32.217 26.4669 31.7666 26.5761 31.4027 26.7034V25.6025C31.8076 25.4433 32.1624 25.3113 32.9131 25.3113C33.1542 25.3113 33.3498 25.1157 33.3498 24.8746C33.3498 24.6335 33.1542 24.4379 32.9131 24.4379C32.217 24.4379 31.7666 24.5471 31.4027 24.6744V21.7856C31.6256 21.0031 32.3353 20.4527 33.0222 20.4936C33.782 20.5391 34.2278 21.2761 34.246 21.3079C34.3688 21.5127 34.6373 21.5854 34.842 21.4581C35.0467 21.3352 35.1149 21.0668 34.9921 20.8621C34.8784 20.6665 34.2415 19.6929 33.0723 19.6247L33.0814 19.6156ZM24.333 24.7927C23.9236 24.9519 23.5687 25.093 22.809 25.093C22.0493 25.093 21.6944 24.9565 21.285 24.7927C20.8528 24.6244 20.366 24.4333 19.4425 24.4333C18.519 24.4333 18.0322 24.6244 17.6 24.7927C17.1906 24.9519 16.8357 25.093 16.076 25.093C15.7757 25.093 15.5392 25.0702 15.339 25.0338C15.3799 24.9701 15.4163 24.9019 15.4209 24.82L16.0805 12.8689H17.8775V14.2246L18.3143 14.6614H19.5835V15.785L20.0203 16.2218H21.9264L22.3632 15.785V14.6614H23.6324L24.0692 14.2246V12.8689H25.8616L26.4985 24.4379C26.3984 24.4333 26.2938 24.4288 26.18 24.4288C25.2565 24.4288 24.7698 24.6198 24.3376 24.7882L24.333 24.7927Z" fill="#5D4632"/>
<path d="M30.197 20.0523C30.1106 20.0341 29.3372 19.8613 28.6639 20.3207C28.2044 20.6346 27.9224 21.1442 27.8314 21.8402C27.7995 22.0768 27.9679 22.2997 28.2044 22.3315C28.2226 22.3315 28.2454 22.3315 28.2636 22.3315C28.4774 22.3315 28.6639 22.1723 28.6958 21.9539C28.7549 21.5172 28.9096 21.2079 29.1507 21.0395C29.5055 20.7939 29.9832 20.8939 29.9969 20.8939C30.2243 20.9485 30.4609 20.8075 30.52 20.5709C30.5746 20.3389 30.4336 20.1024 30.2016 20.0432L30.197 20.0523Z" fill="#5D4632"/>
<path d="M35.6836 18.592C35.2286 17.7095 34.3051 17.1954 33.3316 17.2864C32.4354 17.3683 31.6438 17.9688 31.3162 18.8149C31.2298 19.0379 31.339 19.2926 31.5619 19.3791C31.6119 19.3973 31.6665 19.4109 31.7211 19.4109C31.894 19.4109 32.0578 19.3063 32.126 19.1334C32.3398 18.592 32.8402 18.2053 33.4089 18.1553C34.0231 18.0961 34.6236 18.4373 34.9102 18.9924C35.0194 19.2062 35.2832 19.2926 35.4971 19.1789C35.7109 19.0697 35.7928 18.8058 35.6836 18.592Z" fill="#5D4632"/>
<path d="M28.0454 17.5048C28.0682 17.4775 28.6187 16.877 29.4011 17.0134C29.9425 17.109 30.3929 17.5184 30.5521 18.0552C30.6067 18.2463 30.7796 18.3691 30.9707 18.3691C31.0116 18.3691 31.0526 18.3646 31.0935 18.3509C31.3255 18.2827 31.4574 18.0416 31.3892 17.8096C31.139 16.9589 30.4157 16.3083 29.5558 16.1582C28.2729 15.9353 27.4267 16.8952 27.3903 16.9361C27.2311 17.1181 27.2539 17.391 27.4313 17.5503C27.6133 17.7095 27.8862 17.6913 28.0454 17.5093V17.5048Z" fill="#5D4632"/>
</g>
<defs>
<filter id="filter0_d_2784_39797" x="0" y="0" width="48" height="48" filterUnits="userSpaceOnUse" color-interpolation-filters="sRGB">
<feFlood flood-opacity="0" result="BackgroundImageFix"/>
<feColorMatrix in="SourceAlpha" type="matrix" values="0 0 0 0 0 0 0 0 0 0 0 0 0 0 0 0 0 0 127 0" result="hardAlpha"/>
<feOffset dy="4"/>
<feGaussianBlur stdDeviation="2"/>
<feComposite in2="hardAlpha" operator="out"/>
<feColorMatrix type="matrix" values="0 0 0 0 0 0 0 0 0 0 0 0 0 0 0 0 0 0 0.3 0"/>
<feBlend mode="normal" in2="BackgroundImageFix" result="effect1_dropShadow_2784_39797"/>
<feBlend mode="normal" in="SourceGraphic" in2="effect1_dropShadow_2784_39797" result="shape"/>
</filter>
</defs>
</svg>
