<svg width="75" height="75" viewBox="0 0 75 75" fill="none" xmlns="http://www.w3.org/2000/svg">
<g filter="url(#filter0_d_2784_41041)">
<rect x="10" y="4" width="55" height="55" rx="27.5" fill="#B47046" shape-rendering="crispEdges"/>
<path d="M32.0754 28.384L29.5841 32.9157L30.2051 33.9655H35.1877L35.8087 32.9157L33.3174 28.384H32.0754ZM31.3953 32.5535L32.689 30.1952L33.9827 32.5535H31.3953Z" fill="#F4E5D2"/>
<path d="M52.2572 30.8753C50.3869 30.757 48.657 32.1247 48.1469 34.1207L48.1321 39.5839C47.7181 39.6948 47.2228 39.7687 46.5205 39.7687C45.2859 39.7687 44.7093 39.5469 44.044 39.2808C43.7335 39.1625 43.3934 39.0294 42.9942 38.9259L42.6394 32.4869C42.6394 32.4869 42.6837 32.5091 42.7059 32.5165C42.7577 32.5313 42.8094 32.5313 42.8685 32.5313C43.1938 32.5313 43.4821 32.3095 43.5561 31.9842C43.7778 31.0084 44.4432 30.2617 45.2859 30.0399C46.0548 29.833 46.7497 30.1434 46.8828 30.2026C47.4372 30.4761 47.7477 30.8975 47.8808 31.1341C48.0804 31.4741 48.5091 31.585 48.8492 31.3854C49.1893 31.1858 49.3002 30.757 49.1006 30.417C48.8862 30.0473 48.3909 29.3672 47.4964 28.931C47.2006 28.7832 46.1361 28.3396 44.9089 28.6723C43.8813 28.9458 43.0312 29.6777 42.5359 30.6683L41.9001 19.1653L41.1904 18.5H36.8953L36.1856 19.2097V21.4127H34.123L33.4133 22.1224V23.9484H31.7352V22.1224L31.0255 21.4127H28.9629V19.2097L28.2532 18.5H23.9581L23.2484 19.1653L22.1395 39.2512C22.1395 39.2512 22.1395 39.2734 22.1395 39.2882C21.4372 39.0146 20.6462 38.7042 19.1455 38.7042C18.7537 38.7042 18.4358 39.022 18.4358 39.4138C18.4358 39.8057 18.7537 40.1235 19.1455 40.1235C20.3801 40.1235 20.9567 40.3453 21.622 40.6115C22.3243 40.885 23.1153 41.1955 24.6161 41.1955C26.1168 41.1955 26.9078 40.885 27.6101 40.6115C28.2754 40.3527 28.8521 40.1235 30.0866 40.1235C31.3212 40.1235 31.8978 40.3453 32.5632 40.6115C33.2655 40.885 34.0565 41.1955 35.5572 41.1955C37.0579 41.1955 37.8489 40.885 38.5512 40.6115C39.2166 40.3527 39.7932 40.1235 41.0278 40.1235C42.2623 40.1235 42.839 40.3453 43.5117 40.6115C44.214 40.885 45.005 41.1955 46.5057 41.1955C47.1637 41.1955 47.6812 41.1363 48.1173 41.0476V42.7923C48.1173 42.7923 48.1247 42.8514 48.1321 42.8884C47.7107 42.9993 47.2228 43.0806 46.5057 43.0806C45.2712 43.0806 44.6945 42.8588 44.0292 42.5927C43.3269 42.3192 42.5359 42.0087 41.0352 42.0087C39.5345 42.0087 38.7434 42.3192 38.0411 42.5927C37.3758 42.8514 36.7992 43.0806 35.5646 43.0806C35.1728 43.0806 34.8549 43.3985 34.8549 43.7903C34.8549 44.1821 35.1728 44.5 35.5646 44.5C37.0653 44.5 37.8563 44.1895 38.5586 43.916C39.224 43.6572 39.8006 43.4281 41.0352 43.4281C42.2697 43.4281 42.8464 43.6498 43.5191 43.916C44.2214 44.1895 45.0124 44.5 46.5131 44.5C48.0138 44.5 48.8122 44.1895 49.5072 43.916C50.1725 43.6572 50.7491 43.4281 51.9837 43.4281C52.3755 43.4281 52.6934 43.1102 52.6934 42.7184C52.6934 42.3266 52.3755 42.0087 51.9837 42.0087C50.8526 42.0087 50.1207 42.1861 49.5293 42.3931V40.6041C50.1873 40.3453 50.7639 40.1309 51.9837 40.1309C52.3755 40.1309 52.6934 39.8131 52.6934 39.4212C52.6934 39.0294 52.3755 38.7115 51.9837 38.7115C50.8526 38.7115 50.1207 38.889 49.5293 39.096V34.4016C49.8916 33.1301 51.0448 32.2356 52.1611 32.3021C53.3957 32.376 54.1202 33.5736 54.1498 33.6254C54.3494 33.9581 54.7855 34.0763 55.1182 33.8694C55.4509 33.6697 55.5617 33.2336 55.3621 32.9009C55.1773 32.583 54.1424 31.001 52.2424 30.8901L52.2572 30.8753ZM38.0411 39.2882C37.3758 39.5469 36.7992 39.7761 35.5646 39.7761C34.33 39.7761 33.7534 39.5543 33.0881 39.2882C32.3857 39.0146 31.5947 38.7042 30.094 38.7042C28.5933 38.7042 27.8023 39.0146 27.1 39.2882C26.4347 39.5469 25.858 39.7761 24.6235 39.7761C24.1355 39.7761 23.7511 39.7391 23.4258 39.68C23.4924 39.5765 23.5515 39.4656 23.5589 39.3325L24.6308 19.912H27.5509V22.115L28.2606 22.8247H30.3232V24.6507L31.0329 25.3604H34.1304L34.8401 24.6507V22.8247H36.9027L37.6124 22.115V19.912H40.5251L41.56 38.7115C41.3974 38.7042 41.2274 38.6968 41.0426 38.6968C39.5418 38.6968 38.7508 39.0073 38.0485 39.2808L38.0411 39.2882Z" fill="#F4E5D2"/>
<path d="M47.5701 31.5849C47.4296 31.5553 46.1729 31.2744 45.0787 32.0211C44.3321 32.5311 43.8737 33.3591 43.7259 34.4902C43.6741 34.8746 43.9477 35.2369 44.3321 35.2886C44.3617 35.2886 44.3986 35.2886 44.4282 35.2886C44.7756 35.2886 45.0787 35.0299 45.1305 34.675C45.2266 33.9653 45.478 33.4626 45.8698 33.1891C46.4464 32.7899 47.2226 32.9525 47.2448 32.9525C47.6144 33.0412 47.9988 32.8121 48.095 32.4276C48.1837 32.0506 47.9545 31.6662 47.5775 31.5701L47.5701 31.5849Z" fill="#F4E5D2"/>
<path d="M56.4856 29.2121C55.7464 27.778 54.2457 26.9426 52.6636 27.0905C51.2073 27.2235 49.9209 28.1994 49.3887 29.5744C49.2482 29.9366 49.4256 30.3506 49.7879 30.4911C49.8692 30.5206 49.9579 30.5428 50.0466 30.5428C50.3275 30.5428 50.5937 30.3728 50.7046 30.0919C51.052 29.2121 51.8652 28.5838 52.7893 28.5024C53.7873 28.4063 54.7631 28.9608 55.2289 29.8627C55.4063 30.2102 55.8351 30.3506 56.1825 30.1658C56.53 29.9884 56.6631 29.5596 56.4856 29.2121Z" fill="#F4E5D2"/>
<path d="M44.0738 27.4451C44.1108 27.4008 45.0053 26.4249 46.2768 26.6467C47.1566 26.802 47.8884 27.4673 48.1472 28.3396C48.2359 28.6501 48.5168 28.8497 48.8273 28.8497C48.8938 28.8497 48.9604 28.8423 49.0269 28.8201C49.4039 28.7093 49.6183 28.3174 49.5074 27.9404C49.1008 26.558 47.9254 25.5008 46.5282 25.2569C44.4435 24.8946 43.0684 26.4545 43.0093 26.521C42.7505 26.8167 42.7875 27.2603 43.0758 27.519C43.3715 27.7778 43.8151 27.7482 44.0738 27.4525V27.4451Z" fill="#F4E5D2"/>
</g>
<defs>
<filter id="filter0_d_2784_41041" x="0" y="0" width="75" height="75" filterUnits="userSpaceOnUse" color-interpolation-filters="sRGB">
<feFlood flood-opacity="0" result="BackgroundImageFix"/>
<feColorMatrix in="SourceAlpha" type="matrix" values="0 0 0 0 0 0 0 0 0 0 0 0 0 0 0 0 0 0 127 0" result="hardAlpha"/>
<feOffset dy="6"/>
<feGaussianBlur stdDeviation="5"/>
<feComposite in2="hardAlpha" operator="out"/>
<feColorMatrix type="matrix" values="0 0 0 0 0 0 0 0 0 0 0 0 0 0 0 0 0 0 0.5 0"/>
<feBlend mode="normal" in2="BackgroundImageFix" result="effect1_dropShadow_2784_41041"/>
<feBlend mode="normal" in="SourceGraphic" in2="effect1_dropShadow_2784_41041" result="shape"/>
</filter>
</defs>
</svg>
