<svg width="75" height="75" viewBox="0 0 75 75" fill="none" xmlns="http://www.w3.org/2000/svg">
<g filter="url(#filter0_d_111_2694)">
<rect x="10" y="4" width="55" height="55" rx="27.5" fill="#B47046" shape-rendering="crispEdges"/>
<mask id="mask0_111_2694" style="mask-type:luminance" maskUnits="userSpaceOnUse" x="27" y="18" width="21" height="27">
<path d="M41.6378 30.1694V28.0021H42.5769L45.1777 41.9409H29.8262L32.4229 28.0021H33.358V30.1694H35.4731V28.0021H39.5227V30.1694H41.6338H41.6378ZM35.4771 23.0896C35.4771 21.9739 36.3842 21.0669 37.4999 21.0669C38.6157 21.0669 39.5227 21.9739 39.5227 23.0896V25.891H35.4731V23.0896H35.4771ZM37.4999 18.9518C35.2203 18.9518 33.362 20.806 33.362 23.0896V25.891H30.669L27.2856 44.052H47.7142L44.3268 25.887H41.6338V23.0856C41.6338 20.806 39.7796 18.9478 37.4959 18.9478L37.4999 18.9518Z" fill="white"/>
</mask>
<g mask="url(#mask0_111_2694)">
<path d="M47.7142 18.9517H27.2856V44.0519H47.7142V18.9517Z" fill="#F4E5D2"/>
</g>
</g>
<defs>
<filter id="filter0_d_111_2694" x="0" y="0" width="75" height="75" filterUnits="userSpaceOnUse" color-interpolation-filters="sRGB">
<feFlood flood-opacity="0" result="BackgroundImageFix"/>
<feColorMatrix in="SourceAlpha" type="matrix" values="0 0 0 0 0 0 0 0 0 0 0 0 0 0 0 0 0 0 127 0" result="hardAlpha"/>
<feOffset dy="6"/>
<feGaussianBlur stdDeviation="5"/>
<feComposite in2="hardAlpha" operator="out"/>
<feColorMatrix type="matrix" values="0 0 0 0 0 0 0 0 0 0 0 0 0 0 0 0 0 0 0.5 0"/>
<feBlend mode="normal" in2="BackgroundImageFix" result="effect1_dropShadow_111_2694"/>
<feBlend mode="normal" in="SourceGraphic" in2="effect1_dropShadow_111_2694" result="shape"/>
</filter>
</defs>
</svg>
