<svg width="75" height="75" viewBox="0 0 75 75" fill="none" xmlns="http://www.w3.org/2000/svg">
<g filter="url(#filter0_d_184_3799)">
<rect x="10" y="4" width="55" height="55" rx="27.5" fill="#B47046" shape-rendering="crispEdges"/>
<g clip-path="url(#clip0_184_3799)">
<mask id="mask0_184_3799" style="mask-type:luminance" maskUnits="userSpaceOnUse" x="19" y="17" width="38" height="25">
<path d="M56.1972 17.2H19.8999V41.3999H56.1972V17.2Z" fill="white"/>
</mask>
<g mask="url(#mask0_184_3799)">
<path d="M30.7379 30.4042C30.746 30.3516 30.7513 30.3121 30.7593 30.2621C30.7219 30.2937 30.6951 30.3147 30.6549 30.3489C30.5933 30.2937 30.5184 30.2436 30.4702 30.1752C30.43 30.1173 30.414 30.062 30.331 30.1094C30.3122 30.1199 30.2614 30.1041 30.2533 30.0883C30.2185 30.0146 30.2051 29.9304 30.165 29.8619C30.1355 29.8093 30.0846 29.7566 30.0311 29.7356C29.9642 29.7119 29.916 29.6935 29.9294 29.6092C29.932 29.5882 29.924 29.5645 29.9133 29.546C29.8678 29.4592 29.8196 29.3749 29.7741 29.2907C29.75 29.2486 29.7286 29.1722 29.6991 29.1696C29.5866 29.1591 29.5385 29.0854 29.5251 28.9932C29.509 28.8958 29.5037 28.7932 29.5144 28.6984C29.5385 28.4852 29.5974 28.2746 29.6027 28.064C29.6134 27.6323 29.7446 27.2453 30.0257 26.9399C30.2158 26.7346 30.4193 26.5029 30.7326 26.4819C30.837 26.474 30.9441 26.5003 31.0485 26.5082C31.1074 26.5135 31.1583 26.5398 31.2038 26.4556C31.26 26.3503 31.3778 26.3292 31.4929 26.3529C31.5759 26.3713 31.6536 26.4029 31.7339 26.424C31.8999 26.4635 31.9722 26.5819 32.0043 26.7662C31.9508 26.7451 31.9079 26.732 31.8678 26.7135C31.8383 26.703 31.8062 26.6662 31.7848 26.6741C31.6215 26.7346 31.4501 26.6635 31.2895 26.7004C31.2118 26.7188 31.1502 26.7794 31.086 26.6741C31.0324 26.7214 30.9896 26.7609 30.9414 26.8057C31.0672 26.9347 31.2145 26.8662 31.3484 26.8794C31.3189 27.0242 31.3591 27.0584 31.501 27.0505C31.5679 27.0479 31.6349 27.0794 31.7312 27.1031C31.6697 27.1347 31.6349 27.1505 31.5733 27.1847C31.7098 27.2216 31.8196 27.2506 31.932 27.2795C31.932 27.2874 31.932 27.2979 31.9294 27.3058C31.8892 27.3111 31.8517 27.3164 31.8116 27.3216C31.8116 27.3322 31.8116 27.3401 31.8089 27.3506C31.8651 27.3611 31.9213 27.3716 31.999 27.3874C32.0284 27.4269 31.932 27.577 32.098 27.5401C32.0927 27.5954 32.0873 27.6349 32.0847 27.677H32.2828C32.2346 27.6375 32.1944 27.6059 32.1409 27.5638H32.3203C32.2962 27.3743 32.2747 27.1926 32.248 26.9742C32.3069 27.0794 32.3444 27.1584 32.3926 27.2321C32.6951 27.706 32.8424 28.2404 32.9307 28.7879C32.9682 29.0143 32.9146 29.2512 32.7486 29.4407C32.7138 29.4802 32.6951 29.5329 32.663 29.5776C32.6496 29.5961 32.6228 29.604 32.5907 29.6224C32.5773 29.6434 32.5585 29.6829 32.5291 29.7093C32.4943 29.7435 32.4407 29.7593 32.4113 29.7961C32.2667 29.9672 32.0954 30.0699 31.8678 30.0989C31.7419 30.1146 31.6268 30.2042 31.509 30.2621C31.4421 30.2963 31.3751 30.3305 31.2975 30.3726C31.2332 30.3358 31.1583 30.3121 31.094 30.4121C31.078 30.4358 31.0244 30.449 30.9896 30.4463C30.9093 30.4411 30.8316 30.4226 30.7379 30.4068" fill="#F4E5D2"/>
<path d="M45.4101 26.7399C45.3244 26.8557 45.2226 26.882 45.0647 26.8057C45.0566 26.8031 45.0486 26.7873 45.0459 26.7899C44.9683 26.8189 44.8907 26.8768 44.813 26.8741C44.6845 26.8741 44.6845 26.8583 44.6068 26.9636C44.6684 26.9979 44.7273 27.0584 44.7916 27.061C44.8532 27.0663 44.9228 27.0163 44.9683 26.9979C44.9977 27.0821 45.0192 27.14 45.0433 27.2111C45.1075 27.1716 45.1504 27.1479 45.1932 27.1216C45.228 27.1584 45.2601 27.1953 45.2976 27.2374C45.2816 27.2585 45.2655 27.2795 45.2441 27.3085C45.3351 27.3532 45.4556 27.3269 45.4824 27.4691C45.4877 27.498 45.5894 27.5086 45.6243 27.5428C45.6591 27.5849 45.7019 27.6218 45.7287 27.6691C45.7501 27.7034 45.7528 27.7507 45.7635 27.7876C45.8036 27.7876 45.8465 27.7823 45.9054 27.7771C45.8679 27.7455 45.8411 27.7165 45.7849 27.6691C45.8652 27.6744 45.9134 27.677 45.9563 27.6797C45.9375 27.4717 45.9857 27.2532 45.7956 27.09C45.809 27.0821 45.8251 27.0716 45.8384 27.0637C45.8733 27.0979 45.9188 27.1242 45.9429 27.1663C46.2775 27.706 46.5024 28.2957 46.5908 28.9248C46.6229 29.1486 46.5935 29.4065 46.3953 29.5908C46.3231 29.6566 46.2722 29.7435 46.2079 29.8251C46.1517 29.8672 46.0767 29.9041 46.0285 29.9646C45.9188 30.1015 45.7608 30.1857 45.6189 30.2094C45.4609 30.2358 45.3645 30.349 45.2253 30.3858C45.1798 30.3963 45.1316 30.4069 45.0888 30.4253C45.0352 30.449 44.9817 30.4806 44.9201 30.5148C44.8317 30.4148 44.7702 30.5253 44.6979 30.578C44.6149 30.4674 44.5399 30.4595 44.4194 30.5622C44.4087 30.5148 44.4007 30.4753 44.3927 30.4253C44.3632 30.4595 44.3391 30.4858 44.3204 30.5069C44.2802 30.4753 44.24 30.4437 44.2026 30.4121C44.1758 30.3884 44.1383 30.3674 44.1303 30.3384C44.0981 30.2226 44.0366 30.1936 43.9375 30.2568C43.8947 30.1752 43.8572 30.0989 43.8143 30.0146C43.8384 30.0015 43.8652 29.9857 43.8947 29.9699C43.8947 29.9646 43.892 29.9567 43.8866 29.9541C43.8117 29.9251 43.7367 29.8962 43.6644 29.8672C43.651 29.862 43.6296 29.8541 43.6296 29.8488C43.6376 29.7093 43.4904 29.6514 43.469 29.5382C43.4449 29.4092 43.3886 29.3197 43.2708 29.2565C43.1611 29.196 43.1209 28.9064 43.1825 28.7642C43.2173 28.6879 43.2414 28.6037 43.2521 28.5194C43.2815 28.2614 43.2735 27.9956 43.3297 27.7455C43.3967 27.4559 43.5279 27.19 43.7769 27.0031C43.7983 26.9873 43.8304 26.9742 43.8384 26.9531C43.892 26.7741 44.0633 26.7504 44.1919 26.6767C44.3284 26.6004 44.473 26.5714 44.6256 26.632C44.7327 26.6741 44.8103 26.6214 44.8933 26.5583C44.9442 26.5188 45.0192 26.4714 45.07 26.4845C45.2307 26.5214 45.3886 26.5846 45.5466 26.6372C45.5493 26.6372 45.5546 26.6425 45.5573 26.6478C45.5841 26.7083 45.6109 26.7688 45.6376 26.8294C45.6109 26.8399 45.5761 26.8689 45.56 26.8583C45.5064 26.8268 45.4583 26.7794 45.4074 26.7373" fill="#F4E5D2"/>
<path d="M39.0538 26.8346C38.9708 26.7951 38.8878 26.7557 38.7807 26.703C38.7164 26.7478 38.612 26.7899 38.4861 26.7636C38.4272 26.7504 38.3576 26.7925 38.2907 26.7951C38.2452 26.7978 38.1943 26.7793 38.1301 26.7688C38.0979 26.7925 38.0524 26.832 38.0042 26.8715C38.106 26.8873 38.1729 27.0505 38.2934 26.9294C38.3094 26.9136 38.3657 26.9426 38.4058 26.9505C38.3362 27.0952 38.3416 27.0979 38.7244 27.1505C38.7057 27.1821 38.6896 27.2084 38.6629 27.2506C38.7592 27.2795 38.8449 27.3058 38.9547 27.3374C38.9119 27.3585 38.8851 27.369 38.861 27.3822C38.861 27.3927 38.861 27.4032 38.861 27.4138C38.9306 27.4296 39.0002 27.4454 39.0778 27.4612C39.0698 27.498 39.0618 27.5349 39.0511 27.5849C39.1635 27.5928 39.1608 27.6691 39.1341 27.7481C39.201 27.7349 39.2519 27.7244 39.3135 27.7112C39.284 27.6928 39.2546 27.6717 39.1957 27.6323C39.2706 27.6217 39.3135 27.6138 39.3563 27.6086C39.3724 27.398 39.3884 27.1847 39.2064 27.0163C39.2171 27.0084 39.2305 27.0031 39.2438 26.9952C39.284 27.0347 39.3376 27.0637 39.359 27.111C39.4928 27.4296 39.7285 27.6902 39.8007 28.0429C39.8463 28.2588 39.9587 28.4667 39.9828 28.6826C40.0149 28.9406 40.0364 29.2144 39.8596 29.446C39.8141 29.5039 39.7981 29.5882 39.7499 29.6434C39.707 29.6935 39.6401 29.7224 39.5839 29.7619C39.5571 29.783 39.5303 29.8067 39.5089 29.833C39.4955 29.8488 39.4902 29.8804 39.4741 29.8909C39.3054 29.9909 39.1742 30.1568 38.9627 30.1805C38.8904 30.1884 38.8181 30.2226 38.7512 30.2542C38.6227 30.3094 38.4995 30.3726 38.371 30.4253C38.3362 30.4384 38.2827 30.399 38.2479 30.4121C38.1916 30.4332 38.1434 30.4779 38.0899 30.5148C38.0765 30.4806 38.0578 30.4411 38.0444 30.4068C37.9614 30.3621 37.8757 30.5938 37.7927 30.3963C37.6829 30.4411 37.5892 30.3779 37.4768 30.1673C37.4714 30.2199 37.4687 30.2515 37.4634 30.3042C37.4098 30.2436 37.3643 30.1936 37.3188 30.1436C37.2197 30.0357 37.2679 29.8119 37.0537 29.7909C37.0404 29.7909 37.0243 29.7619 37.0136 29.7408C36.9413 29.5908 36.8744 29.4355 36.8021 29.2854C36.7914 29.267 36.7726 29.2486 36.7566 29.238C36.5959 29.1354 36.5156 28.9406 36.5906 28.7642C36.6789 28.551 36.6869 28.3325 36.6923 28.1061C36.703 27.6375 36.8449 27.219 37.2224 26.9136C37.2974 26.8531 37.3509 26.7557 37.4313 26.7109C37.5839 26.6267 37.7258 26.5003 37.9212 26.5424C37.948 26.5477 37.9748 26.5503 38.0015 26.5582C38.1301 26.5924 38.2398 26.5898 38.3309 26.4608C38.363 26.4161 38.4754 26.4082 38.5397 26.424C38.6736 26.4556 38.8101 26.4977 38.9279 26.5688C39.0029 26.6135 39.043 26.7188 39.0966 26.7951C39.0832 26.8083 39.0698 26.8215 39.0564 26.8346" fill="#F4E5D2"/>
<path d="M34.7701 23.0781C34.7246 23.0097 34.7701 23.007 34.8183 23.0044C35.0057 22.9886 35.1931 22.9702 35.3913 22.9754C35.3699 22.9912 35.3458 23.007 35.3136 23.0307C35.3993 23.0728 35.5894 23.0018 35.5198 23.1913C35.493 23.265 35.402 23.3703 35.252 23.2913C35.3056 23.2597 35.3458 23.2308 35.3859 23.2071C35.3029 23.1229 35.1905 23.1544 35.0968 23.2834C35.2253 23.4572 35.394 23.5283 35.5626 23.4809C35.6269 23.4624 35.6617 23.3598 35.7527 23.4203C35.7768 23.4361 35.817 23.4335 35.8304 23.4519C35.9053 23.5598 35.9857 23.652 36.1222 23.6783C36.1463 23.6836 36.165 23.7283 36.2159 23.7494C36.2079 23.7073 36.2025 23.6651 36.1945 23.6309C36.2587 23.5862 36.3176 23.5283 36.3873 23.494C36.4836 23.4414 36.4836 23.5256 36.4917 23.5651C36.4408 23.623 36.3712 23.6678 36.3739 23.7099C36.3739 23.7494 36.4488 23.7915 36.4944 23.831C36.4622 23.8705 36.4247 23.9205 36.3819 23.9626C36.3284 24.0153 36.3069 24.0653 36.331 24.1442C36.3712 24.2811 36.2454 24.3469 36.1757 24.418C36.0874 24.5128 35.9589 24.5681 35.8384 24.647C35.9401 24.7971 35.8143 24.8418 35.7233 24.9155C35.7795 24.9261 35.8143 24.934 35.8839 24.9498C35.8197 25.0314 35.7688 25.0919 35.6965 25.1814C35.6563 25.0788 35.6322 25.0103 35.5974 24.9182C35.568 24.984 35.5466 25.034 35.5251 25.0788C35.6644 25.1656 35.6483 25.2525 35.5385 25.313H34.8612C34.9227 25.2709 34.9709 25.2367 35.0325 25.1972C34.8638 25.1235 34.7755 25.1419 34.7219 25.2446C34.6711 25.0919 34.6202 25.0682 34.4515 25.0735C34.2346 25.0814 34.0312 25.0235 33.8625 24.8708C33.8089 24.8208 33.7527 24.7787 33.6965 24.7339C33.6697 24.7102 33.6322 24.6892 33.6188 24.6602C33.4154 24.2285 33.2012 23.7994 33.2092 23.3019C33.2146 22.9254 33.3993 22.628 33.6296 22.3542C33.6938 22.2778 33.7474 22.191 33.8143 22.1199C33.8786 22.0515 33.9482 21.9856 34.0499 22.0804C34.1329 22.1568 34.2266 22.0988 34.2641 21.9751C34.4381 21.933 34.5988 21.8909 34.7594 21.8514C34.7567 21.8382 34.7514 21.8251 34.7487 21.8119V21.6855C34.8103 21.704 34.8692 21.7198 34.9361 21.7382C34.9468 21.7092 34.9629 21.6724 34.9843 21.6224C35.0459 21.6434 35.1048 21.6619 35.1878 21.6882C35.153 21.6434 35.1316 21.6145 35.0968 21.5697C35.228 21.5697 35.3404 21.5513 35.4475 21.5724C35.5733 21.596 35.6135 21.7198 35.5599 21.8514C35.5492 21.8803 35.5492 21.9146 35.5466 21.9435C35.4502 21.9093 35.3591 21.8488 35.2628 21.8435C35.153 21.8382 35.0379 21.8803 34.9281 21.9067C34.8906 21.9172 34.8531 21.9593 34.8237 21.9541C34.6684 21.9277 34.6122 22.0278 34.5613 22.1673C34.6229 22.1778 34.6818 22.1857 34.738 22.1936C34.73 22.2463 34.7219 22.2936 34.7139 22.3489C34.8344 22.2805 34.8638 22.1778 34.8103 22.0436C35.0031 21.9251 35.0512 21.9435 35.1931 22.1015C35.2735 22.1883 35.3377 22.2594 35.3136 22.391C35.3083 22.4253 35.3618 22.4726 35.3913 22.5121C35.4154 22.5464 35.4395 22.5832 35.4636 22.6174C35.3886 22.6359 35.3377 22.649 35.2869 22.6622L35.2922 22.6859C35.3431 22.7043 35.3966 22.7227 35.4475 22.7385L35.4421 22.7912H34.7541C34.7541 22.8122 34.7541 22.8333 34.7541 22.8517C34.8183 22.8596 34.8852 22.8649 34.9495 22.8728C34.9495 22.8833 34.9549 22.8938 34.9575 22.9044C34.8478 22.9386 34.7407 22.9754 34.5934 23.0228C34.6737 23.0465 34.7219 23.0623 34.7701 23.0755C34.6095 23.1387 34.4515 23.2018 34.2935 23.2624C34.2962 23.2755 34.2989 23.2887 34.3043 23.3019C34.4328 23.2729 34.5586 23.2413 34.6871 23.2176C34.7782 23.2018 34.7969 23.1571 34.7701 23.0755" fill="#F4E5D2"/>
<path d="M36.8452 19.9087C36.7194 19.9139 36.6578 19.8429 36.6632 19.7033C36.6658 19.6296 36.6364 19.5954 36.5668 19.5533C36.4356 19.4769 36.4061 19.3322 36.4222 19.1795C36.4302 19.09 36.4329 19.0005 36.4409 18.9057C36.5695 18.8531 36.6043 18.7636 36.5561 18.6135C36.5427 18.5688 36.54 18.4845 36.5641 18.4714C36.6578 18.4108 36.6417 18.3266 36.6123 18.2581C36.5534 18.1344 36.6123 18.1054 36.7114 18.0844C36.7569 18.0739 36.8024 18.0528 36.8613 18.0291C36.8158 17.9975 36.7622 17.9817 36.7542 17.9528C36.7462 17.9238 36.789 17.8843 36.7997 17.8475C36.8211 17.758 36.8372 17.6658 36.8559 17.5658C36.9898 17.5921 37.1371 17.6474 37.2843 17.6448C37.4235 17.6421 37.5601 17.5737 37.6993 17.5342C37.777 17.5105 37.8573 17.4947 37.9296 17.4631C37.9911 17.4368 38.0474 17.3921 38.109 17.3605C38.2776 17.2736 38.4463 17.1762 38.6471 17.2052C38.714 17.2157 38.781 17.2236 38.8426 17.2499C38.9148 17.2815 38.9791 17.3315 39.046 17.371C39.0407 17.3815 39.0353 17.3894 39.03 17.4C39.1023 17.4184 39.1719 17.4342 39.2227 17.4473C39.2227 17.5289 39.2335 17.5869 39.2201 17.6395C39.204 17.6948 39.1638 17.7448 39.1317 17.7948C39.0353 17.9501 38.8024 17.958 38.7542 18.166C38.7515 18.1792 38.7488 18.1923 38.7355 18.2423C38.8318 18.1607 38.9068 18.1002 38.9791 18.037C38.9925 18.0554 39.0059 18.0712 39.0219 18.0897C38.88 18.2423 38.7355 18.395 38.5882 18.553C38.5882 18.5767 38.5882 18.6188 38.5936 18.6609C38.5936 18.6977 38.5936 18.7372 38.6043 18.7688C38.6096 18.782 38.6685 18.7925 38.6739 18.7846C38.6926 18.753 38.7167 18.7109 38.7114 18.6793C38.6819 18.5293 38.8077 18.4635 38.872 18.3634C38.8774 18.3529 38.9175 18.3661 38.9657 18.3713C38.9309 18.4266 38.8988 18.4635 38.88 18.5056C38.864 18.5398 38.8426 18.5951 38.8559 18.6161C38.9282 18.7135 38.9095 18.782 38.7729 18.8452C38.8426 18.8768 38.88 18.8925 38.9229 18.911C38.8907 18.9347 38.8586 18.9636 38.8185 18.9952C38.8372 19.0215 38.8533 19.0479 38.872 19.0821C38.8265 19.1058 38.7863 19.1216 38.7462 19.1426C38.8024 19.1847 38.8533 19.2242 38.9068 19.2637C38.8988 19.2769 38.8934 19.29 38.8854 19.3058C38.7515 19.2532 38.615 19.2005 38.4811 19.1479L38.4677 19.1742C38.5561 19.2374 38.6471 19.2979 38.7355 19.3611C38.7114 19.4085 38.6873 19.4585 38.6605 19.5085C38.6123 19.498 38.5588 19.4848 38.5079 19.4743C38.4784 19.5691 38.4865 19.6402 38.5695 19.6954C38.623 19.7323 38.6658 19.7902 38.7114 19.8402C38.7569 19.7876 38.7944 19.7139 38.8506 19.6823C38.9737 19.6138 39.0434 19.5191 39.0889 19.3848C39.121 19.29 39.1906 19.2058 39.0541 19.1163C39.0648 19.1084 39.0755 19.1005 39.0862 19.0926H39.3941C39.3325 19.2058 39.279 19.2927 39.2415 19.3874C39.2254 19.4296 39.2254 19.4954 39.2468 19.5349C39.3031 19.6402 39.3031 19.7902 39.4503 19.835C39.4557 19.835 39.453 19.935 39.4289 19.9587C39.3138 20.0666 39.196 20.1745 39.0675 20.2614C38.8104 20.4378 38.5373 20.572 38.2294 20.6352C38.042 20.6747 37.86 20.6826 37.6886 20.5694C37.5547 20.4799 37.3968 20.4141 37.2843 20.3035C37.1719 20.193 37.0674 20.0877 36.9175 20.0298C36.8907 20.0192 36.8774 19.9613 36.8479 19.906" fill="#F4E5D2"/>
<path d="M40.5587 23.1229C40.5909 23.1545 40.6203 23.186 40.6578 23.2255C40.6203 23.2466 40.5721 23.2729 40.5266 23.3019C40.5293 23.3124 40.5346 23.3256 40.5373 23.3361C40.6043 23.3335 40.6739 23.3308 40.7569 23.3256C40.7247 23.3624 40.7006 23.3887 40.6739 23.4177L40.706 23.4493C40.7863 23.3624 40.8666 23.2755 40.9577 23.1755H40.7006C40.7006 23.1755 40.698 23.1518 40.6953 23.1387C40.8318 23.1071 40.9684 23.0755 41.1049 23.0439C41.279 23.0018 41.4342 23.0992 41.5976 23.1281C41.6163 23.1308 41.6377 23.1729 41.6377 23.1992C41.6377 23.2808 41.5172 23.3624 41.4048 23.3466C41.4557 23.3098 41.4931 23.2861 41.528 23.2598C41.4476 23.1755 41.3245 23.2045 41.2093 23.3414C41.3138 23.4625 41.4182 23.5809 41.6002 23.5625C41.6458 23.5572 41.6939 23.5414 41.7368 23.523C41.8144 23.4888 41.8733 23.4703 41.9456 23.552C42.0099 23.6257 42.1063 23.6704 42.1893 23.7231C42.2348 23.752 42.2857 23.7757 42.3499 23.8099V23.673C42.4088 23.6257 42.4731 23.5783 42.548 23.5204C42.5721 23.5414 42.6043 23.573 42.6498 23.6204C42.4998 23.6678 42.4436 23.7336 42.5614 23.8573C42.5748 23.8705 42.548 23.931 42.5346 23.9679C42.5106 24.0284 42.457 24.0863 42.4543 24.1469C42.4463 24.3391 42.366 24.4365 42.1946 24.5075C42.117 24.5418 42.0527 24.647 42.0126 24.7339C41.9403 24.8866 41.9483 24.8919 41.8385 24.9735C41.8894 24.9656 41.9429 24.9603 42.0286 24.9471C41.951 25.0472 41.8894 25.1288 41.8091 25.2314C41.7743 25.134 41.7475 25.0603 41.7207 24.984H41.6832C41.6672 25.0419 41.6511 25.0998 41.635 25.1551C41.6458 25.1472 41.6591 25.1367 41.6725 25.1288C41.6966 25.1683 41.7475 25.2209 41.7368 25.2446C41.71 25.3052 41.6538 25.3525 41.6109 25.4052L41.5735 25.3894V25.0472C41.5735 25.0472 41.5574 25.0472 41.5494 25.0445C41.5226 25.0867 41.4931 25.1314 41.4664 25.1735L41.5039 25.1788C41.5039 25.2236 41.5199 25.2788 41.5039 25.3104C41.4423 25.4184 41.3566 25.3789 41.2656 25.3262C41.3271 25.1893 41.5039 25.0656 41.295 24.8708C41.3325 25.0445 41.3486 25.1946 41.212 25.2551C41.0996 25.2314 41.0005 25.1788 40.9175 25.1972C40.8077 25.2236 40.789 25.1551 40.7221 25.0946C40.5775 25.1814 40.4222 25.1183 40.2589 25.0709C39.967 24.9814 39.7636 24.805 39.6484 24.5128C39.5708 24.3127 39.4583 24.1232 39.4048 23.9152C39.3164 23.5677 39.2441 23.2045 39.461 22.8728C39.6136 22.6411 39.7796 22.42 39.9322 22.1884C40.0099 22.0699 40.117 22.0883 40.2026 22.1331C40.2856 22.1778 40.3338 22.1383 40.3954 22.1067C40.4704 22.0673 40.5346 22.0014 40.6123 21.9857C40.7649 21.9541 40.8907 21.9146 40.8693 21.7198C40.9603 21.7014 41.0192 21.9067 41.0915 21.7593C41.1344 21.6724 41.3084 21.7645 41.2388 21.6013C41.5636 21.6399 41.7216 21.7479 41.7127 21.9251C41.7341 21.8804 41.7555 21.8382 41.7743 21.7935C41.785 21.7935 41.7957 21.7935 41.8064 21.7935C41.8064 21.8567 41.8332 21.9462 41.801 21.9778C41.7421 22.0383 41.6699 22.0067 41.6029 21.9462C41.4771 21.833 41.1665 21.8409 41.0326 21.9462C40.9925 21.9778 40.9362 21.983 40.8961 22.012C40.8292 22.0567 40.7649 22.1067 40.7087 22.1647C40.7033 22.1699 40.7301 22.2331 40.7542 22.2489C40.7783 22.2647 40.8184 22.2515 40.8613 22.2515C40.8425 22.3331 40.8265 22.3989 40.8104 22.4674C40.8238 22.4727 40.8372 22.4779 40.8533 22.4858C40.8988 22.3832 40.9791 22.2805 40.9764 22.1778C40.9737 22.0567 41.0059 22.0488 41.0996 22.062C41.1183 22.062 41.1451 22.0357 41.1719 22.0172C41.2682 22.1146 41.4316 22.1673 41.4316 22.3331C41.4316 22.47 41.5788 22.6174 41.4021 22.7438C41.4476 22.7622 41.4771 22.778 41.5039 22.7885C41.5146 22.8728 41.4075 22.8807 41.3164 22.807C41.3031 22.7964 41.2897 22.7833 41.295 22.7885C41.1772 22.807 41.0782 22.8175 40.9791 22.8359C40.947 22.8412 40.9229 22.8754 40.8934 22.8965C40.9229 22.907 40.9523 22.9333 40.9791 22.9281C41.0326 22.9202 41.0835 22.8991 41.1612 22.8965C41.1317 22.9254 41.1076 22.9702 41.0728 22.9807C40.9041 23.0334 40.7301 23.0755 40.5614 23.1202C40.5962 23.0439 40.6337 22.9676 40.6792 22.8649C40.7836 22.8359 40.9255 22.7991 41.0674 22.7596C41.0648 22.7464 41.0621 22.7359 41.0594 22.7227C40.9978 22.7306 40.9362 22.7464 40.872 22.7464C40.8372 22.7464 40.7917 22.7333 40.7703 22.7069C40.7569 22.6938 40.7702 22.6385 40.789 22.6148C40.8586 22.5148 40.7595 22.4674 40.7274 22.4042C40.7087 22.3647 40.6578 22.3437 40.623 22.3121C40.615 22.3226 40.6069 22.3358 40.5989 22.3463C40.6283 22.3753 40.6605 22.4042 40.6953 22.4358C40.5962 22.5306 40.5534 22.6411 40.5427 22.7701C40.5427 22.7938 40.5293 22.8386 40.5239 22.8386C40.4945 22.8386 40.465 22.8254 40.4436 22.8201C40.4222 22.8859 40.3981 22.9518 40.3713 23.0307C40.4195 22.9939 40.4543 22.9676 40.4811 22.9465C40.5132 23.007 40.5373 23.0623 40.5641 23.115" fill="#F4E5D2"/>
</g>
<path d="M56.1999 37.4092H19.8999V37.5355H56.1999V37.4092Z" fill="#F4E5D2"/>
<mask id="mask1_184_3799" style="mask-type:luminance" maskUnits="userSpaceOnUse" x="19" y="17" width="38" height="25">
<path d="M56.1972 17.2H19.8999V41.3999H56.1972V17.2Z" fill="white"/>
</mask>
<g mask="url(#mask1_184_3799)">
<path d="M42.7137 34.8136C42.7137 34.3371 42.7137 33.8606 42.7137 33.3841C42.7137 33.2367 42.7111 33.0893 42.6923 32.9472C42.6682 32.7471 42.6013 32.6945 42.4032 32.6813C42.363 32.6813 42.3255 32.6629 42.2854 32.6523C42.288 32.6365 42.2934 32.6207 42.2961 32.6049H43.3081C43.3081 32.6049 43.3162 32.6286 43.3188 32.6418C43.2894 32.655 43.2599 32.6813 43.2278 32.6839C42.9734 32.7076 42.9065 32.7813 42.9065 33.0525C42.9065 33.8712 42.9065 34.6872 42.9065 35.5059V35.7007C42.8423 35.6586 42.7941 35.6375 42.7619 35.6007C42.1622 34.8531 41.5651 34.1028 40.9654 33.3552C40.9467 33.3315 40.9252 33.3104 40.8904 33.2736C40.8878 33.3157 40.8824 33.3368 40.8824 33.3578C40.8824 33.9791 40.8824 34.5977 40.8824 35.219C40.8824 35.3427 40.9011 35.4638 41.035 35.5085C41.0939 35.5296 41.1582 35.5243 41.2198 35.5401C41.2492 35.548 41.2733 35.5796 41.3001 35.598C41.2947 35.6086 41.2894 35.6191 41.2813 35.6296H40.2773L40.2586 35.5954C40.288 35.577 40.3148 35.5454 40.3469 35.5427C40.6334 35.5033 40.6736 35.4638 40.6762 35.1716C40.6762 34.474 40.6762 33.7764 40.6762 33.0762C40.6762 32.9261 40.5665 32.8577 40.4701 32.7945C40.3817 32.7392 40.2693 32.726 40.1702 32.6892C40.1461 32.6813 40.1301 32.655 40.1086 32.6392C40.1301 32.626 40.1488 32.6023 40.1702 32.6023C40.3978 32.6023 40.6281 32.5971 40.8556 32.6023C40.8985 32.6023 40.9467 32.6523 40.9788 32.6918C41.5116 33.3578 42.0444 34.0265 42.5745 34.6925C42.612 34.7372 42.6468 34.7846 42.6843 34.8294L42.7137 34.8162V34.8136Z" fill="#F4E5D2"/>
<path d="M29.5036 34.2977C29.2626 34.6188 29.0244 34.9242 28.7995 35.2374C28.695 35.3822 28.7566 35.498 28.9333 35.5296C28.9708 35.5349 29.0056 35.5665 29.0404 35.5875C29.0351 35.6007 29.027 35.6139 29.0217 35.6297H27.9641C28.0016 35.5849 28.0177 35.5402 28.0444 35.5323C28.2988 35.4744 28.4862 35.3164 28.6442 35.1163C28.8985 34.7952 29.1448 34.4714 29.4153 34.1239C29.1234 33.7185 28.8423 33.3 28.529 32.9077C28.4407 32.7972 28.2613 32.7603 28.1248 32.6892C28.0953 32.6734 28.0659 32.6576 28.0391 32.6419L28.0525 32.6076H29.4045C29.4045 32.6076 29.4153 32.6313 29.4206 32.6419C29.3912 32.6576 29.3671 32.684 29.3349 32.6892C29.0993 32.7393 29.0511 32.834 29.1796 33.0394C29.3323 33.2868 29.4956 33.5264 29.6643 33.787C29.8758 33.5079 30.0819 33.2473 30.272 32.9788C30.363 32.8498 30.3015 32.7235 30.1489 32.6945C30.1274 32.6919 30.1033 32.6945 30.0819 32.6892C30.0578 32.6813 30.0337 32.6629 30.0096 32.6498C30.0337 32.6313 30.0605 32.6024 30.0846 32.6024C30.2801 32.5997 30.4782 32.6024 30.6763 32.6024H31.0726C31.0404 32.6471 31.027 32.6892 31.0083 32.6892C30.7352 32.7235 30.5665 32.9156 30.4112 33.1183C30.2185 33.3658 30.0284 33.6159 29.8436 33.8686C29.8169 33.9028 29.7981 33.9791 29.8169 34.0081C30.106 34.4503 30.4032 34.8847 30.7004 35.3217C30.7834 35.4428 30.9039 35.5112 31.0485 35.5349C31.0752 35.5402 31.0967 35.5691 31.1234 35.5875C31.0967 35.606 31.0699 35.6349 31.0458 35.6349C30.6522 35.6376 30.2586 35.6349 29.8624 35.6349C29.8543 35.6218 29.849 35.6086 29.841 35.5928C29.8731 35.5718 29.9025 35.5349 29.9373 35.5323C30.1408 35.5007 30.1997 35.3875 30.0873 35.2058C29.8999 34.9084 29.7071 34.6162 29.5036 34.3003" fill="#F4E5D2"/>
<path d="M36.8664 32.6075H39.1395C39.1502 32.8208 39.1609 33.0314 39.1743 33.292C39.1208 33.2446 39.0833 33.2262 39.0699 33.1972C39.0485 33.1525 39.0431 33.1024 39.0297 33.0524C38.9842 32.8945 38.8878 32.7892 38.7272 32.7865C38.3925 32.7787 38.0579 32.7865 37.7152 32.7865V33.958H38.0418C38.173 33.958 38.3015 33.9606 38.4327 33.958C38.671 33.9501 38.7567 33.8711 38.8048 33.6289C38.8129 33.5894 38.8343 33.5526 38.8504 33.5157C38.8611 33.5184 38.8745 33.5236 38.8852 33.5263V34.5792C38.8852 34.5792 38.8664 34.5898 38.8557 34.595C38.837 34.5608 38.8102 34.5292 38.8022 34.4924C38.7379 34.1975 38.6844 34.1449 38.3872 34.1317C38.165 34.1212 37.9427 34.1317 37.7098 34.1317C37.7098 34.5345 37.7071 34.9241 37.7152 35.3137C37.7152 35.3611 37.7955 35.4427 37.841 35.4427C38.1435 35.4506 38.4514 35.4611 38.754 35.4321C38.9923 35.4085 39.1127 35.1952 39.2306 35.0031C39.2654 34.9451 39.2734 34.8399 39.3939 34.8767C39.3162 35.1084 39.2413 35.3374 39.1583 35.5638C39.1476 35.598 39.0913 35.6348 39.0538 35.6348C38.3524 35.6401 37.6536 35.6375 36.9548 35.6348C36.9226 35.6348 36.8932 35.6059 36.8611 35.5901C36.8905 35.5717 36.92 35.5453 36.9521 35.5401C37.2279 35.5085 37.2814 35.4479 37.2814 35.1663V33.0577C37.2814 32.7708 37.2252 32.7102 36.9521 32.6891C36.92 32.6891 36.8878 32.6655 36.8557 32.6497C36.8584 32.6365 36.8637 32.626 36.8664 32.6128" fill="#F4E5D2"/>
<path d="M49.5627 32.6049C49.576 32.805 49.5894 32.9919 49.5975 33.1788C49.5975 33.2051 49.5707 33.234 49.5546 33.2604C49.5359 33.2367 49.5091 33.2156 49.4957 33.1893C49.477 33.1498 49.4689 33.1024 49.4556 33.0577C49.41 32.8918 49.3056 32.7865 49.1316 32.7813C48.8371 32.7707 48.5399 32.7707 48.2454 32.7655C48.2106 32.7655 48.1758 32.7707 48.1356 32.7734C48.1329 32.8076 48.1276 32.8339 48.1276 32.8602C48.1276 33.2183 48.1276 33.5763 48.1276 33.929C48.4274 33.929 48.7166 33.9448 49.0031 33.9237C49.1691 33.9132 49.2012 33.75 49.2333 33.6052C49.2414 33.5736 49.2681 33.5447 49.2869 33.5157C49.3029 33.5473 49.3324 33.5789 49.3324 33.6105C49.3351 33.9001 49.3351 34.1896 49.3324 34.4792C49.3324 34.5134 49.3056 34.545 49.2896 34.5792C49.2681 34.5503 49.236 34.5239 49.2307 34.4924C49.1664 34.1896 49.1155 34.137 48.8103 34.1238C48.5908 34.1133 48.3712 34.1238 48.1436 34.1238C48.141 34.1633 48.1329 34.2002 48.1329 34.2344C48.1329 34.5555 48.1329 34.8793 48.1329 35.2005C48.1329 35.4032 48.1811 35.4506 48.3792 35.4532C48.5774 35.4532 48.7728 35.4506 48.9709 35.4532C49.2467 35.4611 49.4529 35.3453 49.5921 35.1004C49.6296 35.0373 49.6644 34.9715 49.7072 34.9162C49.7286 34.8872 49.7688 34.8741 49.8197 34.8793C49.742 35.1057 49.6671 35.3347 49.5867 35.5611C49.576 35.5927 49.5252 35.6296 49.493 35.6296C48.7675 35.6322 48.0392 35.6322 47.3136 35.6322C47.3056 35.6217 47.2976 35.6085 47.2896 35.598C47.3136 35.5769 47.3351 35.5453 47.3645 35.5374C47.4234 35.519 47.4877 35.519 47.5466 35.5032C47.6456 35.4769 47.6912 35.4032 47.6965 35.3005C47.7045 35.1268 47.7153 34.953 47.7153 34.7793C47.7153 34.2923 47.7153 33.8053 47.7153 33.3183C47.7153 33.1814 47.7045 33.0445 47.6938 32.9076C47.6858 32.7655 47.5921 32.7128 47.4716 32.6918C47.4315 32.6839 47.3913 32.6918 47.3511 32.6839C47.3297 32.6812 47.311 32.6602 47.2922 32.647C47.3136 32.6312 47.3324 32.6128 47.3565 32.5996C47.3672 32.5944 47.3833 32.5996 47.3966 32.5996C48.0928 32.5996 48.7862 32.5996 49.4823 32.5996C49.5037 32.5996 49.5252 32.6049 49.56 32.6075" fill="#F4E5D2"/>
<path d="M35.6694 32.5154C35.6694 32.8629 35.6694 33.184 35.6694 33.5052C35.6694 33.5262 35.648 33.5473 35.6373 33.5684C35.6185 33.5499 35.5891 33.5341 35.5837 33.5104C35.5543 33.4183 35.5382 33.3235 35.5088 33.234C35.3829 32.8892 35.0349 32.6707 34.6922 32.7181C34.4244 32.7549 34.2424 32.9708 34.2638 33.2235C34.2772 33.3841 34.3816 33.4815 34.4967 33.5578C34.727 33.7079 34.9652 33.8448 35.1982 33.9869C35.2972 34.0475 35.399 34.108 35.4954 34.1738C35.7551 34.3607 35.9077 34.6134 35.8622 34.9451C35.8113 35.3268 35.5757 35.5611 35.2223 35.6585C34.9519 35.7322 34.6814 35.6954 34.4191 35.598C34.3548 35.5743 34.2905 35.5611 34.2263 35.5374C34.1299 35.5032 34.0603 35.5243 34.0228 35.6296C34.0148 35.6532 33.9853 35.6664 33.9666 35.6848C33.9532 35.6611 33.9264 35.6375 33.9264 35.6138C33.9237 35.3163 33.9237 35.0162 33.9264 34.7187C33.9264 34.695 33.9559 34.6713 33.9693 34.6477C33.9853 34.6687 34.0094 34.6871 34.0175 34.7135C34.0389 34.7819 34.0523 34.8556 34.0737 34.9241C34.2075 35.3689 34.6761 35.619 35.1098 35.4795C35.2999 35.419 35.4284 35.2952 35.4632 35.0873C35.4954 34.8898 35.4124 34.7293 35.2624 34.6213C35.075 34.4844 34.8662 34.3765 34.6681 34.2475C34.494 34.1343 34.3146 34.029 34.1594 33.8948C33.9237 33.6921 33.8354 33.4236 33.9237 33.1156C34.0148 32.8049 34.2343 32.6207 34.5422 32.5496C34.7912 32.4917 35.0295 32.5417 35.2624 32.6417C35.4525 32.726 35.4552 32.7233 35.5837 32.5522C35.5944 32.5391 35.6212 32.5338 35.6667 32.5154" fill="#F4E5D2"/>
<path d="M23.0108 34.6372C23.0295 34.6793 23.0536 34.7188 23.0643 34.7635C23.1661 35.2321 23.3803 35.4453 23.8381 35.5111C24.0202 35.5375 24.1969 35.5006 24.3388 35.369C24.5422 35.1821 24.561 34.9004 24.3709 34.7004C24.2852 34.6109 24.1781 34.5371 24.0737 34.4687C23.8167 34.3029 23.5489 34.1554 23.2946 33.9817C22.9706 33.7579 22.8582 33.4263 22.9626 33.0893C23.0616 32.7681 23.3936 32.5181 23.7471 32.5365C23.9345 32.5444 24.1219 32.5997 24.304 32.6576C24.478 32.7129 24.4887 32.7208 24.6038 32.5628C24.6145 32.547 24.644 32.5312 24.6574 32.5339C24.6761 32.5418 24.7002 32.5681 24.7002 32.5865C24.7002 32.9103 24.7002 33.2367 24.7002 33.5605C24.6841 33.5658 24.6708 33.5737 24.6547 33.5789C24.636 33.5447 24.6065 33.5105 24.5985 33.4736C24.5396 33.1604 24.4084 32.8998 24.1005 32.7734C23.8863 32.6865 23.6748 32.6707 23.474 32.8129C23.2223 32.9919 23.2009 33.3157 23.4499 33.4947C23.7123 33.6842 23.9961 33.8395 24.2718 34.0133C24.3548 34.0659 24.4405 34.116 24.5208 34.1739C24.7993 34.3713 24.9439 34.6451 24.8796 34.9873C24.8127 35.3506 24.5771 35.5717 24.229 35.6586C23.9934 35.7165 23.7578 35.698 23.5275 35.6217C23.4606 35.598 23.391 35.5743 23.324 35.5533C23.2036 35.5138 23.0831 35.4769 23.0402 35.6586C23.0402 35.6691 23.0215 35.6796 23.0108 35.6823C23.0001 35.6849 22.984 35.6823 22.9626 35.6823V34.6556C22.9787 34.6503 22.992 34.6451 23.0081 34.6372" fill="#F4E5D2"/>
<path d="M46.0499 33.5816C46.0311 33.5447 46.007 33.5079 45.999 33.4684C45.9401 33.1657 45.8169 32.9129 45.5197 32.784C45.3082 32.6918 45.0967 32.6681 44.8905 32.8024C44.6228 32.9788 44.596 33.3131 44.8584 33.5026C45.1181 33.6895 45.3992 33.8448 45.6697 34.0133C45.7527 34.066 45.8383 34.116 45.9213 34.1739C46.1971 34.3713 46.347 34.6398 46.2828 34.9873C46.2158 35.3558 45.9776 35.5796 45.6241 35.6638C45.3939 35.7191 45.161 35.7033 44.9334 35.627C44.8745 35.6059 44.8156 35.5875 44.754 35.5691C44.6228 35.5243 44.4889 35.4638 44.4354 35.6717C44.4327 35.6823 44.3979 35.6849 44.3658 35.6928V34.6583C44.3658 34.6583 44.3899 34.6451 44.4006 34.6398C44.422 34.6819 44.4541 34.7214 44.4622 34.7662C44.5666 35.2348 44.7674 35.4454 45.2252 35.5059C45.3511 35.5243 45.4983 35.498 45.6161 35.448C45.9294 35.3111 46.0017 34.9373 45.758 34.6898C45.6456 34.574 45.501 34.4924 45.3644 34.4055C45.1422 34.2608 44.9066 34.1344 44.6897 33.9817C44.3658 33.7527 44.2533 33.421 44.3631 33.0841C44.4675 32.7603 44.7942 32.5207 45.1529 32.5339C45.327 32.5418 45.5063 32.5865 45.6723 32.6418C45.8758 32.7076 45.8705 32.7208 46.007 32.5576C46.0177 32.5444 46.0579 32.5286 46.0606 32.5339C46.0793 32.5549 46.098 32.5813 46.098 32.6076C46.1007 32.7682 46.098 32.9287 46.098 33.0893C46.098 33.2446 46.098 33.3999 46.098 33.5553C46.0793 33.5632 46.0632 33.5711 46.0445 33.579" fill="#F4E5D2"/>
<path d="M52.5959 33.5816C52.5745 33.5474 52.5424 33.5132 52.5344 33.4763C52.4862 33.2368 52.4112 33.0157 52.2024 32.8709C52.0096 32.7366 51.8007 32.6708 51.5678 32.7393C51.3858 32.7919 51.2599 32.9156 51.2224 33.1052C51.1876 33.2868 51.2733 33.4316 51.4179 33.5264C51.7285 33.7264 52.0471 33.9133 52.3603 34.1081C52.6281 34.2713 52.8182 34.4951 52.8315 34.8294C52.8503 35.2796 52.4621 35.6692 52.0069 35.6929C51.7499 35.706 51.5089 35.6481 51.2706 35.5639C51.1501 35.5218 51.0216 35.477 50.9734 35.6692C50.9708 35.6823 50.9306 35.6876 50.8904 35.7008C50.8904 35.3849 50.8904 35.0821 50.8904 34.7794C50.8904 34.7399 50.8931 34.6978 50.8958 34.6583C50.9119 34.653 50.9252 34.6478 50.9413 34.6425C50.9627 34.6899 50.9922 34.7373 51.0002 34.7847C51.0591 35.0742 51.1876 35.3085 51.4661 35.4323C51.6508 35.5165 51.8436 35.5481 52.0417 35.4954C52.2265 35.448 52.3684 35.3375 52.4192 35.1427C52.4728 34.9505 52.4058 34.782 52.2666 34.6609C52.1488 34.5583 52.0096 34.4793 51.8757 34.3951C51.6562 34.2556 51.4232 34.1318 51.2144 33.9791C50.9038 33.7554 50.7914 33.4132 50.9011 33.0867C51.0082 32.763 51.3349 32.5208 51.691 32.5392C51.8837 32.5497 52.0738 32.6129 52.2613 32.6656C52.3817 32.6971 52.4888 32.7445 52.5424 32.5734C52.5477 32.555 52.5799 32.5471 52.6013 32.5339C52.6147 32.5576 52.6414 32.5813 52.6414 32.605C52.6414 32.9209 52.6414 33.2368 52.6414 33.5553L52.5933 33.5843L52.5959 33.5816Z" fill="#F4E5D2"/>
<path d="M27.1663 35.6323C26.7674 35.6323 26.3685 35.6323 25.9695 35.6323C25.9481 35.6323 25.9294 35.6007 25.908 35.5823C25.9267 35.5665 25.9428 35.5454 25.9615 35.5375C25.9909 35.527 26.0231 35.5323 26.0552 35.5296C26.2346 35.5165 26.3149 35.4375 26.3203 35.2532C26.3283 35.0426 26.3229 34.8294 26.3229 34.6188V33.0472C26.3229 32.7787 26.2533 32.705 25.9963 32.684C25.9642 32.6813 25.9347 32.6524 25.9053 32.6366C25.9347 32.6234 25.9642 32.5997 25.9936 32.5997C26.3578 32.5997 26.7192 32.5997 27.0833 32.5997C27.1128 32.5997 27.1422 32.6234 27.169 32.6366C27.1395 32.6524 27.1101 32.6813 27.0806 32.684C26.8343 32.705 26.7567 32.7656 26.754 33.0236C26.7433 33.7554 26.746 34.4846 26.754 35.2164C26.754 35.4586 26.829 35.5165 27.0646 35.5402C27.1047 35.5428 27.1422 35.5718 27.1797 35.5875C27.1744 35.6033 27.169 35.6191 27.161 35.6349" fill="#F4E5D2"/>
<path d="M42.8559 40.3365L42.9041 40.3628C42.9791 40.2759 43.0728 40.2022 43.1156 40.1022C43.1424 40.0417 43.1076 39.9311 43.0647 39.8732C43.038 39.8363 42.9094 39.8284 42.88 39.86C42.8264 39.9153 42.7863 40.0101 42.7836 40.0917C42.7836 40.1733 42.8291 40.2549 42.8559 40.3365ZM43.0273 41.0788C42.9175 40.9025 42.8077 40.7314 42.6953 40.5471C42.5641 40.6392 42.4436 40.7366 42.4436 40.9209C42.4436 41.0499 42.4971 41.1525 42.6176 41.2052C42.7863 41.2789 42.9068 41.1815 43.0273 41.0788ZM42.631 40.4365C42.6149 40.3154 42.5855 40.1838 42.5855 40.0548C42.5855 39.9048 42.6845 39.8126 42.8157 39.7652C42.9469 39.7179 43.0835 39.7152 43.1959 39.8205C43.3111 39.9258 43.3111 40.1154 43.1852 40.2365C43.1103 40.3128 43.0165 40.3681 42.9121 40.4444C43.0005 40.5866 43.0915 40.734 43.1852 40.8814C43.3994 40.7235 43.4422 40.5155 43.295 40.3339H43.7555C43.4878 40.4497 43.461 40.7577 43.2843 40.9419C43.2736 40.9525 43.2762 40.9946 43.287 41.0025C43.3833 41.063 43.4744 41.1499 43.5788 41.1683C43.6511 41.1815 43.7394 41.0999 43.8278 41.0551C43.8385 41.1446 43.7769 41.2341 43.6939 41.3026C43.544 41.4263 43.3619 41.3789 43.0888 41.1525C42.9389 41.2842 42.7729 41.3816 42.5614 41.3684C42.2669 41.35 42.0982 41.0841 42.2535 40.8288C42.3472 40.6761 42.4998 40.5629 42.6256 40.4339" fill="#F4E5D2"/>
<path d="M33.2759 39.8888V40.5206C33.458 40.5338 33.6186 40.5101 33.715 40.339C33.7819 40.2205 33.7685 40.0994 33.6936 39.9915C33.5892 39.8441 33.4392 39.8467 33.2786 39.8888M32.8074 41.3261C32.9555 41.2682 33.0296 41.1585 33.0296 40.9971V40.102C33.0296 39.9423 32.9662 39.8388 32.8395 39.7914C33.1179 39.7914 33.4017 39.7783 33.6829 39.7967C33.8649 39.8072 33.9961 39.9652 34.0095 40.1284C34.0283 40.3153 33.9372 40.4627 33.7605 40.539C33.7284 40.5522 33.6936 40.5654 33.64 40.5864C33.8703 40.8391 33.964 41.2103 34.3362 41.3393C34.2076 41.3393 34.0764 41.3419 33.9479 41.3367C33.9238 41.3367 33.8971 41.2919 33.8756 41.2656C33.7391 41.0734 33.6079 40.876 33.4633 40.6891C33.4258 40.6391 33.3509 40.618 33.2625 40.568C33.2625 40.797 33.2625 40.976 33.2625 41.1524C33.2625 41.2945 33.383 41.2814 33.4714 41.3261H32.8047H32.8074Z" fill="#F4E5D2"/>
<path d="M20.9172 40.5102C21.1233 40.5444 21.284 40.4891 21.3589 40.3575C21.4232 40.2495 21.4125 40.0811 21.3402 39.9837C21.2545 39.8678 21.1153 39.8389 20.9172 39.9021V40.5102ZM21.118 41.3288H20.4915C20.4915 41.3288 20.4915 41.3051 20.4941 41.3051C20.6762 41.2578 20.6949 41.2367 20.6976 41.034C20.6976 40.7129 20.6976 40.3917 20.6976 40.0705C20.6976 39.8678 20.6789 39.8494 20.4941 39.7731C20.5798 39.7731 20.6628 39.7731 20.7485 39.7731C20.9359 39.7757 21.126 39.7678 21.3107 39.7915C21.5222 39.8178 21.6454 39.9494 21.6642 40.1258C21.6856 40.3259 21.5972 40.4601 21.3803 40.5496C21.3589 40.5575 21.3402 40.5681 21.2973 40.5891C21.5276 40.8366 21.616 41.2077 21.9801 41.3394C21.8569 41.3394 21.7364 41.3446 21.6133 41.3341C21.5785 41.3341 21.5437 41.2841 21.5169 41.2472C21.3857 41.063 21.2518 40.8787 21.126 40.6918C21.0724 40.6128 21.0135 40.5786 20.9145 40.6181C20.9145 40.7866 20.9145 40.9603 20.9145 41.1314C20.9145 41.2683 21.0189 41.2867 21.118 41.3262" fill="#F4E5D2"/>
<path d="M30.8477 40.5759C30.8022 40.4022 30.7727 40.2258 30.7112 40.0626C30.6496 39.8967 30.5077 39.8283 30.339 39.823C30.165 39.8178 30.0311 39.8915 29.9561 40.0494C29.7955 40.3811 29.8062 40.7207 29.9588 41.0524C30.0311 41.2051 30.165 41.2867 30.3283 41.2867C30.4996 41.2867 30.6496 41.2103 30.7192 41.0445C30.7781 40.9023 30.8049 40.7417 30.8504 40.5785M30.331 41.3683C29.8919 41.3683 29.5813 41.0287 29.5813 40.5443C29.5813 40.0863 29.9079 39.7362 30.3363 39.7335C30.7513 39.7335 31.0806 40.0889 31.0833 40.539C31.0833 41.005 30.7567 41.3683 30.331 41.3683Z" fill="#F4E5D2"/>
<path d="M23.6162 41.313C23.6617 41.3025 23.6831 41.292 23.7045 41.2893C23.8009 41.2788 23.8491 41.2288 23.8464 41.1261C23.8464 40.7444 23.8438 40.3653 23.8464 39.9836C23.8464 39.8362 23.7554 39.8152 23.6483 39.7836H24.8076C24.813 39.8915 24.8183 40.0021 24.8264 40.1284C24.8023 40.11 24.7862 40.1047 24.7809 40.0968C24.6818 39.8546 24.6764 39.852 24.4141 39.852C24.3096 39.852 24.2079 39.852 24.1062 39.8546C24.0981 39.8546 24.0901 39.8625 24.074 39.8704V40.4601C24.2213 40.4601 24.3632 40.4785 24.4944 40.4522C24.5613 40.439 24.6122 40.3443 24.6657 40.2916V40.7734C24.572 40.4022 24.2829 40.6286 24.066 40.5443C24.066 40.7628 24.0606 40.955 24.0714 41.1445C24.0714 41.1761 24.1383 41.2288 24.1758 41.2314C24.3043 41.2419 24.4408 41.2551 24.564 41.2288C24.6497 41.2104 24.73 41.1366 24.8023 41.0735C24.8424 41.0392 24.8639 40.9787 24.8933 40.9313C24.9067 40.9366 24.9201 40.9418 24.9335 40.9497C24.8933 41.0708 24.8531 41.1919 24.8076 41.3104C24.8023 41.3262 24.7648 41.3367 24.7407 41.3367C24.3819 41.3367 24.0232 41.3367 23.6644 41.3367C23.6537 41.3367 23.643 41.3262 23.6108 41.313" fill="#F4E5D2"/>
<path d="M27.6587 39.6993V40.26C27.6587 40.26 27.6426 40.2653 27.6346 40.2679C27.6185 40.2153 27.6051 40.1627 27.5864 40.1126C27.5141 39.9099 27.3026 39.7915 27.1179 39.8494C26.9251 39.9099 26.8715 40.11 27.0295 40.2364C27.1446 40.3311 27.2785 40.3969 27.4043 40.4759C27.4606 40.5128 27.5221 40.5444 27.5757 40.5838C27.7417 40.7049 27.806 40.8681 27.7578 41.0471C27.7069 41.2288 27.5436 41.3657 27.3508 41.3683C27.241 41.3683 27.1286 41.3472 27.0215 41.3209C26.9304 41.2972 26.8448 41.2604 26.7698 41.4025V40.8418L26.7939 40.8313C26.8046 40.8602 26.8234 40.8892 26.8314 40.9182C26.8983 41.1735 27.0402 41.2788 27.2999 41.2735C27.4284 41.2709 27.5195 41.213 27.557 41.0919C27.5944 40.9682 27.5382 40.8655 27.4338 40.7997C27.2812 40.7023 27.1259 40.6128 26.9733 40.5154C26.8635 40.447 26.7778 40.3548 26.7591 40.2153C26.727 39.9863 26.8715 39.7783 27.0964 39.752C27.2035 39.7388 27.3187 39.7573 27.4258 39.7836C27.5114 39.8046 27.5891 39.8652 27.6641 39.6993" fill="#F4E5D2"/>
<path d="M48.9306 40.5338C49.0698 40.5549 49.1956 40.5812 49.3 40.4759C49.3991 40.3758 49.4232 40.1837 49.3536 40.0389C49.2893 39.9099 49.1769 39.8494 49.0162 39.8783C48.9841 39.8836 48.9359 39.9362 48.9359 39.9678C48.9279 40.1521 48.9332 40.3337 48.9332 40.5312M48.5075 39.7757C48.7432 39.7757 48.9814 39.7625 49.2171 39.7783C49.549 39.7993 49.7338 40.0731 49.6294 40.3653C49.5678 40.5417 49.4312 40.6207 49.2572 40.6338C49.1555 40.6417 49.0511 40.6338 48.9359 40.6338C48.9359 40.8049 48.9199 40.9945 48.944 41.1761C48.952 41.2367 49.0591 41.2814 49.1126 41.3262H48.4995C48.4995 41.3262 48.4995 41.3025 48.5049 41.2998C48.6976 41.2577 48.711 41.2419 48.711 41.0366C48.711 40.7207 48.711 40.4048 48.711 40.0863C48.711 39.8573 48.7057 39.852 48.5049 39.773" fill="#F4E5D2"/>
<path d="M46.6067 39.7915V40.2627H46.5853C46.5666 40.2022 46.5505 40.139 46.5237 40.0784C46.4434 39.8915 46.2212 39.7862 46.0472 39.8521C45.8705 39.9179 45.8303 40.1048 45.9722 40.2285C46.0659 40.3101 46.181 40.3706 46.2855 40.4365C46.3658 40.4865 46.4515 40.5312 46.5264 40.5839C46.6897 40.6997 46.754 40.8761 46.7058 41.0498C46.6549 41.2236 46.4916 41.3631 46.3069 41.3631C46.1891 41.3631 46.0686 41.3262 45.9508 41.3157C45.8785 41.3078 45.8062 41.3157 45.7205 41.3183V40.834C45.7205 40.834 45.7393 40.8287 45.75 40.8261C45.7607 40.8603 45.7741 40.8945 45.7821 40.9287C45.849 41.1867 46.0847 41.3367 46.3283 41.2525C46.4006 41.2262 46.4756 41.1419 46.5023 41.0682C46.5398 40.9603 46.4809 40.8603 46.3872 40.7997C46.2319 40.6997 46.0713 40.6076 45.916 40.5075C45.7982 40.4312 45.7098 40.3312 45.6991 40.1785C45.6804 39.8678 45.9669 39.6651 46.2988 39.752C46.3337 39.7625 46.3658 39.7836 46.4006 39.7862C46.4622 39.7915 46.5264 39.7862 46.6041 39.7862" fill="#F4E5D2"/>
<path d="M39.8704 39.7073V40.2627H39.8463C39.8276 40.2101 39.8088 40.1522 39.7874 40.0942C39.7097 39.8942 39.4875 39.7757 39.3108 39.8547C39.2439 39.8863 39.1689 39.9679 39.1555 40.0363C39.1448 40.0995 39.193 40.1995 39.2466 40.2443C39.3483 40.3312 39.4715 40.3917 39.5866 40.4628C39.6482 40.4996 39.7098 40.5365 39.7713 40.576C39.9454 40.6971 40.015 40.8708 39.9641 41.0472C39.9132 41.2262 39.7338 41.3683 39.5384 41.3657C39.4233 41.3631 39.3108 41.3341 39.1957 41.3104C39.118 41.2946 39.0377 41.2446 38.9842 41.3578V40.8366L39.0083 40.8287C39.0217 40.8761 39.0377 40.9235 39.0511 40.9735C39.1234 41.2315 39.3804 41.3183 39.6 41.2499C39.6669 41.2288 39.7472 41.1367 39.7526 41.0682C39.7606 40.9866 39.7178 40.8734 39.6562 40.8208C39.5518 40.726 39.4126 40.6681 39.2921 40.5891C39.2064 40.5312 39.1127 40.4786 39.0458 40.3996C38.845 40.1601 38.9815 39.7889 39.2894 39.7494C39.4045 39.7336 39.5304 39.7547 39.6428 39.7889C39.7312 39.8152 39.7954 39.8284 39.8624 39.7073" fill="#F4E5D2"/>
<path d="M54.5906 41.3157V40.8444C54.5906 40.8444 54.6067 40.8418 54.6147 40.8392C54.6335 40.8971 54.6469 40.955 54.6683 41.0103C54.762 41.2577 55.019 41.3157 55.2145 41.2498C55.4019 41.1867 55.4313 40.9497 55.268 40.8181C55.1743 40.7418 55.0619 40.6891 54.9601 40.626C54.8718 40.5707 54.7834 40.518 54.7031 40.4522C54.5746 40.3496 54.5291 40.2048 54.5746 40.0468C54.6201 39.8783 54.7379 39.7678 54.9092 39.752C55.0217 39.7415 55.1368 39.7757 55.2519 39.7862C55.3189 39.7915 55.3858 39.7862 55.4661 39.7862V40.2574C55.4661 40.2574 55.4528 40.2627 55.4447 40.2627C55.4287 40.21 55.4126 40.16 55.3965 40.1074C55.3242 39.9047 55.1047 39.7757 54.9307 39.852C54.8584 39.8836 54.7781 39.9626 54.7593 40.0363C54.7432 40.0942 54.7968 40.1969 54.8503 40.2416C54.9467 40.3259 55.0672 40.3864 55.177 40.4548C55.2466 40.497 55.3189 40.5338 55.3858 40.5812C55.5491 40.697 55.6161 40.8708 55.5679 41.0471C55.5224 41.2183 55.3564 41.363 55.1716 41.3657C55.0538 41.3657 54.936 41.3315 54.8155 41.3183C54.7459 41.3104 54.671 41.3183 54.5906 41.3183" fill="#F4E5D2"/>
<path d="M52.1569 40.7181C52.0712 40.5075 51.9962 40.3206 51.9079 40.1074C51.8168 40.3232 51.7338 40.5154 51.6481 40.7181H52.1542H52.1569ZM52.77 41.3341H52.189C52.2372 41.2814 52.3255 41.2235 52.3175 41.1814C52.2988 41.0629 52.2425 40.9497 52.197 40.8365C52.1943 40.826 52.1649 40.8181 52.1488 40.8181C51.9828 40.8181 51.8168 40.8155 51.6508 40.8181C51.6267 40.8181 51.5919 40.8523 51.5759 40.8787C51.5491 40.926 51.5303 40.9787 51.5089 41.0287C51.4286 41.2288 51.434 41.2446 51.6321 41.3209H51.1528C51.3081 41.2577 51.3536 41.1129 51.4125 40.9761C51.5705 40.6023 51.7285 40.2284 51.8891 39.8546C51.9079 39.8125 51.9266 39.773 51.9614 39.7046C51.9935 39.7678 52.015 39.8046 52.031 39.8441C52.1917 40.2311 52.3496 40.6207 52.5076 41.0103C52.5611 41.1445 52.6147 41.2735 52.7646 41.3314" fill="#F4E5D2"/>
<path d="M36.8398 41.3288H36.1838C36.1838 41.3288 36.1838 41.3051 36.1865 41.3025C36.382 41.2525 36.39 41.2446 36.39 41.0366V39.8968C36.1062 39.8284 36.0446 39.8573 35.8599 40.1679C35.8706 40.0179 35.8759 39.9047 35.884 39.7731H36.3659C36.5854 39.7731 36.805 39.7757 37.0245 39.7731C37.1129 39.7731 37.1477 39.802 37.1423 39.8915C37.137 39.9731 37.1423 40.0521 37.1236 40.1495C37.0647 39.8231 36.8371 39.8757 36.6095 39.8863V40.9893C36.6095 41.1542 36.6854 41.2692 36.8371 41.3341" fill="#F4E5D2"/>
<path d="M48.7621 30.3332H48.6417V29.862C48.6417 29.862 48.6229 29.8567 48.6149 29.8541C48.5694 29.9831 48.5292 30.1147 48.481 30.241C48.465 30.2805 48.4221 30.3069 48.3927 30.3384C48.3605 30.3069 48.3177 30.2805 48.3016 30.2437C48.2508 30.1199 48.2133 29.991 48.1463 29.8672V30.3332C48.0982 30.3332 48.0633 30.3358 48.0205 30.3384V29.6356C48.2079 29.5908 48.2052 29.5908 48.2668 29.7698C48.3043 29.8751 48.3418 29.9804 48.3927 30.1147C48.4382 29.9804 48.4837 29.8751 48.5131 29.7672C48.548 29.6277 48.6229 29.5803 48.7648 29.6303V30.3305L48.7621 30.3332Z" fill="#F4E5D2"/>
<path d="M54.6496 35.1953C54.6496 34.8873 54.4167 34.6425 54.1195 34.6399C53.8223 34.6399 53.5787 34.882 53.5787 35.1848C53.5787 35.4901 53.817 35.7402 54.1088 35.7429C54.4007 35.7481 54.6443 35.4954 54.647 35.1927M54.7005 35.1874C54.7005 35.5375 54.4462 35.7981 54.1088 35.7981C53.7822 35.7981 53.5251 35.5323 53.5251 35.1927C53.5251 34.8478 53.7715 34.5898 54.1061 34.5898C54.4596 34.5898 54.7005 34.832 54.7005 35.1874Z" fill="#F4E5D2"/>
<path d="M47.5277 29.7382H47.3108C47.2813 29.6618 47.2787 29.6171 47.3697 29.6171C47.5223 29.6171 47.6749 29.6118 47.8248 29.6197C47.8543 29.6197 47.8837 29.6697 47.9105 29.6987C47.9025 29.7092 47.8918 29.7197 47.8837 29.7303H47.6696V30.3278C47.616 30.3305 47.5812 30.3331 47.525 30.3384V29.7382H47.5277Z" fill="#F4E5D2"/>
<path d="M53.9962 34.8661V35.1636C54.1086 35.1688 54.2024 35.1557 54.2131 35.0188C54.2211 34.9108 54.1542 34.8635 53.9962 34.8687M54.1809 35.2057C54.2639 35.3241 54.3416 35.4321 54.4139 35.5347C54.3335 35.5523 54.2622 35.5163 54.1997 35.4268C54.1461 35.3531 54.0926 35.2794 54.0176 35.2136C54.0096 35.3294 53.9346 35.4505 54.0685 35.5453H53.8168C53.8945 35.4268 53.8811 34.9161 53.79 34.8082C53.8998 34.8082 54.0016 34.8055 54.1033 34.8082C54.2131 34.8134 54.3228 34.8292 54.355 34.9661C54.3871 35.1004 54.2961 35.153 54.1836 35.203" fill="#F4E5D2"/>
</g>
</g>
</g>
<defs>
<filter id="filter0_d_184_3799" x="0" y="0" width="75" height="75" filterUnits="userSpaceOnUse" color-interpolation-filters="sRGB">
<feFlood flood-opacity="0" result="BackgroundImageFix"/>
<feColorMatrix in="SourceAlpha" type="matrix" values="0 0 0 0 0 0 0 0 0 0 0 0 0 0 0 0 0 0 127 0" result="hardAlpha"/>
<feOffset dy="6"/>
<feGaussianBlur stdDeviation="5"/>
<feComposite in2="hardAlpha" operator="out"/>
<feColorMatrix type="matrix" values="0 0 0 0 0 0 0 0 0 0 0 0 0 0 0 0 0 0 0.5 0"/>
<feBlend mode="normal" in2="BackgroundImageFix" result="effect1_dropShadow_184_3799"/>
<feBlend mode="normal" in="SourceGraphic" in2="effect1_dropShadow_184_3799" result="shape"/>
</filter>
<clipPath id="clip0_184_3799">
<rect width="36.3" height="24.2" fill="white" transform="translate(19.8999 17.2)"/>
</clipPath>
</defs>
</svg>
