<svg width="48" height="48" viewBox="0 0 48 48" fill="none" xmlns="http://www.w3.org/2000/svg">
<g filter="url(#filter0_d_184_2715)">
<rect x="4" width="40" height="40" rx="20" fill="#F4E5D2" shape-rendering="crispEdges"/>
<g clip-path="url(#clip0_184_2715)">
<mask id="mask0_184_2715" style="mask-type:luminance" maskUnits="userSpaceOnUse" x="11" y="9" width="27" height="19">
<path d="M37.598 9.59998H11.2V27.2H37.598V9.59998Z" fill="white"/>
</mask>
<g mask="url(#mask0_184_2715)">
<path d="M19.0822 19.203C19.088 19.1648 19.0919 19.136 19.0977 19.0997C19.0705 19.1226 19.051 19.138 19.0218 19.1628C18.977 19.1226 18.9225 19.0863 18.8874 19.0365C18.8582 18.9944 18.8465 18.9542 18.7862 18.9886C18.7725 18.9963 18.7356 18.9848 18.7297 18.9733C18.7044 18.9197 18.6947 18.8584 18.6655 18.8087C18.644 18.7704 18.607 18.7321 18.5681 18.7168C18.5194 18.6995 18.4844 18.6861 18.4941 18.6249C18.496 18.6095 18.4902 18.5923 18.4824 18.5789C18.4493 18.5157 18.4143 18.4545 18.3812 18.3932C18.3636 18.3626 18.3481 18.3071 18.3266 18.3051C18.2449 18.2975 18.2098 18.2439 18.2001 18.1769C18.1884 18.106 18.1845 18.0314 18.1923 17.9624C18.2098 17.8074 18.2526 17.6542 18.2565 17.5011C18.2643 17.1871 18.3597 16.9056 18.5642 16.6836C18.7024 16.5342 18.8504 16.3658 19.0783 16.3504C19.1542 16.3447 19.2321 16.3638 19.308 16.3696C19.3509 16.3734 19.3879 16.3926 19.421 16.3313C19.4619 16.2547 19.5475 16.2394 19.6313 16.2566C19.6916 16.27 19.7481 16.293 19.8065 16.3083C19.9272 16.337 19.9798 16.4232 20.0032 16.5572C19.9642 16.5419 19.9331 16.5323 19.9039 16.5189C19.8824 16.5113 19.8591 16.4845 19.8435 16.4902C19.7247 16.5342 19.6001 16.4825 19.4833 16.5093C19.4268 16.5227 19.382 16.5668 19.3353 16.4902C19.2963 16.5247 19.2652 16.5534 19.2301 16.5859C19.3217 16.6797 19.4287 16.63 19.5261 16.6395C19.5047 16.7448 19.5339 16.7697 19.6371 16.764C19.6858 16.7621 19.7345 16.785 19.8046 16.8023C19.7598 16.8252 19.7345 16.8367 19.6897 16.8616C19.789 16.8884 19.8688 16.9095 19.9506 16.9305C19.9506 16.9363 19.9506 16.9439 19.9487 16.9497C19.9194 16.9535 19.8922 16.9573 19.863 16.9612C19.863 16.9688 19.863 16.9746 19.861 16.9822C19.9019 16.9899 19.9428 16.9975 19.9993 17.009C20.0207 17.0377 19.9506 17.1469 20.0713 17.1201C20.0674 17.1603 20.0635 17.189 20.0616 17.2196H20.2057C20.1706 17.1909 20.1414 17.1679 20.1025 17.1373H20.2329C20.2154 16.9995 20.1998 16.8674 20.1804 16.7085C20.2232 16.785 20.2505 16.8425 20.2855 16.8961C20.5055 17.2407 20.6126 17.6293 20.6769 18.0275C20.7042 18.1922 20.6652 18.3645 20.5445 18.5023C20.5192 18.5311 20.5055 18.5693 20.4822 18.6019C20.4724 18.6153 20.453 18.621 20.4296 18.6344C20.4199 18.6498 20.4062 18.6785 20.3848 18.6976C20.3595 18.7225 20.3206 18.734 20.2991 18.7608C20.194 18.8852 20.0694 18.9599 19.9039 18.981C19.8123 18.9924 19.7286 19.0575 19.6429 19.0997C19.5943 19.1245 19.5456 19.1494 19.4891 19.1801C19.4424 19.1533 19.3879 19.136 19.3411 19.2088C19.3294 19.226 19.2905 19.2356 19.2652 19.2337C19.2068 19.2298 19.1503 19.2164 19.0822 19.205" fill="#5D4632"/>
<path d="M29.7527 16.538C29.6904 16.6223 29.6164 16.6414 29.5015 16.5859C29.4956 16.584 29.4898 16.5725 29.4878 16.5744C29.4314 16.5955 29.3749 16.6376 29.3184 16.6357C29.225 16.6357 29.225 16.6242 29.1685 16.7008C29.2133 16.7257 29.2561 16.7697 29.3029 16.7716C29.3476 16.7754 29.3983 16.7391 29.4314 16.7257C29.4528 16.7869 29.4684 16.829 29.4859 16.8807C29.5326 16.852 29.5638 16.8348 29.5949 16.8156C29.6203 16.8425 29.6436 16.8693 29.6709 16.8999C29.6592 16.9152 29.6475 16.9305 29.6319 16.9516C29.6981 16.9841 29.7858 16.965 29.8052 17.0684C29.8091 17.0894 29.8831 17.0971 29.9084 17.122C29.9338 17.1526 29.9649 17.1794 29.9844 17.2139C30 17.2388 30.0019 17.2732 30.0097 17.3C30.0389 17.3 30.0701 17.2962 30.1129 17.2924C30.0856 17.2694 30.0662 17.2483 30.0253 17.2139C30.0837 17.2177 30.1187 17.2196 30.1499 17.2215C30.1363 17.0703 30.1713 16.9114 30.0331 16.7927C30.0428 16.7869 30.0545 16.7793 30.0642 16.7735C30.0895 16.7984 30.1226 16.8176 30.1402 16.8482C30.3836 17.2407 30.5471 17.6695 30.6114 18.1271C30.6347 18.2898 30.6133 18.4774 30.4692 18.6114C30.4167 18.6593 30.3797 18.7225 30.3329 18.7818C30.292 18.8125 30.2375 18.8393 30.2025 18.8833C30.1226 18.9829 30.0077 19.0441 29.9045 19.0614C29.7897 19.0805 29.7196 19.1628 29.6183 19.1896C29.5852 19.1973 29.5502 19.2049 29.519 19.2183C29.4801 19.2356 29.4411 19.2586 29.3963 19.2834C29.3321 19.2107 29.2873 19.2911 29.2347 19.3294C29.1743 19.249 29.1198 19.2432 29.0322 19.3179C29.0244 19.2834 29.0186 19.2547 29.0127 19.2183C28.9913 19.2432 28.9738 19.2624 28.9602 19.2777C28.9309 19.2547 28.9017 19.2317 28.8745 19.2088C28.855 19.1915 28.8277 19.1762 28.8219 19.1552C28.7985 19.0709 28.7538 19.0499 28.6817 19.0958C28.6506 19.0365 28.6233 18.9809 28.5921 18.9197C28.6097 18.9101 28.6291 18.8986 28.6506 18.8871C28.6506 18.8833 28.6486 18.8776 28.6447 18.8757C28.5902 18.8546 28.5357 18.8335 28.4831 18.8125C28.4734 18.8086 28.4578 18.8029 28.4578 18.7991C28.4636 18.6976 28.3565 18.6555 28.341 18.5732C28.3234 18.4793 28.2825 18.4143 28.1969 18.3683C28.117 18.3243 28.0878 18.1137 28.1326 18.0103C28.1579 17.9548 28.1754 17.8935 28.1832 17.8322C28.2046 17.6446 28.1988 17.4513 28.2397 17.2694C28.2884 17.0588 28.3838 16.8654 28.5649 16.7295C28.5805 16.718 28.6038 16.7084 28.6097 16.6931C28.6486 16.5629 28.7732 16.5457 28.8667 16.4921C28.966 16.4366 29.0711 16.4155 29.1821 16.4596C29.26 16.4902 29.3165 16.4519 29.3769 16.4059C29.4139 16.3772 29.4684 16.3428 29.5054 16.3523C29.6222 16.3791 29.7371 16.4251 29.852 16.4634C29.8539 16.4634 29.8578 16.4672 29.8598 16.471C29.8792 16.5151 29.8987 16.5591 29.9182 16.6031C29.8987 16.6108 29.8734 16.6319 29.8617 16.6242C29.8228 16.6012 29.7877 16.5668 29.7507 16.5361" fill="#5D4632"/>
<path d="M25.1301 16.6069C25.0698 16.5782 25.0094 16.5495 24.9315 16.5112C24.8848 16.5438 24.8088 16.5744 24.7173 16.5553C24.6745 16.5457 24.6238 16.5763 24.5752 16.5782C24.5421 16.5801 24.5051 16.5667 24.4583 16.5591C24.435 16.5763 24.4019 16.605 24.3668 16.6338C24.4408 16.6452 24.4895 16.7639 24.5771 16.6759C24.5888 16.6644 24.6297 16.6854 24.6589 16.6912C24.6083 16.7965 24.6122 16.7984 24.8906 16.8367C24.877 16.8597 24.8653 16.8788 24.8458 16.9094C24.9159 16.9305 24.9782 16.9496 25.0581 16.9726C25.0269 16.9879 25.0074 16.9956 24.9899 17.0052C24.9899 17.0128 24.9899 17.0205 24.9899 17.0281C25.0405 17.0396 25.0912 17.0511 25.1476 17.0626C25.1418 17.0894 25.136 17.1162 25.1282 17.1526C25.2099 17.1583 25.208 17.2138 25.1885 17.2713C25.2372 17.2617 25.2742 17.2541 25.319 17.2445C25.2976 17.2311 25.2762 17.2158 25.2333 17.187C25.2878 17.1794 25.319 17.1736 25.3501 17.1698C25.3618 17.0167 25.3735 16.8616 25.2411 16.739C25.2489 16.7333 25.2586 16.7295 25.2684 16.7237C25.2976 16.7525 25.3365 16.7735 25.3521 16.808C25.4495 17.0396 25.6208 17.2292 25.6734 17.4857C25.7065 17.6427 25.7883 17.7939 25.8058 17.9509C25.8292 18.1385 25.8447 18.3377 25.7162 18.5061C25.6831 18.5483 25.6714 18.6095 25.6364 18.6497C25.6052 18.6861 25.5565 18.7072 25.5157 18.7359C25.4962 18.7512 25.4767 18.7684 25.4611 18.7876C25.4514 18.7991 25.4475 18.822 25.4358 18.8297C25.3131 18.9024 25.2177 19.023 25.0639 19.0403C25.0113 19.046 24.9588 19.0709 24.9101 19.0939C24.8166 19.1341 24.727 19.18 24.6336 19.2183C24.6083 19.2279 24.5693 19.1992 24.544 19.2088C24.5031 19.2241 24.4681 19.2566 24.4291 19.2834C24.4194 19.2585 24.4058 19.2298 24.396 19.2049C24.3357 19.1724 24.2734 19.3409 24.213 19.1973C24.1332 19.2298 24.065 19.1839 23.9832 19.0307C23.9793 19.069 23.9774 19.092 23.9735 19.1303C23.9345 19.0862 23.9014 19.0499 23.8683 19.0135C23.7963 18.935 23.8313 18.7722 23.6756 18.7569C23.6658 18.7569 23.6541 18.7359 23.6464 18.7206C23.5938 18.6114 23.5451 18.4985 23.4925 18.3893C23.4847 18.3759 23.4711 18.3625 23.4594 18.3549C23.3426 18.2802 23.2842 18.1385 23.3387 18.0103C23.403 17.8552 23.4088 17.6963 23.4127 17.5317C23.4205 17.1909 23.5237 16.8865 23.7982 16.6644C23.8528 16.6204 23.8917 16.5495 23.9501 16.517C24.0611 16.4557 24.1643 16.3638 24.3065 16.3944C24.3259 16.3983 24.3454 16.4002 24.3649 16.4059C24.4583 16.4308 24.5382 16.4289 24.6044 16.3351C24.6277 16.3025 24.7095 16.2968 24.7563 16.3083C24.8536 16.3313 24.9529 16.3619 25.0386 16.4136C25.0931 16.4461 25.1223 16.5227 25.1613 16.5782C25.1515 16.5878 25.1418 16.5974 25.1321 16.6069" fill="#5D4632"/>
<path d="M22.0145 13.875C21.9814 13.8252 22.0145 13.8233 22.0496 13.8214C22.1859 13.8099 22.3222 13.7965 22.4663 13.8004C22.4507 13.8118 22.4332 13.8233 22.4098 13.8406C22.4721 13.8712 22.6104 13.8195 22.5597 13.9573C22.5403 14.0109 22.4741 14.0875 22.365 14.0301C22.404 14.0071 22.4332 13.9861 22.4624 13.9688C22.402 13.9076 22.3202 13.9305 22.2521 14.0243C22.3455 14.1507 22.4682 14.2024 22.5909 14.1679C22.6376 14.1545 22.6629 14.0799 22.7291 14.1239C22.7467 14.1354 22.7759 14.1335 22.7856 14.1469C22.8401 14.2254 22.8985 14.2924 22.9979 14.3115C23.0154 14.3154 23.029 14.3479 23.066 14.3632C23.0602 14.3326 23.0563 14.302 23.0504 14.2771C23.0972 14.2445 23.14 14.2024 23.1906 14.1775C23.2607 14.1392 23.2607 14.2005 23.2666 14.2292C23.2296 14.2713 23.1789 14.3039 23.1809 14.3345C23.1809 14.3632 23.2354 14.3938 23.2685 14.4226C23.2451 14.4513 23.2179 14.4877 23.1867 14.5183C23.1478 14.5566 23.1322 14.593 23.1497 14.6504C23.1789 14.7499 23.0874 14.7978 23.0368 14.8495C22.9725 14.9184 22.8791 14.9586 22.7915 15.0161C22.8654 15.1252 22.7739 15.1577 22.7077 15.2113C22.7486 15.219 22.7739 15.2247 22.8246 15.2362C22.7778 15.2956 22.7408 15.3396 22.6882 15.4047C22.659 15.33 22.6415 15.2803 22.6162 15.2133C22.5948 15.2611 22.5792 15.2975 22.5636 15.33C22.6649 15.3932 22.6532 15.4564 22.5734 15.5004H22.0807C22.1255 15.4698 22.1606 15.4449 22.2053 15.4162C22.0827 15.3626 22.0184 15.376 21.9795 15.4507C21.9425 15.3396 21.9055 15.3224 21.7828 15.3262C21.6251 15.332 21.4771 15.2898 21.3544 15.1788C21.3155 15.1424 21.2746 15.1118 21.2337 15.0792C21.2142 15.062 21.187 15.0467 21.1772 15.0256C21.0292 14.7117 20.8735 14.3996 20.8793 14.0378C20.8832 13.764 21.0176 13.5476 21.185 13.3485C21.2318 13.293 21.2707 13.2298 21.3194 13.1781C21.3661 13.1284 21.4167 13.0805 21.4907 13.1494C21.5511 13.2049 21.6192 13.1628 21.6465 13.0728C21.7731 13.0422 21.8899 13.0116 22.0067 12.9829C22.0048 12.9733 22.0009 12.9637 21.9989 12.9541V12.8622C22.0437 12.8756 22.0866 12.8871 22.1352 12.9005C22.143 12.8795 22.1547 12.8527 22.1703 12.8163C22.2151 12.8316 22.2579 12.845 22.3183 12.8642C22.293 12.8316 22.2774 12.8106 22.2521 12.778C22.3475 12.778 22.4293 12.7646 22.5072 12.7799C22.5987 12.7972 22.6279 12.8871 22.5889 12.9829C22.5812 13.0039 22.5812 13.0288 22.5792 13.0499C22.5091 13.025 22.4429 12.9809 22.3728 12.9771C22.293 12.9733 22.2092 13.0039 22.1294 13.0231C22.1021 13.0307 22.0749 13.0614 22.0535 13.0575C21.9405 13.0384 21.8996 13.1111 21.8626 13.2126C21.9074 13.2203 21.9503 13.226 21.9912 13.2317C21.9853 13.27 21.9795 13.3045 21.9736 13.3447C22.0613 13.2949 22.0827 13.2203 22.0437 13.1226C22.1839 13.0365 22.219 13.0499 22.3222 13.1647C22.3806 13.2279 22.4273 13.2796 22.4098 13.3753C22.4059 13.4002 22.4449 13.4347 22.4663 13.4634C22.4838 13.4883 22.5013 13.5151 22.5188 13.54C22.4643 13.5534 22.4273 13.563 22.3903 13.5725L22.3942 13.5898C22.4312 13.6032 22.4702 13.6166 22.5072 13.628L22.5033 13.6663H22.0028C22.0028 13.6817 22.0028 13.697 22.0028 13.7104C22.0496 13.7161 22.0983 13.7199 22.145 13.7257C22.145 13.7333 22.1489 13.741 22.1508 13.7487C22.071 13.7736 21.9931 13.8004 21.886 13.8348C21.9444 13.852 21.9795 13.8635 22.0145 13.8731C21.8977 13.9191 21.7828 13.965 21.6679 14.009C21.6699 14.0186 21.6718 14.0282 21.6757 14.0378C21.7692 14.0167 21.8607 13.9937 21.9542 13.9765C22.0204 13.965 22.034 13.9325 22.0145 13.8731" fill="#5D4632"/>
<path d="M23.5237 11.57C23.4322 11.5738 23.3874 11.5221 23.3913 11.4206C23.3932 11.367 23.3718 11.3421 23.3212 11.3115C23.2258 11.256 23.2043 11.1507 23.216 11.0396C23.2219 10.9745 23.2238 10.9094 23.2297 10.8405C23.3231 10.8022 23.3484 10.7371 23.3134 10.628C23.3037 10.5955 23.3017 10.5342 23.3192 10.5246C23.3874 10.4806 23.3757 10.4193 23.3543 10.3696C23.3114 10.2796 23.3543 10.2585 23.4263 10.2432C23.4594 10.2355 23.4925 10.2202 23.5354 10.203C23.5023 10.18 23.4633 10.1685 23.4575 10.1475C23.4516 10.1264 23.4828 10.0977 23.4906 10.0709C23.5062 10.0058 23.5178 9.9388 23.5315 9.86605C23.6288 9.88519 23.7359 9.9254 23.843 9.92348C23.9443 9.92157 24.0436 9.87179 24.1448 9.84307C24.2013 9.82584 24.2597 9.81436 24.3123 9.79138C24.3571 9.77224 24.398 9.73969 24.4428 9.71672C24.5654 9.65354 24.6881 9.5827 24.8341 9.60376C24.8828 9.61142 24.9315 9.61716 24.9763 9.63631C25.0289 9.65928 25.0756 9.69566 25.1243 9.72437C25.1204 9.73203 25.1165 9.73778 25.1126 9.74543C25.1652 9.75884 25.2158 9.77032 25.2528 9.77989C25.2528 9.83924 25.2606 9.88136 25.2508 9.91965C25.2392 9.95986 25.21 9.99623 25.1866 10.0326C25.1165 10.1456 24.9471 10.1513 24.912 10.3026C24.9101 10.3121 24.9081 10.3217 24.8984 10.3581C24.9685 10.2987 25.023 10.2547 25.0756 10.2087C25.0853 10.2221 25.0951 10.2336 25.1068 10.247C25.0036 10.3581 24.8984 10.4691 24.7913 10.584C24.7913 10.6012 24.7913 10.6318 24.7952 10.6625C24.7952 10.6893 24.7952 10.718 24.803 10.741C24.8069 10.7505 24.8497 10.7582 24.8536 10.7525C24.8673 10.7295 24.8848 10.6989 24.8809 10.6759C24.8595 10.5668 24.951 10.5189 24.9977 10.4461C25.0016 10.4385 25.0308 10.4481 25.0659 10.4519C25.0406 10.4921 25.0172 10.5189 25.0036 10.5495C24.9919 10.5744 24.9763 10.6146 24.986 10.6299C25.0386 10.7008 25.025 10.7505 24.9257 10.7965C24.9763 10.8195 25.0036 10.831 25.0347 10.8444C25.0113 10.8616 24.988 10.8826 24.9588 10.9056C24.9724 10.9248 24.9841 10.9439 24.9977 10.9688C24.9646 10.986 24.9354 10.9975 24.9062 11.0128C24.9471 11.0435 24.9841 11.0722 25.023 11.1009C25.0172 11.1105 25.0133 11.12 25.0074 11.1315C24.9101 11.0932 24.8108 11.055 24.7134 11.0167L24.7037 11.0358C24.7679 11.0818 24.8341 11.1258 24.8984 11.1717C24.8809 11.2062 24.8634 11.2426 24.8439 11.2789C24.8088 11.2713 24.7699 11.2617 24.7329 11.2541C24.7115 11.323 24.7173 11.3747 24.7777 11.4149C24.8166 11.4417 24.8478 11.4838 24.8809 11.5202C24.914 11.4819 24.9412 11.4283 24.9821 11.4053C25.0717 11.3555 25.1223 11.2866 25.1554 11.189C25.1788 11.12 25.2294 11.0588 25.1301 10.9937C25.1379 10.9879 25.1457 10.9822 25.1535 10.9765H25.3774C25.3326 11.0588 25.2937 11.122 25.2664 11.1909C25.2547 11.2215 25.2547 11.2694 25.2703 11.2981C25.3112 11.3747 25.3112 11.4838 25.4183 11.5163C25.4222 11.5163 25.4203 11.5891 25.4027 11.6063C25.319 11.6848 25.2333 11.7633 25.1399 11.8265C24.9529 11.9548 24.7543 12.0524 24.5304 12.0984C24.3941 12.1271 24.2617 12.1328 24.1371 12.0505C24.0397 11.9854 23.9248 11.9375 23.843 11.8571C23.7612 11.7767 23.6853 11.7001 23.5763 11.658C23.5568 11.6504 23.5471 11.6082 23.5256 11.568" fill="#5D4632"/>
<path d="M26.2246 13.9075C26.248 13.9305 26.2694 13.9534 26.2966 13.9821C26.2694 13.9975 26.2343 14.0166 26.2012 14.0377C26.2032 14.0453 26.2071 14.0549 26.209 14.0626C26.2577 14.0606 26.3083 14.0587 26.3687 14.0549C26.3453 14.0817 26.3278 14.1008 26.3083 14.1219L26.3317 14.1449C26.3901 14.0817 26.4485 14.0185 26.5147 13.9458H26.3278C26.3278 13.9458 26.3259 13.9285 26.3239 13.919C26.4232 13.896 26.5225 13.873 26.6218 13.85C26.7484 13.8194 26.8613 13.8903 26.9801 13.9113C26.9937 13.9132 27.0093 13.9439 27.0093 13.963C27.0093 14.0224 26.9217 14.0817 26.8399 14.0702C26.8769 14.0434 26.9042 14.0262 26.9295 14.007C26.8711 13.9458 26.7815 13.9668 26.6978 14.0664C26.7737 14.1545 26.8497 14.2406 26.9821 14.2272C27.0152 14.2234 27.0502 14.2119 27.0814 14.1985C27.1378 14.1736 27.1807 14.1602 27.2332 14.2195C27.28 14.2732 27.3501 14.3057 27.4104 14.344C27.4435 14.3651 27.4805 14.3823 27.5273 14.4072V14.3076C27.5701 14.2732 27.6168 14.2387 27.6714 14.1966C27.6889 14.2119 27.7123 14.2349 27.7454 14.2693C27.6363 14.3038 27.5954 14.3516 27.6811 14.4416C27.6908 14.4512 27.6714 14.4952 27.6616 14.522C27.6441 14.5661 27.6052 14.6082 27.6032 14.6522C27.5974 14.792 27.539 14.8628 27.4143 14.9145C27.3579 14.9394 27.3111 15.016 27.2819 15.0792C27.2294 15.1902 27.2352 15.194 27.1554 15.2534C27.1924 15.2476 27.2313 15.2438 27.2936 15.2342C27.2371 15.307 27.1924 15.3663 27.1339 15.441C27.1086 15.3702 27.0892 15.3166 27.0697 15.261H27.0424C27.0307 15.3032 27.0191 15.3453 27.0074 15.3855C27.0152 15.3797 27.0249 15.3721 27.0346 15.3663C27.0522 15.3951 27.0892 15.4333 27.0814 15.4506C27.0619 15.4946 27.021 15.5291 26.9898 15.5674L26.9626 15.5559V15.307C26.9626 15.307 26.9509 15.307 26.9451 15.3051C26.9256 15.3357 26.9042 15.3682 26.8847 15.3989L26.912 15.4027C26.912 15.4353 26.9236 15.4755 26.912 15.4984C26.8672 15.5769 26.8049 15.5482 26.7387 15.5099C26.7834 15.4104 26.912 15.3204 26.7601 15.1787C26.7873 15.3051 26.799 15.4142 26.6997 15.4582C26.6179 15.441 26.5459 15.4027 26.4855 15.4161C26.4057 15.4353 26.3921 15.3855 26.3434 15.3414C26.2382 15.4046 26.1253 15.3587 26.0065 15.3242C25.7943 15.2591 25.6463 15.1309 25.5626 14.9183C25.5061 14.7728 25.4243 14.635 25.3854 14.4837C25.3211 14.231 25.2685 13.9668 25.4263 13.7256C25.5372 13.5571 25.658 13.3963 25.769 13.2278C25.8254 13.1417 25.9033 13.1551 25.9656 13.1876C26.026 13.2202 26.061 13.1915 26.1058 13.1685C26.1603 13.1398 26.2071 13.0919 26.2635 13.0804C26.3745 13.0574 26.4661 13.0287 26.4505 12.8871C26.5167 12.8737 26.5595 13.023 26.6121 12.9158C26.6432 12.8526 26.7698 12.9196 26.7192 12.8009C26.9554 12.829 27.0703 12.9075 27.0638 13.0364C27.0794 13.0038 27.095 12.9732 27.1086 12.9407C27.1164 12.9407 27.1242 12.9407 27.132 12.9407C27.132 12.9866 27.1515 13.0517 27.1281 13.0747C27.0853 13.1187 27.0327 13.0957 26.984 13.0517C26.8925 12.9694 26.6666 12.9751 26.5693 13.0517C26.54 13.0747 26.4992 13.0785 26.4699 13.0996C26.4213 13.1321 26.3745 13.1685 26.3336 13.2106C26.3298 13.2144 26.3492 13.2604 26.3667 13.2719C26.3843 13.2834 26.4135 13.2738 26.4446 13.2738C26.431 13.3331 26.4193 13.381 26.4076 13.4308C26.4174 13.4346 26.4271 13.4384 26.4388 13.4442C26.4719 13.3695 26.5303 13.2948 26.5284 13.2202C26.5264 13.1321 26.5498 13.1264 26.6179 13.1359C26.6316 13.1359 26.651 13.1168 26.6705 13.1034C26.7406 13.1742 26.8594 13.2125 26.8594 13.3331C26.8594 13.4327 26.9665 13.5399 26.838 13.6318C26.8711 13.6452 26.8925 13.6567 26.912 13.6643C26.9197 13.7256 26.8419 13.7314 26.7757 13.6777C26.7659 13.6701 26.7562 13.6605 26.7601 13.6643C26.6744 13.6777 26.6024 13.6854 26.5303 13.6988C26.5069 13.7026 26.4894 13.7275 26.468 13.7428C26.4894 13.7505 26.5108 13.7696 26.5303 13.7658C26.5693 13.7601 26.6063 13.7448 26.6627 13.7428C26.6413 13.7639 26.6238 13.7964 26.5985 13.8041C26.4758 13.8424 26.3492 13.873 26.2265 13.9056C26.2519 13.85 26.2791 13.7945 26.3122 13.7199C26.3882 13.6988 26.4914 13.672 26.5946 13.6433C26.5926 13.6337 26.5907 13.6261 26.5887 13.6165C26.5439 13.6222 26.4992 13.6337 26.4524 13.6337C26.4271 13.6337 26.394 13.6241 26.3784 13.605C26.3687 13.5954 26.3784 13.5552 26.3921 13.538C26.4427 13.4652 26.3706 13.4308 26.3473 13.3848C26.3336 13.3561 26.2966 13.3408 26.2713 13.3178C26.2655 13.3255 26.2597 13.335 26.2538 13.3427C26.2752 13.3638 26.2986 13.3848 26.3239 13.4078C26.2519 13.4767 26.2207 13.5571 26.2129 13.6509C26.2129 13.6682 26.2032 13.7007 26.1993 13.7007C26.1779 13.7007 26.1565 13.6911 26.1409 13.6873C26.1253 13.7352 26.1078 13.783 26.0883 13.8405C26.1233 13.8137 26.1487 13.7945 26.1681 13.7792C26.1915 13.8232 26.209 13.8635 26.2285 13.9017" fill="#5D4632"/>
</g>
<path d="M37.6 24.2976H11.2V24.3895H37.6V24.2976Z" fill="#5D4632"/>
<mask id="mask1_184_2715" style="mask-type:luminance" maskUnits="userSpaceOnUse" x="11" y="9" width="27" height="19">
<path d="M37.598 9.59998H11.2V27.2H37.598V9.59998Z" fill="white"/>
</mask>
<g mask="url(#mask1_184_2715)">
<path d="M27.7918 22.4098C27.7918 22.0633 27.7918 21.7168 27.7918 21.3702C27.7918 21.263 27.7899 21.1558 27.7763 21.0524C27.7587 20.9069 27.7101 20.8686 27.566 20.8591C27.5368 20.8591 27.5095 20.8457 27.4803 20.838C27.4822 20.8265 27.4861 20.815 27.4881 20.8035H28.2241C28.2241 20.8035 28.2299 20.8208 28.2319 20.8303C28.2105 20.8399 28.1891 20.8591 28.1657 20.861C27.9807 20.8782 27.932 20.9318 27.932 21.129C27.932 21.7244 27.932 22.3179 27.932 22.9133V23.055C27.8853 23.0244 27.8502 23.009 27.8269 22.9822C27.3907 22.4385 26.9565 21.8929 26.5203 21.3492C26.5067 21.3319 26.4911 21.3166 26.4658 21.2898C26.4638 21.3205 26.46 21.3358 26.46 21.3511C26.46 21.8029 26.46 22.2528 26.46 22.7046C26.46 22.7946 26.4736 22.8827 26.5709 22.9152C26.6138 22.9306 26.6605 22.9267 26.7053 22.9382C26.7267 22.944 26.7442 22.9669 26.7637 22.9803C26.7598 22.988 26.7559 22.9956 26.7501 23.0033H26.0199L26.0063 22.9784C26.0277 22.965 26.0472 22.942 26.0705 22.9401C26.2789 22.9114 26.3081 22.8827 26.31 22.6702C26.31 22.1628 26.31 21.6555 26.31 21.1462C26.31 21.0371 26.2302 20.9873 26.1601 20.9414C26.0958 20.9012 26.014 20.8916 25.942 20.8648C25.9245 20.8591 25.9128 20.8399 25.8972 20.8284C25.9128 20.8189 25.9264 20.8016 25.942 20.8016C26.1075 20.8016 26.275 20.7978 26.4405 20.8016C26.4716 20.8016 26.5067 20.838 26.5301 20.8667C26.9175 21.3511 27.305 21.8374 27.6906 22.3217C27.7178 22.3543 27.7432 22.3888 27.7704 22.4213L27.7918 22.4117V22.4098Z" fill="#5D4632"/>
<path d="M18.1843 22.0347C18.0091 22.2683 17.8358 22.4903 17.6722 22.7182C17.5963 22.8235 17.6411 22.9077 17.7696 22.9307C17.7968 22.9345 17.8222 22.9575 17.8475 22.9728C17.8436 22.9824 17.8377 22.9919 17.8338 23.0034H17.0647C17.092 22.9709 17.1036 22.9383 17.1231 22.9326C17.3081 22.8905 17.4444 22.7756 17.5593 22.6301C17.7443 22.3965 17.9234 22.161 18.1201 21.9083C17.9078 21.6135 17.7034 21.3091 17.4756 21.0238C17.4113 20.9434 17.2808 20.9166 17.1815 20.8649C17.1601 20.8534 17.1387 20.842 17.1192 20.8305L17.129 20.8056H18.1123C18.1123 20.8056 18.1201 20.8228 18.124 20.8305C18.1025 20.842 18.085 20.8611 18.0617 20.8649C17.8903 20.9013 17.8553 20.9702 17.9487 21.1196C18.0597 21.2995 18.1785 21.4737 18.3012 21.6633C18.455 21.4603 18.6049 21.2708 18.7432 21.0755C18.8094 20.9817 18.7646 20.8898 18.6536 20.8688C18.638 20.8668 18.6205 20.8688 18.6049 20.8649C18.5874 20.8592 18.5699 20.8458 18.5523 20.8362C18.5699 20.8228 18.5893 20.8018 18.6069 20.8018C18.749 20.7998 18.8931 20.8018 19.0372 20.8018H19.3254C19.302 20.8343 19.2923 20.8649 19.2787 20.8649C19.08 20.8898 18.9574 21.0296 18.8444 21.177C18.7042 21.357 18.566 21.5388 18.4316 21.7226C18.4122 21.7475 18.3985 21.803 18.4122 21.8241C18.6224 22.1457 18.8386 22.4616 19.0547 22.7794C19.1151 22.8675 19.2027 22.9173 19.3079 22.9345C19.3273 22.9383 19.3429 22.9594 19.3624 22.9728C19.3429 22.9862 19.3234 23.0073 19.3059 23.0073C19.0197 23.0092 18.7334 23.0073 18.4453 23.0073C18.4394 22.9977 18.4355 22.9881 18.4297 22.9766C18.453 22.9613 18.4745 22.9345 18.4998 22.9326C18.6478 22.9096 18.6906 22.8273 18.6088 22.6952C18.4725 22.4789 18.3323 22.2663 18.1843 22.0366" fill="#5D4632"/>
<path d="M23.5393 20.8055H25.1924C25.2002 20.9606 25.208 21.1138 25.2178 21.3033C25.1788 21.2689 25.1516 21.2554 25.1418 21.2344C25.1262 21.2018 25.1223 21.1655 25.1126 21.1291C25.0795 21.0142 25.0094 20.9376 24.8926 20.9357C24.6492 20.93 24.4058 20.9357 24.1565 20.9357V21.7877H24.3941C24.4895 21.7877 24.583 21.7896 24.6784 21.7877C24.8517 21.7819 24.914 21.7245 24.949 21.5484C24.9549 21.5197 24.9705 21.4928 24.9821 21.466C24.9899 21.468 24.9997 21.4718 25.0075 21.4737V22.2395C25.0075 22.2395 24.9938 22.2472 24.986 22.251C24.9724 22.2261 24.9529 22.2031 24.9471 22.1763C24.9004 21.9619 24.8614 21.9236 24.6453 21.914C24.4837 21.9064 24.3221 21.914 24.1526 21.914C24.1526 22.207 24.1507 22.4903 24.1565 22.7736C24.1565 22.8081 24.215 22.8675 24.2481 22.8675C24.4681 22.8732 24.692 22.8809 24.9121 22.8598C25.0854 22.8426 25.173 22.6875 25.2587 22.5477C25.284 22.5056 25.2898 22.429 25.3774 22.4558C25.321 22.6243 25.2664 22.7909 25.2061 22.9555C25.1983 22.9804 25.1574 23.0072 25.1301 23.0072C24.62 23.011 24.1118 23.0091 23.6035 23.0072C23.5802 23.0072 23.5588 22.9862 23.5354 22.9747C23.5568 22.9613 23.5782 22.9421 23.6016 22.9383C23.8022 22.9153 23.8411 22.8713 23.8411 22.6664V21.1329C23.8411 20.9242 23.8002 20.8802 23.6016 20.8649C23.5782 20.8649 23.5549 20.8477 23.5315 20.8362C23.5334 20.8266 23.5373 20.8189 23.5393 20.8094" fill="#5D4632"/>
<path d="M32.7728 20.8035C32.7825 20.949 32.7923 21.0849 32.7981 21.2209C32.7981 21.24 32.7786 21.2611 32.767 21.2802C32.7533 21.263 32.7338 21.2477 32.7241 21.2285C32.7105 21.1998 32.7046 21.1653 32.6949 21.1328C32.6618 21.0122 32.5859 20.9356 32.4593 20.9318C32.2451 20.9241 32.029 20.9241 31.8148 20.9203C31.7895 20.9203 31.7641 20.9241 31.7349 20.926C31.733 20.9509 31.7291 20.9701 31.7291 20.9892C31.7291 21.2496 31.7291 21.51 31.7291 21.7665C31.9472 21.7665 32.1575 21.778 32.3658 21.7627C32.4866 21.755 32.5099 21.6363 32.5333 21.531C32.5391 21.508 32.5586 21.487 32.5722 21.4659C32.5839 21.4889 32.6053 21.5119 32.6053 21.5348C32.6073 21.7454 32.6073 21.956 32.6053 22.1666C32.6053 22.1915 32.5859 22.2145 32.5742 22.2394C32.5586 22.2183 32.5352 22.1992 32.5313 22.1762C32.4846 21.956 32.4476 21.9177 32.2256 21.9082C32.066 21.9005 31.9063 21.9082 31.7408 21.9082C31.7388 21.9369 31.733 21.9637 31.733 21.9886C31.733 22.2221 31.733 22.4576 31.733 22.6912C31.733 22.8386 31.768 22.8731 31.9121 22.875C32.0562 22.875 32.1984 22.8731 32.3425 22.875C32.543 22.8807 32.693 22.7965 32.7942 22.6185C32.8215 22.5725 32.8468 22.5246 32.8779 22.4844C32.8935 22.4634 32.9227 22.4538 32.9597 22.4576C32.9033 22.6223 32.8487 22.7888 32.7903 22.9535C32.7825 22.9765 32.7455 23.0033 32.7222 23.0033C32.1945 23.0052 31.6648 23.0052 31.1372 23.0052C31.1313 22.9975 31.1255 22.9879 31.1196 22.9803C31.1372 22.965 31.1527 22.942 31.1741 22.9363C31.217 22.9229 31.2637 22.9229 31.3066 22.9114C31.3786 22.8922 31.4117 22.8386 31.4156 22.764C31.4214 22.6376 31.4292 22.5112 31.4292 22.3849C31.4292 22.0307 31.4292 21.6765 31.4292 21.3223C31.4292 21.2228 31.4214 21.1232 31.4137 21.0237C31.4078 20.9203 31.3397 20.882 31.252 20.8667C31.2228 20.8609 31.1936 20.8667 31.1644 20.8609C31.1488 20.859 31.1352 20.8437 31.1216 20.8341C31.1372 20.8226 31.1508 20.8092 31.1683 20.7997C31.1761 20.7958 31.1878 20.7997 31.1975 20.7997C31.7038 20.7997 32.2081 20.7997 32.7144 20.7997C32.73 20.7997 32.7455 20.8035 32.7708 20.8054" fill="#5D4632"/>
<path d="M22.6688 20.7384C22.6688 20.9911 22.6688 21.2247 22.6688 21.4583C22.6688 21.4736 22.6532 21.4889 22.6454 21.5042C22.6318 21.4908 22.6104 21.4793 22.6065 21.4621C22.585 21.3951 22.5734 21.3262 22.5519 21.2611C22.4604 21.0103 22.2073 20.8514 21.958 20.8858C21.7633 20.9126 21.6309 21.0696 21.6465 21.2534C21.6562 21.3702 21.7322 21.441 21.8159 21.4965C21.9834 21.6057 22.1567 21.7052 22.3261 21.8086C22.3981 21.8526 22.4721 21.8967 22.5422 21.9445C22.7311 22.0805 22.8421 22.2643 22.809 22.5055C22.772 22.7831 22.6006 22.9535 22.3436 23.0243C22.1469 23.0779 21.9503 23.0511 21.7594 22.9803C21.7127 22.9631 21.666 22.9535 21.6192 22.9363C21.5491 22.9114 21.4985 22.9267 21.4712 23.0033C21.4654 23.0205 21.444 23.0301 21.4304 23.0435C21.4206 23.0262 21.4011 23.009 21.4011 22.9918C21.3992 22.7754 21.3992 22.5572 21.4011 22.3408C21.4011 22.3236 21.4226 22.3064 21.4323 22.2891C21.444 22.3045 21.4615 22.3179 21.4673 22.337C21.4829 22.3868 21.4927 22.4404 21.5082 22.4902C21.6056 22.8137 21.9464 22.9956 22.2618 22.8941C22.4001 22.8501 22.4935 22.7601 22.5188 22.6089C22.5422 22.4653 22.4818 22.3485 22.3728 22.27C22.2365 22.1704 22.0846 22.092 21.9405 21.9981C21.8139 21.9158 21.6835 21.8392 21.5706 21.7416C21.3992 21.5942 21.3349 21.3989 21.3992 21.1749C21.4654 20.949 21.6251 20.815 21.849 20.7633C22.0301 20.7212 22.2034 20.7575 22.3728 20.8303C22.511 20.8916 22.513 20.8896 22.6065 20.7652C22.6142 20.7556 22.6337 20.7518 22.6668 20.7384" fill="#5D4632"/>
<path d="M13.4624 22.2816C13.4761 22.3122 13.4936 22.341 13.5014 22.3735C13.5754 22.7143 13.7311 22.8694 14.0641 22.9172C14.1965 22.9364 14.325 22.9096 14.4282 22.8138C14.5762 22.6779 14.5899 22.4731 14.4516 22.3276C14.3893 22.2625 14.3114 22.2089 14.2355 22.1591C14.0485 22.0385 13.8538 21.9313 13.6688 21.8049C13.4332 21.6422 13.3514 21.4009 13.4274 21.1559C13.4994 20.9223 13.7409 20.7404 13.9979 20.7538C14.1342 20.7596 14.2705 20.7998 14.4029 20.8419C14.5295 20.8821 14.5373 20.8878 14.621 20.773C14.6288 20.7615 14.6502 20.75 14.66 20.7519C14.6736 20.7577 14.6911 20.7768 14.6911 20.7902C14.6911 21.0257 14.6911 21.2631 14.6911 21.4986C14.6794 21.5024 14.6697 21.5081 14.658 21.512C14.6444 21.4871 14.623 21.4622 14.6171 21.4354C14.5743 21.2076 14.4789 21.018 14.2549 20.9261C14.0992 20.863 13.9453 20.8515 13.7993 20.9549C13.6163 21.085 13.6007 21.3205 13.7818 21.4507C13.9726 21.5886 14.179 21.7015 14.3796 21.8279C14.4399 21.8662 14.5022 21.9025 14.5606 21.9447C14.7632 22.0882 14.8683 22.2873 14.8216 22.5362C14.7729 22.8004 14.6015 22.9613 14.3484 23.0244C14.177 23.0666 14.0057 23.0531 13.8382 22.9976C13.7896 22.9804 13.7389 22.9632 13.6903 22.9479C13.6026 22.9191 13.515 22.8923 13.4838 23.0244C13.4838 23.0321 13.4702 23.0397 13.4624 23.0417C13.4546 23.0436 13.443 23.0417 13.4274 23.0417V22.295C13.4391 22.2912 13.4488 22.2873 13.4605 22.2816" fill="#5D4632"/>
<path d="M30.2181 21.5138C30.2045 21.487 30.1869 21.4602 30.1811 21.4315C30.1383 21.2113 30.0487 21.0275 29.8326 20.9337C29.6787 20.8667 29.5249 20.8495 29.375 20.9471C29.1802 21.0754 29.1608 21.3185 29.3516 21.4564C29.5405 21.5923 29.7449 21.7053 29.9416 21.8278C30.002 21.8661 30.0643 21.9025 30.1246 21.9446C30.3252 22.0882 30.4342 22.2835 30.3875 22.5362C30.3388 22.8042 30.1655 22.9669 29.9085 23.0282C29.741 23.0684 29.5716 23.0569 29.4061 23.0014C29.3633 22.9861 29.3204 22.9727 29.2757 22.9593C29.1802 22.9267 29.0829 22.8827 29.0439 23.0339C29.042 23.0416 29.0167 23.0435 28.9933 23.0493V22.2969C28.9933 22.2969 29.0108 22.2873 29.0186 22.2835C29.0342 22.3141 29.0576 22.3428 29.0634 22.3754C29.1394 22.7161 29.2854 22.8693 29.6184 22.9133C29.7099 22.9267 29.817 22.9076 29.9027 22.8712C30.1305 22.7717 30.183 22.4998 30.0059 22.3198C29.9241 22.2356 29.8189 22.1762 29.7196 22.1131C29.558 22.0078 29.3866 21.9159 29.2289 21.8048C28.9933 21.6383 28.9115 21.397 28.9914 21.152C29.0673 20.9165 29.3049 20.7423 29.5658 20.7519C29.6924 20.7576 29.8228 20.7901 29.9435 20.8303C30.0915 20.8782 30.0876 20.8878 30.1869 20.7691C30.1947 20.7595 30.2239 20.748 30.2259 20.7519C30.2395 20.7672 30.2531 20.7863 30.2531 20.8055C30.2551 20.9222 30.2531 21.039 30.2531 21.1558C30.2531 21.2688 30.2531 21.3817 30.2531 21.4947C30.2395 21.5004 30.2278 21.5062 30.2142 21.5119" fill="#5D4632"/>
<path d="M34.979 21.5139C34.9634 21.489 34.94 21.4641 34.9342 21.4373C34.8991 21.2631 34.8446 21.1023 34.6927 20.997C34.5525 20.8994 34.4007 20.8515 34.2312 20.9013C34.0988 20.9396 34.0073 21.0296 33.9801 21.1674C33.9547 21.2995 34.0171 21.4048 34.1222 21.4737C34.3481 21.6192 34.5798 21.7552 34.8076 21.8968C35.0023 22.0155 35.1406 22.1783 35.1503 22.4214C35.164 22.7488 34.8816 23.0321 34.5506 23.0494C34.3637 23.0589 34.1884 23.0168 34.0151 22.9555C33.9275 22.9249 33.834 22.8924 33.799 23.0321C33.797 23.0417 33.7678 23.0455 33.7386 23.0551C33.7386 22.8254 33.7386 22.6052 33.7386 22.385C33.7386 22.3563 33.7406 22.3257 33.7425 22.297C33.7542 22.2931 33.7639 22.2893 33.7756 22.2855C33.7912 22.3199 33.8126 22.3544 33.8184 22.3889C33.8613 22.5994 33.9547 22.7698 34.1573 22.8598C34.2916 22.9211 34.4318 22.9441 34.5759 22.9058C34.7103 22.8713 34.8135 22.7909 34.8505 22.6492C34.8894 22.5095 34.8407 22.3869 34.7395 22.2989C34.6538 22.2242 34.5525 22.1668 34.4552 22.1055C34.2955 22.004 34.1261 21.9141 33.9742 21.803C33.7483 21.6403 33.6666 21.3914 33.7464 21.154C33.8243 20.9185 34.0618 20.7424 34.3208 20.7558C34.461 20.7634 34.5993 20.8094 34.7356 20.8477C34.8232 20.8707 34.9011 20.9051 34.94 20.7807C34.9439 20.7673 34.9673 20.7615 34.9829 20.752C34.9926 20.7692 35.0121 20.7864 35.0121 20.8036C35.0121 21.0334 35.0121 21.2631 35.0121 21.4948L34.977 21.5158L34.979 21.5139Z" fill="#5D4632"/>
<path d="M16.4848 23.0053C16.1946 23.0053 15.9045 23.0053 15.6144 23.0053C15.5988 23.0053 15.5852 22.9823 15.5696 22.9689C15.5832 22.9574 15.5949 22.9421 15.6085 22.9364C15.6299 22.9287 15.6533 22.9326 15.6767 22.9306C15.8071 22.9211 15.8655 22.8636 15.8694 22.7296C15.8753 22.5765 15.8714 22.4214 15.8714 22.2682V21.1253C15.8714 20.93 15.8208 20.8764 15.6338 20.8611C15.6105 20.8592 15.589 20.8381 15.5676 20.8266C15.589 20.817 15.6105 20.7998 15.6319 20.7998C15.8967 20.7998 16.1596 20.7998 16.4244 20.7998C16.4458 20.7998 16.4672 20.817 16.4867 20.8266C16.4653 20.8381 16.4439 20.8592 16.4224 20.8611C16.2433 20.8764 16.1868 20.9204 16.1849 21.108C16.1771 21.6403 16.179 22.1706 16.1849 22.7028C16.1849 22.879 16.2394 22.9211 16.4108 22.9383C16.44 22.9402 16.4672 22.9613 16.4945 22.9728C16.4906 22.9842 16.4867 22.9957 16.4809 23.0072" fill="#5D4632"/>
<path d="M27.8953 26.4265L27.9303 26.4457C27.9848 26.3825 28.053 26.3289 28.0841 26.2561C28.1036 26.2121 28.0783 26.1317 28.0471 26.0896C28.0277 26.0628 27.9342 26.057 27.9128 26.08C27.8738 26.1202 27.8446 26.1891 27.8427 26.2485C27.8427 26.3078 27.8758 26.3672 27.8953 26.4265ZM28.0199 26.9664C27.9401 26.8382 27.8602 26.7137 27.7784 26.5797C27.683 26.6467 27.5954 26.7175 27.5954 26.8516C27.5954 26.9454 27.6343 27.02 27.722 27.0583C27.8446 27.1119 27.9323 27.0411 28.0199 26.9664ZM27.7317 26.4993C27.72 26.4112 27.6986 26.3155 27.6986 26.2217C27.6986 26.1126 27.7706 26.0455 27.8661 26.0111C27.9615 25.9766 28.0608 25.9747 28.1426 26.0513C28.2263 26.1279 28.2263 26.2657 28.1348 26.3538C28.0803 26.4093 28.0121 26.4495 27.9362 26.505C28.0004 26.6084 28.0666 26.7156 28.1348 26.8228C28.2905 26.708 28.3217 26.5567 28.2146 26.4246H28.5495C28.3548 26.5089 28.3353 26.7329 28.2068 26.8669C28.199 26.8745 28.201 26.9052 28.2088 26.9109C28.2789 26.9549 28.3451 27.0181 28.421 27.0315C28.4736 27.0411 28.5378 26.9817 28.6021 26.9492C28.6099 27.0143 28.5651 27.0794 28.5047 27.1292C28.3957 27.2191 28.2633 27.1847 28.0647 27.02C27.9556 27.1158 27.8349 27.1866 27.6811 27.177C27.4669 27.1636 27.3442 26.9703 27.4571 26.7845C27.5253 26.6735 27.6363 26.5912 27.7278 26.4974" fill="#5D4632"/>
<path d="M20.9279 26.101V26.5605C21.0603 26.5701 21.1772 26.5528 21.2472 26.4284C21.2959 26.3422 21.2862 26.2542 21.2317 26.1757C21.1557 26.0685 21.0467 26.0704 20.9299 26.101M20.5872 27.1463C20.6949 27.1042 20.7488 27.0244 20.7488 26.907V26.2561C20.7488 26.1399 20.7027 26.0646 20.6105 26.0302C20.813 26.0302 21.0194 26.0206 21.2239 26.034C21.3563 26.0417 21.4517 26.1565 21.4614 26.2752C21.4751 26.4112 21.4089 26.5184 21.2804 26.5739C21.257 26.5835 21.2317 26.593 21.1927 26.6083C21.3602 26.7921 21.4283 27.0621 21.699 27.1559C21.6055 27.1559 21.5101 27.1578 21.4167 27.154C21.3991 27.154 21.3797 27.1214 21.3641 27.1023C21.2648 26.9625 21.1694 26.8189 21.0642 26.683C21.037 26.6466 20.9824 26.6313 20.9182 26.5949C20.9182 26.7615 20.9182 26.8917 20.9182 27.02C20.9182 27.1233 21.0058 27.1138 21.0701 27.1463H20.5852H20.5872Z" fill="#5D4632"/>
<path d="M11.9397 26.5528C12.0897 26.5777 12.2065 26.5375 12.261 26.4417C12.3077 26.3632 12.3 26.2407 12.2474 26.1699C12.1851 26.0856 12.0838 26.0646 11.9397 26.1105V26.5528ZM12.0858 27.1482H11.6301C11.6301 27.1482 11.6301 27.131 11.6321 27.131C11.7645 27.0965 11.7781 27.0812 11.7801 26.9338C11.7801 26.7002 11.7801 26.4666 11.7801 26.2331C11.7801 26.0856 11.7664 26.0722 11.6321 26.0167C11.6944 26.0167 11.7547 26.0167 11.8171 26.0167C11.9534 26.0186 12.0916 26.0129 12.226 26.0301C12.3798 26.0493 12.4694 26.145 12.483 26.2733C12.4986 26.4188 12.4343 26.5164 12.2766 26.5815C12.261 26.5872 12.2474 26.5949 12.2162 26.6102C12.3837 26.7902 12.4479 27.0601 12.7128 27.1558C12.6232 27.1558 12.5356 27.1597 12.446 27.152C12.4207 27.152 12.3954 27.1156 12.3759 27.0888C12.2805 26.9548 12.1831 26.8208 12.0916 26.6849C12.0527 26.6274 12.0098 26.6026 11.9378 26.6313C11.9378 26.7538 11.9378 26.8802 11.9378 27.0046C11.9378 27.1042 12.0137 27.1176 12.0858 27.1463" fill="#5D4632"/>
<path d="M19.162 26.6007C19.1289 26.4743 19.1075 26.346 19.0627 26.2273C19.0179 26.1067 18.9147 26.057 18.792 26.0531C18.6655 26.0493 18.5681 26.1029 18.5136 26.2178C18.3967 26.459 18.4045 26.706 18.5155 26.9472C18.5681 27.0582 18.6655 27.1176 18.7842 27.1176C18.9089 27.1176 19.0179 27.0621 19.0685 26.9415C19.1114 26.8381 19.1308 26.7213 19.1639 26.6026M18.7862 27.1769C18.4668 27.1769 18.241 26.93 18.241 26.5777C18.241 26.2446 18.4785 25.99 18.7901 25.988C19.0919 25.988 19.3314 26.2465 19.3333 26.5739C19.3333 26.9127 19.0958 27.1769 18.7862 27.1769Z" fill="#5D4632"/>
<path d="M13.9026 27.1367C13.9357 27.1291 13.9513 27.1214 13.9668 27.1195C14.0369 27.1119 14.072 27.0755 14.07 27.0008C14.07 26.7232 14.0681 26.4475 14.07 26.1699C14.07 26.0627 14.0038 26.0474 13.9259 26.0244H14.7691C14.773 26.1029 14.7769 26.1833 14.7827 26.2752C14.7652 26.2618 14.7535 26.258 14.7496 26.2522C14.6776 26.0761 14.6737 26.0742 14.4828 26.0742C14.4069 26.0742 14.3329 26.0742 14.2589 26.0761C14.2531 26.0761 14.2472 26.0818 14.2355 26.0876V26.5164C14.3426 26.5164 14.4458 26.5298 14.5413 26.5107C14.5899 26.5011 14.6269 26.4322 14.6659 26.3939V26.7443C14.5977 26.4743 14.3874 26.639 14.2297 26.5777C14.2297 26.7366 14.2258 26.8764 14.2336 27.0142C14.2336 27.0372 14.2823 27.0755 14.3095 27.0774C14.403 27.085 14.5023 27.0946 14.5919 27.0755C14.6542 27.0621 14.7126 27.0085 14.7652 26.9625C14.7944 26.9376 14.81 26.8936 14.8314 26.8591C14.8411 26.863 14.8509 26.8668 14.8606 26.8725C14.8314 26.9606 14.8022 27.0487 14.7691 27.1348C14.7652 27.1463 14.7379 27.154 14.7204 27.154C14.4595 27.154 14.1985 27.154 13.9376 27.154C13.9298 27.154 13.922 27.1463 13.8987 27.1367" fill="#5D4632"/>
<path d="M16.8428 25.9631V26.3709C16.8428 26.3709 16.8311 26.3748 16.8253 26.3767C16.8136 26.3384 16.8039 26.3001 16.7902 26.2637C16.7377 26.1163 16.5838 26.0301 16.4495 26.0723C16.3093 26.1163 16.2703 26.2618 16.3852 26.3537C16.4689 26.4226 16.5663 26.4705 16.6578 26.5279C16.6987 26.5547 16.7435 26.5777 16.7824 26.6064C16.9032 26.6945 16.9499 26.8132 16.9148 26.9434C16.8778 27.0755 16.7591 27.175 16.6189 27.1769C16.539 27.1769 16.4573 27.1616 16.3794 27.1425C16.3132 27.1252 16.2509 27.0984 16.1963 27.2018V26.794L16.2139 26.7864C16.2216 26.8074 16.2353 26.8285 16.2411 26.8495C16.2898 27.0353 16.393 27.1118 16.5819 27.108C16.6753 27.1061 16.7415 27.064 16.7688 26.9759C16.7961 26.8859 16.7552 26.8113 16.6792 26.7634C16.5682 26.6926 16.4553 26.6275 16.3443 26.5566C16.2645 26.5069 16.2022 26.4398 16.1885 26.3384C16.1652 26.1718 16.2703 26.0206 16.4339 26.0014C16.5118 25.9919 16.5955 26.0053 16.6734 26.0244C16.7357 26.0397 16.7922 26.0837 16.8467 25.9631" fill="#5D4632"/>
<path d="M32.3133 26.57C32.4145 26.5853 32.506 26.6045 32.582 26.5279C32.654 26.4551 32.6715 26.3154 32.6209 26.2101C32.5742 26.1163 32.4924 26.0722 32.3756 26.0933C32.3522 26.0971 32.3171 26.1354 32.3171 26.1584C32.3113 26.2924 32.3152 26.4245 32.3152 26.5681M32.0056 26.0186C32.1769 26.0186 32.3502 26.0091 32.5216 26.0205C32.7631 26.0359 32.8974 26.235 32.8215 26.4475C32.7767 26.5758 32.6774 26.6332 32.5508 26.6428C32.4768 26.6485 32.4009 26.6428 32.3171 26.6428C32.3171 26.7672 32.3055 26.905 32.323 27.0371C32.3288 27.0812 32.4067 27.1137 32.4457 27.1463H31.9998C31.9998 27.1463 31.9998 27.129 32.0036 27.1271C32.1438 27.0965 32.1536 27.085 32.1536 26.9357C32.1536 26.7059 32.1536 26.4762 32.1536 26.2445C32.1536 26.078 32.1497 26.0742 32.0036 26.0167" fill="#5D4632"/>
<path d="M30.6231 26.0302V26.3729H30.6076C30.5939 26.3289 30.5822 26.2829 30.5628 26.2389C30.5044 26.103 30.3427 26.0264 30.2162 26.0743C30.0877 26.1221 30.0584 26.2581 30.1616 26.348C30.2298 26.4074 30.3135 26.4514 30.3895 26.4993C30.4479 26.5357 30.5102 26.5682 30.5647 26.6065C30.6835 26.6907 30.7302 26.819 30.6952 26.9454C30.6582 27.0717 30.5394 27.1732 30.405 27.1732C30.3194 27.1732 30.2317 27.1464 30.1461 27.1387C30.0935 27.133 30.0409 27.1387 29.9786 27.1406V26.7884C29.9786 26.7884 29.9922 26.7845 30 26.7826C30.0078 26.8075 30.0176 26.8324 30.0234 26.8573C30.0721 27.0449 30.2434 27.154 30.4206 27.0928C30.4732 27.0736 30.5277 27.0124 30.5472 26.9588C30.5745 26.8803 30.5316 26.8075 30.4635 26.7635C30.3505 26.6907 30.2337 26.6237 30.1208 26.551C30.0351 26.4955 29.9708 26.4227 29.963 26.3117C29.9494 26.0858 30.1578 25.9383 30.3992 26.0015C30.4245 26.0092 30.4479 26.0245 30.4732 26.0264C30.518 26.0302 30.5647 26.0264 30.6212 26.0264" fill="#5D4632"/>
<path d="M25.7239 25.9689V26.3728H25.7064C25.6928 26.3345 25.6792 26.2924 25.6636 26.2503C25.6071 26.1048 25.4455 26.0186 25.317 26.0761C25.2683 26.0991 25.2138 26.1584 25.204 26.2082C25.1963 26.2541 25.2313 26.3269 25.2702 26.3594C25.3442 26.4226 25.4338 26.4666 25.5175 26.5183C25.5623 26.5451 25.6071 26.5719 25.6519 26.6007C25.7785 26.6887 25.8291 26.8151 25.7921 26.9434C25.7551 27.0735 25.6246 27.1769 25.4825 27.175C25.3988 27.1731 25.317 27.152 25.2333 27.1348C25.1768 27.1233 25.1184 27.0869 25.0794 27.1693V26.7902L25.0969 26.7845C25.1067 26.8189 25.1184 26.8534 25.1281 26.8897C25.1807 27.0774 25.3676 27.1405 25.5273 27.0908C25.576 27.0755 25.6344 27.0084 25.6383 26.9587C25.6441 26.8993 25.613 26.817 25.5682 26.7787C25.4922 26.7098 25.391 26.6677 25.3034 26.6102C25.241 26.5681 25.1729 26.5298 25.1242 26.4724C24.9782 26.2982 25.0775 26.0282 25.3014 25.9995C25.3851 25.988 25.4767 26.0033 25.5584 26.0282C25.6227 26.0474 25.6694 26.0569 25.7181 25.9689" fill="#5D4632"/>
<path d="M36.4297 27.1387V26.796C36.4297 26.796 36.4414 26.794 36.4472 26.7921C36.4609 26.8343 36.4706 26.8764 36.4862 26.9166C36.5543 27.0965 36.7413 27.1387 36.8834 27.0908C37.0197 27.0448 37.0411 26.8725 36.9223 26.7768C36.8542 26.7213 36.7724 26.683 36.6984 26.6371C36.6342 26.5969 36.5699 26.5586 36.5115 26.5107C36.418 26.436 36.3849 26.3307 36.418 26.2159C36.4511 26.0933 36.5368 26.0129 36.6614 26.0014C36.7432 25.9938 36.8269 26.0187 36.9107 26.0263C36.9593 26.0302 37.008 26.0263 37.0664 26.0263V26.369C37.0664 26.369 37.0567 26.3729 37.0509 26.3729C37.0392 26.3346 37.0275 26.2982 37.0158 26.2599C36.9632 26.1125 36.8036 26.0187 36.677 26.0742C36.6244 26.0972 36.566 26.1546 36.5524 26.2082C36.5407 26.2503 36.5796 26.325 36.6186 26.3575C36.6887 26.4188 36.7763 26.4628 36.8561 26.5126C36.9068 26.5432 36.9593 26.5701 37.008 26.6045C37.1268 26.6888 37.1755 26.8151 37.1404 26.9434C37.1073 27.0678 36.9866 27.1731 36.8522 27.175C36.7666 27.175 36.6809 27.1501 36.5933 27.1406C36.5426 27.1348 36.4881 27.1406 36.4297 27.1406" fill="#5D4632"/>
<path d="M34.6596 26.704C34.5973 26.5508 34.5428 26.4149 34.4786 26.2598C34.4123 26.4168 34.352 26.5566 34.2897 26.704H34.6577H34.6596ZM35.1055 27.152H34.683C34.7181 27.1137 34.7823 27.0716 34.7765 27.041C34.7628 26.9548 34.7219 26.8725 34.6888 26.7902C34.6869 26.7825 34.6655 26.7768 34.6538 26.7768C34.5331 26.7768 34.4123 26.7748 34.2916 26.7768C34.2741 26.7768 34.2488 26.8016 34.2371 26.8208C34.2176 26.8552 34.204 26.8935 34.1884 26.9299C34.13 27.0754 34.1339 27.0869 34.278 27.1424H33.9294C34.0424 27.0965 34.0755 26.9912 34.1183 26.8916C34.2332 26.6198 34.3481 26.3479 34.4649 26.076C34.4786 26.0454 34.4922 26.0167 34.5175 25.9669C34.5409 26.0129 34.5564 26.0397 34.5681 26.0684C34.685 26.3498 34.7998 26.6332 34.9147 26.9165C34.9537 27.0142 34.9926 27.108 35.1017 27.1501" fill="#5D4632"/>
<path d="M23.5198 27.1482H23.0427C23.0427 27.1482 23.0427 27.131 23.0447 27.129C23.1868 27.0927 23.1927 27.0869 23.1927 26.9357V26.1067C22.9863 26.0569 22.9415 26.078 22.8071 26.3039C22.8149 26.1948 22.8188 26.1124 22.8247 26.0167H23.1751C23.3348 26.0167 23.4945 26.0186 23.6542 26.0167C23.7184 26.0167 23.7437 26.0378 23.7398 26.1029C23.7359 26.1622 23.7398 26.2197 23.7262 26.2905C23.6834 26.0531 23.5179 26.0914 23.3523 26.099V26.9012C23.3523 27.0212 23.4075 27.1048 23.5179 27.152" fill="#5D4632"/>
<path d="M32.1907 19.1514H32.1031V18.8087C32.1031 18.8087 32.0895 18.8049 32.0836 18.803C32.0505 18.8968 32.0213 18.9925 31.9863 19.0844C31.9746 19.1131 31.9434 19.1323 31.922 19.1552C31.8987 19.1323 31.8675 19.1131 31.8558 19.0863C31.8188 18.9963 31.7916 18.9025 31.7429 18.8125V19.1514C31.7078 19.1514 31.6825 19.1533 31.6514 19.1552V18.6441C31.7877 18.6115 31.7857 18.6115 31.8305 18.7417C31.8578 18.8183 31.885 18.8949 31.922 18.9925C31.9551 18.8949 31.9882 18.8183 32.0097 18.7398C32.035 18.6383 32.0895 18.6039 32.1927 18.6402V19.1495L32.1907 19.1514Z" fill="#5D4632"/>
<path d="M36.4724 22.6875C36.4724 22.4635 36.303 22.2855 36.0868 22.2836C35.8707 22.2836 35.6935 22.4597 35.6935 22.6799C35.6935 22.902 35.8668 23.0838 36.079 23.0857C36.2913 23.0896 36.4685 22.9058 36.4704 22.6856M36.5094 22.6818C36.5094 22.9364 36.3244 23.1259 36.079 23.1259C35.8415 23.1259 35.6545 22.9326 35.6545 22.6856C35.6545 22.4348 35.8337 22.2472 36.0771 22.2472C36.3341 22.2472 36.5094 22.4233 36.5094 22.6818Z" fill="#5D4632"/>
<path d="M31.2929 18.7187H31.1351C31.1137 18.6632 31.1118 18.6306 31.178 18.6306C31.289 18.6306 31.4 18.6268 31.509 18.6326C31.5304 18.6326 31.5518 18.6689 31.5713 18.69C31.5655 18.6977 31.5577 18.7053 31.5518 18.713H31.3961V19.1476C31.3571 19.1495 31.3318 19.1514 31.2909 19.1552V18.7187H31.2929Z" fill="#5D4632"/>
<path d="M35.9973 22.4481V22.6645C36.0791 22.6683 36.1473 22.6587 36.1551 22.5592C36.1609 22.4807 36.1122 22.4462 35.9973 22.45M36.1317 22.6951C36.1921 22.7812 36.2485 22.8597 36.3011 22.9344C36.2427 22.9472 36.1908 22.921 36.1453 22.8559C36.1064 22.8023 36.0674 22.7487 36.0129 22.7008C36.0071 22.7851 35.9526 22.8731 36.0499 22.9421H35.8669C35.9234 22.8559 35.9136 22.4845 35.8474 22.406C35.9272 22.406 36.0012 22.4041 36.0752 22.406C36.1551 22.4098 36.2349 22.4213 36.2583 22.5209C36.2816 22.6185 36.2154 22.6568 36.1336 22.6932" fill="#5D4632"/>
</g>
</g>
</g>
<defs>
<filter id="filter0_d_184_2715" x="0" y="0" width="48" height="48" filterUnits="userSpaceOnUse" color-interpolation-filters="sRGB">
<feFlood flood-opacity="0" result="BackgroundImageFix"/>
<feColorMatrix in="SourceAlpha" type="matrix" values="0 0 0 0 0 0 0 0 0 0 0 0 0 0 0 0 0 0 127 0" result="hardAlpha"/>
<feOffset dy="4"/>
<feGaussianBlur stdDeviation="2"/>
<feComposite in2="hardAlpha" operator="out"/>
<feColorMatrix type="matrix" values="0 0 0 0 0 0 0 0 0 0 0 0 0 0 0 0 0 0 0.3 0"/>
<feBlend mode="normal" in2="BackgroundImageFix" result="effect1_dropShadow_184_2715"/>
<feBlend mode="normal" in="SourceGraphic" in2="effect1_dropShadow_184_2715" result="shape"/>
</filter>
<clipPath id="clip0_184_2715">
<rect width="26.4" height="17.6" fill="white" transform="translate(11.2 9.59998)"/>
</clipPath>
</defs>
</svg>
