<svg width="48" height="48" viewBox="0 0 48 48" fill="none" xmlns="http://www.w3.org/2000/svg">
<g filter="url(#filter0_d_184_2718)">
<rect x="4" width="40" height="40" rx="20" fill="#F4E5D2" shape-rendering="crispEdges"/>
<path d="M32.6069 19.2709V20.9638C33.1077 20.9362 33.5983 20.931 34.0837 20.8757C34.5077 20.8286 34.7105 20.5726 34.732 20.1568C34.7535 19.7441 34.5723 19.4686 34.1718 19.3569C33.6597 19.2146 33.1343 19.2863 32.6069 19.2699M32.2188 18.9483C32.9377 18.9903 33.6556 18.8674 34.3551 19.0743C35.1069 19.2965 35.4028 20.2182 34.9072 20.7928C34.6644 21.0744 34.3306 21.1861 33.9793 21.2076C33.3965 21.2424 32.8128 21.2424 32.2188 21.2567V18.9473V18.9483Z" fill="#5D4632"/>
<path d="M29.2656 18.9688V21.2393H31.7328V20.9208H29.6507V20.2233H31.0712V19.9059H29.6507V19.2914H31.6376V18.9688H29.2656Z" fill="#5D4632"/>
<path d="M18.6719 18.9629V21.2427H21.1411V20.919H19.0539V20.2267H20.4805V19.9123H19.0498V19.2916H21.0377V18.9629H18.6719Z" fill="#5D4632"/>
<path d="M15.2266 18.9609V21.2428H15.6065V20.2575H17.6487V21.2417H18.0194V18.9681H17.6405V19.9124H15.6014V18.9609H15.2266Z" fill="#5D4632"/>
<path d="M25.8203 18.9668V21.2435H26.2054V20.2593H28.2486V21.2435H28.6152V18.9678H28.2404V19.9121H26.1982V18.9668H25.8203Z" fill="#5D4632"/>
<path d="M25.2257 20.6728C25.2923 20.7516 25.3547 20.8254 25.4234 20.9073C25.2329 21.0855 25.0075 21.1725 24.7658 21.2237C24.2527 21.3323 23.7427 21.3251 23.246 21.1428C22.5619 20.8919 22.2864 20.1381 22.6592 19.5278C22.8497 19.2154 23.1549 19.0597 23.5 18.986C24.0786 18.8631 24.6501 18.8682 25.197 19.1304C25.2585 19.1601 25.3138 19.2031 25.3865 19.2482C25.3168 19.3332 25.2544 19.41 25.1858 19.494C25.0823 19.4376 24.9871 19.37 24.8806 19.3332C24.4299 19.1765 23.9711 19.1632 23.5143 19.2983C23.1323 19.411 22.9244 19.6783 22.9101 20.0408C22.8937 20.4669 23.0637 20.7608 23.459 20.8929C23.9629 21.0619 24.4719 21.0363 24.9656 20.8305C25.0536 20.7936 25.1305 20.7311 25.2257 20.6728Z" fill="#5D4632"/>
<path d="M12 18.9666V19.284H13.2167V21.2391H13.6079V19.2779H14.8215V18.9666H12Z" fill="#5D4632"/>
<path d="M36.0021 18.9688H35.6406V21.2434H36.0021V18.9688Z" fill="#5D4632"/>
</g>
<defs>
<filter id="filter0_d_184_2718" x="0" y="0" width="48" height="48" filterUnits="userSpaceOnUse" color-interpolation-filters="sRGB">
<feFlood flood-opacity="0" result="BackgroundImageFix"/>
<feColorMatrix in="SourceAlpha" type="matrix" values="0 0 0 0 0 0 0 0 0 0 0 0 0 0 0 0 0 0 127 0" result="hardAlpha"/>
<feOffset dy="4"/>
<feGaussianBlur stdDeviation="2"/>
<feComposite in2="hardAlpha" operator="out"/>
<feColorMatrix type="matrix" values="0 0 0 0 0 0 0 0 0 0 0 0 0 0 0 0 0 0 0.3 0"/>
<feBlend mode="normal" in2="BackgroundImageFix" result="effect1_dropShadow_184_2718"/>
<feBlend mode="normal" in="SourceGraphic" in2="effect1_dropShadow_184_2718" result="shape"/>
</filter>
</defs>
</svg>
