<svg width="75" height="75" viewBox="0 0 75 75" fill="none" xmlns="http://www.w3.org/2000/svg">
<g filter="url(#filter0_d_184_3779)">
<rect x="10" y="4" width="55" height="55" rx="27.5" fill="#B47046" shape-rendering="crispEdges"/>
<path d="M49.3345 30.4977V32.8255C50.0231 32.7875 50.6976 32.7804 51.3651 32.7044C51.9481 32.6396 52.227 32.2876 52.2565 31.7158C52.2861 31.1483 52.0368 30.7695 51.4862 30.616C50.7821 30.4203 50.0597 30.5189 49.3345 30.4963M48.8008 30.0541C49.7893 30.1119 50.7765 29.9429 51.7383 30.2274C52.7719 30.5329 53.1789 31.8003 52.4973 32.5903C52.1636 32.9776 51.7045 33.1311 51.2215 33.1607C50.4202 33.2085 49.6175 33.2085 48.8008 33.2282V30.0527V30.0541Z" fill="#F4E5D2"/>
<path d="M44.7402 30.082V33.204H48.1326V32.7661H45.2697V31.8071H47.2229V31.3705H45.2697V30.5256H48.0016V30.082H44.7402Z" fill="#F4E5D2"/>
<path d="M30.1738 30.0742V33.2089H33.569V32.7639H30.6991V31.812H32.6607V31.3796H30.6935V30.5263H33.4268V30.0742H30.1738Z" fill="#F4E5D2"/>
<path d="M25.4365 30.0713V33.2088H25.959V31.8541H28.7669V33.2074H29.2767V30.0811H28.7557V31.3795H25.9519V30.0713H25.4365Z" fill="#F4E5D2"/>
<path d="M40.0029 30.0796V33.21H40.5324V31.8568H43.3418V33.21H43.8459V30.081H43.3305V31.3794H40.5226V30.0796H40.0029Z" fill="#F4E5D2"/>
<path d="M39.1853 32.4253C39.2769 32.5337 39.3628 32.6351 39.4571 32.7478C39.1952 32.9928 38.8854 33.1125 38.553 33.1829C37.8475 33.3322 37.1462 33.3223 36.4633 33.0716C35.5226 32.7266 35.1438 31.6902 35.6564 30.8509C35.9183 30.4214 36.3379 30.2073 36.8125 30.106C37.6081 29.937 38.3939 29.944 39.1459 30.3045C39.2304 30.3454 39.3064 30.4045 39.4064 30.4665C39.3107 30.5833 39.2248 30.689 39.1304 30.8044C38.9882 30.727 38.8572 30.634 38.7108 30.5833C38.0911 30.3679 37.4603 30.3496 36.8322 30.5355C36.3069 30.6904 36.0211 31.0579 36.0014 31.5564C35.9788 32.1422 36.2126 32.5464 36.7562 32.728C37.449 32.9604 38.1489 32.9252 38.8276 32.6421C38.9488 32.5914 39.0544 32.5055 39.1853 32.4253Z" fill="#F4E5D2"/>
<path d="M21 30.0793V30.5159H22.673V33.2042H23.2109V30.5074H24.8796V30.0793H21Z" fill="#F4E5D2"/>
<path d="M54.003 30.082H53.5059V33.2097H54.003V30.082Z" fill="#F4E5D2"/>
</g>
<defs>
<filter id="filter0_d_184_3779" x="0" y="0" width="75" height="75" filterUnits="userSpaceOnUse" color-interpolation-filters="sRGB">
<feFlood flood-opacity="0" result="BackgroundImageFix"/>
<feColorMatrix in="SourceAlpha" type="matrix" values="0 0 0 0 0 0 0 0 0 0 0 0 0 0 0 0 0 0 127 0" result="hardAlpha"/>
<feOffset dy="6"/>
<feGaussianBlur stdDeviation="5"/>
<feComposite in2="hardAlpha" operator="out"/>
<feColorMatrix type="matrix" values="0 0 0 0 0 0 0 0 0 0 0 0 0 0 0 0 0 0 0.5 0"/>
<feBlend mode="normal" in2="BackgroundImageFix" result="effect1_dropShadow_184_3779"/>
<feBlend mode="normal" in="SourceGraphic" in2="effect1_dropShadow_184_3779" result="shape"/>
</filter>
</defs>
</svg>
