<svg width="48" height="48" viewBox="0 0 48 48" fill="none" xmlns="http://www.w3.org/2000/svg">
<g filter="url(#filter0_d_184_2720)">
<rect x="4" width="40" height="40" rx="20" fill="#F4E5D2" shape-rendering="crispEdges"/>
<path d="M31.8706 16.5365V25.1997H32.3076V16.5365H31.8706ZM25.7407 19.322C27.0454 18.898 28.2935 19.5547 28.6349 21.0116C28.6871 21.24 28.711 21.4726 28.7502 21.7227H24.1511C24.2359 20.4441 24.86 19.6091 25.7428 19.322M30.3984 16.7822C30.3984 18.337 30.3984 19.8918 30.3984 21.4465C30.3984 21.6118 30.3876 21.7771 30.368 21.9423C30.2027 23.3601 29.0742 24.4626 27.5846 24.6691C26.2538 24.8518 24.8708 24.0385 24.3511 22.7578C24.2729 22.5664 24.2228 22.3642 24.1511 22.1337H24.4185C25.9407 22.1337 27.465 22.1315 28.9872 22.138C29.1546 22.138 29.222 22.0924 29.2046 21.9227C29.1764 21.6379 29.1764 21.3487 29.122 21.0703C28.6393 18.5958 26.0951 18.3065 24.736 19.4025C24.1032 19.9135 23.7249 20.5898 23.4857 21.3487C23.1573 22.3924 22.8464 23.4384 22.5267 24.4843C22.5093 24.5408 22.4876 24.593 22.4506 24.6909C22.4115 24.5822 22.3854 24.5191 22.368 24.4539C21.8526 22.736 21.3395 21.0182 20.8241 19.3003C20.7197 18.9524 20.6915 18.9459 20.4109 18.9459C20.1109 18.9459 20.0978 18.9676 20.0326 19.185C19.4977 20.9442 18.9888 22.7099 18.4648 24.4691C18.4474 24.53 18.4213 24.5887 18.3778 24.7018C18.1756 24.0472 17.9929 23.4514 17.8081 22.8578C17.4232 21.6118 17.0405 20.3658 16.6534 19.122C16.6338 19.0589 16.5816 18.9676 16.5316 18.9589C16.3925 18.9459 16.2729 18.9502 16.125 18.9502C16.1489 19.0437 17.3884 22.9709 17.9929 24.8735C18.0973 25.1997 18.1364 25.2041 18.3821 25.2041C18.6648 25.2041 18.6866 25.1519 18.7387 24.9823C19.265 23.234 19.7999 21.49 20.3327 19.7439C20.3522 19.6808 20.3957 19.5569 20.3957 19.5569C20.3957 19.5569 20.3957 19.5373 20.4196 19.5351C20.4414 19.5351 20.4457 19.5569 20.4457 19.5569C20.4457 19.5569 21.5808 23.3144 22.1549 25.2062C22.2788 25.2062 22.4093 25.2062 22.4832 25.2019C22.6572 25.191 22.7355 25.1649 22.7898 24.9888C23.0138 24.2473 23.2595 23.5101 23.4966 22.773C23.5531 22.599 23.6096 22.4251 23.6814 22.1967C23.714 22.325 23.7336 22.3968 23.751 22.4664C24.2054 24.256 26.0233 25.4389 27.8216 25.1149C29.6134 24.7931 30.8442 23.3253 30.8486 21.4987C30.8507 19.9113 30.8486 18.3261 30.8486 16.7387V16.5365H30.4006V16.78L30.3984 16.7822Z" fill="#5D4632"/>
<path d="M15.8761 13.4127V15.8917C15.8761 17.2094 16.9481 18.2814 18.2659 18.2814C19.5836 18.2814 20.6557 17.2094 20.6557 15.8917V15.8025C20.6557 14.4848 19.5836 13.4127 18.2659 13.4127H15.8761ZM18.2659 18.4554C16.8525 18.4554 15.7021 17.3051 15.7021 15.8917V13.2388H18.2659C19.6793 13.2388 20.8296 14.3891 20.8296 15.8025V15.8917C20.8296 17.3051 19.6793 18.4554 18.2659 18.4554Z" fill="#5D4632"/>
<path d="M23.2315 13.4562C21.9137 13.4562 20.8417 14.5282 20.8417 15.846C20.8417 17.1637 21.9137 18.2358 23.2315 18.2358H23.3206C24.6384 18.2358 25.7104 17.1637 25.7104 15.846V13.4562H23.2315ZM23.3206 18.4119H23.2315C21.818 18.4119 20.6677 17.2616 20.6677 15.8482C20.6677 14.4347 21.818 13.2844 23.2315 13.2844H25.8844V15.8482C25.8844 17.2616 24.734 18.4119 23.3206 18.4119Z" fill="#5D4632"/>
<path d="M20.772 12.3857L18.9868 14.1709C18.0387 15.119 18.0387 16.6629 18.9868 17.6132C19.4456 18.0742 20.0566 18.3264 20.7068 18.3264C21.357 18.3264 21.968 18.0742 22.4268 17.6132L22.4899 17.5501C23.438 16.602 23.438 15.0581 22.4899 14.1079L20.7699 12.3878L20.772 12.3857ZM20.709 18.4112C20.0349 18.4112 19.4021 18.1481 18.9259 17.6741C17.943 16.6912 17.943 15.0929 18.9259 14.1079L20.772 12.2617L22.5551 14.0448C23.538 15.0277 23.538 16.6259 22.5551 17.6088L22.4921 17.6719C22.0158 18.1481 21.3831 18.409 20.709 18.409" fill="#5D4632"/>
<path d="M15.8624 26.7794V27.2143H15.3579V26.7794H15.2427V27.7384H15.3579V27.3122H15.8624V27.7384H15.9798V26.7794H15.8624Z" fill="#5D4632"/>
<path d="M16.7593 26.7794V27.7384H17.3442V27.6427H16.8767V27.2948H17.2333V27.1991H16.8767V26.8751H17.3203V26.7794H16.7593Z" fill="#5D4632"/>
<path d="M18.3867 26.8751L18.5541 27.3687H18.2214L18.3867 26.8751ZM18.3149 26.7794L17.9844 27.7384H18.0953L18.1866 27.4622H18.5824L18.6759 27.7384H18.7911L18.4671 26.7794H18.3149Z" fill="#5D4632"/>
<path d="M19.501 26.7794V27.7384H20.0555V27.6427H19.6162V26.7794H19.501Z" fill="#5D4632"/>
<path d="M20.5657 26.7794V26.8751H20.844V27.7384H20.9614V26.8751H21.2398V26.7794H20.5657Z" fill="#5D4632"/>
<path d="M22.5584 26.7794V27.2143H22.0518V26.7794H21.9365V27.7384H22.0518V27.3122H22.5584V27.7384H22.6737V26.7794H22.5584Z" fill="#5D4632"/>
<path d="M24.6407 27.2277C24.7777 27.2277 24.8516 27.169 24.8516 27.0516V27.0472C24.8516 26.9168 24.7711 26.8733 24.6407 26.8733H24.4602V27.2299H24.6407V27.2277ZM24.3449 26.7776H24.6342C24.819 26.7776 24.969 26.8537 24.969 27.0451V27.0494C24.969 27.2081 24.8625 27.2864 24.732 27.3103L25.0256 27.7365H24.8951L24.6081 27.319H24.4602V27.7365H24.3428V26.7776H24.3449Z" fill="#5D4632"/>
<path d="M25.728 26.7794V27.7384H26.3108V27.6427H25.8433V27.2948H26.1999V27.1991H25.8433V26.8751H26.2869V26.7794H25.728Z" fill="#5D4632"/>
<path d="M26.9385 26.7794V26.8751H27.219V27.7384H27.3342V26.8751H27.6147V26.7794H26.9385Z" fill="#5D4632"/>
<path d="M28.6072 27.2277C28.7442 27.2277 28.8182 27.169 28.8182 27.0516V27.0472C28.8182 26.9168 28.7377 26.8733 28.6072 26.8733H28.4267V27.2299H28.6072V27.2277ZM28.3115 26.7776H28.6007C28.7855 26.7776 28.9356 26.8537 28.9356 27.0451V27.0494C28.9356 27.2081 28.829 27.2864 28.6986 27.3103L28.9921 27.7365H28.8616L28.5746 27.319H28.4267V27.7365H28.3093V26.7776H28.3115Z" fill="#5D4632"/>
<path d="M29.6948 26.7794V27.7384H30.2776V27.6427H29.8101V27.2948H30.1689V27.1991H29.8101V26.8751H30.2537V26.7794H29.6948Z" fill="#5D4632"/>
<path d="M31.3146 26.8751L31.4821 27.3687H31.1494L31.3146 26.8751ZM31.2429 26.7794L30.9124 27.7384H31.0232L31.1146 27.4622H31.5103L31.6038 27.7384H31.7191L31.3951 26.7794H31.2429Z" fill="#5D4632"/>
<path d="M32.2542 26.7794V26.8751H32.5347V27.7384H32.6499V26.8751H32.9304V26.7794H32.2542Z" fill="#5D4632"/>
</g>
<defs>
<filter id="filter0_d_184_2720" x="0" y="0" width="48" height="48" filterUnits="userSpaceOnUse" color-interpolation-filters="sRGB">
<feFlood flood-opacity="0" result="BackgroundImageFix"/>
<feColorMatrix in="SourceAlpha" type="matrix" values="0 0 0 0 0 0 0 0 0 0 0 0 0 0 0 0 0 0 127 0" result="hardAlpha"/>
<feOffset dy="4"/>
<feGaussianBlur stdDeviation="2"/>
<feComposite in2="hardAlpha" operator="out"/>
<feColorMatrix type="matrix" values="0 0 0 0 0 0 0 0 0 0 0 0 0 0 0 0 0 0 0.3 0"/>
<feBlend mode="normal" in2="BackgroundImageFix" result="effect1_dropShadow_184_2720"/>
<feBlend mode="normal" in="SourceGraphic" in2="effect1_dropShadow_184_2720" result="shape"/>
</filter>
</defs>
</svg>
