<svg width="75" height="75" viewBox="0 0 75 75" fill="none" xmlns="http://www.w3.org/2000/svg">
<g filter="url(#filter0_d_184_3683)">
<rect x="10" y="4" width="55" height="55" rx="27.5" fill="#B47046" shape-rendering="crispEdges"/>
<path d="M48.3218 26.7377V38.6496H48.9228V26.7377H48.3218ZM39.8932 30.5678C41.6871 29.9847 43.4033 30.8877 43.8728 32.891C43.9445 33.2049 43.9774 33.5248 44.0312 33.8687H37.7075C37.8241 32.1106 38.6822 30.9625 39.8961 30.5678M46.2976 27.0755C46.2976 29.2133 46.2976 31.3512 46.2976 33.489C46.2976 33.7162 46.2827 33.9434 46.2557 34.1707C46.0285 36.1201 44.4767 37.636 42.4286 37.9201C40.5988 38.1712 38.6972 37.053 37.9826 35.2919C37.8749 35.0288 37.8062 34.7507 37.7075 34.4338H38.0753C40.1682 34.4338 42.2642 34.4308 44.3571 34.4398C44.5874 34.4398 44.68 34.377 44.6561 34.1438C44.6173 33.7521 44.6173 33.3544 44.5425 32.9717C43.8787 29.5691 40.3805 29.1715 38.5118 30.6784C37.6417 31.381 37.1215 32.3109 36.7926 33.3544C36.3411 34.7896 35.9135 36.2278 35.474 37.6659C35.4501 37.7437 35.4202 37.8154 35.3694 37.95C35.3155 37.8005 35.2797 37.7137 35.2557 37.624C34.5471 35.262 33.8415 32.8999 33.1329 30.5379C32.9894 30.0595 32.9505 30.0505 32.5648 30.0505C32.1522 30.0505 32.1343 30.0804 32.0446 30.3794C31.309 32.7983 30.6094 35.2261 29.8888 37.645C29.8649 37.7287 29.829 37.8094 29.7692 37.9649C29.4911 37.0649 29.24 36.2457 28.9858 35.4294C28.4566 33.7162 27.9304 32.003 27.3982 30.2927C27.3713 30.206 27.2995 30.0804 27.2307 30.0685C27.0394 30.0505 26.8749 30.0565 26.6716 30.0565C26.7045 30.1851 28.4088 35.5849 29.24 38.2011C29.3835 38.6496 29.4373 38.6556 29.7752 38.6556C30.1639 38.6556 30.1938 38.5838 30.2655 38.3506C30.9891 35.9467 31.7246 33.5488 32.4572 31.1478C32.4841 31.0611 32.5439 30.8907 32.5439 30.8907C32.5439 30.8907 32.5439 30.8638 32.5768 30.8608C32.6067 30.8608 32.6126 30.8907 32.6126 30.8907C32.6126 30.8907 34.1734 36.0573 34.9627 38.6586C35.1332 38.6586 35.3126 38.6586 35.4142 38.6526C35.6534 38.6376 35.761 38.6018 35.8358 38.3596C36.1438 37.34 36.4816 36.3264 36.8075 35.3128C36.8853 35.0736 36.963 34.8344 37.0617 34.5205C37.1065 34.6969 37.1334 34.7956 37.1573 34.8912C37.7822 37.352 40.2818 38.9785 42.7545 38.533C45.2182 38.0905 46.9105 36.0723 46.9165 33.5607C46.9195 31.3781 46.9165 29.1984 46.9165 27.0157V26.7377H46.3006V27.0725L46.2976 27.0755Z" fill="#F4E5D2"/>
<path d="M26.3295 22.4426V25.8511C26.3295 27.663 27.8036 29.137 29.6155 29.137C31.4274 29.137 32.9014 27.663 32.9014 25.8511V25.7285C32.9014 23.9166 31.4274 22.4426 29.6155 22.4426H26.3295ZM29.6155 29.3762C27.672 29.3762 26.0903 27.7946 26.0903 25.8511V22.2034H29.6155C31.5589 22.2034 33.1406 23.785 33.1406 25.7285V25.8511C33.1406 27.7946 31.5589 29.3762 29.6155 29.3762Z" fill="#F4E5D2"/>
<path d="M36.4431 22.5022C34.6312 22.5022 33.1572 23.9762 33.1572 25.7881C33.1572 27.6 34.6312 29.0741 36.4431 29.0741H36.5657C38.3776 29.0741 39.8516 27.6 39.8516 25.7881V22.5022H36.4431ZM36.5657 29.3163H36.4431C34.4997 29.3163 32.918 27.7346 32.918 25.7911C32.918 23.8477 34.4997 22.266 36.4431 22.266H40.0908V25.7911C40.0908 27.7346 38.5092 29.3163 36.5657 29.3163Z" fill="#F4E5D2"/>
<path d="M33.0613 21.0303L30.6066 23.485C29.303 24.7886 29.303 26.9115 30.6066 28.2181C31.2375 28.852 32.0776 29.1988 32.9716 29.1988C33.8656 29.1988 34.7058 28.852 35.3367 28.2181L35.4234 28.1314C36.727 26.8278 36.727 24.7049 35.4234 23.3983L33.0583 21.0333L33.0613 21.0303ZM32.9746 29.3154C32.0477 29.3154 31.1777 28.9536 30.5229 28.3018C29.1714 26.9504 29.1714 24.7528 30.5229 23.3983L33.0613 20.8599L35.5131 23.3116C36.8645 24.6631 36.8645 26.8607 35.5131 28.2121L35.4264 28.2988C34.7716 28.9536 33.9015 29.3124 32.9746 29.3124" fill="#F4E5D2"/>
<path d="M26.3109 40.8217V41.4196H25.6172V40.8217H25.4587V42.1402H25.6172V41.5542H26.3109V42.1402H26.4723V40.8217H26.3109Z" fill="#F4E5D2"/>
<path d="M27.5439 40.8218V42.1403H28.3482V42.0088H27.7054V41.5304H28.1958V41.3988H27.7054V40.9533H28.3153V40.8218H27.5439Z" fill="#F4E5D2"/>
<path d="M29.7814 40.9533L30.0116 41.632H29.5542L29.7814 40.9533ZM29.6827 40.8218L29.2283 42.1403H29.3808L29.5063 41.7606H30.0505L30.1791 42.1403H30.3375L29.892 40.8218H29.6827Z" fill="#F4E5D2"/>
<path d="M31.314 40.8217V42.1402H32.0764V42.0087H31.4724V40.8217H31.314Z" fill="#F4E5D2"/>
<path d="M32.7778 40.8217V40.9532H33.1605V42.1402H33.322V40.9532H33.7047V40.8217H32.7778Z" fill="#F4E5D2"/>
<path d="M35.5177 40.8217V41.4196H34.8211V40.8217H34.6626V42.1402H34.8211V41.5542H35.5177V42.1402H35.6762V40.8217H35.5177Z" fill="#F4E5D2"/>
<path d="M38.3808 41.4381C38.5692 41.4381 38.6708 41.3574 38.6708 41.1959V41.19C38.6708 41.0106 38.5602 40.9508 38.3808 40.9508H38.1326V41.4411H38.3808V41.4381ZM37.9742 40.8192H38.3718C38.626 40.8192 38.8323 40.9239 38.8323 41.187V41.193C38.8323 41.4112 38.6858 41.5189 38.5064 41.5518L38.91 42.1378H38.7306L38.336 41.5637H38.1326V42.1378H37.9712V40.8192H37.9742Z" fill="#F4E5D2"/>
<path d="M39.876 40.8218V42.1403H40.6773V42.0088H40.0344V41.5304H40.5248V41.3988H40.0344V40.9533H40.6444V40.8218H39.876Z" fill="#F4E5D2"/>
<path d="M41.5405 40.8217V40.9532H41.9262V42.1402H42.0847V40.9532H42.4704V40.8217H41.5405Z" fill="#F4E5D2"/>
<path d="M43.8349 41.4381C44.0233 41.4381 44.1249 41.3574 44.1249 41.1959V41.19C44.1249 41.0106 44.0143 40.9508 43.8349 40.9508H43.5867V41.4411H43.8349V41.4381ZM43.4283 40.8192H43.8259C44.0801 40.8192 44.2864 40.9239 44.2864 41.187V41.193C44.2864 41.4112 44.1399 41.5189 43.9605 41.5518L44.3641 42.1378H44.1847L43.7901 41.5637H43.5867V42.1378H43.4253V40.8192H43.4283Z" fill="#F4E5D2"/>
<path d="M45.3303 40.8217V42.1402H46.1316V42.0087H45.4888V41.5303H45.9821V41.3987H45.4888V40.9532H46.0987V40.8217H45.3303Z" fill="#F4E5D2"/>
<path d="M47.5578 40.9532L47.788 41.6319H47.3305L47.5578 40.9532ZM47.4591 40.8217L47.0046 42.1402H47.1571L47.2827 41.7605H47.8269L47.9554 42.1402H48.1139L47.6684 40.8217H47.4591Z" fill="#F4E5D2"/>
<path d="M48.8496 40.8217V40.9532H49.2353V42.1402H49.3938V40.9532H49.7795V40.8217H48.8496Z" fill="#F4E5D2"/>
</g>
<defs>
<filter id="filter0_d_184_3683" x="0" y="0" width="75" height="75" filterUnits="userSpaceOnUse" color-interpolation-filters="sRGB">
<feFlood flood-opacity="0" result="BackgroundImageFix"/>
<feColorMatrix in="SourceAlpha" type="matrix" values="0 0 0 0 0 0 0 0 0 0 0 0 0 0 0 0 0 0 127 0" result="hardAlpha"/>
<feOffset dy="6"/>
<feGaussianBlur stdDeviation="5"/>
<feComposite in2="hardAlpha" operator="out"/>
<feColorMatrix type="matrix" values="0 0 0 0 0 0 0 0 0 0 0 0 0 0 0 0 0 0 0.5 0"/>
<feBlend mode="normal" in2="BackgroundImageFix" result="effect1_dropShadow_184_3683"/>
<feBlend mode="normal" in="SourceGraphic" in2="effect1_dropShadow_184_3683" result="shape"/>
</filter>
</defs>
</svg>
