<svg width="40" height="40" viewBox="0 0 40 40" fill="none" xmlns="http://www.w3.org/2000/svg">
<path d="M15.6739 16.7865L13.5044 20.7329L14.0452 21.6471H18.3843L18.9251 20.7329L16.7555 16.7865H15.6739ZM15.0817 20.4174L16.2083 18.3638L17.3349 20.4174H15.0817Z" fill="#614530"/>
<path d="M33.2493 18.956C31.6205 18.853 30.1141 20.044 29.6699 21.7822L29.657 26.5398C29.2965 26.6364 28.8651 26.7008 28.2535 26.7008C27.1784 26.7008 26.6763 26.5076 26.0968 26.2759C25.8265 26.1729 25.5303 26.057 25.1827 25.9669L24.8737 20.3595C24.8737 20.3595 24.9123 20.3788 24.9316 20.3852C24.9767 20.3981 25.0217 20.3981 25.0732 20.3981C25.3565 20.3981 25.6076 20.205 25.6719 19.9217C25.8651 19.0719 26.4445 18.4217 27.1784 18.2286C27.8479 18.0483 28.4531 18.3187 28.569 18.3702C29.0518 18.6084 29.3222 18.9753 29.4381 19.1814C29.6119 19.4775 29.9853 19.5741 30.2814 19.4002C30.5776 19.2264 30.6742 18.853 30.5003 18.5569C30.3136 18.235 29.8823 17.6427 29.1033 17.2629C28.8458 17.1341 27.9188 16.7479 26.8501 17.0376C25.9552 17.2758 25.2149 17.9131 24.7835 18.7758L24.2299 8.75848L23.6118 8.17908H19.8714L19.2534 8.79711V10.7156H17.4573L16.8392 11.3336V12.9238H15.3778V11.3336L14.7598 10.7156H12.9636V8.79711L12.3456 8.17908H8.60521L7.98718 8.75848L7.0215 26.2501C7.0215 26.2501 7.0215 26.2694 7.0215 26.2823C6.40991 26.0441 5.72106 25.7737 4.41418 25.7737C4.07297 25.7737 3.79614 26.0505 3.79614 26.3917C3.79614 26.733 4.07297 27.0098 4.41418 27.0098C5.4893 27.0098 5.99145 27.2029 6.57085 27.4347C7.18245 27.6729 7.8713 27.9433 9.17818 27.9433C10.4851 27.9433 11.1739 27.6729 11.7855 27.4347C12.3649 27.2094 12.8671 27.0098 13.9422 27.0098C15.0173 27.0098 15.5195 27.2029 16.0989 27.4347C16.7105 27.6729 17.3993 27.9433 18.7062 27.9433C20.0131 27.9433 20.7019 27.6729 21.3135 27.4347C21.8929 27.2094 22.3951 27.0098 23.4702 27.0098C24.5453 27.0098 25.0475 27.2029 25.6333 27.4347C26.2449 27.6729 26.9338 27.9433 28.2407 27.9433C28.8136 27.9433 29.2643 27.8918 29.6441 27.8145V29.3338C29.6441 29.3338 29.6505 29.3853 29.657 29.4175C29.29 29.5141 28.8651 29.5849 28.2407 29.5849C27.1655 29.5849 26.6634 29.3918 26.084 29.16C25.4724 28.9218 24.7835 28.6514 23.4766 28.6514C22.1698 28.6514 21.4809 28.9218 20.8693 29.16C20.2899 29.3853 19.7878 29.5849 18.7126 29.5849C18.3714 29.5849 18.0946 29.8617 18.0946 30.203C18.0946 30.5442 18.3714 30.821 18.7126 30.821C20.0195 30.821 20.7084 30.5506 21.32 30.3124C21.8994 30.0871 22.4015 29.8875 23.4766 29.8875C24.5518 29.8875 25.0539 30.0806 25.6398 30.3124C26.2514 30.5506 26.9402 30.821 28.2471 30.821C29.554 30.821 30.2493 30.5506 30.8544 30.3124C31.4338 30.0871 31.936 29.8875 33.0111 29.8875C33.3523 29.8875 33.6291 29.6107 33.6291 29.2695C33.6291 28.9283 33.3523 28.6514 33.0111 28.6514C32.0261 28.6514 31.3888 28.8059 30.8737 28.9862V27.4282C31.4467 27.2029 31.9489 27.0162 33.0111 27.0162C33.3523 27.0162 33.6291 26.7394 33.6291 26.3982C33.6291 26.057 33.3523 25.7802 33.0111 25.7802C32.0261 25.7802 31.3888 25.9347 30.8737 26.1149V22.0269C31.1892 20.9196 32.1935 20.1406 33.1656 20.1985C34.2407 20.2629 34.8716 21.3058 34.8974 21.3509C35.0712 21.6406 35.451 21.7436 35.7407 21.5634C36.0304 21.3895 36.127 21.0097 35.9532 20.72C35.7922 20.4432 34.8909 19.0655 33.2364 18.9689L33.2493 18.956ZM20.8693 26.2823C20.2899 26.5076 19.7878 26.7072 18.7126 26.7072C17.6375 26.7072 17.1354 26.5141 16.556 26.2823C15.9444 26.0441 15.2555 25.7737 13.9486 25.7737C12.6417 25.7737 11.9529 26.0441 11.3413 26.2823C10.7619 26.5076 10.2597 26.7072 9.18462 26.7072C8.75972 26.7072 8.42495 26.675 8.14169 26.6235C8.19963 26.5334 8.25113 26.4368 8.25757 26.3209L9.19106 9.40871H11.734V11.3272L12.352 11.9452H14.1482V13.5354L14.7662 14.1534H17.4637L18.0817 13.5354V11.9452H19.8779L20.4959 11.3272V9.40871H23.0324L23.9337 25.7802C23.7921 25.7737 23.644 25.7673 23.4831 25.7673C22.1762 25.7673 21.4873 26.0377 20.8758 26.2759L20.8693 26.2823Z" fill="#614530"/>
<path d="M29.1676 19.5741C29.0453 19.5483 27.9509 19.3037 26.9981 19.9539C26.3478 20.3981 25.9487 21.1192 25.8199 22.1042C25.7749 22.4389 26.0131 22.7544 26.3478 22.7994C26.3736 22.7994 26.4058 22.7994 26.4315 22.7994C26.7341 22.7994 26.9981 22.5741 27.0431 22.2651C27.1268 21.6471 27.3457 21.2093 27.6869 20.9711C28.1891 20.6235 28.865 20.7651 28.8843 20.7651C29.2062 20.8423 29.541 20.6428 29.6247 20.308C29.702 19.9797 29.5024 19.6449 29.174 19.5612L29.1676 19.5741Z" fill="#614530"/>
<path d="M36.9317 17.5076C36.2879 16.2587 34.981 15.5312 33.6033 15.6599C32.3351 15.7758 31.2149 16.6256 30.7514 17.823C30.629 18.1385 30.7835 18.499 31.099 18.6213C31.1698 18.6471 31.2471 18.6664 31.3243 18.6664C31.569 18.6664 31.8007 18.5183 31.8973 18.2737C32.1999 17.5076 32.908 16.9604 33.7128 16.8896C34.5819 16.8059 35.4317 17.2887 35.8373 18.0741C35.9918 18.3767 36.3652 18.499 36.6677 18.3381C36.9703 18.1836 37.0862 17.8102 36.9317 17.5076Z" fill="#614530"/>
<path d="M26.1228 15.9689C26.1549 15.9303 26.9339 15.0805 28.0412 15.2736C28.8073 15.4088 29.4447 15.9882 29.67 16.7479C29.7473 17.0183 29.9919 17.1921 30.2623 17.1921C30.3202 17.1921 30.3782 17.1857 30.4361 17.1664C30.7644 17.0698 30.9511 16.7286 30.8546 16.4003C30.5005 15.1964 29.4769 14.2758 28.2601 14.0633C26.4446 13.7479 25.2472 15.1063 25.1957 15.1642C24.9704 15.4217 25.0026 15.808 25.2536 16.0333C25.5112 16.2586 25.8974 16.2329 26.1228 15.9754V15.9689Z" fill="#614530"/>
</svg>
