<svg width="25" height="24" viewBox="0 0 25 24" fill="none" xmlns="http://www.w3.org/2000/svg">
<path fill-rule="evenodd" clip-rule="evenodd" d="M12.5 3V3C17.471 3 21.5 7.029 21.5 12V12C21.5 16.971 17.471 21 12.5 21V21C7.529 21 3.5 16.971 3.5 12V12C3.5 7.029 7.529 3 12.5 3Z" stroke="#5D4632" stroke-width="1.5" stroke-linecap="round" stroke-linejoin="round"/>
<path d="M12.5 12.5V7.5" stroke="#5D4632" stroke-width="1.5" stroke-linecap="round" stroke-linejoin="round"/>
<path d="M12.499 16C12.361 16 12.249 16.112 12.25 16.25C12.25 16.388 12.362 16.5 12.5 16.5C12.638 16.5 12.75 16.388 12.75 16.25C12.75 16.112 12.638 16 12.499 16" stroke="#5D4632" stroke-width="1.5" stroke-linecap="round" stroke-linejoin="round"/>
</svg>
