<svg width="26" height="21" viewBox="0 0 26 21" fill="none" xmlns="http://www.w3.org/2000/svg">
<path d="M12.2852 20.125C13.0908 20.125 13.6816 19.5234 13.6816 18.7285V2.3252C13.6816 1.51953 13.0908 0.875 12.2637 0.875C11.7158 0.875 11.3291 1.11133 10.7383 1.66992L6.24805 5.87012C6.18359 5.93457 6.09766 5.9668 6.00098 5.9668H2.96094C1.37109 5.9668 0.511719 6.84766 0.511719 8.5127V12.5088C0.511719 14.1738 1.37109 15.0547 2.96094 15.0547H6.00098C6.09766 15.0547 6.17285 15.0869 6.24805 15.1514L10.7383 19.3838C11.2754 19.8994 11.7266 20.125 12.2852 20.125ZM21.835 18.1592C22.3291 18.46 22.9307 18.3525 23.2744 17.8477C24.6709 15.8711 25.4873 13.2178 25.4873 10.4893C25.4873 7.76074 24.6816 5.09668 23.2744 3.13086C22.9307 2.62598 22.3291 2.50781 21.835 2.81934C21.3193 3.1416 21.2441 3.78613 21.6309 4.35547C22.7695 6.03125 23.4248 8.21191 23.4248 10.4893C23.4248 12.7559 22.7588 14.9365 21.6309 16.623C21.2549 17.1924 21.3193 17.8262 21.835 18.1592ZM17.5166 15.2803C17.9785 15.5811 18.5801 15.4736 18.9131 15.001C19.7832 13.8408 20.2988 12.1973 20.2988 10.4893C20.2988 8.78125 19.7832 7.14844 18.9131 5.97754C18.5801 5.50488 17.9785 5.39746 17.5166 5.70898C16.9902 6.05273 16.8828 6.68652 17.3125 7.30957C17.9033 8.1582 18.2363 9.29688 18.2363 10.4893C18.2363 11.6816 17.8926 12.8096 17.3125 13.6689C16.8936 14.292 16.9902 14.9258 17.5166 15.2803Z" fill="#EBEBF5" fill-opacity="0.6"/>
</svg>
