<svg width="24" height="24" viewBox="0 0 24 24" fill="none" xmlns="http://www.w3.org/2000/svg">
<path d="M2.5542 7.5C2.5542 5.015 4.5692 3 7.0542 3C9.5392 3 11.5542 5.015 11.5542 7.5" stroke="#FCF9F4" stroke-width="1.5" stroke-linecap="round" stroke-linejoin="round"/>
<path fill-rule="evenodd" clip-rule="evenodd" d="M8.55419 12V7.5C8.55419 6.672 7.88219 6 7.05419 6C6.22619 6 5.55419 6.672 5.55419 7.5V15L4.65319 14.099C4.04619 13.492 3.06219 13.492 2.45519 14.099C1.93119 14.623 1.85019 15.444 2.26119 16.06L4.96019 20.109C5.33119 20.666 5.95619 21 6.62519 21H11.9132C12.9222 21 13.7722 20.249 13.8982 19.248L14.4402 14.911C14.5732 13.844 13.8392 12.862 12.7782 12.689L8.55419 12Z" stroke="#FCF9F4" stroke-width="1.5" stroke-linecap="round" stroke-linejoin="round"/>
<path d="M16.914 6.941L15 5.027L17.027 3" stroke="#FCF9F4" stroke-width="1.5" stroke-linecap="round" stroke-linejoin="round"/>
<path d="M15 5.03001L21 5.00001" stroke="#FCF9F4" stroke-width="1.5" stroke-linecap="round" stroke-linejoin="round"/>
</svg>
